%TF.GenerationSoftware,KiCad,Pcbnew,8.0.5*%
%TF.CreationDate,2025-12-29T14:40:48-06:00*%
%TF.ProjectId,FOC_DV,464f435f-4456-42e6-9b69-6361645f7063,rev?*%
%TF.SameCoordinates,Original*%
%TF.FileFunction,Legend,Top*%
%TF.FilePolarity,Positive*%
%FSLAX46Y46*%
G04 Gerber Fmt 4.6, Leading zero omitted, Abs format (unit mm)*
G04 Created by KiCad (PCBNEW 8.0.5) date 2025-12-29 14:40:48*
%MOMM*%
%LPD*%
G01*
G04 APERTURE LIST*
%ADD10C,0.100000*%
%ADD11C,0.150000*%
%ADD12C,0.200000*%
%ADD13C,0.120000*%
G04 APERTURE END LIST*
D10*
X164520038Y-64972306D02*
X164472419Y-65067544D01*
X164472419Y-65067544D02*
X164472419Y-65210401D01*
X164472419Y-65210401D02*
X164520038Y-65353258D01*
X164520038Y-65353258D02*
X164615276Y-65448496D01*
X164615276Y-65448496D02*
X164710514Y-65496115D01*
X164710514Y-65496115D02*
X164900990Y-65543734D01*
X164900990Y-65543734D02*
X165043847Y-65543734D01*
X165043847Y-65543734D02*
X165234323Y-65496115D01*
X165234323Y-65496115D02*
X165329561Y-65448496D01*
X165329561Y-65448496D02*
X165424800Y-65353258D01*
X165424800Y-65353258D02*
X165472419Y-65210401D01*
X165472419Y-65210401D02*
X165472419Y-65115163D01*
X165472419Y-65115163D02*
X165424800Y-64972306D01*
X165424800Y-64972306D02*
X165377180Y-64924687D01*
X165377180Y-64924687D02*
X165043847Y-64924687D01*
X165043847Y-64924687D02*
X165043847Y-65115163D01*
X164805752Y-64496115D02*
X165472419Y-64496115D01*
X164900990Y-64496115D02*
X164853371Y-64448496D01*
X164853371Y-64448496D02*
X164805752Y-64353258D01*
X164805752Y-64353258D02*
X164805752Y-64210401D01*
X164805752Y-64210401D02*
X164853371Y-64115163D01*
X164853371Y-64115163D02*
X164948609Y-64067544D01*
X164948609Y-64067544D02*
X165472419Y-64067544D01*
X165472419Y-63162782D02*
X164472419Y-63162782D01*
X165424800Y-63162782D02*
X165472419Y-63258020D01*
X165472419Y-63258020D02*
X165472419Y-63448496D01*
X165472419Y-63448496D02*
X165424800Y-63543734D01*
X165424800Y-63543734D02*
X165377180Y-63591353D01*
X165377180Y-63591353D02*
X165281942Y-63638972D01*
X165281942Y-63638972D02*
X164996228Y-63638972D01*
X164996228Y-63638972D02*
X164900990Y-63591353D01*
X164900990Y-63591353D02*
X164853371Y-63543734D01*
X164853371Y-63543734D02*
X164805752Y-63448496D01*
X164805752Y-63448496D02*
X164805752Y-63258020D01*
X164805752Y-63258020D02*
X164853371Y-63162782D01*
X164672419Y-71638972D02*
X165672419Y-71305639D01*
X165672419Y-71305639D02*
X164672419Y-70972306D01*
X165624800Y-70210401D02*
X165672419Y-70305639D01*
X165672419Y-70305639D02*
X165672419Y-70496115D01*
X165672419Y-70496115D02*
X165624800Y-70591353D01*
X165624800Y-70591353D02*
X165577180Y-70638972D01*
X165577180Y-70638972D02*
X165481942Y-70686591D01*
X165481942Y-70686591D02*
X165196228Y-70686591D01*
X165196228Y-70686591D02*
X165100990Y-70638972D01*
X165100990Y-70638972D02*
X165053371Y-70591353D01*
X165053371Y-70591353D02*
X165005752Y-70496115D01*
X165005752Y-70496115D02*
X165005752Y-70305639D01*
X165005752Y-70305639D02*
X165053371Y-70210401D01*
X165624800Y-69353258D02*
X165672419Y-69448496D01*
X165672419Y-69448496D02*
X165672419Y-69638972D01*
X165672419Y-69638972D02*
X165624800Y-69734210D01*
X165624800Y-69734210D02*
X165577180Y-69781829D01*
X165577180Y-69781829D02*
X165481942Y-69829448D01*
X165481942Y-69829448D02*
X165196228Y-69829448D01*
X165196228Y-69829448D02*
X165100990Y-69781829D01*
X165100990Y-69781829D02*
X165053371Y-69734210D01*
X165053371Y-69734210D02*
X165005752Y-69638972D01*
X165005752Y-69638972D02*
X165005752Y-69448496D01*
X165005752Y-69448496D02*
X165053371Y-69353258D01*
X131424800Y-78743734D02*
X131472419Y-78600877D01*
X131472419Y-78600877D02*
X131472419Y-78362782D01*
X131472419Y-78362782D02*
X131424800Y-78267544D01*
X131424800Y-78267544D02*
X131377180Y-78219925D01*
X131377180Y-78219925D02*
X131281942Y-78172306D01*
X131281942Y-78172306D02*
X131186704Y-78172306D01*
X131186704Y-78172306D02*
X131091466Y-78219925D01*
X131091466Y-78219925D02*
X131043847Y-78267544D01*
X131043847Y-78267544D02*
X130996228Y-78362782D01*
X130996228Y-78362782D02*
X130948609Y-78553258D01*
X130948609Y-78553258D02*
X130900990Y-78648496D01*
X130900990Y-78648496D02*
X130853371Y-78696115D01*
X130853371Y-78696115D02*
X130758133Y-78743734D01*
X130758133Y-78743734D02*
X130662895Y-78743734D01*
X130662895Y-78743734D02*
X130567657Y-78696115D01*
X130567657Y-78696115D02*
X130520038Y-78648496D01*
X130520038Y-78648496D02*
X130472419Y-78553258D01*
X130472419Y-78553258D02*
X130472419Y-78315163D01*
X130472419Y-78315163D02*
X130520038Y-78172306D01*
X131472419Y-77743734D02*
X130805752Y-77743734D01*
X130472419Y-77743734D02*
X130520038Y-77791353D01*
X130520038Y-77791353D02*
X130567657Y-77743734D01*
X130567657Y-77743734D02*
X130520038Y-77696115D01*
X130520038Y-77696115D02*
X130472419Y-77743734D01*
X130472419Y-77743734D02*
X130567657Y-77743734D01*
X131472419Y-77267544D02*
X130805752Y-77267544D01*
X130900990Y-77267544D02*
X130853371Y-77219925D01*
X130853371Y-77219925D02*
X130805752Y-77124687D01*
X130805752Y-77124687D02*
X130805752Y-76981830D01*
X130805752Y-76981830D02*
X130853371Y-76886592D01*
X130853371Y-76886592D02*
X130948609Y-76838973D01*
X130948609Y-76838973D02*
X131472419Y-76838973D01*
X130948609Y-76838973D02*
X130853371Y-76791354D01*
X130853371Y-76791354D02*
X130805752Y-76696116D01*
X130805752Y-76696116D02*
X130805752Y-76553259D01*
X130805752Y-76553259D02*
X130853371Y-76458020D01*
X130853371Y-76458020D02*
X130948609Y-76410401D01*
X130948609Y-76410401D02*
X131472419Y-76410401D01*
X130805752Y-75934211D02*
X131805752Y-75934211D01*
X130853371Y-75934211D02*
X130805752Y-75838973D01*
X130805752Y-75838973D02*
X130805752Y-75648497D01*
X130805752Y-75648497D02*
X130853371Y-75553259D01*
X130853371Y-75553259D02*
X130900990Y-75505640D01*
X130900990Y-75505640D02*
X130996228Y-75458021D01*
X130996228Y-75458021D02*
X131281942Y-75458021D01*
X131281942Y-75458021D02*
X131377180Y-75505640D01*
X131377180Y-75505640D02*
X131424800Y-75553259D01*
X131424800Y-75553259D02*
X131472419Y-75648497D01*
X131472419Y-75648497D02*
X131472419Y-75838973D01*
X131472419Y-75838973D02*
X131424800Y-75934211D01*
X131472419Y-74886592D02*
X131424800Y-74981830D01*
X131424800Y-74981830D02*
X131329561Y-75029449D01*
X131329561Y-75029449D02*
X130472419Y-75029449D01*
X131424800Y-74124687D02*
X131472419Y-74219925D01*
X131472419Y-74219925D02*
X131472419Y-74410401D01*
X131472419Y-74410401D02*
X131424800Y-74505639D01*
X131424800Y-74505639D02*
X131329561Y-74553258D01*
X131329561Y-74553258D02*
X130948609Y-74553258D01*
X130948609Y-74553258D02*
X130853371Y-74505639D01*
X130853371Y-74505639D02*
X130805752Y-74410401D01*
X130805752Y-74410401D02*
X130805752Y-74219925D01*
X130805752Y-74219925D02*
X130853371Y-74124687D01*
X130853371Y-74124687D02*
X130948609Y-74077068D01*
X130948609Y-74077068D02*
X131043847Y-74077068D01*
X131043847Y-74077068D02*
X131139085Y-74553258D01*
X131472419Y-73648496D02*
X130472419Y-73648496D01*
X130472419Y-73648496D02*
X130472419Y-73410401D01*
X130472419Y-73410401D02*
X130520038Y-73267544D01*
X130520038Y-73267544D02*
X130615276Y-73172306D01*
X130615276Y-73172306D02*
X130710514Y-73124687D01*
X130710514Y-73124687D02*
X130900990Y-73077068D01*
X130900990Y-73077068D02*
X131043847Y-73077068D01*
X131043847Y-73077068D02*
X131234323Y-73124687D01*
X131234323Y-73124687D02*
X131329561Y-73172306D01*
X131329561Y-73172306D02*
X131424800Y-73267544D01*
X131424800Y-73267544D02*
X131472419Y-73410401D01*
X131472419Y-73410401D02*
X131472419Y-73648496D01*
X131472419Y-72219925D02*
X130948609Y-72219925D01*
X130948609Y-72219925D02*
X130853371Y-72267544D01*
X130853371Y-72267544D02*
X130805752Y-72362782D01*
X130805752Y-72362782D02*
X130805752Y-72553258D01*
X130805752Y-72553258D02*
X130853371Y-72648496D01*
X131424800Y-72219925D02*
X131472419Y-72315163D01*
X131472419Y-72315163D02*
X131472419Y-72553258D01*
X131472419Y-72553258D02*
X131424800Y-72648496D01*
X131424800Y-72648496D02*
X131329561Y-72696115D01*
X131329561Y-72696115D02*
X131234323Y-72696115D01*
X131234323Y-72696115D02*
X131139085Y-72648496D01*
X131139085Y-72648496D02*
X131091466Y-72553258D01*
X131091466Y-72553258D02*
X131091466Y-72315163D01*
X131091466Y-72315163D02*
X131043847Y-72219925D01*
X131424800Y-71362782D02*
X131472419Y-71458020D01*
X131472419Y-71458020D02*
X131472419Y-71648496D01*
X131472419Y-71648496D02*
X131424800Y-71743734D01*
X131424800Y-71743734D02*
X131329561Y-71791353D01*
X131329561Y-71791353D02*
X130948609Y-71791353D01*
X130948609Y-71791353D02*
X130853371Y-71743734D01*
X130853371Y-71743734D02*
X130805752Y-71648496D01*
X130805752Y-71648496D02*
X130805752Y-71458020D01*
X130805752Y-71458020D02*
X130853371Y-71362782D01*
X130853371Y-71362782D02*
X130948609Y-71315163D01*
X130948609Y-71315163D02*
X131043847Y-71315163D01*
X131043847Y-71315163D02*
X131139085Y-71791353D01*
X131472419Y-70458020D02*
X130472419Y-70458020D01*
X131424800Y-70458020D02*
X131472419Y-70553258D01*
X131472419Y-70553258D02*
X131472419Y-70743734D01*
X131472419Y-70743734D02*
X131424800Y-70838972D01*
X131424800Y-70838972D02*
X131377180Y-70886591D01*
X131377180Y-70886591D02*
X131281942Y-70934210D01*
X131281942Y-70934210D02*
X130996228Y-70934210D01*
X130996228Y-70934210D02*
X130900990Y-70886591D01*
X130900990Y-70886591D02*
X130853371Y-70838972D01*
X130853371Y-70838972D02*
X130805752Y-70743734D01*
X130805752Y-70743734D02*
X130805752Y-70553258D01*
X130805752Y-70553258D02*
X130853371Y-70458020D01*
X130805752Y-69553258D02*
X131472419Y-69553258D01*
X130805752Y-69981829D02*
X131329561Y-69981829D01*
X131329561Y-69981829D02*
X131424800Y-69934210D01*
X131424800Y-69934210D02*
X131472419Y-69838972D01*
X131472419Y-69838972D02*
X131472419Y-69696115D01*
X131472419Y-69696115D02*
X131424800Y-69600877D01*
X131424800Y-69600877D02*
X131377180Y-69553258D01*
X131472419Y-68934210D02*
X131424800Y-69029448D01*
X131424800Y-69029448D02*
X131329561Y-69077067D01*
X131329561Y-69077067D02*
X130472419Y-69077067D01*
X130805752Y-68124686D02*
X131472419Y-68124686D01*
X130805752Y-68553257D02*
X131329561Y-68553257D01*
X131329561Y-68553257D02*
X131424800Y-68505638D01*
X131424800Y-68505638D02*
X131472419Y-68410400D01*
X131472419Y-68410400D02*
X131472419Y-68267543D01*
X131472419Y-68267543D02*
X131424800Y-68172305D01*
X131424800Y-68172305D02*
X131377180Y-68124686D01*
X131424800Y-67696114D02*
X131472419Y-67600876D01*
X131472419Y-67600876D02*
X131472419Y-67410400D01*
X131472419Y-67410400D02*
X131424800Y-67315162D01*
X131424800Y-67315162D02*
X131329561Y-67267543D01*
X131329561Y-67267543D02*
X131281942Y-67267543D01*
X131281942Y-67267543D02*
X131186704Y-67315162D01*
X131186704Y-67315162D02*
X131139085Y-67410400D01*
X131139085Y-67410400D02*
X131139085Y-67553257D01*
X131139085Y-67553257D02*
X131091466Y-67648495D01*
X131091466Y-67648495D02*
X130996228Y-67696114D01*
X130996228Y-67696114D02*
X130948609Y-67696114D01*
X130948609Y-67696114D02*
X130853371Y-67648495D01*
X130853371Y-67648495D02*
X130805752Y-67553257D01*
X130805752Y-67553257D02*
X130805752Y-67410400D01*
X130805752Y-67410400D02*
X130853371Y-67315162D01*
X140503884Y-58072419D02*
X140503884Y-57072419D01*
X140980074Y-57405752D02*
X140980074Y-58072419D01*
X140980074Y-57500990D02*
X141027693Y-57453371D01*
X141027693Y-57453371D02*
X141122931Y-57405752D01*
X141122931Y-57405752D02*
X141265788Y-57405752D01*
X141265788Y-57405752D02*
X141361026Y-57453371D01*
X141361026Y-57453371D02*
X141408645Y-57548609D01*
X141408645Y-57548609D02*
X141408645Y-58072419D01*
X141741979Y-57405752D02*
X142122931Y-57405752D01*
X141884836Y-57072419D02*
X141884836Y-57929561D01*
X141884836Y-57929561D02*
X141932455Y-58024800D01*
X141932455Y-58024800D02*
X142027693Y-58072419D01*
X142027693Y-58072419D02*
X142122931Y-58072419D01*
X142837217Y-58024800D02*
X142741979Y-58072419D01*
X142741979Y-58072419D02*
X142551503Y-58072419D01*
X142551503Y-58072419D02*
X142456265Y-58024800D01*
X142456265Y-58024800D02*
X142408646Y-57929561D01*
X142408646Y-57929561D02*
X142408646Y-57548609D01*
X142408646Y-57548609D02*
X142456265Y-57453371D01*
X142456265Y-57453371D02*
X142551503Y-57405752D01*
X142551503Y-57405752D02*
X142741979Y-57405752D01*
X142741979Y-57405752D02*
X142837217Y-57453371D01*
X142837217Y-57453371D02*
X142884836Y-57548609D01*
X142884836Y-57548609D02*
X142884836Y-57643847D01*
X142884836Y-57643847D02*
X142408646Y-57739085D01*
X143313408Y-58072419D02*
X143313408Y-57405752D01*
X143313408Y-57596228D02*
X143361027Y-57500990D01*
X143361027Y-57500990D02*
X143408646Y-57453371D01*
X143408646Y-57453371D02*
X143503884Y-57405752D01*
X143503884Y-57405752D02*
X143599122Y-57405752D01*
X143789599Y-57405752D02*
X144170551Y-57405752D01*
X143932456Y-58072419D02*
X143932456Y-57215276D01*
X143932456Y-57215276D02*
X143980075Y-57120038D01*
X143980075Y-57120038D02*
X144075313Y-57072419D01*
X144075313Y-57072419D02*
X144170551Y-57072419D01*
X144932456Y-58072419D02*
X144932456Y-57548609D01*
X144932456Y-57548609D02*
X144884837Y-57453371D01*
X144884837Y-57453371D02*
X144789599Y-57405752D01*
X144789599Y-57405752D02*
X144599123Y-57405752D01*
X144599123Y-57405752D02*
X144503885Y-57453371D01*
X144932456Y-58024800D02*
X144837218Y-58072419D01*
X144837218Y-58072419D02*
X144599123Y-58072419D01*
X144599123Y-58072419D02*
X144503885Y-58024800D01*
X144503885Y-58024800D02*
X144456266Y-57929561D01*
X144456266Y-57929561D02*
X144456266Y-57834323D01*
X144456266Y-57834323D02*
X144503885Y-57739085D01*
X144503885Y-57739085D02*
X144599123Y-57691466D01*
X144599123Y-57691466D02*
X144837218Y-57691466D01*
X144837218Y-57691466D02*
X144932456Y-57643847D01*
X145837218Y-58024800D02*
X145741980Y-58072419D01*
X145741980Y-58072419D02*
X145551504Y-58072419D01*
X145551504Y-58072419D02*
X145456266Y-58024800D01*
X145456266Y-58024800D02*
X145408647Y-57977180D01*
X145408647Y-57977180D02*
X145361028Y-57881942D01*
X145361028Y-57881942D02*
X145361028Y-57596228D01*
X145361028Y-57596228D02*
X145408647Y-57500990D01*
X145408647Y-57500990D02*
X145456266Y-57453371D01*
X145456266Y-57453371D02*
X145551504Y-57405752D01*
X145551504Y-57405752D02*
X145741980Y-57405752D01*
X145741980Y-57405752D02*
X145837218Y-57453371D01*
X146646742Y-58024800D02*
X146551504Y-58072419D01*
X146551504Y-58072419D02*
X146361028Y-58072419D01*
X146361028Y-58072419D02*
X146265790Y-58024800D01*
X146265790Y-58024800D02*
X146218171Y-57929561D01*
X146218171Y-57929561D02*
X146218171Y-57548609D01*
X146218171Y-57548609D02*
X146265790Y-57453371D01*
X146265790Y-57453371D02*
X146361028Y-57405752D01*
X146361028Y-57405752D02*
X146551504Y-57405752D01*
X146551504Y-57405752D02*
X146646742Y-57453371D01*
X146646742Y-57453371D02*
X146694361Y-57548609D01*
X146694361Y-57548609D02*
X146694361Y-57643847D01*
X146694361Y-57643847D02*
X146218171Y-57739085D01*
X145703884Y-96805752D02*
X145703884Y-97805752D01*
X145703884Y-96853371D02*
X145799122Y-96805752D01*
X145799122Y-96805752D02*
X145989598Y-96805752D01*
X145989598Y-96805752D02*
X146084836Y-96853371D01*
X146084836Y-96853371D02*
X146132455Y-96900990D01*
X146132455Y-96900990D02*
X146180074Y-96996228D01*
X146180074Y-96996228D02*
X146180074Y-97281942D01*
X146180074Y-97281942D02*
X146132455Y-97377180D01*
X146132455Y-97377180D02*
X146084836Y-97424800D01*
X146084836Y-97424800D02*
X145989598Y-97472419D01*
X145989598Y-97472419D02*
X145799122Y-97472419D01*
X145799122Y-97472419D02*
X145703884Y-97424800D01*
X146608646Y-97472419D02*
X146608646Y-96472419D01*
X147037217Y-97472419D02*
X147037217Y-96948609D01*
X147037217Y-96948609D02*
X146989598Y-96853371D01*
X146989598Y-96853371D02*
X146894360Y-96805752D01*
X146894360Y-96805752D02*
X146751503Y-96805752D01*
X146751503Y-96805752D02*
X146656265Y-96853371D01*
X146656265Y-96853371D02*
X146608646Y-96900990D01*
X147941979Y-97472419D02*
X147941979Y-96948609D01*
X147941979Y-96948609D02*
X147894360Y-96853371D01*
X147894360Y-96853371D02*
X147799122Y-96805752D01*
X147799122Y-96805752D02*
X147608646Y-96805752D01*
X147608646Y-96805752D02*
X147513408Y-96853371D01*
X147941979Y-97424800D02*
X147846741Y-97472419D01*
X147846741Y-97472419D02*
X147608646Y-97472419D01*
X147608646Y-97472419D02*
X147513408Y-97424800D01*
X147513408Y-97424800D02*
X147465789Y-97329561D01*
X147465789Y-97329561D02*
X147465789Y-97234323D01*
X147465789Y-97234323D02*
X147513408Y-97139085D01*
X147513408Y-97139085D02*
X147608646Y-97091466D01*
X147608646Y-97091466D02*
X147846741Y-97091466D01*
X147846741Y-97091466D02*
X147941979Y-97043847D01*
X148370551Y-97424800D02*
X148465789Y-97472419D01*
X148465789Y-97472419D02*
X148656265Y-97472419D01*
X148656265Y-97472419D02*
X148751503Y-97424800D01*
X148751503Y-97424800D02*
X148799122Y-97329561D01*
X148799122Y-97329561D02*
X148799122Y-97281942D01*
X148799122Y-97281942D02*
X148751503Y-97186704D01*
X148751503Y-97186704D02*
X148656265Y-97139085D01*
X148656265Y-97139085D02*
X148513408Y-97139085D01*
X148513408Y-97139085D02*
X148418170Y-97091466D01*
X148418170Y-97091466D02*
X148370551Y-96996228D01*
X148370551Y-96996228D02*
X148370551Y-96948609D01*
X148370551Y-96948609D02*
X148418170Y-96853371D01*
X148418170Y-96853371D02*
X148513408Y-96805752D01*
X148513408Y-96805752D02*
X148656265Y-96805752D01*
X148656265Y-96805752D02*
X148751503Y-96853371D01*
X149608646Y-97424800D02*
X149513408Y-97472419D01*
X149513408Y-97472419D02*
X149322932Y-97472419D01*
X149322932Y-97472419D02*
X149227694Y-97424800D01*
X149227694Y-97424800D02*
X149180075Y-97329561D01*
X149180075Y-97329561D02*
X149180075Y-96948609D01*
X149180075Y-96948609D02*
X149227694Y-96853371D01*
X149227694Y-96853371D02*
X149322932Y-96805752D01*
X149322932Y-96805752D02*
X149513408Y-96805752D01*
X149513408Y-96805752D02*
X149608646Y-96853371D01*
X149608646Y-96853371D02*
X149656265Y-96948609D01*
X149656265Y-96948609D02*
X149656265Y-97043847D01*
X149656265Y-97043847D02*
X149180075Y-97139085D01*
X134577180Y-78524687D02*
X134624800Y-78572306D01*
X134624800Y-78572306D02*
X134672419Y-78715163D01*
X134672419Y-78715163D02*
X134672419Y-78810401D01*
X134672419Y-78810401D02*
X134624800Y-78953258D01*
X134624800Y-78953258D02*
X134529561Y-79048496D01*
X134529561Y-79048496D02*
X134434323Y-79096115D01*
X134434323Y-79096115D02*
X134243847Y-79143734D01*
X134243847Y-79143734D02*
X134100990Y-79143734D01*
X134100990Y-79143734D02*
X133910514Y-79096115D01*
X133910514Y-79096115D02*
X133815276Y-79048496D01*
X133815276Y-79048496D02*
X133720038Y-78953258D01*
X133720038Y-78953258D02*
X133672419Y-78810401D01*
X133672419Y-78810401D02*
X133672419Y-78715163D01*
X133672419Y-78715163D02*
X133720038Y-78572306D01*
X133720038Y-78572306D02*
X133767657Y-78524687D01*
X134005752Y-77667544D02*
X134672419Y-77667544D01*
X134005752Y-78096115D02*
X134529561Y-78096115D01*
X134529561Y-78096115D02*
X134624800Y-78048496D01*
X134624800Y-78048496D02*
X134672419Y-77953258D01*
X134672419Y-77953258D02*
X134672419Y-77810401D01*
X134672419Y-77810401D02*
X134624800Y-77715163D01*
X134624800Y-77715163D02*
X134577180Y-77667544D01*
X134672419Y-77191353D02*
X134005752Y-77191353D01*
X134196228Y-77191353D02*
X134100990Y-77143734D01*
X134100990Y-77143734D02*
X134053371Y-77096115D01*
X134053371Y-77096115D02*
X134005752Y-77000877D01*
X134005752Y-77000877D02*
X134005752Y-76905639D01*
X134672419Y-76572305D02*
X134005752Y-76572305D01*
X134196228Y-76572305D02*
X134100990Y-76524686D01*
X134100990Y-76524686D02*
X134053371Y-76477067D01*
X134053371Y-76477067D02*
X134005752Y-76381829D01*
X134005752Y-76381829D02*
X134005752Y-76286591D01*
X134624800Y-75572305D02*
X134672419Y-75667543D01*
X134672419Y-75667543D02*
X134672419Y-75858019D01*
X134672419Y-75858019D02*
X134624800Y-75953257D01*
X134624800Y-75953257D02*
X134529561Y-76000876D01*
X134529561Y-76000876D02*
X134148609Y-76000876D01*
X134148609Y-76000876D02*
X134053371Y-75953257D01*
X134053371Y-75953257D02*
X134005752Y-75858019D01*
X134005752Y-75858019D02*
X134005752Y-75667543D01*
X134005752Y-75667543D02*
X134053371Y-75572305D01*
X134053371Y-75572305D02*
X134148609Y-75524686D01*
X134148609Y-75524686D02*
X134243847Y-75524686D01*
X134243847Y-75524686D02*
X134339085Y-76000876D01*
X134005752Y-75096114D02*
X134672419Y-75096114D01*
X134100990Y-75096114D02*
X134053371Y-75048495D01*
X134053371Y-75048495D02*
X134005752Y-74953257D01*
X134005752Y-74953257D02*
X134005752Y-74810400D01*
X134005752Y-74810400D02*
X134053371Y-74715162D01*
X134053371Y-74715162D02*
X134148609Y-74667543D01*
X134148609Y-74667543D02*
X134672419Y-74667543D01*
X134005752Y-74334209D02*
X134005752Y-73953257D01*
X133672419Y-74191352D02*
X134529561Y-74191352D01*
X134529561Y-74191352D02*
X134624800Y-74143733D01*
X134624800Y-74143733D02*
X134672419Y-74048495D01*
X134672419Y-74048495D02*
X134672419Y-73953257D01*
X134624800Y-72905637D02*
X134672419Y-72762780D01*
X134672419Y-72762780D02*
X134672419Y-72524685D01*
X134672419Y-72524685D02*
X134624800Y-72429447D01*
X134624800Y-72429447D02*
X134577180Y-72381828D01*
X134577180Y-72381828D02*
X134481942Y-72334209D01*
X134481942Y-72334209D02*
X134386704Y-72334209D01*
X134386704Y-72334209D02*
X134291466Y-72381828D01*
X134291466Y-72381828D02*
X134243847Y-72429447D01*
X134243847Y-72429447D02*
X134196228Y-72524685D01*
X134196228Y-72524685D02*
X134148609Y-72715161D01*
X134148609Y-72715161D02*
X134100990Y-72810399D01*
X134100990Y-72810399D02*
X134053371Y-72858018D01*
X134053371Y-72858018D02*
X133958133Y-72905637D01*
X133958133Y-72905637D02*
X133862895Y-72905637D01*
X133862895Y-72905637D02*
X133767657Y-72858018D01*
X133767657Y-72858018D02*
X133720038Y-72810399D01*
X133720038Y-72810399D02*
X133672419Y-72715161D01*
X133672419Y-72715161D02*
X133672419Y-72477066D01*
X133672419Y-72477066D02*
X133720038Y-72334209D01*
X134624800Y-71524685D02*
X134672419Y-71619923D01*
X134672419Y-71619923D02*
X134672419Y-71810399D01*
X134672419Y-71810399D02*
X134624800Y-71905637D01*
X134624800Y-71905637D02*
X134529561Y-71953256D01*
X134529561Y-71953256D02*
X134148609Y-71953256D01*
X134148609Y-71953256D02*
X134053371Y-71905637D01*
X134053371Y-71905637D02*
X134005752Y-71810399D01*
X134005752Y-71810399D02*
X134005752Y-71619923D01*
X134005752Y-71619923D02*
X134053371Y-71524685D01*
X134053371Y-71524685D02*
X134148609Y-71477066D01*
X134148609Y-71477066D02*
X134243847Y-71477066D01*
X134243847Y-71477066D02*
X134339085Y-71953256D01*
X134005752Y-71048494D02*
X134672419Y-71048494D01*
X134100990Y-71048494D02*
X134053371Y-71000875D01*
X134053371Y-71000875D02*
X134005752Y-70905637D01*
X134005752Y-70905637D02*
X134005752Y-70762780D01*
X134005752Y-70762780D02*
X134053371Y-70667542D01*
X134053371Y-70667542D02*
X134148609Y-70619923D01*
X134148609Y-70619923D02*
X134672419Y-70619923D01*
X134624800Y-70191351D02*
X134672419Y-70096113D01*
X134672419Y-70096113D02*
X134672419Y-69905637D01*
X134672419Y-69905637D02*
X134624800Y-69810399D01*
X134624800Y-69810399D02*
X134529561Y-69762780D01*
X134529561Y-69762780D02*
X134481942Y-69762780D01*
X134481942Y-69762780D02*
X134386704Y-69810399D01*
X134386704Y-69810399D02*
X134339085Y-69905637D01*
X134339085Y-69905637D02*
X134339085Y-70048494D01*
X134339085Y-70048494D02*
X134291466Y-70143732D01*
X134291466Y-70143732D02*
X134196228Y-70191351D01*
X134196228Y-70191351D02*
X134148609Y-70191351D01*
X134148609Y-70191351D02*
X134053371Y-70143732D01*
X134053371Y-70143732D02*
X134005752Y-70048494D01*
X134005752Y-70048494D02*
X134005752Y-69905637D01*
X134005752Y-69905637D02*
X134053371Y-69810399D01*
X134672419Y-69191351D02*
X134624800Y-69286589D01*
X134624800Y-69286589D02*
X134577180Y-69334208D01*
X134577180Y-69334208D02*
X134481942Y-69381827D01*
X134481942Y-69381827D02*
X134196228Y-69381827D01*
X134196228Y-69381827D02*
X134100990Y-69334208D01*
X134100990Y-69334208D02*
X134053371Y-69286589D01*
X134053371Y-69286589D02*
X134005752Y-69191351D01*
X134005752Y-69191351D02*
X134005752Y-69048494D01*
X134005752Y-69048494D02*
X134053371Y-68953256D01*
X134053371Y-68953256D02*
X134100990Y-68905637D01*
X134100990Y-68905637D02*
X134196228Y-68858018D01*
X134196228Y-68858018D02*
X134481942Y-68858018D01*
X134481942Y-68858018D02*
X134577180Y-68905637D01*
X134577180Y-68905637D02*
X134624800Y-68953256D01*
X134624800Y-68953256D02*
X134672419Y-69048494D01*
X134672419Y-69048494D02*
X134672419Y-69191351D01*
X134672419Y-68429446D02*
X134005752Y-68429446D01*
X134196228Y-68429446D02*
X134100990Y-68381827D01*
X134100990Y-68381827D02*
X134053371Y-68334208D01*
X134053371Y-68334208D02*
X134005752Y-68238970D01*
X134005752Y-68238970D02*
X134005752Y-68143732D01*
X134624800Y-67858017D02*
X134672419Y-67762779D01*
X134672419Y-67762779D02*
X134672419Y-67572303D01*
X134672419Y-67572303D02*
X134624800Y-67477065D01*
X134624800Y-67477065D02*
X134529561Y-67429446D01*
X134529561Y-67429446D02*
X134481942Y-67429446D01*
X134481942Y-67429446D02*
X134386704Y-67477065D01*
X134386704Y-67477065D02*
X134339085Y-67572303D01*
X134339085Y-67572303D02*
X134339085Y-67715160D01*
X134339085Y-67715160D02*
X134291466Y-67810398D01*
X134291466Y-67810398D02*
X134196228Y-67858017D01*
X134196228Y-67858017D02*
X134148609Y-67858017D01*
X134148609Y-67858017D02*
X134053371Y-67810398D01*
X134053371Y-67810398D02*
X134005752Y-67715160D01*
X134005752Y-67715160D02*
X134005752Y-67572303D01*
X134005752Y-67572303D02*
X134053371Y-67477065D01*
D11*
X156388095Y-54704819D02*
X156388095Y-53704819D01*
X156388095Y-54181009D02*
X156959523Y-54181009D01*
X156959523Y-54704819D02*
X156959523Y-53704819D01*
X157864285Y-54038152D02*
X157864285Y-54704819D01*
X157626190Y-53657200D02*
X157388095Y-54371485D01*
X157388095Y-54371485D02*
X158007142Y-54371485D01*
X133738095Y-95254819D02*
X133738095Y-94254819D01*
X133738095Y-94731009D02*
X134309523Y-94731009D01*
X134309523Y-95254819D02*
X134309523Y-94254819D01*
X134690476Y-94254819D02*
X135309523Y-94254819D01*
X135309523Y-94254819D02*
X134976190Y-94635771D01*
X134976190Y-94635771D02*
X135119047Y-94635771D01*
X135119047Y-94635771D02*
X135214285Y-94683390D01*
X135214285Y-94683390D02*
X135261904Y-94731009D01*
X135261904Y-94731009D02*
X135309523Y-94826247D01*
X135309523Y-94826247D02*
X135309523Y-95064342D01*
X135309523Y-95064342D02*
X135261904Y-95159580D01*
X135261904Y-95159580D02*
X135214285Y-95207200D01*
X135214285Y-95207200D02*
X135119047Y-95254819D01*
X135119047Y-95254819D02*
X134833333Y-95254819D01*
X134833333Y-95254819D02*
X134738095Y-95207200D01*
X134738095Y-95207200D02*
X134690476Y-95159580D01*
X138748095Y-54474819D02*
X138748095Y-53474819D01*
X138748095Y-53951009D02*
X139319523Y-53951009D01*
X139319523Y-54474819D02*
X139319523Y-53474819D01*
X139748095Y-53570057D02*
X139795714Y-53522438D01*
X139795714Y-53522438D02*
X139890952Y-53474819D01*
X139890952Y-53474819D02*
X140129047Y-53474819D01*
X140129047Y-53474819D02*
X140224285Y-53522438D01*
X140224285Y-53522438D02*
X140271904Y-53570057D01*
X140271904Y-53570057D02*
X140319523Y-53665295D01*
X140319523Y-53665295D02*
X140319523Y-53760533D01*
X140319523Y-53760533D02*
X140271904Y-53903390D01*
X140271904Y-53903390D02*
X139700476Y-54474819D01*
X139700476Y-54474819D02*
X140319523Y-54474819D01*
X161488095Y-95254819D02*
X161488095Y-94254819D01*
X161488095Y-94731009D02*
X162059523Y-94731009D01*
X162059523Y-95254819D02*
X162059523Y-94254819D01*
X163059523Y-95254819D02*
X162488095Y-95254819D01*
X162773809Y-95254819D02*
X162773809Y-94254819D01*
X162773809Y-94254819D02*
X162678571Y-94397676D01*
X162678571Y-94397676D02*
X162583333Y-94492914D01*
X162583333Y-94492914D02*
X162488095Y-94540533D01*
X147504819Y-73261904D02*
X148314342Y-73261904D01*
X148314342Y-73261904D02*
X148409580Y-73214285D01*
X148409580Y-73214285D02*
X148457200Y-73166666D01*
X148457200Y-73166666D02*
X148504819Y-73071428D01*
X148504819Y-73071428D02*
X148504819Y-72880952D01*
X148504819Y-72880952D02*
X148457200Y-72785714D01*
X148457200Y-72785714D02*
X148409580Y-72738095D01*
X148409580Y-72738095D02*
X148314342Y-72690476D01*
X148314342Y-72690476D02*
X147504819Y-72690476D01*
X148504819Y-71690476D02*
X148504819Y-72261904D01*
X148504819Y-71976190D02*
X147504819Y-71976190D01*
X147504819Y-71976190D02*
X147647676Y-72071428D01*
X147647676Y-72071428D02*
X147742914Y-72166666D01*
X147742914Y-72166666D02*
X147790533Y-72261904D01*
X139204819Y-68916666D02*
X138728628Y-69249999D01*
X139204819Y-69488094D02*
X138204819Y-69488094D01*
X138204819Y-69488094D02*
X138204819Y-69107142D01*
X138204819Y-69107142D02*
X138252438Y-69011904D01*
X138252438Y-69011904D02*
X138300057Y-68964285D01*
X138300057Y-68964285D02*
X138395295Y-68916666D01*
X138395295Y-68916666D02*
X138538152Y-68916666D01*
X138538152Y-68916666D02*
X138633390Y-68964285D01*
X138633390Y-68964285D02*
X138681009Y-69011904D01*
X138681009Y-69011904D02*
X138728628Y-69107142D01*
X138728628Y-69107142D02*
X138728628Y-69488094D01*
X138204819Y-68583332D02*
X138204819Y-67916666D01*
X138204819Y-67916666D02*
X139204819Y-68345237D01*
X156583333Y-61254819D02*
X156250000Y-60778628D01*
X156011905Y-61254819D02*
X156011905Y-60254819D01*
X156011905Y-60254819D02*
X156392857Y-60254819D01*
X156392857Y-60254819D02*
X156488095Y-60302438D01*
X156488095Y-60302438D02*
X156535714Y-60350057D01*
X156535714Y-60350057D02*
X156583333Y-60445295D01*
X156583333Y-60445295D02*
X156583333Y-60588152D01*
X156583333Y-60588152D02*
X156535714Y-60683390D01*
X156535714Y-60683390D02*
X156488095Y-60731009D01*
X156488095Y-60731009D02*
X156392857Y-60778628D01*
X156392857Y-60778628D02*
X156011905Y-60778628D01*
X157440476Y-60254819D02*
X157250000Y-60254819D01*
X157250000Y-60254819D02*
X157154762Y-60302438D01*
X157154762Y-60302438D02*
X157107143Y-60350057D01*
X157107143Y-60350057D02*
X157011905Y-60492914D01*
X157011905Y-60492914D02*
X156964286Y-60683390D01*
X156964286Y-60683390D02*
X156964286Y-61064342D01*
X156964286Y-61064342D02*
X157011905Y-61159580D01*
X157011905Y-61159580D02*
X157059524Y-61207200D01*
X157059524Y-61207200D02*
X157154762Y-61254819D01*
X157154762Y-61254819D02*
X157345238Y-61254819D01*
X157345238Y-61254819D02*
X157440476Y-61207200D01*
X157440476Y-61207200D02*
X157488095Y-61159580D01*
X157488095Y-61159580D02*
X157535714Y-61064342D01*
X157535714Y-61064342D02*
X157535714Y-60826247D01*
X157535714Y-60826247D02*
X157488095Y-60731009D01*
X157488095Y-60731009D02*
X157440476Y-60683390D01*
X157440476Y-60683390D02*
X157345238Y-60635771D01*
X157345238Y-60635771D02*
X157154762Y-60635771D01*
X157154762Y-60635771D02*
X157059524Y-60683390D01*
X157059524Y-60683390D02*
X157011905Y-60731009D01*
X157011905Y-60731009D02*
X156964286Y-60826247D01*
X154524819Y-72741666D02*
X154048628Y-73074999D01*
X154524819Y-73313094D02*
X153524819Y-73313094D01*
X153524819Y-73313094D02*
X153524819Y-72932142D01*
X153524819Y-72932142D02*
X153572438Y-72836904D01*
X153572438Y-72836904D02*
X153620057Y-72789285D01*
X153620057Y-72789285D02*
X153715295Y-72741666D01*
X153715295Y-72741666D02*
X153858152Y-72741666D01*
X153858152Y-72741666D02*
X153953390Y-72789285D01*
X153953390Y-72789285D02*
X154001009Y-72836904D01*
X154001009Y-72836904D02*
X154048628Y-72932142D01*
X154048628Y-72932142D02*
X154048628Y-73313094D01*
X153524819Y-72408332D02*
X153524819Y-71789285D01*
X153524819Y-71789285D02*
X153905771Y-72122618D01*
X153905771Y-72122618D02*
X153905771Y-71979761D01*
X153905771Y-71979761D02*
X153953390Y-71884523D01*
X153953390Y-71884523D02*
X154001009Y-71836904D01*
X154001009Y-71836904D02*
X154096247Y-71789285D01*
X154096247Y-71789285D02*
X154334342Y-71789285D01*
X154334342Y-71789285D02*
X154429580Y-71836904D01*
X154429580Y-71836904D02*
X154477200Y-71884523D01*
X154477200Y-71884523D02*
X154524819Y-71979761D01*
X154524819Y-71979761D02*
X154524819Y-72265475D01*
X154524819Y-72265475D02*
X154477200Y-72360713D01*
X154477200Y-72360713D02*
X154429580Y-72408332D01*
X154454819Y-70488094D02*
X153454819Y-70488094D01*
X153454819Y-70488094D02*
X153454819Y-70249999D01*
X153454819Y-70249999D02*
X153502438Y-70107142D01*
X153502438Y-70107142D02*
X153597676Y-70011904D01*
X153597676Y-70011904D02*
X153692914Y-69964285D01*
X153692914Y-69964285D02*
X153883390Y-69916666D01*
X153883390Y-69916666D02*
X154026247Y-69916666D01*
X154026247Y-69916666D02*
X154216723Y-69964285D01*
X154216723Y-69964285D02*
X154311961Y-70011904D01*
X154311961Y-70011904D02*
X154407200Y-70107142D01*
X154407200Y-70107142D02*
X154454819Y-70249999D01*
X154454819Y-70249999D02*
X154454819Y-70488094D01*
X154454819Y-68964285D02*
X154454819Y-69535713D01*
X154454819Y-69249999D02*
X153454819Y-69249999D01*
X153454819Y-69249999D02*
X153597676Y-69345237D01*
X153597676Y-69345237D02*
X153692914Y-69440475D01*
X153692914Y-69440475D02*
X153740533Y-69535713D01*
X141253571Y-98460509D02*
X140920238Y-98460509D01*
X140920238Y-98984319D02*
X140920238Y-97984319D01*
X140920238Y-97984319D02*
X141396428Y-97984319D01*
X141777381Y-98984319D02*
X141777381Y-97984319D01*
X142253571Y-98984319D02*
X142253571Y-97984319D01*
X142253571Y-97984319D02*
X142491666Y-97984319D01*
X142491666Y-97984319D02*
X142634523Y-98031938D01*
X142634523Y-98031938D02*
X142729761Y-98127176D01*
X142729761Y-98127176D02*
X142777380Y-98222414D01*
X142777380Y-98222414D02*
X142824999Y-98412890D01*
X142824999Y-98412890D02*
X142824999Y-98555747D01*
X142824999Y-98555747D02*
X142777380Y-98746223D01*
X142777380Y-98746223D02*
X142729761Y-98841461D01*
X142729761Y-98841461D02*
X142634523Y-98936700D01*
X142634523Y-98936700D02*
X142491666Y-98984319D01*
X142491666Y-98984319D02*
X142253571Y-98984319D01*
X143158333Y-97984319D02*
X143777380Y-97984319D01*
X143777380Y-97984319D02*
X143444047Y-98365271D01*
X143444047Y-98365271D02*
X143586904Y-98365271D01*
X143586904Y-98365271D02*
X143682142Y-98412890D01*
X143682142Y-98412890D02*
X143729761Y-98460509D01*
X143729761Y-98460509D02*
X143777380Y-98555747D01*
X143777380Y-98555747D02*
X143777380Y-98793842D01*
X143777380Y-98793842D02*
X143729761Y-98889080D01*
X143729761Y-98889080D02*
X143682142Y-98936700D01*
X143682142Y-98936700D02*
X143586904Y-98984319D01*
X143586904Y-98984319D02*
X143301190Y-98984319D01*
X143301190Y-98984319D02*
X143205952Y-98936700D01*
X143205952Y-98936700D02*
X143158333Y-98889080D01*
X163428571Y-91335509D02*
X163095238Y-91335509D01*
X163095238Y-91859319D02*
X163095238Y-90859319D01*
X163095238Y-90859319D02*
X163571428Y-90859319D01*
X163952381Y-91859319D02*
X163952381Y-90859319D01*
X164428571Y-91859319D02*
X164428571Y-90859319D01*
X164428571Y-90859319D02*
X164666666Y-90859319D01*
X164666666Y-90859319D02*
X164809523Y-90906938D01*
X164809523Y-90906938D02*
X164904761Y-91002176D01*
X164904761Y-91002176D02*
X164952380Y-91097414D01*
X164952380Y-91097414D02*
X164999999Y-91287890D01*
X164999999Y-91287890D02*
X164999999Y-91430747D01*
X164999999Y-91430747D02*
X164952380Y-91621223D01*
X164952380Y-91621223D02*
X164904761Y-91716461D01*
X164904761Y-91716461D02*
X164809523Y-91811700D01*
X164809523Y-91811700D02*
X164666666Y-91859319D01*
X164666666Y-91859319D02*
X164428571Y-91859319D01*
X165380952Y-90954557D02*
X165428571Y-90906938D01*
X165428571Y-90906938D02*
X165523809Y-90859319D01*
X165523809Y-90859319D02*
X165761904Y-90859319D01*
X165761904Y-90859319D02*
X165857142Y-90906938D01*
X165857142Y-90906938D02*
X165904761Y-90954557D01*
X165904761Y-90954557D02*
X165952380Y-91049795D01*
X165952380Y-91049795D02*
X165952380Y-91145033D01*
X165952380Y-91145033D02*
X165904761Y-91287890D01*
X165904761Y-91287890D02*
X165333333Y-91859319D01*
X165333333Y-91859319D02*
X165952380Y-91859319D01*
X144428571Y-54931009D02*
X144095238Y-54931009D01*
X144095238Y-55454819D02*
X144095238Y-54454819D01*
X144095238Y-54454819D02*
X144571428Y-54454819D01*
X144952381Y-55454819D02*
X144952381Y-54454819D01*
X145428571Y-55454819D02*
X145428571Y-54454819D01*
X145428571Y-54454819D02*
X145666666Y-54454819D01*
X145666666Y-54454819D02*
X145809523Y-54502438D01*
X145809523Y-54502438D02*
X145904761Y-54597676D01*
X145904761Y-54597676D02*
X145952380Y-54692914D01*
X145952380Y-54692914D02*
X145999999Y-54883390D01*
X145999999Y-54883390D02*
X145999999Y-55026247D01*
X145999999Y-55026247D02*
X145952380Y-55216723D01*
X145952380Y-55216723D02*
X145904761Y-55311961D01*
X145904761Y-55311961D02*
X145809523Y-55407200D01*
X145809523Y-55407200D02*
X145666666Y-55454819D01*
X145666666Y-55454819D02*
X145428571Y-55454819D01*
X146952380Y-55454819D02*
X146380952Y-55454819D01*
X146666666Y-55454819D02*
X146666666Y-54454819D01*
X146666666Y-54454819D02*
X146571428Y-54597676D01*
X146571428Y-54597676D02*
X146476190Y-54692914D01*
X146476190Y-54692914D02*
X146380952Y-54740533D01*
X150324819Y-63031904D02*
X151134342Y-63031904D01*
X151134342Y-63031904D02*
X151229580Y-62984285D01*
X151229580Y-62984285D02*
X151277200Y-62936666D01*
X151277200Y-62936666D02*
X151324819Y-62841428D01*
X151324819Y-62841428D02*
X151324819Y-62650952D01*
X151324819Y-62650952D02*
X151277200Y-62555714D01*
X151277200Y-62555714D02*
X151229580Y-62508095D01*
X151229580Y-62508095D02*
X151134342Y-62460476D01*
X151134342Y-62460476D02*
X150324819Y-62460476D01*
X150420057Y-62031904D02*
X150372438Y-61984285D01*
X150372438Y-61984285D02*
X150324819Y-61889047D01*
X150324819Y-61889047D02*
X150324819Y-61650952D01*
X150324819Y-61650952D02*
X150372438Y-61555714D01*
X150372438Y-61555714D02*
X150420057Y-61508095D01*
X150420057Y-61508095D02*
X150515295Y-61460476D01*
X150515295Y-61460476D02*
X150610533Y-61460476D01*
X150610533Y-61460476D02*
X150753390Y-61508095D01*
X150753390Y-61508095D02*
X151324819Y-62079523D01*
X151324819Y-62079523D02*
X151324819Y-61460476D01*
X149854819Y-85966666D02*
X149378628Y-86299999D01*
X149854819Y-86538094D02*
X148854819Y-86538094D01*
X148854819Y-86538094D02*
X148854819Y-86157142D01*
X148854819Y-86157142D02*
X148902438Y-86061904D01*
X148902438Y-86061904D02*
X148950057Y-86014285D01*
X148950057Y-86014285D02*
X149045295Y-85966666D01*
X149045295Y-85966666D02*
X149188152Y-85966666D01*
X149188152Y-85966666D02*
X149283390Y-86014285D01*
X149283390Y-86014285D02*
X149331009Y-86061904D01*
X149331009Y-86061904D02*
X149378628Y-86157142D01*
X149378628Y-86157142D02*
X149378628Y-86538094D01*
X148854819Y-85061904D02*
X148854819Y-85538094D01*
X148854819Y-85538094D02*
X149331009Y-85585713D01*
X149331009Y-85585713D02*
X149283390Y-85538094D01*
X149283390Y-85538094D02*
X149235771Y-85442856D01*
X149235771Y-85442856D02*
X149235771Y-85204761D01*
X149235771Y-85204761D02*
X149283390Y-85109523D01*
X149283390Y-85109523D02*
X149331009Y-85061904D01*
X149331009Y-85061904D02*
X149426247Y-85014285D01*
X149426247Y-85014285D02*
X149664342Y-85014285D01*
X149664342Y-85014285D02*
X149759580Y-85061904D01*
X149759580Y-85061904D02*
X149807200Y-85109523D01*
X149807200Y-85109523D02*
X149854819Y-85204761D01*
X149854819Y-85204761D02*
X149854819Y-85442856D01*
X149854819Y-85442856D02*
X149807200Y-85538094D01*
X149807200Y-85538094D02*
X149759580Y-85585713D01*
X137424819Y-86166666D02*
X136948628Y-86499999D01*
X137424819Y-86738094D02*
X136424819Y-86738094D01*
X136424819Y-86738094D02*
X136424819Y-86357142D01*
X136424819Y-86357142D02*
X136472438Y-86261904D01*
X136472438Y-86261904D02*
X136520057Y-86214285D01*
X136520057Y-86214285D02*
X136615295Y-86166666D01*
X136615295Y-86166666D02*
X136758152Y-86166666D01*
X136758152Y-86166666D02*
X136853390Y-86214285D01*
X136853390Y-86214285D02*
X136901009Y-86261904D01*
X136901009Y-86261904D02*
X136948628Y-86357142D01*
X136948628Y-86357142D02*
X136948628Y-86738094D01*
X136758152Y-85309523D02*
X137424819Y-85309523D01*
X136377200Y-85547618D02*
X137091485Y-85785713D01*
X137091485Y-85785713D02*
X137091485Y-85166666D01*
X156433333Y-63404819D02*
X156100000Y-62928628D01*
X155861905Y-63404819D02*
X155861905Y-62404819D01*
X155861905Y-62404819D02*
X156242857Y-62404819D01*
X156242857Y-62404819D02*
X156338095Y-62452438D01*
X156338095Y-62452438D02*
X156385714Y-62500057D01*
X156385714Y-62500057D02*
X156433333Y-62595295D01*
X156433333Y-62595295D02*
X156433333Y-62738152D01*
X156433333Y-62738152D02*
X156385714Y-62833390D01*
X156385714Y-62833390D02*
X156338095Y-62881009D01*
X156338095Y-62881009D02*
X156242857Y-62928628D01*
X156242857Y-62928628D02*
X155861905Y-62928628D01*
X156814286Y-62500057D02*
X156861905Y-62452438D01*
X156861905Y-62452438D02*
X156957143Y-62404819D01*
X156957143Y-62404819D02*
X157195238Y-62404819D01*
X157195238Y-62404819D02*
X157290476Y-62452438D01*
X157290476Y-62452438D02*
X157338095Y-62500057D01*
X157338095Y-62500057D02*
X157385714Y-62595295D01*
X157385714Y-62595295D02*
X157385714Y-62690533D01*
X157385714Y-62690533D02*
X157338095Y-62833390D01*
X157338095Y-62833390D02*
X156766667Y-63404819D01*
X156766667Y-63404819D02*
X157385714Y-63404819D01*
X156433333Y-65854819D02*
X156100000Y-65378628D01*
X155861905Y-65854819D02*
X155861905Y-64854819D01*
X155861905Y-64854819D02*
X156242857Y-64854819D01*
X156242857Y-64854819D02*
X156338095Y-64902438D01*
X156338095Y-64902438D02*
X156385714Y-64950057D01*
X156385714Y-64950057D02*
X156433333Y-65045295D01*
X156433333Y-65045295D02*
X156433333Y-65188152D01*
X156433333Y-65188152D02*
X156385714Y-65283390D01*
X156385714Y-65283390D02*
X156338095Y-65331009D01*
X156338095Y-65331009D02*
X156242857Y-65378628D01*
X156242857Y-65378628D02*
X155861905Y-65378628D01*
X157385714Y-65854819D02*
X156814286Y-65854819D01*
X157100000Y-65854819D02*
X157100000Y-64854819D01*
X157100000Y-64854819D02*
X157004762Y-64997676D01*
X157004762Y-64997676D02*
X156909524Y-65092914D01*
X156909524Y-65092914D02*
X156814286Y-65140533D01*
X136666666Y-71124819D02*
X136666666Y-71839104D01*
X136666666Y-71839104D02*
X136619047Y-71981961D01*
X136619047Y-71981961D02*
X136523809Y-72077200D01*
X136523809Y-72077200D02*
X136380952Y-72124819D01*
X136380952Y-72124819D02*
X136285714Y-72124819D01*
X137666666Y-72124819D02*
X137095238Y-72124819D01*
X137380952Y-72124819D02*
X137380952Y-71124819D01*
X137380952Y-71124819D02*
X137285714Y-71267676D01*
X137285714Y-71267676D02*
X137190476Y-71362914D01*
X137190476Y-71362914D02*
X137095238Y-71410533D01*
X150109580Y-81916666D02*
X150157200Y-81964285D01*
X150157200Y-81964285D02*
X150204819Y-82107142D01*
X150204819Y-82107142D02*
X150204819Y-82202380D01*
X150204819Y-82202380D02*
X150157200Y-82345237D01*
X150157200Y-82345237D02*
X150061961Y-82440475D01*
X150061961Y-82440475D02*
X149966723Y-82488094D01*
X149966723Y-82488094D02*
X149776247Y-82535713D01*
X149776247Y-82535713D02*
X149633390Y-82535713D01*
X149633390Y-82535713D02*
X149442914Y-82488094D01*
X149442914Y-82488094D02*
X149347676Y-82440475D01*
X149347676Y-82440475D02*
X149252438Y-82345237D01*
X149252438Y-82345237D02*
X149204819Y-82202380D01*
X149204819Y-82202380D02*
X149204819Y-82107142D01*
X149204819Y-82107142D02*
X149252438Y-81964285D01*
X149252438Y-81964285D02*
X149300057Y-81916666D01*
X149204819Y-81059523D02*
X149204819Y-81249999D01*
X149204819Y-81249999D02*
X149252438Y-81345237D01*
X149252438Y-81345237D02*
X149300057Y-81392856D01*
X149300057Y-81392856D02*
X149442914Y-81488094D01*
X149442914Y-81488094D02*
X149633390Y-81535713D01*
X149633390Y-81535713D02*
X150014342Y-81535713D01*
X150014342Y-81535713D02*
X150109580Y-81488094D01*
X150109580Y-81488094D02*
X150157200Y-81440475D01*
X150157200Y-81440475D02*
X150204819Y-81345237D01*
X150204819Y-81345237D02*
X150204819Y-81154761D01*
X150204819Y-81154761D02*
X150157200Y-81059523D01*
X150157200Y-81059523D02*
X150109580Y-81011904D01*
X150109580Y-81011904D02*
X150014342Y-80964285D01*
X150014342Y-80964285D02*
X149776247Y-80964285D01*
X149776247Y-80964285D02*
X149681009Y-81011904D01*
X149681009Y-81011904D02*
X149633390Y-81059523D01*
X149633390Y-81059523D02*
X149585771Y-81154761D01*
X149585771Y-81154761D02*
X149585771Y-81345237D01*
X149585771Y-81345237D02*
X149633390Y-81440475D01*
X149633390Y-81440475D02*
X149681009Y-81488094D01*
X149681009Y-81488094D02*
X149776247Y-81535713D01*
X162359580Y-83166666D02*
X162407200Y-83214285D01*
X162407200Y-83214285D02*
X162454819Y-83357142D01*
X162454819Y-83357142D02*
X162454819Y-83452380D01*
X162454819Y-83452380D02*
X162407200Y-83595237D01*
X162407200Y-83595237D02*
X162311961Y-83690475D01*
X162311961Y-83690475D02*
X162216723Y-83738094D01*
X162216723Y-83738094D02*
X162026247Y-83785713D01*
X162026247Y-83785713D02*
X161883390Y-83785713D01*
X161883390Y-83785713D02*
X161692914Y-83738094D01*
X161692914Y-83738094D02*
X161597676Y-83690475D01*
X161597676Y-83690475D02*
X161502438Y-83595237D01*
X161502438Y-83595237D02*
X161454819Y-83452380D01*
X161454819Y-83452380D02*
X161454819Y-83357142D01*
X161454819Y-83357142D02*
X161502438Y-83214285D01*
X161502438Y-83214285D02*
X161550057Y-83166666D01*
X161454819Y-82261904D02*
X161454819Y-82738094D01*
X161454819Y-82738094D02*
X161931009Y-82785713D01*
X161931009Y-82785713D02*
X161883390Y-82738094D01*
X161883390Y-82738094D02*
X161835771Y-82642856D01*
X161835771Y-82642856D02*
X161835771Y-82404761D01*
X161835771Y-82404761D02*
X161883390Y-82309523D01*
X161883390Y-82309523D02*
X161931009Y-82261904D01*
X161931009Y-82261904D02*
X162026247Y-82214285D01*
X162026247Y-82214285D02*
X162264342Y-82214285D01*
X162264342Y-82214285D02*
X162359580Y-82261904D01*
X162359580Y-82261904D02*
X162407200Y-82309523D01*
X162407200Y-82309523D02*
X162454819Y-82404761D01*
X162454819Y-82404761D02*
X162454819Y-82642856D01*
X162454819Y-82642856D02*
X162407200Y-82738094D01*
X162407200Y-82738094D02*
X162359580Y-82785713D01*
X157859580Y-67666666D02*
X157907200Y-67714285D01*
X157907200Y-67714285D02*
X157954819Y-67857142D01*
X157954819Y-67857142D02*
X157954819Y-67952380D01*
X157954819Y-67952380D02*
X157907200Y-68095237D01*
X157907200Y-68095237D02*
X157811961Y-68190475D01*
X157811961Y-68190475D02*
X157716723Y-68238094D01*
X157716723Y-68238094D02*
X157526247Y-68285713D01*
X157526247Y-68285713D02*
X157383390Y-68285713D01*
X157383390Y-68285713D02*
X157192914Y-68238094D01*
X157192914Y-68238094D02*
X157097676Y-68190475D01*
X157097676Y-68190475D02*
X157002438Y-68095237D01*
X157002438Y-68095237D02*
X156954819Y-67952380D01*
X156954819Y-67952380D02*
X156954819Y-67857142D01*
X156954819Y-67857142D02*
X157002438Y-67714285D01*
X157002438Y-67714285D02*
X157050057Y-67666666D01*
X157288152Y-66809523D02*
X157954819Y-66809523D01*
X156907200Y-67047618D02*
X157621485Y-67285713D01*
X157621485Y-67285713D02*
X157621485Y-66666666D01*
X140609580Y-74916666D02*
X140657200Y-74964285D01*
X140657200Y-74964285D02*
X140704819Y-75107142D01*
X140704819Y-75107142D02*
X140704819Y-75202380D01*
X140704819Y-75202380D02*
X140657200Y-75345237D01*
X140657200Y-75345237D02*
X140561961Y-75440475D01*
X140561961Y-75440475D02*
X140466723Y-75488094D01*
X140466723Y-75488094D02*
X140276247Y-75535713D01*
X140276247Y-75535713D02*
X140133390Y-75535713D01*
X140133390Y-75535713D02*
X139942914Y-75488094D01*
X139942914Y-75488094D02*
X139847676Y-75440475D01*
X139847676Y-75440475D02*
X139752438Y-75345237D01*
X139752438Y-75345237D02*
X139704819Y-75202380D01*
X139704819Y-75202380D02*
X139704819Y-75107142D01*
X139704819Y-75107142D02*
X139752438Y-74964285D01*
X139752438Y-74964285D02*
X139800057Y-74916666D01*
X139704819Y-74583332D02*
X139704819Y-73964285D01*
X139704819Y-73964285D02*
X140085771Y-74297618D01*
X140085771Y-74297618D02*
X140085771Y-74154761D01*
X140085771Y-74154761D02*
X140133390Y-74059523D01*
X140133390Y-74059523D02*
X140181009Y-74011904D01*
X140181009Y-74011904D02*
X140276247Y-73964285D01*
X140276247Y-73964285D02*
X140514342Y-73964285D01*
X140514342Y-73964285D02*
X140609580Y-74011904D01*
X140609580Y-74011904D02*
X140657200Y-74059523D01*
X140657200Y-74059523D02*
X140704819Y-74154761D01*
X140704819Y-74154761D02*
X140704819Y-74440475D01*
X140704819Y-74440475D02*
X140657200Y-74535713D01*
X140657200Y-74535713D02*
X140609580Y-74583332D01*
X140609580Y-78416666D02*
X140657200Y-78464285D01*
X140657200Y-78464285D02*
X140704819Y-78607142D01*
X140704819Y-78607142D02*
X140704819Y-78702380D01*
X140704819Y-78702380D02*
X140657200Y-78845237D01*
X140657200Y-78845237D02*
X140561961Y-78940475D01*
X140561961Y-78940475D02*
X140466723Y-78988094D01*
X140466723Y-78988094D02*
X140276247Y-79035713D01*
X140276247Y-79035713D02*
X140133390Y-79035713D01*
X140133390Y-79035713D02*
X139942914Y-78988094D01*
X139942914Y-78988094D02*
X139847676Y-78940475D01*
X139847676Y-78940475D02*
X139752438Y-78845237D01*
X139752438Y-78845237D02*
X139704819Y-78702380D01*
X139704819Y-78702380D02*
X139704819Y-78607142D01*
X139704819Y-78607142D02*
X139752438Y-78464285D01*
X139752438Y-78464285D02*
X139800057Y-78416666D01*
X139800057Y-78035713D02*
X139752438Y-77988094D01*
X139752438Y-77988094D02*
X139704819Y-77892856D01*
X139704819Y-77892856D02*
X139704819Y-77654761D01*
X139704819Y-77654761D02*
X139752438Y-77559523D01*
X139752438Y-77559523D02*
X139800057Y-77511904D01*
X139800057Y-77511904D02*
X139895295Y-77464285D01*
X139895295Y-77464285D02*
X139990533Y-77464285D01*
X139990533Y-77464285D02*
X140133390Y-77511904D01*
X140133390Y-77511904D02*
X140704819Y-78083332D01*
X140704819Y-78083332D02*
X140704819Y-77464285D01*
X164983333Y-77709580D02*
X164935714Y-77757200D01*
X164935714Y-77757200D02*
X164792857Y-77804819D01*
X164792857Y-77804819D02*
X164697619Y-77804819D01*
X164697619Y-77804819D02*
X164554762Y-77757200D01*
X164554762Y-77757200D02*
X164459524Y-77661961D01*
X164459524Y-77661961D02*
X164411905Y-77566723D01*
X164411905Y-77566723D02*
X164364286Y-77376247D01*
X164364286Y-77376247D02*
X164364286Y-77233390D01*
X164364286Y-77233390D02*
X164411905Y-77042914D01*
X164411905Y-77042914D02*
X164459524Y-76947676D01*
X164459524Y-76947676D02*
X164554762Y-76852438D01*
X164554762Y-76852438D02*
X164697619Y-76804819D01*
X164697619Y-76804819D02*
X164792857Y-76804819D01*
X164792857Y-76804819D02*
X164935714Y-76852438D01*
X164935714Y-76852438D02*
X164983333Y-76900057D01*
X165935714Y-77804819D02*
X165364286Y-77804819D01*
X165650000Y-77804819D02*
X165650000Y-76804819D01*
X165650000Y-76804819D02*
X165554762Y-76947676D01*
X165554762Y-76947676D02*
X165459524Y-77042914D01*
X165459524Y-77042914D02*
X165364286Y-77090533D01*
D12*
%TO.C,U1*%
X143150000Y-75900001D02*
X143150000Y-70799998D01*
X152950000Y-74199999D02*
X152950000Y-70799998D01*
D13*
%TO.C,R7*%
X140772500Y-68512742D02*
X140772500Y-68987258D01*
X139727500Y-68512742D02*
X139727500Y-68987258D01*
D10*
%TO.C,J3*%
X152500000Y-93750000D02*
X145000000Y-93750000D01*
X152500000Y-91250000D02*
X152500000Y-93750000D01*
X150000000Y-91250000D02*
X150000000Y-93750000D01*
X145000000Y-91250000D02*
X152500000Y-91250000D01*
X145000000Y-91250000D02*
X145000000Y-93750000D01*
D13*
%TO.C,R6*%
X153412742Y-60177500D02*
X153887258Y-60177500D01*
X153412742Y-61222500D02*
X153887258Y-61222500D01*
%TO.C,R3*%
X154977500Y-72812258D02*
X154977500Y-72337742D01*
X156022500Y-72812258D02*
X156022500Y-72337742D01*
%TO.C,D1*%
X157735000Y-70485000D02*
X157735000Y-69015000D01*
X157735000Y-69015000D02*
X155450000Y-69015000D01*
X155450000Y-70485000D02*
X157735000Y-70485000D01*
%TO.C,U4*%
X154190000Y-86250000D02*
X154190000Y-88200000D01*
X154190000Y-86250000D02*
X154190000Y-84300000D01*
X159310000Y-86250000D02*
X159310000Y-88200000D01*
X159310000Y-86250000D02*
X159310000Y-84300000D01*
X154285000Y-88950000D02*
X153955000Y-89190000D01*
X153955000Y-88710000D01*
X154285000Y-88950000D01*
G36*
X154285000Y-88950000D02*
G01*
X153955000Y-89190000D01*
X153955000Y-88710000D01*
X154285000Y-88950000D01*
G37*
%TO.C,U3*%
X141940000Y-86250000D02*
X141940000Y-88200000D01*
X141940000Y-86250000D02*
X141940000Y-84300000D01*
X147060000Y-86250000D02*
X147060000Y-88200000D01*
X147060000Y-86250000D02*
X147060000Y-84300000D01*
X142035000Y-88950000D02*
X141705000Y-89190000D01*
X141705000Y-88710000D01*
X142035000Y-88950000D01*
G36*
X142035000Y-88950000D02*
G01*
X141705000Y-89190000D01*
X141705000Y-88710000D01*
X142035000Y-88950000D01*
G37*
%TO.C,U2*%
X149870000Y-59670000D02*
X149870000Y-61000000D01*
X148540000Y-59670000D02*
X149870000Y-59670000D01*
X147270000Y-59670000D02*
X137050000Y-59670000D01*
X147270000Y-59670000D02*
X147270000Y-62270000D01*
X137050000Y-59670000D02*
X137050000Y-64870000D01*
X149870000Y-62270000D02*
X149870000Y-64870000D01*
X147270000Y-62270000D02*
X149870000Y-62270000D01*
X149870000Y-64870000D02*
X137050000Y-64870000D01*
%TO.C,R5*%
X150390000Y-87527064D02*
X150390000Y-84472936D01*
X153110000Y-87527064D02*
X153110000Y-84472936D01*
%TO.C,R4*%
X137890000Y-87527064D02*
X137890000Y-84472936D01*
X140610000Y-87527064D02*
X140610000Y-84472936D01*
%TO.C,R2*%
X153887258Y-63522500D02*
X153412742Y-63522500D01*
X153887258Y-62477500D02*
X153412742Y-62477500D01*
%TO.C,R1*%
X153887258Y-65922500D02*
X153412742Y-65922500D01*
X153887258Y-64877500D02*
X153412742Y-64877500D01*
%TO.C,J1*%
X135670000Y-72670000D02*
X137000000Y-72670000D01*
X135670000Y-74000000D02*
X135670000Y-72670000D01*
X135670000Y-75270000D02*
X135670000Y-77870000D01*
X135670000Y-75270000D02*
X138330000Y-75270000D01*
X135670000Y-77870000D02*
X138330000Y-77870000D01*
X138330000Y-75270000D02*
X138330000Y-77870000D01*
%TO.C,C6*%
X147740000Y-82640580D02*
X147740000Y-82359420D01*
X148760000Y-82640580D02*
X148760000Y-82359420D01*
%TO.C,C5*%
X159990000Y-83140580D02*
X159990000Y-82859420D01*
X161010000Y-83140580D02*
X161010000Y-82859420D01*
%TO.C,C4*%
X155140580Y-68010000D02*
X154859420Y-68010000D01*
X155140580Y-66990000D02*
X154859420Y-66990000D01*
%TO.C,C3*%
X141240000Y-74584420D02*
X141240000Y-74865580D01*
X142260000Y-74584420D02*
X142260000Y-74865580D01*
%TO.C,C2*%
X142260000Y-78359420D02*
X142260000Y-78640580D01*
X141240000Y-78359420D02*
X141240000Y-78640580D01*
%TO.C,C1*%
X163770000Y-77150000D02*
G75*
G02*
X157230000Y-77150000I-3270000J0D01*
G01*
X157230000Y-77150000D02*
G75*
G02*
X163770000Y-77150000I3270000J0D01*
G01*
X163741000Y-76748000D02*
X163741000Y-77552000D01*
X163701000Y-76517000D02*
X163701000Y-77783000D01*
X163661000Y-76348000D02*
X163661000Y-77952000D01*
X163621000Y-76210000D02*
X163621000Y-78090000D01*
X163581000Y-76091000D02*
X163581000Y-78209000D01*
X163541000Y-75985000D02*
X163541000Y-78315000D01*
X163501000Y-75888000D02*
X163501000Y-78412000D01*
X163461000Y-75800000D02*
X163461000Y-78500000D01*
X163421000Y-75718000D02*
X163421000Y-78582000D01*
X163381000Y-75641000D02*
X163381000Y-78659000D01*
X163341000Y-75569000D02*
X163341000Y-78731000D01*
X163301000Y-75500000D02*
X163301000Y-78800000D01*
X163261000Y-75436000D02*
X163261000Y-78864000D01*
X163221000Y-75374000D02*
X163221000Y-78926000D01*
X163181000Y-75316000D02*
X163181000Y-78984000D01*
X163141000Y-75260000D02*
X163141000Y-79040000D01*
X163101000Y-75206000D02*
X163101000Y-79094000D01*
X163061000Y-75155000D02*
X163061000Y-79145000D01*
X163021000Y-75106000D02*
X163021000Y-79194000D01*
X162981000Y-75058000D02*
X162981000Y-79242000D01*
X162941000Y-75013000D02*
X162941000Y-79287000D01*
X162901000Y-74968000D02*
X162901000Y-79332000D01*
X162861000Y-74926000D02*
X162861000Y-79374000D01*
X162821000Y-74885000D02*
X162821000Y-79415000D01*
X162781000Y-78190000D02*
X162781000Y-79455000D01*
X162781000Y-74845000D02*
X162781000Y-76110000D01*
X162741000Y-78190000D02*
X162741000Y-79493000D01*
X162741000Y-74807000D02*
X162741000Y-76110000D01*
X162701000Y-78190000D02*
X162701000Y-79530000D01*
X162701000Y-74770000D02*
X162701000Y-76110000D01*
X162661000Y-78190000D02*
X162661000Y-79566000D01*
X162661000Y-74734000D02*
X162661000Y-76110000D01*
X162621000Y-78190000D02*
X162621000Y-79600000D01*
X162621000Y-74700000D02*
X162621000Y-76110000D01*
X162581000Y-78190000D02*
X162581000Y-79634000D01*
X162581000Y-74666000D02*
X162581000Y-76110000D01*
X162541000Y-78190000D02*
X162541000Y-79666000D01*
X162541000Y-74634000D02*
X162541000Y-76110000D01*
X162501000Y-78190000D02*
X162501000Y-79698000D01*
X162501000Y-74602000D02*
X162501000Y-76110000D01*
X162461000Y-78190000D02*
X162461000Y-79728000D01*
X162461000Y-74572000D02*
X162461000Y-76110000D01*
X162421000Y-78190000D02*
X162421000Y-79757000D01*
X162421000Y-74543000D02*
X162421000Y-76110000D01*
X162381000Y-78190000D02*
X162381000Y-79786000D01*
X162381000Y-74514000D02*
X162381000Y-76110000D01*
X162341000Y-78190000D02*
X162341000Y-79814000D01*
X162341000Y-74486000D02*
X162341000Y-76110000D01*
X162301000Y-78190000D02*
X162301000Y-79840000D01*
X162301000Y-74460000D02*
X162301000Y-76110000D01*
X162261000Y-78190000D02*
X162261000Y-79866000D01*
X162261000Y-74434000D02*
X162261000Y-76110000D01*
X162221000Y-78190000D02*
X162221000Y-79892000D01*
X162221000Y-74408000D02*
X162221000Y-76110000D01*
X162181000Y-78190000D02*
X162181000Y-79916000D01*
X162181000Y-74384000D02*
X162181000Y-76110000D01*
X162141000Y-78190000D02*
X162141000Y-79940000D01*
X162141000Y-74360000D02*
X162141000Y-76110000D01*
X162101000Y-78190000D02*
X162101000Y-79962000D01*
X162101000Y-74338000D02*
X162101000Y-76110000D01*
X162061000Y-78190000D02*
X162061000Y-79984000D01*
X162061000Y-74316000D02*
X162061000Y-76110000D01*
X162021000Y-78190000D02*
X162021000Y-80006000D01*
X162021000Y-74294000D02*
X162021000Y-76110000D01*
X161981000Y-78190000D02*
X161981000Y-80026000D01*
X161981000Y-74274000D02*
X161981000Y-76110000D01*
X161941000Y-78190000D02*
X161941000Y-80046000D01*
X161941000Y-74254000D02*
X161941000Y-76110000D01*
X161901000Y-78190000D02*
X161901000Y-80066000D01*
X161901000Y-74234000D02*
X161901000Y-76110000D01*
X161861000Y-78190000D02*
X161861000Y-80084000D01*
X161861000Y-74216000D02*
X161861000Y-76110000D01*
X161821000Y-78190000D02*
X161821000Y-80102000D01*
X161821000Y-74198000D02*
X161821000Y-76110000D01*
X161781000Y-78190000D02*
X161781000Y-80120000D01*
X161781000Y-74180000D02*
X161781000Y-76110000D01*
X161741000Y-78190000D02*
X161741000Y-80136000D01*
X161741000Y-74164000D02*
X161741000Y-76110000D01*
X161701000Y-78190000D02*
X161701000Y-80152000D01*
X161701000Y-74148000D02*
X161701000Y-76110000D01*
X161661000Y-78190000D02*
X161661000Y-80168000D01*
X161661000Y-74132000D02*
X161661000Y-76110000D01*
X161621000Y-78190000D02*
X161621000Y-80183000D01*
X161621000Y-74117000D02*
X161621000Y-76110000D01*
X161581000Y-78190000D02*
X161581000Y-80197000D01*
X161581000Y-74103000D02*
X161581000Y-76110000D01*
X161541000Y-78190000D02*
X161541000Y-80211000D01*
X161541000Y-74089000D02*
X161541000Y-76110000D01*
X161501000Y-78190000D02*
X161501000Y-80224000D01*
X161501000Y-74076000D02*
X161501000Y-76110000D01*
X161461000Y-78190000D02*
X161461000Y-80236000D01*
X161461000Y-74064000D02*
X161461000Y-76110000D01*
X161421000Y-78190000D02*
X161421000Y-80248000D01*
X161421000Y-74052000D02*
X161421000Y-76110000D01*
X161381000Y-78190000D02*
X161381000Y-80260000D01*
X161381000Y-74040000D02*
X161381000Y-76110000D01*
X161341000Y-78190000D02*
X161341000Y-80271000D01*
X161341000Y-74029000D02*
X161341000Y-76110000D01*
X161301000Y-78190000D02*
X161301000Y-80281000D01*
X161301000Y-74019000D02*
X161301000Y-76110000D01*
X161261000Y-78190000D02*
X161261000Y-80291000D01*
X161261000Y-74009000D02*
X161261000Y-76110000D01*
X161221000Y-78190000D02*
X161221000Y-80300000D01*
X161221000Y-74000000D02*
X161221000Y-76110000D01*
X161180000Y-78190000D02*
X161180000Y-80309000D01*
X161180000Y-73991000D02*
X161180000Y-76110000D01*
X161140000Y-78190000D02*
X161140000Y-80317000D01*
X161140000Y-73983000D02*
X161140000Y-76110000D01*
X161100000Y-78190000D02*
X161100000Y-80325000D01*
X161100000Y-73975000D02*
X161100000Y-76110000D01*
X161060000Y-78190000D02*
X161060000Y-80332000D01*
X161060000Y-73968000D02*
X161060000Y-76110000D01*
X161020000Y-78190000D02*
X161020000Y-80339000D01*
X161020000Y-73961000D02*
X161020000Y-76110000D01*
X160980000Y-78190000D02*
X160980000Y-80345000D01*
X160980000Y-73955000D02*
X160980000Y-76110000D01*
X160940000Y-78190000D02*
X160940000Y-80351000D01*
X160940000Y-73949000D02*
X160940000Y-76110000D01*
X160900000Y-78190000D02*
X160900000Y-80356000D01*
X160900000Y-73944000D02*
X160900000Y-76110000D01*
X160860000Y-78190000D02*
X160860000Y-80361000D01*
X160860000Y-73939000D02*
X160860000Y-76110000D01*
X160820000Y-78190000D02*
X160820000Y-80365000D01*
X160820000Y-73935000D02*
X160820000Y-76110000D01*
X160780000Y-78190000D02*
X160780000Y-80368000D01*
X160780000Y-73932000D02*
X160780000Y-76110000D01*
X160740000Y-78190000D02*
X160740000Y-80372000D01*
X160740000Y-73928000D02*
X160740000Y-76110000D01*
X160700000Y-73926000D02*
X160700000Y-80374000D01*
X160660000Y-73923000D02*
X160660000Y-80377000D01*
X160620000Y-73922000D02*
X160620000Y-80378000D01*
X160580000Y-73920000D02*
X160580000Y-80380000D01*
X160540000Y-73920000D02*
X160540000Y-80380000D01*
X160500000Y-73920000D02*
X160500000Y-80380000D01*
X157314759Y-74996000D02*
X157314759Y-75626000D01*
X156999759Y-75311000D02*
X157629759Y-75311000D01*
%TD*%
M02*
