%TF.GenerationSoftware,KiCad,Pcbnew,8.0.5*%
%TF.CreationDate,2025-12-29T14:40:48-06:00*%
%TF.ProjectId,FOC_DV,464f435f-4456-42e6-9b69-6361645f7063,rev?*%
%TF.SameCoordinates,Original*%
%TF.FileFunction,Copper,L1,Top*%
%TF.FilePolarity,Positive*%
%FSLAX46Y46*%
G04 Gerber Fmt 4.6, Leading zero omitted, Abs format (unit mm)*
G04 Created by KiCad (PCBNEW 8.0.5) date 2025-12-29 14:40:48*
%MOMM*%
%LPD*%
G01*
G04 APERTURE LIST*
G04 Aperture macros list*
%AMRoundRect*
0 Rectangle with rounded corners*
0 $1 Rounding radius*
0 $2 $3 $4 $5 $6 $7 $8 $9 X,Y pos of 4 corners*
0 Add a 4 corners polygon primitive as box body*
4,1,4,$2,$3,$4,$5,$6,$7,$8,$9,$2,$3,0*
0 Add four circle primitives for the rounded corners*
1,1,$1+$1,$2,$3*
1,1,$1+$1,$4,$5*
1,1,$1+$1,$6,$7*
1,1,$1+$1,$8,$9*
0 Add four rect primitives between the rounded corners*
20,1,$1+$1,$2,$3,$4,$5,0*
20,1,$1+$1,$4,$5,$6,$7,0*
20,1,$1+$1,$6,$7,$8,$9,0*
20,1,$1+$1,$8,$9,$2,$3,0*%
G04 Aperture macros list end*
%TA.AperFunction,SMDPad,CuDef*%
%ADD10R,0.399999X1.200000*%
%TD*%
%TA.AperFunction,SMDPad,CuDef*%
%ADD11R,5.180000X3.099999*%
%TD*%
%TA.AperFunction,ComponentPad*%
%ADD12C,0.399999*%
%TD*%
%TA.AperFunction,SMDPad,CuDef*%
%ADD13RoundRect,0.200000X-0.275000X0.200000X-0.275000X-0.200000X0.275000X-0.200000X0.275000X0.200000X0*%
%TD*%
%TA.AperFunction,ComponentPad*%
%ADD14R,1.750000X1.750000*%
%TD*%
%TA.AperFunction,ComponentPad*%
%ADD15C,1.575000*%
%TD*%
%TA.AperFunction,SMDPad,CuDef*%
%ADD16RoundRect,0.200000X-0.200000X-0.275000X0.200000X-0.275000X0.200000X0.275000X-0.200000X0.275000X0*%
%TD*%
%TA.AperFunction,SMDPad,CuDef*%
%ADD17RoundRect,0.200000X0.275000X-0.200000X0.275000X0.200000X-0.275000X0.200000X-0.275000X-0.200000X0*%
%TD*%
%TA.AperFunction,SMDPad,CuDef*%
%ADD18RoundRect,0.218750X0.218750X0.256250X-0.218750X0.256250X-0.218750X-0.256250X0.218750X-0.256250X0*%
%TD*%
%TA.AperFunction,ComponentPad*%
%ADD19O,2.500000X1.700000*%
%TD*%
%TA.AperFunction,SMDPad,CuDef*%
%ADD20C,0.750000*%
%TD*%
%TA.AperFunction,SMDPad,CuDef*%
%ADD21RoundRect,0.150000X0.150000X-0.825000X0.150000X0.825000X-0.150000X0.825000X-0.150000X-0.825000X0*%
%TD*%
%TA.AperFunction,ComponentPad*%
%ADD22R,1.700000X1.700000*%
%TD*%
%TA.AperFunction,ComponentPad*%
%ADD23O,1.700000X1.700000*%
%TD*%
%TA.AperFunction,SMDPad,CuDef*%
%ADD24RoundRect,0.250000X1.075000X-0.362500X1.075000X0.362500X-1.075000X0.362500X-1.075000X-0.362500X0*%
%TD*%
%TA.AperFunction,SMDPad,CuDef*%
%ADD25RoundRect,0.200000X0.200000X0.275000X-0.200000X0.275000X-0.200000X-0.275000X0.200000X-0.275000X0*%
%TD*%
%TA.AperFunction,SMDPad,CuDef*%
%ADD26RoundRect,0.225000X0.250000X-0.225000X0.250000X0.225000X-0.250000X0.225000X-0.250000X-0.225000X0*%
%TD*%
%TA.AperFunction,SMDPad,CuDef*%
%ADD27RoundRect,0.225000X0.225000X0.250000X-0.225000X0.250000X-0.225000X-0.250000X0.225000X-0.250000X0*%
%TD*%
%TA.AperFunction,SMDPad,CuDef*%
%ADD28RoundRect,0.225000X-0.250000X0.225000X-0.250000X-0.225000X0.250000X-0.225000X0.250000X0.225000X0*%
%TD*%
%TA.AperFunction,ComponentPad*%
%ADD29C,1.600000*%
%TD*%
%TA.AperFunction,ComponentPad*%
%ADD30R,1.600000X1.600000*%
%TD*%
%TA.AperFunction,ViaPad*%
%ADD31C,0.700000*%
%TD*%
%TA.AperFunction,Conductor*%
%ADD32C,0.750000*%
%TD*%
%TA.AperFunction,Conductor*%
%ADD33C,0.300000*%
%TD*%
%TA.AperFunction,Conductor*%
%ADD34C,0.200000*%
%TD*%
%TA.AperFunction,Conductor*%
%ADD35C,0.500000*%
%TD*%
%TA.AperFunction,Conductor*%
%ADD36C,1.000000*%
%TD*%
G04 APERTURE END LIST*
D10*
%TO.P,U1,1,CPL*%
%TO.N,Net-(U1-CPL)*%
X143825000Y-75349999D03*
%TO.P,U1,2,CPH*%
%TO.N,Net-(U1-CPH)*%
X144475001Y-75349999D03*
%TO.P,U1,3,VCP*%
%TO.N,Net-(U1-VCP)*%
X145125000Y-75349999D03*
%TO.P,U1,4,VM*%
%TO.N,VCC*%
X145775001Y-75349999D03*
%TO.P,U1,5,OUT1*%
%TO.N,PH_CS_A*%
X146424999Y-75349999D03*
%TO.P,U1,6,PGND1*%
%TO.N,GND*%
X147075001Y-75349999D03*
%TO.P,U1,7,PGND2*%
X147724999Y-75349999D03*
%TO.P,U1,8,OUT2*%
%TO.N,phase_B*%
X148375001Y-75349999D03*
%TO.P,U1,9,OUT3*%
%TO.N,PH_CS_C*%
X149024999Y-75349999D03*
%TO.P,U1,10,PGND3*%
%TO.N,GND*%
X149675001Y-75349999D03*
%TO.P,U1,11,VM*%
%TO.N,VCC*%
X150324999Y-75349999D03*
%TO.P,U1,12,COMPP*%
%TO.N,GND*%
X150975000Y-75349999D03*
%TO.P,U1,13,COMPN*%
X151624999Y-75349999D03*
%TO.P,U1,14,GND*%
X152275000Y-75349999D03*
%TO.P,U1,15,V3P3*%
%TO.N,+3.3INTRN*%
X152275000Y-69650001D03*
%TO.P,U1,16,~{RESET}*%
%TO.N,nRST*%
X151624999Y-69650001D03*
%TO.P,U1,17,~{SLEEP}*%
%TO.N,nSLP*%
X150975000Y-69650001D03*
%TO.P,U1,18,~{FAULT}*%
%TO.N,nFLT*%
X150324999Y-69650001D03*
%TO.P,U1,19,~{COMPO}*%
%TO.N,unconnected-(U1-~{COMPO}-Pad19)*%
X149675001Y-69650001D03*
%TO.P,U1,20,GND*%
%TO.N,GND*%
X149024999Y-69650001D03*
%TO.P,U1,21,NC*%
%TO.N,unconnected-(U1-NC-Pad21)*%
X148375001Y-69650001D03*
%TO.P,U1,22,EN3*%
%TO.N,EN*%
X147724999Y-69650001D03*
%TO.P,U1,23,IN3*%
%TO.N,IN3*%
X147075001Y-69650001D03*
%TO.P,U1,24,EN2*%
%TO.N,EN*%
X146424999Y-69650001D03*
%TO.P,U1,25,IN2*%
%TO.N,IN2*%
X145775001Y-69650001D03*
%TO.P,U1,26,EN1*%
%TO.N,EN*%
X145125000Y-69650001D03*
%TO.P,U1,27,IN1*%
%TO.N,IN1*%
X144475001Y-69650001D03*
%TO.P,U1,28,GND*%
%TO.N,GND*%
X143825000Y-69650001D03*
D11*
%TO.P,U1,29,EXP*%
X148050000Y-72500000D03*
D12*
%TO.P,U1,V*%
X146049999Y-73500001D03*
X147049999Y-73500001D03*
X148050000Y-73500001D03*
X149050001Y-73500001D03*
X150050001Y-73500001D03*
X146049999Y-72500000D03*
X147049999Y-72500000D03*
X148050000Y-72500000D03*
X149050001Y-72500000D03*
X150050001Y-72500000D03*
X146049999Y-71499999D03*
X147049999Y-71499999D03*
X148050000Y-71499999D03*
X149050001Y-71499999D03*
X150050001Y-71499999D03*
%TD*%
D13*
%TO.P,R7,1*%
%TO.N,Net-(U2-En)*%
X140250000Y-67925000D03*
%TO.P,R7,2*%
%TO.N,EN*%
X140250000Y-69575000D03*
%TD*%
D14*
%TO.P,J3,3,3*%
%TO.N,phase_A*%
X151250000Y-92500000D03*
D15*
%TO.P,J3,2,2*%
%TO.N,phase_B*%
X148750000Y-92500000D03*
%TO.P,J3,1,1*%
%TO.N,phase_C*%
X146250000Y-92500000D03*
%TD*%
D16*
%TO.P,R6,1*%
%TO.N,nFLT*%
X152825000Y-60700000D03*
%TO.P,R6,2*%
%TO.N,+3.3INTRN*%
X154475000Y-60700000D03*
%TD*%
D17*
%TO.P,R3,1*%
%TO.N,VCC*%
X155500000Y-73400000D03*
%TO.P,R3,2*%
%TO.N,Net-(D1-A)*%
X155500000Y-71750000D03*
%TD*%
D18*
%TO.P,D1,1,K*%
%TO.N,GND*%
X157037500Y-69750000D03*
%TO.P,D1,2,A*%
%TO.N,Net-(D1-A)*%
X155462500Y-69750000D03*
%TD*%
D19*
%TO.P,REF\u002A\u002A,1*%
%TO.N,VCC*%
X161500000Y-70750000D03*
%TO.P,REF\u002A\u002A,2*%
%TO.N,GND*%
X161500000Y-64500000D03*
%TD*%
D20*
%TO.P,FID3,*%
%TO.N,*%
X142325000Y-100625000D03*
%TD*%
%TO.P,FID2,*%
%TO.N,*%
X164500000Y-93500000D03*
%TD*%
%TO.P,FID1,*%
%TO.N,*%
X145500000Y-52500000D03*
%TD*%
D21*
%TO.P,U4,1,-*%
%TO.N,unconnected-(U4---Pad1)*%
X154845000Y-88725000D03*
%TO.P,U4,2,GND*%
%TO.N,phase_C*%
X156115000Y-88725000D03*
%TO.P,U4,3,REF2*%
%TO.N,PH_CS_C*%
X157385000Y-88725000D03*
%TO.P,U4,4,GND*%
%TO.N,GND*%
X158655000Y-88725000D03*
%TO.P,U4,5*%
%TO.N,+3.3V*%
X158655000Y-83775000D03*
%TO.P,U4,6,V+*%
X157385000Y-83775000D03*
%TO.P,U4,7,REF1*%
%TO.N,GND*%
X156115000Y-83775000D03*
%TO.P,U4,8,+*%
%TO.N,CC_out*%
X154845000Y-83775000D03*
%TD*%
%TO.P,U3,1,-*%
%TO.N,unconnected-(U3---Pad1)*%
X142595000Y-88725000D03*
%TO.P,U3,2,GND*%
%TO.N,phase_A*%
X143865000Y-88725000D03*
%TO.P,U3,3,REF2*%
%TO.N,PH_CS_A*%
X145135000Y-88725000D03*
%TO.P,U3,4,GND*%
%TO.N,GND*%
X146405000Y-88725000D03*
%TO.P,U3,5*%
%TO.N,+3.3V*%
X146405000Y-83775000D03*
%TO.P,U3,6,V+*%
X145135000Y-83775000D03*
%TO.P,U3,7,REF1*%
%TO.N,GND*%
X143865000Y-83775000D03*
%TO.P,U3,8,+*%
%TO.N,CA_out*%
X142595000Y-83775000D03*
%TD*%
D22*
%TO.P,U2,1*%
%TO.N,GND*%
X148540000Y-61000000D03*
D23*
%TO.P,U2,2*%
%TO.N,+3.3V*%
X148540000Y-63540000D03*
%TO.P,U2,3*%
%TO.N,Net-(U2-En)*%
X146000000Y-61000000D03*
%TO.P,U2,4*%
%TO.N,GND*%
X146000000Y-63540000D03*
%TO.P,U2,5*%
%TO.N,IN3*%
X143460000Y-61000000D03*
%TO.P,U2,6*%
%TO.N,nRST*%
X143460000Y-63540000D03*
%TO.P,U2,7*%
%TO.N,IN2*%
X140920000Y-61000000D03*
%TO.P,U2,8*%
%TO.N,nSLP*%
X140920000Y-63540000D03*
%TO.P,U2,9*%
%TO.N,IN1*%
X138380000Y-61000000D03*
%TO.P,U2,10*%
%TO.N,nFLT*%
X138380000Y-63540000D03*
%TD*%
D24*
%TO.P,R5,1*%
%TO.N,phase_C*%
X151750000Y-88312500D03*
%TO.P,R5,2*%
%TO.N,PH_CS_C*%
X151750000Y-83687500D03*
%TD*%
%TO.P,R4,1*%
%TO.N,phase_A*%
X139250000Y-88312500D03*
%TO.P,R4,2*%
%TO.N,PH_CS_A*%
X139250000Y-83687500D03*
%TD*%
D25*
%TO.P,R2,1*%
%TO.N,+3.3INTRN*%
X154475000Y-63000000D03*
%TO.P,R2,2*%
%TO.N,nSLP*%
X152825000Y-63000000D03*
%TD*%
%TO.P,R1,1*%
%TO.N,+3.3INTRN*%
X154475000Y-65400000D03*
%TO.P,R1,2*%
%TO.N,nRST*%
X152825000Y-65400000D03*
%TD*%
D22*
%TO.P,J1,1,Pin_1*%
%TO.N,CC_out*%
X137000000Y-74000000D03*
D23*
%TO.P,J1,2,Pin_2*%
%TO.N,CA_out*%
X137000000Y-76540000D03*
%TD*%
D26*
%TO.P,C6,1*%
%TO.N,+3.3V*%
X148250000Y-83275000D03*
%TO.P,C6,2*%
%TO.N,GND*%
X148250000Y-81725000D03*
%TD*%
%TO.P,C5,1*%
%TO.N,+3.3V*%
X160500000Y-83775000D03*
%TO.P,C5,2*%
%TO.N,GND*%
X160500000Y-82225000D03*
%TD*%
D27*
%TO.P,C4,1*%
%TO.N,GND*%
X155775000Y-67500000D03*
%TO.P,C4,2*%
%TO.N,+3.3INTRN*%
X154225000Y-67500000D03*
%TD*%
D28*
%TO.P,C3,2*%
%TO.N,Net-(U1-CPL)*%
X141750000Y-75500000D03*
%TO.P,C3,1*%
%TO.N,Net-(U1-CPH)*%
X141750000Y-73950000D03*
%TD*%
%TO.P,C2,1*%
%TO.N,Net-(U1-VCP)*%
X141750000Y-77725000D03*
%TO.P,C2,2*%
%TO.N,VCC*%
X141750000Y-79275000D03*
%TD*%
D29*
%TO.P,C1,2*%
%TO.N,GND*%
X161750000Y-77150000D03*
D30*
%TO.P,C1,1*%
%TO.N,VCC*%
X159250000Y-77150000D03*
%TD*%
D31*
%TO.N,GND*%
X154240000Y-80400000D03*
X155550000Y-80030000D03*
X158750000Y-81250000D03*
X163320000Y-88060000D03*
X161810000Y-91210000D03*
X158190000Y-85850000D03*
X159020000Y-92890000D03*
X156560000Y-95030000D03*
X153490000Y-98170000D03*
X149399672Y-100280327D03*
X147250000Y-100390000D03*
X144980000Y-100460000D03*
X139770000Y-97750000D03*
X138380000Y-96420000D03*
X136360000Y-93990000D03*
X131230000Y-87270000D03*
X131440000Y-80870000D03*
X131440000Y-73860000D03*
X131320000Y-68530000D03*
X138160000Y-58080000D03*
X144060000Y-58030000D03*
X142779006Y-56566798D03*
X147930991Y-57320869D03*
X151773775Y-58075702D03*
X153626546Y-56360173D03*
X156010000Y-57680000D03*
X158200000Y-60600759D03*
X158830000Y-58730000D03*
X164440000Y-61610000D03*
X162110000Y-60660000D03*
X160007303Y-61837985D03*
X158190000Y-63850000D03*
X161100000Y-66540000D03*
X164790000Y-67970000D03*
X142830000Y-69650000D03*
X156090000Y-83920000D03*
X146970000Y-81630000D03*
X156280000Y-81870000D03*
X147320000Y-80620000D03*
X141170000Y-85025000D03*
X134720000Y-90750000D03*
X134860000Y-92420000D03*
X141600000Y-85700000D03*
X152120000Y-72890000D03*
X151803384Y-72026309D03*
X144949620Y-72229620D03*
%TO.N,IN3*%
X152000000Y-71060000D03*
X144615380Y-61465380D03*
%TO.N,IN2*%
X143710000Y-72550000D03*
X142100000Y-61500000D03*
%TO.N,+3.3V*%
X147410000Y-85940000D03*
X139610000Y-90530000D03*
%TO.N,nRST*%
X152730000Y-64150000D03*
X149624999Y-66085916D03*
%TO.N,nSLP*%
X149590000Y-67000000D03*
X151570000Y-65560000D03*
%TO.N,GND*%
X144750000Y-73050000D03*
X151200000Y-72850000D03*
X151150000Y-71650000D03*
X151400000Y-74150000D03*
X149000000Y-68300000D03*
X165450000Y-86000000D03*
X164410749Y-83737982D03*
X163034432Y-83572161D03*
X163250000Y-84650000D03*
X163700000Y-82250000D03*
X164156048Y-74440384D03*
X164798814Y-75504964D03*
X164879159Y-78417494D03*
X163774407Y-80948381D03*
X164738554Y-80225271D03*
X164798814Y-81470628D03*
X162589308Y-82414690D03*
X162700000Y-81500000D03*
X162800000Y-80400000D03*
X164000000Y-79300000D03*
%TO.N,VCC*%
X150950000Y-78250000D03*
X151850000Y-78150000D03*
X151600000Y-77250000D03*
X150800000Y-77250000D03*
X154100000Y-77200000D03*
X155300000Y-78000000D03*
X156600000Y-78100000D03*
X155500000Y-76800000D03*
X143100000Y-79600000D03*
X144000000Y-78600000D03*
X144300000Y-79400000D03*
X145600000Y-78500000D03*
X145100000Y-77750000D03*
X146000000Y-77150000D03*
%TO.N,CC_out*%
X153700000Y-83050000D03*
X136700000Y-84300000D03*
%TO.N,CA_out*%
X141600000Y-82900000D03*
X140164676Y-81464676D03*
%TO.N,GND*%
X143750000Y-71000000D03*
X156000000Y-85500000D03*
X158000000Y-87000000D03*
X145500000Y-86750000D03*
X143750000Y-85500000D03*
X148250000Y-80500000D03*
X152250000Y-74250000D03*
X158000000Y-69750000D03*
X156750000Y-67500000D03*
%TO.N,EN*%
X140200000Y-70950000D03*
%TD*%
D32*
%TO.N,VCC*%
X159250000Y-77150000D02*
X158500000Y-76400000D01*
X158500000Y-76400000D02*
X158500000Y-73750000D01*
X158500000Y-73750000D02*
X161500000Y-70750000D01*
X156600000Y-78100000D02*
X156600000Y-75130000D01*
X156600000Y-75130000D02*
X160980000Y-70750000D01*
X160980000Y-70750000D02*
X161500000Y-70750000D01*
X155500000Y-76800000D02*
X155500000Y-75270000D01*
X155500000Y-75270000D02*
X160020000Y-70750000D01*
X160020000Y-70750000D02*
X161500000Y-70750000D01*
X159120000Y-73400000D02*
X159260000Y-73540000D01*
X155500000Y-73400000D02*
X159120000Y-73400000D01*
X159260000Y-73540000D02*
X161500000Y-71300000D01*
X161500000Y-71300000D02*
X161500000Y-70750000D01*
X156600000Y-78100000D02*
X158300000Y-78100000D01*
X158300000Y-78100000D02*
X159250000Y-77150000D01*
X154100000Y-77200000D02*
X159200000Y-77200000D01*
X159200000Y-77200000D02*
X159250000Y-77150000D01*
X159250000Y-77150000D02*
X156150000Y-77150000D01*
X156150000Y-77150000D02*
X155300000Y-78000000D01*
X155500000Y-76800000D02*
X158900000Y-76800000D01*
X158900000Y-76800000D02*
X159250000Y-77150000D01*
X156600000Y-78100000D02*
X156600000Y-74500000D01*
X156600000Y-74500000D02*
X155500000Y-73400000D01*
X154100000Y-77200000D02*
X154100000Y-74800000D01*
X154100000Y-74800000D02*
X155500000Y-73400000D01*
X155500000Y-76800000D02*
X155500000Y-73400000D01*
X156600000Y-78100000D02*
X156600000Y-77900000D01*
X156600000Y-77900000D02*
X155500000Y-76800000D01*
X155300000Y-78000000D02*
X155300000Y-77000000D01*
X155300000Y-77000000D02*
X155500000Y-76800000D01*
X154100000Y-77200000D02*
X152800000Y-77200000D01*
X152800000Y-77200000D02*
X151850000Y-78150000D01*
X155300000Y-78000000D02*
X152000000Y-78000000D01*
X152000000Y-78000000D02*
X151850000Y-78150000D01*
X155500000Y-76800000D02*
X152050000Y-76800000D01*
X152050000Y-76800000D02*
X151600000Y-77250000D01*
D33*
%TO.N,GND*%
X143750000Y-70570000D02*
X142830000Y-69650000D01*
X143750000Y-71000000D02*
X143750000Y-70570000D01*
D32*
X147320000Y-80620000D02*
X147320000Y-81280000D01*
X147320000Y-81280000D02*
X146970000Y-81630000D01*
X156280000Y-83610000D02*
X156115000Y-83775000D01*
X148250000Y-80500000D02*
X147440000Y-80500000D01*
X147440000Y-80500000D02*
X147320000Y-80620000D01*
X156280000Y-81870000D02*
X156280000Y-83610000D01*
X134860000Y-92420000D02*
X134860000Y-90890000D01*
X134860000Y-90890000D02*
X134720000Y-90750000D01*
X141800000Y-85500000D02*
X141600000Y-85700000D01*
X143750000Y-85500000D02*
X141800000Y-85500000D01*
X151803384Y-72026309D02*
X151803384Y-72573384D01*
X151803384Y-72573384D02*
X152120000Y-72890000D01*
X151526309Y-72026309D02*
X151803384Y-72026309D01*
X151150000Y-71650000D02*
X151526309Y-72026309D01*
X144750000Y-73050000D02*
X144750000Y-72464594D01*
X144750000Y-72464594D02*
X144967297Y-72247297D01*
D33*
X144750000Y-72429240D02*
X144949620Y-72229620D01*
X144750000Y-73050000D02*
X144750000Y-72429240D01*
D34*
%TO.N,IN3*%
X147460001Y-70650001D02*
X147075001Y-70265001D01*
X143460000Y-61000000D02*
X144150000Y-61000000D01*
X144150000Y-61000000D02*
X144615380Y-61465380D01*
X152000000Y-71060000D02*
X151590001Y-70650001D01*
X151590001Y-70650001D02*
X147460001Y-70650001D01*
X147075001Y-70265001D02*
X147075001Y-69650001D01*
%TO.N,IN2*%
X143710000Y-72550000D02*
X145160000Y-71100000D01*
X145160000Y-71100000D02*
X145160000Y-70650001D01*
X145160000Y-70650001D02*
X145260000Y-70550001D01*
X145260000Y-70550001D02*
X145675001Y-70550001D01*
X145675001Y-70550001D02*
X145775001Y-70450001D01*
X145775001Y-70450001D02*
X145775001Y-69650001D01*
X140920000Y-61000000D02*
X141600000Y-61000000D01*
X141600000Y-61000000D02*
X142100000Y-61500000D01*
X140920000Y-61000000D02*
X141652328Y-61000000D01*
%TO.N,IN1*%
X138380000Y-61000000D02*
X136830000Y-62550000D01*
X136830000Y-62550000D02*
X136830000Y-68499239D01*
X136830000Y-68499239D02*
X139980761Y-71650000D01*
X139980761Y-71650000D02*
X144019239Y-71650000D01*
X144019239Y-71650000D02*
X144475001Y-71194238D01*
X144475001Y-71194238D02*
X144475001Y-69650001D01*
%TO.N,Net-(U2-En)*%
X146000000Y-61000000D02*
X144850000Y-62150000D01*
X144850000Y-62150000D02*
X138143654Y-62150000D01*
X138143654Y-62150000D02*
X137230000Y-63063654D01*
X137230000Y-63063654D02*
X137230000Y-64905000D01*
X137230000Y-64905000D02*
X140250000Y-67925000D01*
D32*
%TO.N,+3.3V*%
X161200000Y-86550000D02*
X160815000Y-86165000D01*
X160500000Y-84870000D02*
X160500000Y-83775000D01*
X160815000Y-86165000D02*
X160550000Y-85900000D01*
X160500000Y-85250000D02*
X160500000Y-84870000D01*
X160500000Y-85850000D02*
X160500000Y-84870000D01*
X160815000Y-86165000D02*
X160500000Y-85850000D01*
D35*
X160500000Y-85250000D02*
X160500000Y-85850000D01*
D32*
X138430000Y-90760000D02*
X138430000Y-93150280D01*
X138430000Y-93150280D02*
X144419720Y-99140000D01*
X161200000Y-88184460D02*
X161200000Y-86550000D01*
X144419720Y-99140000D02*
X150244460Y-99140000D01*
X150244460Y-99140000D02*
X161200000Y-88184460D01*
D33*
X147115000Y-60055000D02*
X147200000Y-60140000D01*
X147200000Y-60140000D02*
X147200000Y-62200000D01*
X147200000Y-62200000D02*
X148540000Y-63540000D01*
D32*
X134410000Y-59180000D02*
X146240000Y-59180000D01*
X132830000Y-60760000D02*
X134410000Y-59180000D01*
X146240000Y-59180000D02*
X147115000Y-60055000D01*
X138430000Y-90760000D02*
X132830000Y-85160000D01*
X132830000Y-85160000D02*
X132830000Y-60760000D01*
D36*
X138430000Y-90760000D02*
X138550000Y-90640000D01*
X138550000Y-90640000D02*
X139500000Y-90640000D01*
X139500000Y-90640000D02*
X139610000Y-90530000D01*
X146405000Y-83775000D02*
X146405000Y-84935000D01*
X146405000Y-84935000D02*
X147410000Y-85940000D01*
D33*
X147340000Y-60640000D02*
X145710000Y-59010000D01*
X147340000Y-62340000D02*
X147340000Y-60640000D01*
X148540000Y-63540000D02*
X147340000Y-62340000D01*
X145710000Y-59010000D02*
X134580000Y-59010000D01*
X134580000Y-59010000D02*
X132830000Y-60760000D01*
%TO.N,nRST*%
X152730000Y-64150000D02*
X152730000Y-65305000D01*
X143460000Y-63540000D02*
X146005916Y-66085916D01*
X146005916Y-66085916D02*
X149624999Y-66085916D01*
X152730000Y-65305000D02*
X152825000Y-65400000D01*
%TO.N,nSLP*%
X140920000Y-65370000D02*
X141730000Y-66180000D01*
X140920000Y-63540000D02*
X140920000Y-65370000D01*
X141730000Y-66180000D02*
X142550000Y-67000000D01*
X142550000Y-67000000D02*
X149590000Y-67000000D01*
X150975000Y-69650001D02*
X150975000Y-65280000D01*
X150975000Y-65280000D02*
X150975000Y-64850000D01*
X151290000Y-65280000D02*
X150975000Y-65280000D01*
X151570000Y-65560000D02*
X151290000Y-65280000D01*
%TO.N,nFLT*%
X150324999Y-69650001D02*
X150324999Y-67780000D01*
X150324999Y-67780000D02*
X150324999Y-66270000D01*
D34*
X150194999Y-67650000D02*
X150324999Y-67780000D01*
X138380000Y-63540000D02*
X142490000Y-67650000D01*
X142490000Y-67650000D02*
X150194999Y-67650000D01*
D33*
X150324999Y-66270000D02*
X150324999Y-63200001D01*
D35*
%TO.N,GND*%
X149000000Y-68300000D02*
X149024999Y-68324999D01*
X149024999Y-68324999D02*
X149024999Y-69650001D01*
X149675001Y-75349999D02*
X149675001Y-74225001D01*
X149675001Y-74225001D02*
X149550000Y-74100000D01*
X147350000Y-75349999D02*
X147724999Y-75349999D01*
X147350000Y-74119238D02*
X147284619Y-74184619D01*
X147075001Y-75349999D02*
X147350000Y-75349999D01*
X147350000Y-75349999D02*
X147350000Y-74119238D01*
X147075001Y-75349999D02*
X147075001Y-74300002D01*
X147075001Y-74300002D02*
X146924999Y-74150000D01*
X146924999Y-74150000D02*
X146650000Y-74150000D01*
X147075001Y-74394237D02*
X147284619Y-74184619D01*
X147724999Y-74624999D02*
X147284619Y-74184619D01*
X147724999Y-75349999D02*
X147724999Y-74624999D01*
X147724999Y-75349999D02*
X147724999Y-74205762D01*
X147724999Y-74205762D02*
X147780761Y-74150000D01*
X147780761Y-74150000D02*
X148319239Y-74150000D01*
X148319239Y-74150000D02*
X148550001Y-73919238D01*
X147724999Y-75349999D02*
X147724999Y-75044235D01*
X147724999Y-75044235D02*
X147075001Y-74394237D01*
X147075001Y-75349999D02*
X147075001Y-74394237D01*
D32*
%TO.N,PH_CS_A*%
X147200000Y-78500000D02*
X144275000Y-81425000D01*
D34*
X146424999Y-76099996D02*
X146424999Y-75349999D01*
X146849999Y-76249999D02*
X146575002Y-76249999D01*
X147200000Y-78200000D02*
X147200000Y-76600000D01*
X147200000Y-76600000D02*
X146849999Y-76249999D01*
X146575002Y-76249999D02*
X146424999Y-76099996D01*
D32*
X147200000Y-78200000D02*
X147200000Y-78500000D01*
X144275000Y-81425000D02*
X142875000Y-81425000D01*
D35*
%TO.N,Net-(D1-A)*%
X155500000Y-71750000D02*
X155500000Y-69787500D01*
X155500000Y-69787500D02*
X155462500Y-69750000D01*
D36*
%TO.N,+3.3V*%
X148250000Y-83275000D02*
X145635000Y-83275000D01*
X145635000Y-83275000D02*
X145135000Y-83775000D01*
X160500000Y-83775000D02*
X157385000Y-83775000D01*
D35*
X160500000Y-85850000D02*
X160550000Y-85900000D01*
D33*
%TO.N,EN*%
X145100000Y-68350000D02*
X146400000Y-68350000D01*
X142350000Y-68350000D02*
X145100000Y-68350000D01*
X145100000Y-68350000D02*
X145125000Y-68375000D01*
X145125000Y-68375000D02*
X145125000Y-69650001D01*
X146400000Y-68350000D02*
X147750000Y-68350000D01*
X146400000Y-68350000D02*
X146424999Y-68374999D01*
X146424999Y-68374999D02*
X146424999Y-69650001D01*
X140250000Y-70450000D02*
X142350000Y-68350000D01*
X140250000Y-69575000D02*
X140250000Y-70450000D01*
X140250000Y-70450000D02*
X140250000Y-70900000D01*
X147750000Y-68350000D02*
X147724999Y-68375001D01*
X147724999Y-68375001D02*
X147724999Y-69650001D01*
X140250000Y-70900000D02*
X140200000Y-70950000D01*
D36*
%TO.N,+3.3INTRN*%
X154475000Y-63000000D02*
X154475000Y-60700000D01*
X154475000Y-65400000D02*
X154475000Y-63000000D01*
X154225000Y-67500000D02*
X154225000Y-65650000D01*
X154225000Y-65650000D02*
X154475000Y-65400000D01*
D33*
%TO.N,nFLT*%
X150324999Y-63200001D02*
X152825000Y-60700000D01*
%TO.N,nSLP*%
X150975000Y-64850000D02*
X152825000Y-63000000D01*
%TO.N,nRST*%
X151624999Y-69650001D02*
X151624999Y-66600001D01*
X151624999Y-66600001D02*
X152825000Y-65400000D01*
D36*
%TO.N,+3.3INTRN*%
X154225000Y-67500000D02*
X152524998Y-69200002D01*
X152524998Y-69200002D02*
X152524998Y-69650001D01*
D34*
%TO.N,phase_B*%
X148375001Y-75349999D02*
X148349999Y-75375001D01*
X148349999Y-75375001D02*
X148349999Y-79249999D01*
X148349999Y-79249999D02*
X148750000Y-79650000D01*
D32*
X149500000Y-80400000D02*
X149500000Y-87634460D01*
X148750000Y-79650000D02*
X149500000Y-80400000D01*
X149500000Y-87634460D02*
X145996960Y-91137500D01*
X145996960Y-91137500D02*
X145262500Y-91137500D01*
X144650000Y-94225000D02*
X144800001Y-94074999D01*
X145262500Y-91137500D02*
X144600000Y-91800000D01*
X144600000Y-91800000D02*
X144600000Y-92250000D01*
X147175001Y-94074999D02*
X148750000Y-92500000D01*
X144600000Y-92250000D02*
X144650000Y-92300000D01*
X144650000Y-92300000D02*
X144650000Y-94225000D01*
X144800001Y-94074999D02*
X147175001Y-94074999D01*
D36*
%TO.N,phase_C*%
X148700000Y-90446357D02*
X148700000Y-91000000D01*
X151750000Y-88312500D02*
X152443750Y-89006250D01*
X150140107Y-89006250D02*
X148700000Y-90446357D01*
X152443750Y-89006250D02*
X150140107Y-89006250D01*
X152443750Y-89006250D02*
X153712500Y-90275000D01*
D32*
X148700000Y-91000000D02*
X147750000Y-91000000D01*
X147750000Y-91000000D02*
X146250000Y-92500000D01*
D36*
X153712500Y-90275000D02*
X154213762Y-90275000D01*
X155414999Y-90400000D02*
X156115000Y-89699999D01*
X154213762Y-90275000D02*
X154338762Y-90400000D01*
X154338762Y-90400000D02*
X155414999Y-90400000D01*
X156115000Y-89699999D02*
X156115000Y-88725000D01*
D34*
%TO.N,PH_CS_C*%
X155802475Y-86447525D02*
X155654949Y-86300000D01*
D35*
X155802475Y-86447525D02*
X157385000Y-88030050D01*
X157385000Y-88030050D02*
X157385000Y-88725000D01*
D36*
X151750000Y-83687500D02*
X154479963Y-86417463D01*
X154479963Y-86417463D02*
X155432538Y-86417463D01*
D34*
X149024999Y-75349999D02*
X149024999Y-78350000D01*
D32*
X149024999Y-78350000D02*
X151750000Y-81075001D01*
X151750000Y-81075001D02*
X151750000Y-83687500D01*
D35*
%TO.N,PH_CS_A*%
X139250000Y-83687500D02*
X141512500Y-81425000D01*
X141512500Y-81425000D02*
X142875000Y-81425000D01*
D32*
X140100000Y-84537500D02*
X140100000Y-87125000D01*
X144269460Y-87125000D02*
X145135000Y-87990540D01*
D34*
X139931250Y-84368750D02*
X139250000Y-83687500D01*
D32*
X139931250Y-84368750D02*
X140100000Y-84537500D01*
X140100000Y-87125000D02*
X144269460Y-87125000D01*
X145135000Y-87990540D02*
X145135000Y-88725000D01*
%TO.N,phase_A*%
X139250000Y-88312500D02*
X141418750Y-90481250D01*
D36*
X148600000Y-95150000D02*
X151400000Y-95150000D01*
X151400000Y-95150000D02*
X151400000Y-94550000D01*
X151250000Y-94400000D02*
X151250000Y-92500000D01*
X151400000Y-94550000D02*
X151250000Y-94400000D01*
X142100000Y-91162500D02*
X142100000Y-95300000D01*
X141418750Y-90481250D02*
X142100000Y-91162500D01*
X142100000Y-95300000D02*
X148450000Y-95300000D01*
X148450000Y-95300000D02*
X148600000Y-95150000D01*
D33*
X141700000Y-90050000D02*
X140987500Y-90050000D01*
D35*
X142092316Y-90050000D02*
X142192316Y-90150000D01*
D33*
X143514999Y-90050000D02*
X141700000Y-90050000D01*
D35*
X141700000Y-90050000D02*
X142092316Y-90050000D01*
X142192316Y-90150000D02*
X143414999Y-90150000D01*
X143414999Y-90150000D02*
X143865000Y-89699999D01*
D34*
%TO.N,phase_C*%
X151750000Y-88312500D02*
X150437500Y-88312500D01*
%TO.N,PH_CS_C*%
X153750000Y-85650000D02*
X153712500Y-85650000D01*
X153712500Y-85650000D02*
X151750000Y-83687500D01*
X154400000Y-86300000D02*
X153750000Y-85650000D01*
X155654949Y-86300000D02*
X154400000Y-86300000D01*
D33*
%TO.N,phase_A*%
X143865000Y-88725000D02*
X143865000Y-89699999D01*
X143865000Y-89699999D02*
X143514999Y-90050000D01*
X140987500Y-90050000D02*
X139250000Y-88312500D01*
%TO.N,CC_out*%
X136700000Y-84300000D02*
X135800000Y-83400000D01*
X135800000Y-83400000D02*
X135800000Y-75200000D01*
X135800000Y-75200000D02*
X137000000Y-74000000D01*
X154845000Y-83775000D02*
X154425000Y-83775000D01*
X154425000Y-83775000D02*
X153700000Y-83050000D01*
D35*
%TO.N,CA_out*%
X139600000Y-80900000D02*
X139550000Y-80900000D01*
X140164676Y-81464676D02*
X139600000Y-80900000D01*
D32*
X142475000Y-83775000D02*
X141600000Y-82900000D01*
X142595000Y-83775000D02*
X142475000Y-83775000D01*
D35*
X139550000Y-80900000D02*
X137000000Y-78350000D01*
X137000000Y-78350000D02*
X137000000Y-76540000D01*
D33*
%TO.N,Net-(U1-VCP)*%
X145125000Y-76149999D02*
X144712500Y-76562500D01*
D32*
X143700000Y-76800000D02*
X144475000Y-76800000D01*
X144475000Y-76800000D02*
X144712500Y-76562500D01*
D35*
%TO.N,Net-(U1-CPH)*%
X144000000Y-74000000D02*
X144475001Y-74475001D01*
X144475001Y-74475001D02*
X144475001Y-75349999D01*
D36*
%TO.N,Net-(U1-VCP)*%
X143700000Y-76800000D02*
X142775000Y-77725000D01*
X142775000Y-77725000D02*
X141750000Y-77725000D01*
D33*
X145125000Y-75349999D02*
X145125000Y-76149999D01*
D36*
%TO.N,Net-(U1-CPL)*%
X141750000Y-75500000D02*
X143375000Y-75500000D01*
X143375000Y-75500000D02*
X143525001Y-75349999D01*
D32*
%TO.N,Net-(U1-CPH)*%
X141750000Y-73950000D02*
X143950000Y-73950000D01*
X143950000Y-73950000D02*
X144000000Y-74000000D01*
%TD*%
%TA.AperFunction,Conductor*%
%TO.N,GND*%
G36*
X147795444Y-79098020D02*
G01*
X147838709Y-79141285D01*
X147849499Y-79186230D01*
X147849499Y-79315891D01*
X147872036Y-79400000D01*
X147883608Y-79443189D01*
X147949495Y-79557308D01*
X147953448Y-79562459D01*
X147951085Y-79564271D01*
X147973281Y-79607834D01*
X147974500Y-79623321D01*
X147974500Y-79726382D01*
X148004302Y-79876204D01*
X148004302Y-79876206D01*
X148062759Y-80017334D01*
X148062759Y-80017335D01*
X148067748Y-80024801D01*
X148147630Y-80144352D01*
X148147633Y-80144355D01*
X148695504Y-80692226D01*
X148723281Y-80746743D01*
X148724500Y-80762230D01*
X148724500Y-82332005D01*
X148705593Y-82390196D01*
X148656093Y-82426160D01*
X148603820Y-82426982D01*
X148603598Y-82428199D01*
X148598628Y-82427291D01*
X148581127Y-82425913D01*
X148563163Y-82424500D01*
X148563162Y-82424500D01*
X148562336Y-82424435D01*
X148532219Y-82417205D01*
X148512666Y-82409106D01*
X148512663Y-82409105D01*
X148338693Y-82374500D01*
X148338691Y-82374500D01*
X145723692Y-82374500D01*
X145546308Y-82374500D01*
X145546303Y-82374500D01*
X145401255Y-82403351D01*
X145370140Y-82404547D01*
X145328110Y-82399500D01*
X145328102Y-82399500D01*
X144941898Y-82399500D01*
X144941893Y-82399500D01*
X144853434Y-82410123D01*
X144712660Y-82465637D01*
X144712656Y-82465640D01*
X144592081Y-82557075D01*
X144592075Y-82557081D01*
X144500640Y-82677656D01*
X144500637Y-82677660D01*
X144445123Y-82818434D01*
X144434500Y-82906893D01*
X144434500Y-83172482D01*
X144417816Y-83227483D01*
X144336987Y-83348453D01*
X144269106Y-83512330D01*
X144269104Y-83512336D01*
X144234500Y-83686305D01*
X144234500Y-83863694D01*
X144269104Y-84037663D01*
X144269106Y-84037669D01*
X144336987Y-84201546D01*
X144347977Y-84217994D01*
X144417814Y-84322513D01*
X144417816Y-84322515D01*
X144434500Y-84377516D01*
X144434500Y-84643106D01*
X144445123Y-84731565D01*
X144500637Y-84872339D01*
X144500638Y-84872341D01*
X144500639Y-84872342D01*
X144592078Y-84992922D01*
X144712658Y-85084361D01*
X144712659Y-85084361D01*
X144712660Y-85084362D01*
X144750464Y-85099270D01*
X144853436Y-85139877D01*
X144941898Y-85150500D01*
X144941900Y-85150500D01*
X145328100Y-85150500D01*
X145328102Y-85150500D01*
X145416564Y-85139877D01*
X145416565Y-85139876D01*
X145416569Y-85139876D01*
X145422718Y-85138322D01*
X145423510Y-85141458D01*
X145471386Y-85138277D01*
X145523162Y-85170880D01*
X145538567Y-85196367D01*
X145560576Y-85249501D01*
X145606984Y-85361541D01*
X145606985Y-85361543D01*
X145606987Y-85361547D01*
X145625665Y-85389500D01*
X145705536Y-85509036D01*
X146835965Y-86639464D01*
X146983454Y-86738013D01*
X147147334Y-86805895D01*
X147321309Y-86840500D01*
X147321310Y-86840500D01*
X147498691Y-86840500D01*
X147498692Y-86840500D01*
X147672666Y-86805895D01*
X147836547Y-86738013D01*
X147836550Y-86738010D01*
X147836554Y-86738009D01*
X147879139Y-86709553D01*
X147984036Y-86639464D01*
X148109464Y-86514036D01*
X148179553Y-86409139D01*
X148208009Y-86366554D01*
X148208010Y-86366550D01*
X148208013Y-86366547D01*
X148275895Y-86202666D01*
X148310500Y-86028692D01*
X148310500Y-85851309D01*
X148275895Y-85677334D01*
X148208013Y-85513454D01*
X148109464Y-85365965D01*
X147939866Y-85196367D01*
X147334496Y-84590995D01*
X147306719Y-84536479D01*
X147305500Y-84520992D01*
X147305500Y-84274500D01*
X147324407Y-84216309D01*
X147373907Y-84180345D01*
X147404500Y-84175500D01*
X148338690Y-84175500D01*
X148338691Y-84175500D01*
X148512666Y-84140894D01*
X148532222Y-84132793D01*
X148562342Y-84125563D01*
X148563155Y-84125499D01*
X148563162Y-84125499D01*
X148598627Y-84122709D01*
X148598639Y-84122705D01*
X148603602Y-84121800D01*
X148603842Y-84123115D01*
X148659022Y-84124842D01*
X148707373Y-84162336D01*
X148724500Y-84217994D01*
X148724500Y-87272230D01*
X148705593Y-87330421D01*
X148695504Y-87342234D01*
X145704734Y-90333004D01*
X145650217Y-90360781D01*
X145634730Y-90362000D01*
X145186117Y-90362000D01*
X145036295Y-90391802D01*
X145036293Y-90391802D01*
X144916774Y-90441308D01*
X144916775Y-90441309D01*
X144895163Y-90450260D01*
X144768147Y-90535129D01*
X144768146Y-90535130D01*
X144105648Y-91197630D01*
X143997633Y-91305644D01*
X143997630Y-91305648D01*
X143912759Y-91432664D01*
X143912759Y-91432665D01*
X143854302Y-91573793D01*
X143854302Y-91573795D01*
X143824500Y-91723617D01*
X143824500Y-92326382D01*
X143854302Y-92476204D01*
X143854302Y-92476206D01*
X143866964Y-92506774D01*
X143874500Y-92544659D01*
X143874500Y-94300500D01*
X143855593Y-94358691D01*
X143806093Y-94394655D01*
X143775500Y-94399500D01*
X143099500Y-94399500D01*
X143041309Y-94380593D01*
X143005345Y-94331093D01*
X143000500Y-94300500D01*
X143000500Y-91073814D01*
X143000500Y-91073809D01*
X143000342Y-91073013D01*
X142969670Y-90918813D01*
X142976862Y-90858053D01*
X143018395Y-90813123D01*
X143066768Y-90800500D01*
X143479067Y-90800500D01*
X143479068Y-90800500D01*
X143604743Y-90775501D01*
X143723126Y-90726465D01*
X143751577Y-90707455D01*
X143829668Y-90655277D01*
X144370277Y-90114668D01*
X144441466Y-90008125D01*
X144448935Y-89990092D01*
X144488667Y-89943569D01*
X144548161Y-89929283D01*
X144600216Y-89949093D01*
X144712658Y-90034361D01*
X144712659Y-90034361D01*
X144712660Y-90034362D01*
X144776614Y-90059582D01*
X144853436Y-90089877D01*
X144941898Y-90100500D01*
X144941900Y-90100500D01*
X145328100Y-90100500D01*
X145328102Y-90100500D01*
X145416564Y-90089877D01*
X145557342Y-90034361D01*
X145677922Y-89942922D01*
X145769361Y-89822342D01*
X145824877Y-89681564D01*
X145835500Y-89593102D01*
X145835500Y-89080014D01*
X145843036Y-89042128D01*
X145880698Y-88951205D01*
X145910500Y-88801380D01*
X145910500Y-87914160D01*
X145880698Y-87764335D01*
X145822239Y-87623203D01*
X145819666Y-87619352D01*
X145772080Y-87548135D01*
X145737373Y-87496191D01*
X145737371Y-87496189D01*
X145737370Y-87496187D01*
X144763812Y-86522630D01*
X144636797Y-86437761D01*
X144636796Y-86437760D01*
X144636794Y-86437759D01*
X144495665Y-86379302D01*
X144345842Y-86349500D01*
X144345840Y-86349500D01*
X140974500Y-86349500D01*
X140916309Y-86330593D01*
X140880345Y-86281093D01*
X140875500Y-86250500D01*
X140875500Y-84461125D01*
X140875500Y-84461120D01*
X140873347Y-84450299D01*
X140880535Y-84389543D01*
X140885223Y-84380603D01*
X140926744Y-84310398D01*
X140972598Y-84152569D01*
X140975500Y-84115694D01*
X140975500Y-83611229D01*
X140994407Y-83553038D01*
X141043907Y-83517074D01*
X141105093Y-83517074D01*
X141144501Y-83541223D01*
X141865505Y-84262227D01*
X141893281Y-84316742D01*
X141894500Y-84332229D01*
X141894500Y-84643106D01*
X141905123Y-84731565D01*
X141960637Y-84872339D01*
X141960638Y-84872341D01*
X141960639Y-84872342D01*
X142052078Y-84992922D01*
X142172658Y-85084361D01*
X142172659Y-85084361D01*
X142172660Y-85084362D01*
X142210464Y-85099270D01*
X142313436Y-85139877D01*
X142401898Y-85150500D01*
X142401900Y-85150500D01*
X142788100Y-85150500D01*
X142788102Y-85150500D01*
X142876564Y-85139877D01*
X143017342Y-85084361D01*
X143137922Y-84992922D01*
X143229361Y-84872342D01*
X143284877Y-84731564D01*
X143295500Y-84643102D01*
X143295500Y-84130014D01*
X143303036Y-84092128D01*
X143315036Y-84063158D01*
X143340698Y-84001205D01*
X143370500Y-83851380D01*
X143370500Y-83698620D01*
X143340698Y-83548795D01*
X143325596Y-83512336D01*
X143303036Y-83457869D01*
X143295500Y-83419984D01*
X143295500Y-82906899D01*
X143295499Y-82906893D01*
X143291609Y-82874500D01*
X143284877Y-82818436D01*
X143247343Y-82723256D01*
X143229362Y-82677660D01*
X143229361Y-82677659D01*
X143229361Y-82677658D01*
X143137922Y-82557078D01*
X143017342Y-82465639D01*
X143017341Y-82465638D01*
X143017339Y-82465637D01*
X142876565Y-82410123D01*
X142788106Y-82399500D01*
X142788102Y-82399500D01*
X142401898Y-82399500D01*
X142401893Y-82399500D01*
X142313432Y-82410123D01*
X142297393Y-82416448D01*
X142236323Y-82420204D01*
X142191075Y-82394353D01*
X142094355Y-82297633D01*
X142094352Y-82297630D01*
X142033267Y-82256814D01*
X141995389Y-82208765D01*
X141992987Y-82147627D01*
X142026980Y-82096753D01*
X142084384Y-82075576D01*
X142088270Y-82075500D01*
X142422648Y-82075500D01*
X142477649Y-82092184D01*
X142507663Y-82112239D01*
X142648795Y-82170698D01*
X142798620Y-82200500D01*
X142798621Y-82200500D01*
X144351379Y-82200500D01*
X144351380Y-82200500D01*
X144501205Y-82170698D01*
X144642337Y-82112239D01*
X144769352Y-82027370D01*
X147680497Y-79116224D01*
X147735012Y-79088449D01*
X147795444Y-79098020D01*
G37*
%TD.AperFunction*%
%TA.AperFunction,Conductor*%
G36*
X143835464Y-68919407D02*
G01*
X143871428Y-68968907D01*
X143875054Y-69014986D01*
X143874501Y-69018477D01*
X143874501Y-70281522D01*
X143874502Y-70281524D01*
X143889353Y-70375300D01*
X143889355Y-70375305D01*
X143946951Y-70488343D01*
X143946953Y-70488345D01*
X143951532Y-70494648D01*
X143950015Y-70495749D01*
X143973282Y-70541413D01*
X143974501Y-70556900D01*
X143974501Y-70945916D01*
X143955594Y-71004107D01*
X143945505Y-71015920D01*
X143840921Y-71120504D01*
X143786404Y-71148281D01*
X143770917Y-71149500D01*
X141043552Y-71149500D01*
X140985361Y-71130593D01*
X140949397Y-71081093D01*
X140945174Y-71039416D01*
X140947821Y-71015920D01*
X140955249Y-70950000D01*
X140955249Y-70949996D01*
X140955249Y-70949995D01*
X140936314Y-70781946D01*
X140936311Y-70781933D01*
X140894718Y-70663067D01*
X140893345Y-70601897D01*
X140918156Y-70560367D01*
X142549029Y-68929496D01*
X142603546Y-68901719D01*
X142619033Y-68900500D01*
X143777273Y-68900500D01*
X143835464Y-68919407D01*
G37*
%TD.AperFunction*%
%TA.AperFunction,Conductor*%
G36*
X149733690Y-68169407D02*
G01*
X149769654Y-68218907D01*
X149774499Y-68249500D01*
X149774499Y-68550501D01*
X149755592Y-68608692D01*
X149706092Y-68644656D01*
X149675499Y-68649501D01*
X149443480Y-68649501D01*
X149443477Y-68649502D01*
X149349701Y-68664353D01*
X149349696Y-68664355D01*
X149236660Y-68721950D01*
X149146950Y-68811660D01*
X149113210Y-68877879D01*
X149069945Y-68921143D01*
X149009513Y-68930714D01*
X148954997Y-68902936D01*
X148936792Y-68877879D01*
X148918237Y-68841464D01*
X148903051Y-68811659D01*
X148813343Y-68721951D01*
X148700305Y-68664355D01*
X148700306Y-68664355D01*
X148606523Y-68649501D01*
X148606520Y-68649501D01*
X148374499Y-68649501D01*
X148316308Y-68630594D01*
X148280344Y-68581094D01*
X148275499Y-68550501D01*
X148275499Y-68528812D01*
X148278872Y-68503189D01*
X148300500Y-68422474D01*
X148300500Y-68277526D01*
X148300091Y-68276001D01*
X148299856Y-68275122D01*
X148299949Y-68273342D01*
X148299653Y-68271092D01*
X148300070Y-68271037D01*
X148303059Y-68214020D01*
X148341565Y-68166471D01*
X148395483Y-68150500D01*
X149675499Y-68150500D01*
X149733690Y-68169407D01*
G37*
%TD.AperFunction*%
%TA.AperFunction,Conductor*%
G36*
X146622903Y-62164788D02*
G01*
X146648762Y-62220240D01*
X146649500Y-62232306D01*
X146649500Y-62272475D01*
X146667501Y-62339654D01*
X146687002Y-62412434D01*
X146687015Y-62412484D01*
X146687016Y-62412485D01*
X146759490Y-62538015D01*
X146759492Y-62538017D01*
X146899489Y-62678015D01*
X146899490Y-62678015D01*
X147314031Y-63092556D01*
X147341808Y-63147073D01*
X147339654Y-63188182D01*
X147303791Y-63322028D01*
X147284723Y-63539996D01*
X147284723Y-63540003D01*
X147303791Y-63757969D01*
X147303792Y-63757976D01*
X147303793Y-63757977D01*
X147360425Y-63969330D01*
X147452898Y-64167639D01*
X147578402Y-64346877D01*
X147733123Y-64501598D01*
X147912361Y-64627102D01*
X148110670Y-64719575D01*
X148322023Y-64776207D01*
X148322027Y-64776207D01*
X148322030Y-64776208D01*
X148539997Y-64795277D01*
X148540000Y-64795277D01*
X148540003Y-64795277D01*
X148757969Y-64776208D01*
X148757970Y-64776207D01*
X148757977Y-64776207D01*
X148969330Y-64719575D01*
X149167639Y-64627102D01*
X149346877Y-64501598D01*
X149501598Y-64346877D01*
X149594404Y-64214335D01*
X149643267Y-64177515D01*
X149704443Y-64176447D01*
X149754564Y-64211541D01*
X149774484Y-64269393D01*
X149774499Y-64271121D01*
X149774499Y-65236730D01*
X149755592Y-65294921D01*
X149706092Y-65330885D01*
X149664416Y-65335108D01*
X149657661Y-65334347D01*
X149624999Y-65330667D01*
X149624997Y-65330667D01*
X149624996Y-65330667D01*
X149624995Y-65330667D01*
X149456945Y-65349601D01*
X149456933Y-65349604D01*
X149297308Y-65405460D01*
X149297307Y-65405460D01*
X149154112Y-65495436D01*
X149154109Y-65495438D01*
X149154109Y-65495439D01*
X149143126Y-65506421D01*
X149088612Y-65534197D01*
X149073125Y-65535416D01*
X146274949Y-65535416D01*
X146216758Y-65516509D01*
X146204945Y-65506420D01*
X144685967Y-63987442D01*
X144658190Y-63932925D01*
X144660343Y-63891819D01*
X144696207Y-63757977D01*
X144711967Y-63577841D01*
X144715277Y-63540003D01*
X144715277Y-63539996D01*
X144696208Y-63322030D01*
X144696207Y-63322027D01*
X144696207Y-63322023D01*
X144639575Y-63110670D01*
X144547102Y-62912362D01*
X144472826Y-62806284D01*
X144454937Y-62747772D01*
X144474857Y-62689920D01*
X144524978Y-62654826D01*
X144553922Y-62650500D01*
X144915890Y-62650500D01*
X144915892Y-62650500D01*
X145043186Y-62616392D01*
X145043188Y-62616390D01*
X145043190Y-62616390D01*
X145157309Y-62550503D01*
X145157309Y-62550502D01*
X145157314Y-62550500D01*
X145496789Y-62211023D01*
X145551304Y-62183247D01*
X145592412Y-62185400D01*
X145782023Y-62236207D01*
X145782027Y-62236207D01*
X145782030Y-62236208D01*
X145999997Y-62255277D01*
X146000000Y-62255277D01*
X146000003Y-62255277D01*
X146217969Y-62236208D01*
X146217970Y-62236207D01*
X146217977Y-62236207D01*
X146429330Y-62179575D01*
X146508662Y-62142581D01*
X146569389Y-62135125D01*
X146622903Y-62164788D01*
G37*
%TD.AperFunction*%
%TA.AperFunction,Conductor*%
G36*
X162963090Y-50102453D02*
G01*
X163307126Y-50170826D01*
X163315606Y-50172905D01*
X163600721Y-50256369D01*
X163686025Y-50281341D01*
X163694322Y-50284175D01*
X163885691Y-50359144D01*
X164053667Y-50424949D01*
X164061671Y-50428501D01*
X164354768Y-50574437D01*
X164407159Y-50600523D01*
X164414823Y-50604773D01*
X164743728Y-50806685D01*
X164750985Y-50811596D01*
X165060745Y-51041827D01*
X165067544Y-51047364D01*
X165355696Y-51304081D01*
X165361979Y-51310198D01*
X165626298Y-51591417D01*
X165632014Y-51598065D01*
X165870414Y-51901568D01*
X165875520Y-51908697D01*
X166086132Y-52232107D01*
X166090586Y-52239659D01*
X166271751Y-52580427D01*
X166275520Y-52588344D01*
X166425823Y-52943803D01*
X166428877Y-52952022D01*
X166525914Y-53253456D01*
X166530677Y-53283854D01*
X166499876Y-103387947D01*
X166480933Y-103446126D01*
X166431411Y-103482059D01*
X166398814Y-103486865D01*
X162282740Y-103401114D01*
X162271885Y-103400289D01*
X162265893Y-103399500D01*
X162265892Y-103399500D01*
X162265890Y-103399500D01*
X162206273Y-103399500D01*
X162204211Y-103399479D01*
X162200131Y-103399394D01*
X162144547Y-103398236D01*
X162144546Y-103398236D01*
X162144542Y-103398236D01*
X162138537Y-103398900D01*
X162127658Y-103399500D01*
X134502279Y-103399500D01*
X134497707Y-103399394D01*
X134098646Y-103380944D01*
X134089541Y-103380101D01*
X133696119Y-103325221D01*
X133687130Y-103323540D01*
X133300479Y-103232600D01*
X133291684Y-103230098D01*
X132915060Y-103103867D01*
X132906533Y-103100564D01*
X132543162Y-102940120D01*
X132534976Y-102936043D01*
X132187956Y-102742753D01*
X132180182Y-102737940D01*
X131852486Y-102513464D01*
X131845188Y-102507953D01*
X131539601Y-102254197D01*
X131532843Y-102248037D01*
X131251962Y-101967156D01*
X131245802Y-101960398D01*
X130992046Y-101654811D01*
X130986535Y-101647513D01*
X130762059Y-101319817D01*
X130757246Y-101312043D01*
X130563956Y-100965023D01*
X130559879Y-100956837D01*
X130514692Y-100854499D01*
X130399435Y-100593466D01*
X130396132Y-100584939D01*
X130269901Y-100208315D01*
X130267399Y-100199520D01*
X130200598Y-99915500D01*
X130176456Y-99812854D01*
X130174780Y-99803893D01*
X130119898Y-99410458D01*
X130119055Y-99401353D01*
X130117262Y-99362563D01*
X130100606Y-99002306D01*
X130100501Y-98997691D01*
X130100573Y-98878448D01*
X132645500Y-98878448D01*
X132645500Y-99121551D01*
X132677230Y-99362563D01*
X132677230Y-99362568D01*
X132740149Y-99597387D01*
X132833178Y-99821979D01*
X132887171Y-99915499D01*
X132954731Y-100032516D01*
X133102722Y-100225380D01*
X133274620Y-100397278D01*
X133467484Y-100545269D01*
X133678016Y-100666819D01*
X133678017Y-100666819D01*
X133678020Y-100666821D01*
X133902612Y-100759850D01*
X134137429Y-100822769D01*
X134378450Y-100854500D01*
X134378451Y-100854500D01*
X134621549Y-100854500D01*
X134621550Y-100854500D01*
X134862571Y-100822769D01*
X135097388Y-100759850D01*
X135321984Y-100666819D01*
X135394417Y-100625000D01*
X141194678Y-100625000D01*
X141213924Y-100832697D01*
X141251574Y-100965023D01*
X141271006Y-101033319D01*
X141363981Y-101220038D01*
X141489682Y-101386493D01*
X141643829Y-101527016D01*
X141724395Y-101576900D01*
X141821163Y-101636818D01*
X141821167Y-101636820D01*
X141821172Y-101636823D01*
X142015673Y-101712173D01*
X142220707Y-101750500D01*
X142429293Y-101750500D01*
X142634327Y-101712173D01*
X142828828Y-101636823D01*
X143006171Y-101527016D01*
X143160318Y-101386493D01*
X143286019Y-101220038D01*
X143378994Y-101033319D01*
X143436076Y-100832696D01*
X143455322Y-100625000D01*
X143436076Y-100417304D01*
X143378994Y-100216681D01*
X143286019Y-100029962D01*
X143160318Y-99863507D01*
X143006171Y-99722984D01*
X142989960Y-99712946D01*
X142828836Y-99613181D01*
X142828830Y-99613178D01*
X142828828Y-99613177D01*
X142634327Y-99537827D01*
X142634326Y-99537826D01*
X142634324Y-99537826D01*
X142429293Y-99499500D01*
X142220707Y-99499500D01*
X142015675Y-99537826D01*
X141821169Y-99613178D01*
X141821163Y-99613181D01*
X141643833Y-99722981D01*
X141643831Y-99722982D01*
X141643829Y-99722984D01*
X141535236Y-99821979D01*
X141489683Y-99863506D01*
X141363982Y-100029960D01*
X141363977Y-100029969D01*
X141271006Y-100216680D01*
X141213924Y-100417302D01*
X141194678Y-100625000D01*
X135394417Y-100625000D01*
X135532516Y-100545269D01*
X135725380Y-100397278D01*
X135897278Y-100225380D01*
X136045269Y-100032516D01*
X136166819Y-99821984D01*
X136259850Y-99597388D01*
X136322769Y-99362571D01*
X136354500Y-99121550D01*
X136354500Y-98878450D01*
X136322769Y-98637429D01*
X136259850Y-98402612D01*
X136166821Y-98178020D01*
X136045269Y-97967484D01*
X135897280Y-97774623D01*
X135897278Y-97774620D01*
X135725380Y-97602722D01*
X135532516Y-97454731D01*
X135532517Y-97454731D01*
X135532515Y-97454730D01*
X135321979Y-97333178D01*
X135097387Y-97240149D01*
X134937001Y-97197174D01*
X134862571Y-97177231D01*
X134862568Y-97177230D01*
X134862566Y-97177230D01*
X134621551Y-97145500D01*
X134621550Y-97145500D01*
X134378450Y-97145500D01*
X134378448Y-97145500D01*
X134137436Y-97177230D01*
X134137431Y-97177230D01*
X133902612Y-97240149D01*
X133678020Y-97333178D01*
X133467484Y-97454730D01*
X133274623Y-97602719D01*
X133102719Y-97774623D01*
X132954730Y-97967484D01*
X132833178Y-98178020D01*
X132740149Y-98402612D01*
X132677230Y-98637431D01*
X132677230Y-98637436D01*
X132645500Y-98878448D01*
X130100573Y-98878448D01*
X130123690Y-60683617D01*
X132054500Y-60683617D01*
X132054500Y-85236382D01*
X132084302Y-85386204D01*
X132084302Y-85386206D01*
X132142759Y-85527334D01*
X132142759Y-85527335D01*
X132143723Y-85528777D01*
X132227630Y-85654352D01*
X132227633Y-85654355D01*
X137534964Y-90961686D01*
X137562058Y-91012375D01*
X137564105Y-91022666D01*
X137631986Y-91186545D01*
X137637814Y-91195266D01*
X137654500Y-91250269D01*
X137654500Y-93226662D01*
X137684302Y-93376484D01*
X137684302Y-93376486D01*
X137742759Y-93517614D01*
X137742759Y-93517615D01*
X137776430Y-93568006D01*
X137827630Y-93644632D01*
X143925367Y-99742370D01*
X144014223Y-99801741D01*
X144044513Y-99821981D01*
X144044514Y-99821981D01*
X144044518Y-99821984D01*
X144052383Y-99827239D01*
X144052385Y-99827240D01*
X144052387Y-99827241D01*
X144104518Y-99848834D01*
X144193515Y-99885698D01*
X144343340Y-99915500D01*
X144343341Y-99915500D01*
X150320839Y-99915500D01*
X150320840Y-99915500D01*
X150470665Y-99885698D01*
X150611797Y-99827239D01*
X150738812Y-99742370D01*
X151602734Y-98878448D01*
X160395500Y-98878448D01*
X160395500Y-99121551D01*
X160427230Y-99362563D01*
X160427230Y-99362568D01*
X160490149Y-99597387D01*
X160583178Y-99821979D01*
X160637171Y-99915499D01*
X160704731Y-100032516D01*
X160852722Y-100225380D01*
X161024620Y-100397278D01*
X161217484Y-100545269D01*
X161428016Y-100666819D01*
X161428017Y-100666819D01*
X161428020Y-100666821D01*
X161652612Y-100759850D01*
X161887429Y-100822769D01*
X162128450Y-100854500D01*
X162128451Y-100854500D01*
X162371549Y-100854500D01*
X162371550Y-100854500D01*
X162612571Y-100822769D01*
X162847388Y-100759850D01*
X163071984Y-100666819D01*
X163282516Y-100545269D01*
X163475380Y-100397278D01*
X163647278Y-100225380D01*
X163795269Y-100032516D01*
X163916819Y-99821984D01*
X164009850Y-99597388D01*
X164072769Y-99362571D01*
X164104500Y-99121550D01*
X164104500Y-98878450D01*
X164072769Y-98637429D01*
X164009850Y-98402612D01*
X163916821Y-98178020D01*
X163795269Y-97967484D01*
X163647280Y-97774623D01*
X163647278Y-97774620D01*
X163475380Y-97602722D01*
X163282516Y-97454731D01*
X163282517Y-97454731D01*
X163282515Y-97454730D01*
X163071979Y-97333178D01*
X162847387Y-97240149D01*
X162687001Y-97197174D01*
X162612571Y-97177231D01*
X162612568Y-97177230D01*
X162612566Y-97177230D01*
X162371551Y-97145500D01*
X162371550Y-97145500D01*
X162128450Y-97145500D01*
X162128448Y-97145500D01*
X161887436Y-97177230D01*
X161887431Y-97177230D01*
X161652612Y-97240149D01*
X161428020Y-97333178D01*
X161217484Y-97454730D01*
X161024623Y-97602719D01*
X160852719Y-97774623D01*
X160704730Y-97967484D01*
X160583178Y-98178020D01*
X160490149Y-98402612D01*
X160427230Y-98637431D01*
X160427230Y-98637436D01*
X160395500Y-98878448D01*
X151602734Y-98878448D01*
X156981183Y-93500000D01*
X163369678Y-93500000D01*
X163388924Y-93707697D01*
X163408216Y-93775500D01*
X163446006Y-93908319D01*
X163538981Y-94095038D01*
X163664682Y-94261493D01*
X163818829Y-94402016D01*
X163899395Y-94451900D01*
X163996163Y-94511818D01*
X163996167Y-94511820D01*
X163996172Y-94511823D01*
X164190673Y-94587173D01*
X164395707Y-94625500D01*
X164604293Y-94625500D01*
X164809327Y-94587173D01*
X165003828Y-94511823D01*
X165181171Y-94402016D01*
X165335318Y-94261493D01*
X165461019Y-94095038D01*
X165553994Y-93908319D01*
X165611076Y-93707696D01*
X165630322Y-93500000D01*
X165611076Y-93292304D01*
X165553994Y-93091681D01*
X165461019Y-92904962D01*
X165335318Y-92738507D01*
X165181171Y-92597984D01*
X165164960Y-92587946D01*
X165003836Y-92488181D01*
X165003830Y-92488178D01*
X165003828Y-92488177D01*
X164809327Y-92412827D01*
X164809326Y-92412826D01*
X164809324Y-92412826D01*
X164604293Y-92374500D01*
X164395707Y-92374500D01*
X164190675Y-92412826D01*
X163996169Y-92488178D01*
X163996163Y-92488181D01*
X163818833Y-92597981D01*
X163818831Y-92597982D01*
X163818829Y-92597984D01*
X163685828Y-92719230D01*
X163664683Y-92738506D01*
X163538982Y-92904960D01*
X163538977Y-92904969D01*
X163446006Y-93091680D01*
X163388924Y-93292302D01*
X163369678Y-93500000D01*
X156981183Y-93500000D01*
X161802370Y-88678813D01*
X161887239Y-88551797D01*
X161945698Y-88410665D01*
X161956198Y-88357877D01*
X161975500Y-88260840D01*
X161975500Y-86473620D01*
X161945698Y-86323795D01*
X161915338Y-86250500D01*
X161887239Y-86182662D01*
X161870846Y-86158128D01*
X161853785Y-86132595D01*
X161802370Y-86055647D01*
X161802365Y-86055642D01*
X161802362Y-86055638D01*
X161423016Y-85676294D01*
X161423013Y-85676290D01*
X161304496Y-85557772D01*
X161276719Y-85503256D01*
X161275500Y-85487769D01*
X161275500Y-84367289D01*
X161289286Y-84316896D01*
X161328618Y-84250390D01*
X161372709Y-84098627D01*
X161375500Y-84063163D01*
X161375499Y-83999126D01*
X161377401Y-83979812D01*
X161382919Y-83952072D01*
X161400500Y-83863691D01*
X161400500Y-83686309D01*
X161384826Y-83607514D01*
X161377401Y-83570182D01*
X161375499Y-83550868D01*
X161375499Y-83486842D01*
X161375499Y-83486838D01*
X161372709Y-83451373D01*
X161328618Y-83299610D01*
X161304785Y-83259311D01*
X161248172Y-83163583D01*
X161248171Y-83163582D01*
X161248170Y-83163580D01*
X161136420Y-83051830D01*
X161136417Y-83051828D01*
X161136416Y-83051827D01*
X161000392Y-82971383D01*
X161000391Y-82971382D01*
X161000390Y-82971382D01*
X160848627Y-82927291D01*
X160813163Y-82924500D01*
X160813162Y-82924500D01*
X160812336Y-82924435D01*
X160782219Y-82917205D01*
X160762666Y-82909106D01*
X160762663Y-82909105D01*
X160588693Y-82874500D01*
X160588691Y-82874500D01*
X159434365Y-82874500D01*
X159376174Y-82855593D01*
X159342268Y-82811819D01*
X159289362Y-82677660D01*
X159289361Y-82677659D01*
X159289361Y-82677658D01*
X159197922Y-82557078D01*
X159077342Y-82465639D01*
X159077341Y-82465638D01*
X159077339Y-82465637D01*
X158936565Y-82410123D01*
X158848106Y-82399500D01*
X158848102Y-82399500D01*
X158461898Y-82399500D01*
X158461893Y-82399500D01*
X158373434Y-82410123D01*
X158232660Y-82465637D01*
X158232656Y-82465640D01*
X158112081Y-82557075D01*
X158112075Y-82557081D01*
X158098884Y-82574477D01*
X158048657Y-82609420D01*
X157987485Y-82608166D01*
X157941116Y-82574477D01*
X157927924Y-82557081D01*
X157927922Y-82557078D01*
X157807342Y-82465639D01*
X157807341Y-82465638D01*
X157807339Y-82465637D01*
X157666565Y-82410123D01*
X157578106Y-82399500D01*
X157578102Y-82399500D01*
X157191898Y-82399500D01*
X157191893Y-82399500D01*
X157103434Y-82410123D01*
X156962660Y-82465637D01*
X156962656Y-82465640D01*
X156842081Y-82557075D01*
X156842075Y-82557081D01*
X156750640Y-82677656D01*
X156750637Y-82677660D01*
X156695123Y-82818434D01*
X156684500Y-82906893D01*
X156684500Y-83172483D01*
X156667815Y-83227485D01*
X156586990Y-83348445D01*
X156586984Y-83348457D01*
X156519106Y-83512332D01*
X156519106Y-83512334D01*
X156484500Y-83686306D01*
X156484500Y-83863693D01*
X156494926Y-83916108D01*
X156519105Y-84037663D01*
X156519106Y-84037665D01*
X156519106Y-84037667D01*
X156586985Y-84201544D01*
X156586986Y-84201546D01*
X156586987Y-84201547D01*
X156659720Y-84310399D01*
X156667815Y-84322513D01*
X156684500Y-84377515D01*
X156684500Y-84643106D01*
X156695123Y-84731565D01*
X156750637Y-84872339D01*
X156750638Y-84872341D01*
X156750639Y-84872342D01*
X156842078Y-84992922D01*
X156962658Y-85084361D01*
X156962659Y-85084361D01*
X156962660Y-85084362D01*
X157000464Y-85099270D01*
X157103436Y-85139877D01*
X157191898Y-85150500D01*
X157191900Y-85150500D01*
X157578100Y-85150500D01*
X157578102Y-85150500D01*
X157666564Y-85139877D01*
X157807342Y-85084361D01*
X157927922Y-84992922D01*
X157941117Y-84975521D01*
X157991341Y-84940580D01*
X158052513Y-84941832D01*
X158098882Y-84975521D01*
X158112078Y-84992922D01*
X158232658Y-85084361D01*
X158232659Y-85084361D01*
X158232660Y-85084362D01*
X158270464Y-85099270D01*
X158373436Y-85139877D01*
X158461898Y-85150500D01*
X158461900Y-85150500D01*
X158848100Y-85150500D01*
X158848102Y-85150500D01*
X158936564Y-85139877D01*
X159077342Y-85084361D01*
X159197922Y-84992922D01*
X159289361Y-84872342D01*
X159329369Y-84770890D01*
X159342268Y-84738181D01*
X159381204Y-84690984D01*
X159434365Y-84675500D01*
X159625500Y-84675500D01*
X159683691Y-84694407D01*
X159719655Y-84743907D01*
X159724500Y-84774500D01*
X159724500Y-85926382D01*
X159754302Y-86076204D01*
X159754302Y-86076206D01*
X159812759Y-86217334D01*
X159812759Y-86217335D01*
X159869340Y-86302013D01*
X159888436Y-86330593D01*
X159897631Y-86344353D01*
X160326281Y-86773005D01*
X160326293Y-86773015D01*
X160395504Y-86842226D01*
X160423281Y-86896743D01*
X160424500Y-86912230D01*
X160424500Y-87822229D01*
X160405593Y-87880420D01*
X160395504Y-87892233D01*
X149952234Y-98335504D01*
X149897717Y-98363281D01*
X149882230Y-98364500D01*
X144781951Y-98364500D01*
X144723760Y-98345593D01*
X144711947Y-98335504D01*
X142745947Y-96369504D01*
X142718170Y-96314987D01*
X142727741Y-96254555D01*
X142771006Y-96211290D01*
X142815951Y-96200500D01*
X148538691Y-96200500D01*
X148538692Y-96200500D01*
X148712666Y-96165895D01*
X148794606Y-96131953D01*
X148876547Y-96098013D01*
X148922684Y-96067184D01*
X148977686Y-96050500D01*
X151488690Y-96050500D01*
X151488691Y-96050500D01*
X151662666Y-96015894D01*
X151826547Y-95948013D01*
X151974035Y-95849464D01*
X152099464Y-95724035D01*
X152198013Y-95576547D01*
X152265894Y-95412666D01*
X152300500Y-95238691D01*
X152300500Y-94461309D01*
X152288706Y-94402016D01*
X152265895Y-94287334D01*
X152231953Y-94205393D01*
X152198013Y-94123453D01*
X152198011Y-94123450D01*
X152198009Y-94123445D01*
X152167185Y-94077315D01*
X152150500Y-94022313D01*
X152150500Y-93861007D01*
X152169407Y-93802816D01*
X152218907Y-93766852D01*
X152234012Y-93763226D01*
X152250304Y-93760646D01*
X152363342Y-93703050D01*
X152453050Y-93613342D01*
X152510646Y-93500304D01*
X152525500Y-93406519D01*
X152525499Y-91593482D01*
X152525499Y-91593481D01*
X152525499Y-91593478D01*
X152525498Y-91593476D01*
X152510647Y-91499700D01*
X152510646Y-91499698D01*
X152510646Y-91499696D01*
X152453050Y-91386658D01*
X152363342Y-91296950D01*
X152250304Y-91239354D01*
X152250305Y-91239354D01*
X152156521Y-91224500D01*
X150343478Y-91224500D01*
X150343476Y-91224501D01*
X150249700Y-91239352D01*
X150249695Y-91239354D01*
X150136659Y-91296949D01*
X150046949Y-91386659D01*
X149989354Y-91499695D01*
X149974500Y-91593478D01*
X149974500Y-91872963D01*
X149955593Y-91931154D01*
X149906093Y-91967118D01*
X149844907Y-91967118D01*
X149795407Y-91931154D01*
X149786879Y-91917091D01*
X149781069Y-91905424D01*
X149764386Y-91871919D01*
X149631704Y-91696220D01*
X149518998Y-91593476D01*
X149499566Y-91575761D01*
X149469300Y-91522586D01*
X149476071Y-91461776D01*
X149483948Y-91447596D01*
X149490352Y-91438012D01*
X149498013Y-91426547D01*
X149565894Y-91262666D01*
X149600500Y-91088691D01*
X149600500Y-90860365D01*
X149619407Y-90802174D01*
X149629496Y-90790361D01*
X150484111Y-89935746D01*
X150538628Y-89907969D01*
X150554115Y-89906750D01*
X152029742Y-89906750D01*
X152087933Y-89925657D01*
X152099746Y-89935746D01*
X152605309Y-90441308D01*
X153013036Y-90849035D01*
X153138465Y-90974464D01*
X153285953Y-91073013D01*
X153285954Y-91073013D01*
X153285955Y-91073014D01*
X153323081Y-91088391D01*
X153449834Y-91140894D01*
X153623809Y-91175500D01*
X153848491Y-91175500D01*
X153903493Y-91192185D01*
X153912215Y-91198013D01*
X153960214Y-91217895D01*
X153960213Y-91217895D01*
X153982101Y-91226961D01*
X154076096Y-91265895D01*
X154250071Y-91300500D01*
X154250072Y-91300500D01*
X155503690Y-91300500D01*
X155503691Y-91300500D01*
X155677665Y-91265895D01*
X155771690Y-91226948D01*
X155841546Y-91198013D01*
X155927028Y-91140894D01*
X155929957Y-91138937D01*
X155929958Y-91138936D01*
X155989035Y-91099464D01*
X156814464Y-90274035D01*
X156873311Y-90185964D01*
X156913013Y-90126546D01*
X156915561Y-90120393D01*
X156955295Y-90073868D01*
X157014789Y-90059582D01*
X157043344Y-90066179D01*
X157103436Y-90089877D01*
X157191898Y-90100500D01*
X157191900Y-90100500D01*
X157578100Y-90100500D01*
X157578102Y-90100500D01*
X157666564Y-90089877D01*
X157807342Y-90034361D01*
X157927922Y-89942922D01*
X158019361Y-89822342D01*
X158074877Y-89681564D01*
X158085500Y-89593102D01*
X158085500Y-87856898D01*
X158074877Y-87768436D01*
X158019361Y-87627658D01*
X157927922Y-87507078D01*
X157807342Y-87415639D01*
X157807341Y-87415638D01*
X157807339Y-87415637D01*
X157666562Y-87360122D01*
X157664697Y-87359898D01*
X157663519Y-87359352D01*
X157660408Y-87358566D01*
X157660556Y-87357980D01*
X157609177Y-87334182D01*
X157606505Y-87331609D01*
X156914356Y-86639460D01*
X156217144Y-85942248D01*
X156198991Y-85930119D01*
X156171675Y-85902804D01*
X156132002Y-85843428D01*
X156006575Y-85718000D01*
X155859082Y-85619448D01*
X155695204Y-85551569D01*
X155521231Y-85516963D01*
X155521229Y-85516963D01*
X154893970Y-85516963D01*
X154835779Y-85498056D01*
X154823966Y-85487967D01*
X154655503Y-85319504D01*
X154627726Y-85264987D01*
X154637297Y-85204555D01*
X154680562Y-85161290D01*
X154725507Y-85150500D01*
X155038100Y-85150500D01*
X155038102Y-85150500D01*
X155126564Y-85139877D01*
X155267342Y-85084361D01*
X155387922Y-84992922D01*
X155479361Y-84872342D01*
X155534877Y-84731564D01*
X155545500Y-84643102D01*
X155545500Y-82906898D01*
X155534877Y-82818436D01*
X155497343Y-82723256D01*
X155479362Y-82677660D01*
X155479361Y-82677659D01*
X155479361Y-82677658D01*
X155387922Y-82557078D01*
X155267342Y-82465639D01*
X155267341Y-82465638D01*
X155267339Y-82465637D01*
X155126565Y-82410123D01*
X155038106Y-82399500D01*
X155038102Y-82399500D01*
X154651898Y-82399500D01*
X154651893Y-82399500D01*
X154563434Y-82410123D01*
X154422660Y-82465637D01*
X154422656Y-82465640D01*
X154351732Y-82519423D01*
X154293940Y-82539518D01*
X154235375Y-82521807D01*
X154221915Y-82510548D01*
X154170890Y-82459523D01*
X154170887Y-82459521D01*
X154170886Y-82459520D01*
X154027691Y-82369544D01*
X153868065Y-82313688D01*
X153868053Y-82313685D01*
X153700004Y-82294751D01*
X153699996Y-82294751D01*
X153531946Y-82313685D01*
X153531934Y-82313688D01*
X153372309Y-82369544D01*
X153372308Y-82369544D01*
X153229113Y-82459520D01*
X153109523Y-82579110D01*
X153068938Y-82643699D01*
X153021968Y-82682910D01*
X152960921Y-82687025D01*
X152957496Y-82686096D01*
X152927567Y-82677401D01*
X152902428Y-82675423D01*
X152890694Y-82674500D01*
X152890689Y-82674500D01*
X152624500Y-82674500D01*
X152566309Y-82655593D01*
X152530345Y-82606093D01*
X152525500Y-82575500D01*
X152525500Y-80998622D01*
X152525499Y-80998618D01*
X152495698Y-80848796D01*
X152437239Y-80707664D01*
X152382810Y-80626205D01*
X152352370Y-80580648D01*
X150939854Y-79168133D01*
X150912078Y-79113617D01*
X150921649Y-79053185D01*
X150964914Y-79009920D01*
X150998768Y-78999754D01*
X151118059Y-78986313D01*
X151277690Y-78930456D01*
X151405234Y-78850314D01*
X151464561Y-78835364D01*
X151495788Y-78842676D01*
X151514721Y-78850518D01*
X151623795Y-78895698D01*
X151773620Y-78925500D01*
X151773621Y-78925500D01*
X151926379Y-78925500D01*
X151926380Y-78925500D01*
X152076205Y-78895698D01*
X152217337Y-78837239D01*
X152217339Y-78837237D01*
X152217344Y-78837235D01*
X152284766Y-78792185D01*
X152339768Y-78775500D01*
X155376379Y-78775500D01*
X155376380Y-78775500D01*
X155526205Y-78745698D01*
X155667337Y-78687239D01*
X155794352Y-78602370D01*
X155834120Y-78562602D01*
X155888636Y-78534824D01*
X155949068Y-78544395D01*
X155986440Y-78577605D01*
X155997628Y-78594350D01*
X155997630Y-78594352D01*
X156105648Y-78702370D01*
X156232663Y-78787239D01*
X156232664Y-78787239D01*
X156232665Y-78787240D01*
X156262519Y-78799606D01*
X156373795Y-78845698D01*
X156523620Y-78875500D01*
X156523621Y-78875500D01*
X158376379Y-78875500D01*
X158376380Y-78875500D01*
X158526205Y-78845698D01*
X158667337Y-78787239D01*
X158794352Y-78702370D01*
X159117225Y-78379495D01*
X159171742Y-78351718D01*
X159187229Y-78350499D01*
X160081521Y-78350499D01*
X160081522Y-78350498D01*
X160128411Y-78343072D01*
X160175299Y-78335647D01*
X160175299Y-78335646D01*
X160175304Y-78335646D01*
X160288342Y-78278050D01*
X160378050Y-78188342D01*
X160435646Y-78075304D01*
X160450500Y-77981519D01*
X160450499Y-76318482D01*
X160450499Y-76318478D01*
X160450498Y-76318476D01*
X160435647Y-76224700D01*
X160435646Y-76224698D01*
X160435646Y-76224696D01*
X160378050Y-76111658D01*
X160288342Y-76021950D01*
X160175304Y-75964354D01*
X160175305Y-75964354D01*
X160081522Y-75949500D01*
X160081519Y-75949500D01*
X159374500Y-75949500D01*
X159316309Y-75930593D01*
X159280345Y-75881093D01*
X159275500Y-75850500D01*
X159275500Y-74408857D01*
X159294407Y-74350666D01*
X159343907Y-74314702D01*
X159355181Y-74311760D01*
X159486205Y-74285698D01*
X159627337Y-74227239D01*
X159683452Y-74189744D01*
X159754353Y-74142370D01*
X159862370Y-74034353D01*
X159862371Y-74034350D01*
X161867227Y-72029496D01*
X161921744Y-72001719D01*
X161937231Y-72000500D01*
X161998420Y-72000500D01*
X162192821Y-71969710D01*
X162192822Y-71969709D01*
X162192826Y-71969709D01*
X162380025Y-71908884D01*
X162555405Y-71819524D01*
X162714646Y-71703828D01*
X162853828Y-71564646D01*
X162969524Y-71405405D01*
X163058884Y-71230025D01*
X163119709Y-71042826D01*
X163123896Y-71016391D01*
X163150500Y-70848420D01*
X163150500Y-70651579D01*
X163119710Y-70457178D01*
X163119709Y-70457174D01*
X163058884Y-70269975D01*
X162969524Y-70094595D01*
X162853828Y-69935354D01*
X162714646Y-69796172D01*
X162555405Y-69680476D01*
X162555404Y-69680475D01*
X162555402Y-69680474D01*
X162380025Y-69591116D01*
X162192821Y-69530289D01*
X161998420Y-69499500D01*
X161998417Y-69499500D01*
X161001583Y-69499500D01*
X161001580Y-69499500D01*
X160807178Y-69530289D01*
X160619974Y-69591116D01*
X160444597Y-69680474D01*
X160285355Y-69796171D01*
X160146167Y-69935359D01*
X160143644Y-69938314D01*
X160142432Y-69937279D01*
X160097900Y-69969648D01*
X160067288Y-69974500D01*
X159943617Y-69974500D01*
X159793795Y-70004302D01*
X159793793Y-70004302D01*
X159652665Y-70062759D01*
X159525650Y-70147627D01*
X157077774Y-72595504D01*
X157023257Y-72623281D01*
X157007770Y-72624500D01*
X156174048Y-72624500D01*
X156115857Y-72605593D01*
X156079893Y-72556093D01*
X156079893Y-72494907D01*
X156113781Y-72446958D01*
X156203282Y-72378282D01*
X156299536Y-72252841D01*
X156360044Y-72106762D01*
X156375500Y-71989361D01*
X156375499Y-71510640D01*
X156360044Y-71393238D01*
X156299537Y-71247161D01*
X156299537Y-71247160D01*
X156203286Y-71121723D01*
X156203285Y-71121722D01*
X156203282Y-71121718D01*
X156200660Y-71119706D01*
X156189231Y-71110936D01*
X156154576Y-71060511D01*
X156150500Y-71032395D01*
X156150500Y-70453571D01*
X156169407Y-70395380D01*
X156171276Y-70392892D01*
X156174440Y-70388811D01*
X156174443Y-70388809D01*
X156254087Y-70254139D01*
X156297737Y-70103892D01*
X156300500Y-70068787D01*
X156300499Y-69431214D01*
X156297737Y-69396108D01*
X156254087Y-69245861D01*
X156237752Y-69218241D01*
X156174445Y-69111194D01*
X156174444Y-69111193D01*
X156174443Y-69111191D01*
X156063809Y-69000557D01*
X156063806Y-69000555D01*
X156063805Y-69000554D01*
X155929141Y-68920914D01*
X155929140Y-68920913D01*
X155929139Y-68920913D01*
X155838740Y-68894650D01*
X155778890Y-68877262D01*
X155756390Y-68875492D01*
X155743787Y-68874500D01*
X155743781Y-68874500D01*
X155181218Y-68874500D01*
X155146108Y-68877263D01*
X155146100Y-68877264D01*
X154995858Y-68920914D01*
X154995857Y-68920914D01*
X154861194Y-69000554D01*
X154750554Y-69111194D01*
X154670914Y-69245857D01*
X154670914Y-69245858D01*
X154627262Y-69396109D01*
X154624500Y-69431218D01*
X154624500Y-70068781D01*
X154627263Y-70103891D01*
X154627264Y-70103899D01*
X154640513Y-70149501D01*
X154662167Y-70224036D01*
X154670914Y-70254141D01*
X154670914Y-70254142D01*
X154750554Y-70388805D01*
X154750555Y-70388806D01*
X154750557Y-70388809D01*
X154820505Y-70458757D01*
X154848281Y-70513272D01*
X154849500Y-70528759D01*
X154849500Y-71032395D01*
X154830593Y-71090586D01*
X154810769Y-71110936D01*
X154796721Y-71121715D01*
X154796713Y-71121723D01*
X154700462Y-71247160D01*
X154700462Y-71247161D01*
X154639957Y-71393233D01*
X154639955Y-71393241D01*
X154624500Y-71510637D01*
X154624500Y-71989357D01*
X154624501Y-71989362D01*
X154639955Y-72106758D01*
X154639957Y-72106766D01*
X154700462Y-72252838D01*
X154700462Y-72252839D01*
X154700464Y-72252841D01*
X154796718Y-72378282D01*
X154796722Y-72378285D01*
X154796723Y-72378286D01*
X154801493Y-72381946D01*
X154922159Y-72474536D01*
X154933672Y-72479304D01*
X154943886Y-72483536D01*
X154990412Y-72523273D01*
X155004695Y-72582768D01*
X154981280Y-72639296D01*
X154943886Y-72666464D01*
X154922160Y-72675463D01*
X154796723Y-72771713D01*
X154796713Y-72771723D01*
X154700462Y-72897160D01*
X154700462Y-72897161D01*
X154639957Y-73043233D01*
X154639955Y-73043240D01*
X154626136Y-73148208D01*
X154599795Y-73203433D01*
X154597987Y-73205289D01*
X153605648Y-74197630D01*
X153497633Y-74305644D01*
X153497630Y-74305648D01*
X153412759Y-74432664D01*
X153412759Y-74432665D01*
X153354302Y-74573793D01*
X153354302Y-74573795D01*
X153324500Y-74723617D01*
X153324500Y-75925500D01*
X153305593Y-75983691D01*
X153256093Y-76019655D01*
X153225500Y-76024500D01*
X151973617Y-76024500D01*
X151823795Y-76054302D01*
X151823793Y-76054302D01*
X151682665Y-76112759D01*
X151555647Y-76197629D01*
X151213190Y-76540085D01*
X151158674Y-76567862D01*
X151110489Y-76563525D01*
X150968065Y-76513688D01*
X150968053Y-76513685D01*
X150800004Y-76494751D01*
X150800003Y-76494751D01*
X150800001Y-76494751D01*
X150800000Y-76494751D01*
X150760686Y-76499180D01*
X150748985Y-76500499D01*
X150689043Y-76488225D01*
X150647763Y-76443063D01*
X150640913Y-76382262D01*
X150671109Y-76329047D01*
X150692949Y-76313915D01*
X150763341Y-76278049D01*
X150853049Y-76188341D01*
X150910645Y-76075303D01*
X150925499Y-75981518D01*
X150925498Y-74718481D01*
X150925498Y-74718480D01*
X150925498Y-74718477D01*
X150925497Y-74718475D01*
X150910646Y-74624699D01*
X150910645Y-74624697D01*
X150910645Y-74624695D01*
X150853049Y-74511657D01*
X150763341Y-74421949D01*
X150650303Y-74364353D01*
X150650304Y-74364353D01*
X150556521Y-74349499D01*
X150093478Y-74349499D01*
X150093475Y-74349500D01*
X149999699Y-74364351D01*
X149999694Y-74364353D01*
X149886658Y-74421948D01*
X149796948Y-74511658D01*
X149763208Y-74577877D01*
X149719943Y-74621141D01*
X149659511Y-74630712D01*
X149604995Y-74602934D01*
X149586790Y-74577877D01*
X149578403Y-74561416D01*
X149553049Y-74511657D01*
X149463341Y-74421949D01*
X149350303Y-74364353D01*
X149350304Y-74364353D01*
X149256521Y-74349499D01*
X148793477Y-74349499D01*
X148793475Y-74349500D01*
X148715486Y-74361851D01*
X148684515Y-74361851D01*
X148606524Y-74349499D01*
X148143480Y-74349499D01*
X148143477Y-74349500D01*
X148049701Y-74364351D01*
X148049696Y-74364353D01*
X147936660Y-74421948D01*
X147846950Y-74511658D01*
X147789355Y-74624694D01*
X147774501Y-74718477D01*
X147774501Y-75981520D01*
X147774502Y-75981522D01*
X147789353Y-76075298D01*
X147789354Y-76075303D01*
X147807879Y-76111658D01*
X147838708Y-76172164D01*
X147849499Y-76217108D01*
X147849499Y-76354491D01*
X147830592Y-76412682D01*
X147781092Y-76448646D01*
X147719906Y-76448646D01*
X147670406Y-76412682D01*
X147664763Y-76403991D01*
X147600503Y-76292690D01*
X147600501Y-76292688D01*
X147600500Y-76292686D01*
X147157313Y-75849499D01*
X147157310Y-75849497D01*
X147074997Y-75801973D01*
X147034057Y-75756503D01*
X147025498Y-75716237D01*
X147025498Y-74718477D01*
X147025497Y-74718475D01*
X147010646Y-74624699D01*
X147010645Y-74624697D01*
X147010645Y-74624695D01*
X146953049Y-74511657D01*
X146863341Y-74421949D01*
X146750303Y-74364353D01*
X146750304Y-74364353D01*
X146656521Y-74349499D01*
X146193477Y-74349499D01*
X146193475Y-74349500D01*
X146115486Y-74361851D01*
X146084515Y-74361851D01*
X146006524Y-74349499D01*
X145543484Y-74349499D01*
X145465482Y-74361852D01*
X145434511Y-74361851D01*
X145356521Y-74349499D01*
X145356519Y-74349499D01*
X145193261Y-74349499D01*
X145135070Y-74330592D01*
X145101797Y-74288384D01*
X145095684Y-74273627D01*
X145051466Y-74166874D01*
X145023177Y-74124536D01*
X144980278Y-74060332D01*
X144946145Y-74026199D01*
X144779834Y-73859887D01*
X144752740Y-73809198D01*
X144745698Y-73773795D01*
X144687240Y-73632665D01*
X144687240Y-73632664D01*
X144666094Y-73601018D01*
X144602370Y-73505648D01*
X144444352Y-73347630D01*
X144317337Y-73262761D01*
X144317336Y-73262760D01*
X144317334Y-73262759D01*
X144271272Y-73243680D01*
X144224746Y-73203944D01*
X144210462Y-73144449D01*
X144233877Y-73087921D01*
X144239141Y-73082225D01*
X144300477Y-73020890D01*
X144390456Y-72877690D01*
X144446313Y-72718059D01*
X144446314Y-72718053D01*
X144465249Y-72550004D01*
X144465249Y-72544439D01*
X144467896Y-72544439D01*
X144478050Y-72494814D01*
X144494153Y-72473659D01*
X145560500Y-71407314D01*
X145568630Y-71393233D01*
X145626390Y-71293190D01*
X145626390Y-71293188D01*
X145626392Y-71293186D01*
X145660500Y-71165892D01*
X145660500Y-71147905D01*
X145679407Y-71089714D01*
X145728907Y-71053750D01*
X145734695Y-71052442D01*
X145734625Y-71052180D01*
X145740891Y-71050501D01*
X145740893Y-71050501D01*
X145868187Y-71016393D01*
X145868189Y-71016391D01*
X145868191Y-71016391D01*
X145982310Y-70950504D01*
X145982310Y-70950503D01*
X145982315Y-70950501D01*
X146175500Y-70757316D01*
X146178174Y-70752686D01*
X146208591Y-70700000D01*
X146254060Y-70659059D01*
X146294328Y-70650500D01*
X146656519Y-70650500D01*
X146676650Y-70647311D01*
X146689714Y-70645242D01*
X146750146Y-70654813D01*
X146775206Y-70673020D01*
X147059498Y-70957313D01*
X147059499Y-70957313D01*
X147059501Y-70957315D01*
X147059500Y-70957315D01*
X147152686Y-71050500D01*
X147152691Y-71050504D01*
X147260041Y-71112483D01*
X147260042Y-71112483D01*
X147266813Y-71116392D01*
X147266815Y-71116393D01*
X147394108Y-71150501D01*
X147394109Y-71150501D01*
X151167035Y-71150501D01*
X151225226Y-71169408D01*
X151261190Y-71218908D01*
X151263554Y-71227476D01*
X151263688Y-71228064D01*
X151319544Y-71387690D01*
X151319544Y-71387691D01*
X151396797Y-71510637D01*
X151409523Y-71530890D01*
X151529110Y-71650477D01*
X151672310Y-71740456D01*
X151736232Y-71762823D01*
X151831934Y-71796311D01*
X151831938Y-71796312D01*
X151831941Y-71796313D01*
X151831942Y-71796313D01*
X151831946Y-71796314D01*
X151999996Y-71815249D01*
X152000000Y-71815249D01*
X152000004Y-71815249D01*
X152168053Y-71796314D01*
X152168055Y-71796313D01*
X152168059Y-71796313D01*
X152327690Y-71740456D01*
X152470890Y-71650477D01*
X152590477Y-71530890D01*
X152680456Y-71387690D01*
X152736313Y-71228059D01*
X152737344Y-71218908D01*
X152755249Y-71060004D01*
X152755249Y-71059995D01*
X152736314Y-70891946D01*
X152736311Y-70891934D01*
X152697824Y-70781946D01*
X152680456Y-70732310D01*
X152680454Y-70732307D01*
X152680453Y-70732303D01*
X152672635Y-70719861D01*
X152657685Y-70660531D01*
X152680465Y-70603744D01*
X152711518Y-70578979D01*
X152713342Y-70578051D01*
X152752968Y-70538423D01*
X152785088Y-70516962D01*
X152854181Y-70488343D01*
X152951545Y-70448014D01*
X153099033Y-70349465D01*
X153224462Y-70224036D01*
X153323011Y-70076548D01*
X153390892Y-69912667D01*
X153425498Y-69738692D01*
X153425498Y-69614009D01*
X153444405Y-69555818D01*
X153454488Y-69544011D01*
X154639416Y-68359082D01*
X154681800Y-68334018D01*
X154700390Y-68328618D01*
X154836420Y-68248170D01*
X154948170Y-68136420D01*
X155028618Y-68000390D01*
X155072709Y-67848627D01*
X155075500Y-67813163D01*
X155075499Y-67813159D01*
X155075565Y-67812334D01*
X155082796Y-67782216D01*
X155090895Y-67762666D01*
X155125500Y-67588692D01*
X155125500Y-67411308D01*
X155125500Y-66107932D01*
X155144407Y-66049741D01*
X155145936Y-66047693D01*
X155199536Y-65977841D01*
X155240847Y-65878104D01*
X155249988Y-65861003D01*
X155273013Y-65826547D01*
X155340894Y-65662666D01*
X155361055Y-65561309D01*
X155375500Y-65488692D01*
X155375500Y-65311309D01*
X155375500Y-62911309D01*
X155375500Y-60611309D01*
X155340894Y-60437334D01*
X155273013Y-60273453D01*
X155249986Y-60238992D01*
X155240843Y-60221884D01*
X155227807Y-60190413D01*
X155199536Y-60122159D01*
X155199535Y-60122158D01*
X155199535Y-60122157D01*
X155103286Y-59996723D01*
X155103285Y-59996722D01*
X155103282Y-59996718D01*
X155103277Y-59996714D01*
X155103276Y-59996713D01*
X154977838Y-59900462D01*
X154831766Y-59839957D01*
X154831758Y-59839955D01*
X154714362Y-59824500D01*
X154714361Y-59824500D01*
X154699125Y-59824500D01*
X154679811Y-59822598D01*
X154563693Y-59799500D01*
X154563691Y-59799500D01*
X154386309Y-59799500D01*
X154386304Y-59799500D01*
X154270181Y-59822598D01*
X154250873Y-59824500D01*
X154235645Y-59824500D01*
X154235635Y-59824501D01*
X154118241Y-59839955D01*
X154118233Y-59839957D01*
X153972161Y-59900462D01*
X153972160Y-59900462D01*
X153846723Y-59996713D01*
X153846713Y-59996723D01*
X153750464Y-60122157D01*
X153750463Y-60122159D01*
X153741462Y-60143889D01*
X153701723Y-60190413D01*
X153642228Y-60204695D01*
X153585701Y-60181278D01*
X153558534Y-60143883D01*
X153553355Y-60131380D01*
X153549536Y-60122159D01*
X153453282Y-59996718D01*
X153453277Y-59996714D01*
X153453276Y-59996713D01*
X153327838Y-59900462D01*
X153181766Y-59839957D01*
X153181758Y-59839955D01*
X153064361Y-59824500D01*
X152585642Y-59824500D01*
X152585637Y-59824501D01*
X152468241Y-59839955D01*
X152468233Y-59839957D01*
X152322161Y-59900462D01*
X152322160Y-59900462D01*
X152196723Y-59996713D01*
X152196713Y-59996723D01*
X152100462Y-60122160D01*
X152100462Y-60122161D01*
X152039957Y-60268233D01*
X152039955Y-60268241D01*
X152024500Y-60385637D01*
X152024500Y-60680966D01*
X152005593Y-60739157D01*
X151995504Y-60750970D01*
X149884487Y-62861988D01*
X149824196Y-62966416D01*
X149778727Y-63007357D01*
X149717877Y-63013753D01*
X149664889Y-62983160D01*
X149648736Y-62958757D01*
X149627102Y-62912362D01*
X149501598Y-62733123D01*
X149346877Y-62578402D01*
X149346873Y-62578399D01*
X149346872Y-62578398D01*
X149212211Y-62484108D01*
X149167639Y-62452898D01*
X148969330Y-62360425D01*
X148757977Y-62303793D01*
X148757976Y-62303792D01*
X148757969Y-62303791D01*
X148540003Y-62284723D01*
X148539997Y-62284723D01*
X148322028Y-62303791D01*
X148188182Y-62339654D01*
X148127080Y-62336451D01*
X148092556Y-62314031D01*
X147919496Y-62140971D01*
X147891719Y-62086454D01*
X147890500Y-62070967D01*
X147890500Y-60567525D01*
X147881461Y-60533793D01*
X147852984Y-60427515D01*
X147852089Y-60425965D01*
X147846596Y-60416452D01*
X147833878Y-60356604D01*
X147840872Y-60329068D01*
X147860695Y-60281213D01*
X147860695Y-60281210D01*
X147860698Y-60281205D01*
X147890500Y-60131380D01*
X147890500Y-59978620D01*
X147860698Y-59828795D01*
X147802240Y-59687665D01*
X147802240Y-59687664D01*
X147781094Y-59656018D01*
X147717370Y-59560648D01*
X146734352Y-58577630D01*
X146607337Y-58492761D01*
X146607336Y-58492760D01*
X146607334Y-58492759D01*
X146466205Y-58434302D01*
X146316382Y-58404500D01*
X146316380Y-58404500D01*
X134333620Y-58404500D01*
X134333617Y-58404500D01*
X134183795Y-58434302D01*
X134183793Y-58434302D01*
X134042665Y-58492759D01*
X133915650Y-58577627D01*
X132227633Y-60265644D01*
X132227630Y-60265648D01*
X132142759Y-60392664D01*
X132142759Y-60392665D01*
X132084302Y-60533793D01*
X132084302Y-60533795D01*
X132054500Y-60683617D01*
X130123690Y-60683617D01*
X130127388Y-54572691D01*
X130127433Y-54572043D01*
X130127433Y-54502252D01*
X130127536Y-54497741D01*
X130132978Y-54378448D01*
X132645500Y-54378448D01*
X132645500Y-54621551D01*
X132677230Y-54862563D01*
X132677230Y-54862568D01*
X132740149Y-55097387D01*
X132833178Y-55321979D01*
X132833181Y-55321984D01*
X132954731Y-55532516D01*
X133102722Y-55725380D01*
X133274620Y-55897278D01*
X133467484Y-56045269D01*
X133678016Y-56166819D01*
X133678017Y-56166819D01*
X133678020Y-56166821D01*
X133902612Y-56259850D01*
X134137429Y-56322769D01*
X134378450Y-56354500D01*
X134378451Y-56354500D01*
X134621549Y-56354500D01*
X134621550Y-56354500D01*
X134862571Y-56322769D01*
X135097388Y-56259850D01*
X135321984Y-56166819D01*
X135532516Y-56045269D01*
X135725380Y-55897278D01*
X135897278Y-55725380D01*
X136045269Y-55532516D01*
X136166819Y-55321984D01*
X136259850Y-55097388D01*
X136322769Y-54862571D01*
X136354500Y-54621550D01*
X136354500Y-54378450D01*
X136354500Y-54378448D01*
X160395500Y-54378448D01*
X160395500Y-54621551D01*
X160427230Y-54862563D01*
X160427230Y-54862568D01*
X160490149Y-55097387D01*
X160583178Y-55321979D01*
X160583181Y-55321984D01*
X160704731Y-55532516D01*
X160852722Y-55725380D01*
X161024620Y-55897278D01*
X161217484Y-56045269D01*
X161428016Y-56166819D01*
X161428017Y-56166819D01*
X161428020Y-56166821D01*
X161652612Y-56259850D01*
X161887429Y-56322769D01*
X162128450Y-56354500D01*
X162128451Y-56354500D01*
X162371549Y-56354500D01*
X162371550Y-56354500D01*
X162612571Y-56322769D01*
X162847388Y-56259850D01*
X163071984Y-56166819D01*
X163282516Y-56045269D01*
X163475380Y-55897278D01*
X163647278Y-55725380D01*
X163795269Y-55532516D01*
X163916819Y-55321984D01*
X164009850Y-55097388D01*
X164072769Y-54862571D01*
X164104500Y-54621550D01*
X164104500Y-54378450D01*
X164072769Y-54137429D01*
X164009850Y-53902612D01*
X163930732Y-53711604D01*
X163916821Y-53678020D01*
X163795269Y-53467484D01*
X163684659Y-53323336D01*
X163647278Y-53274620D01*
X163475380Y-53102722D01*
X163282516Y-52954731D01*
X163282517Y-52954731D01*
X163282515Y-52954730D01*
X163071979Y-52833178D01*
X162847387Y-52740149D01*
X162687001Y-52697174D01*
X162612571Y-52677231D01*
X162612568Y-52677230D01*
X162612566Y-52677230D01*
X162371551Y-52645500D01*
X162371550Y-52645500D01*
X162128450Y-52645500D01*
X162128448Y-52645500D01*
X161887436Y-52677230D01*
X161887431Y-52677230D01*
X161652612Y-52740149D01*
X161428020Y-52833178D01*
X161217484Y-52954730D01*
X161024623Y-53102719D01*
X160852719Y-53274623D01*
X160704730Y-53467484D01*
X160583178Y-53678020D01*
X160490149Y-53902612D01*
X160427230Y-54137431D01*
X160427230Y-54137436D01*
X160395500Y-54378448D01*
X136354500Y-54378448D01*
X136322769Y-54137429D01*
X136259850Y-53902612D01*
X136180732Y-53711604D01*
X136166821Y-53678020D01*
X136045269Y-53467484D01*
X135934659Y-53323336D01*
X135897278Y-53274620D01*
X135725380Y-53102722D01*
X135532516Y-52954731D01*
X135532517Y-52954731D01*
X135532515Y-52954730D01*
X135321979Y-52833178D01*
X135097387Y-52740149D01*
X134937001Y-52697174D01*
X134862571Y-52677231D01*
X134862568Y-52677230D01*
X134862566Y-52677230D01*
X134621551Y-52645500D01*
X134621550Y-52645500D01*
X134378450Y-52645500D01*
X134378448Y-52645500D01*
X134137436Y-52677230D01*
X134137431Y-52677230D01*
X133902612Y-52740149D01*
X133678020Y-52833178D01*
X133467484Y-52954730D01*
X133274623Y-53102719D01*
X133102719Y-53274623D01*
X132954730Y-53467484D01*
X132833178Y-53678020D01*
X132740149Y-53902612D01*
X132677230Y-54137431D01*
X132677230Y-54137436D01*
X132645500Y-54378448D01*
X130132978Y-54378448D01*
X130145386Y-54106425D01*
X130146207Y-54097442D01*
X130173018Y-53902612D01*
X130199304Y-53711597D01*
X130200939Y-53702731D01*
X130218853Y-53625500D01*
X130288944Y-53323316D01*
X130291370Y-53314668D01*
X130413558Y-52944826D01*
X130416774Y-52936404D01*
X130572119Y-52579238D01*
X130576077Y-52571165D01*
X130615087Y-52500000D01*
X144369678Y-52500000D01*
X144388924Y-52707697D01*
X144424627Y-52833181D01*
X144446006Y-52908319D01*
X144538981Y-53095038D01*
X144664682Y-53261493D01*
X144818829Y-53402016D01*
X144899395Y-53451900D01*
X144996163Y-53511818D01*
X144996167Y-53511820D01*
X144996172Y-53511823D01*
X145190673Y-53587173D01*
X145395707Y-53625500D01*
X145604293Y-53625500D01*
X145809327Y-53587173D01*
X146003828Y-53511823D01*
X146181171Y-53402016D01*
X146335318Y-53261493D01*
X146461019Y-53095038D01*
X146553994Y-52908319D01*
X146611076Y-52707696D01*
X146630322Y-52500000D01*
X146611076Y-52292304D01*
X146553994Y-52091681D01*
X146461019Y-51904962D01*
X146335318Y-51738507D01*
X146181171Y-51597984D01*
X146162131Y-51586195D01*
X146003836Y-51488181D01*
X146003830Y-51488178D01*
X146003828Y-51488177D01*
X145809327Y-51412827D01*
X145809326Y-51412826D01*
X145809324Y-51412826D01*
X145604293Y-51374500D01*
X145395707Y-51374500D01*
X145190675Y-51412826D01*
X144996169Y-51488178D01*
X144996163Y-51488181D01*
X144818833Y-51597981D01*
X144818831Y-51597982D01*
X144818829Y-51597984D01*
X144793233Y-51621318D01*
X144664683Y-51738506D01*
X144538982Y-51904960D01*
X144538977Y-51904969D01*
X144446006Y-52091680D01*
X144388924Y-52292302D01*
X144369678Y-52500000D01*
X130615087Y-52500000D01*
X130763301Y-52229614D01*
X130767977Y-52221936D01*
X130985520Y-51898845D01*
X130990872Y-51891630D01*
X131236934Y-51589678D01*
X131242926Y-51582975D01*
X131515441Y-51304694D01*
X131522022Y-51298560D01*
X131818742Y-51046245D01*
X131825843Y-51040742D01*
X132144318Y-50816477D01*
X132151900Y-50811640D01*
X132489472Y-50617301D01*
X132497447Y-50613182D01*
X132851285Y-50450394D01*
X132859628Y-50447007D01*
X133226821Y-50317108D01*
X133235445Y-50314493D01*
X133612930Y-50218566D01*
X133621734Y-50216751D01*
X134006412Y-50155585D01*
X134015347Y-50154579D01*
X134403757Y-50128705D01*
X134410188Y-50128487D01*
X162943705Y-50100555D01*
X162963090Y-50102453D01*
G37*
%TD.AperFunction*%
%TD*%
M02*
