M48
; DRILL file {KiCad 8.0.5} date 2025-12-29T14:44:01-0600
; FORMAT={-:-/ absolute / metric / decimal}
; #@! TF.CreationDate,2025-12-29T14:44:01-06:00
; #@! TF.GenerationSoftware,Kicad,Pcbnew,8.0.5
; #@! TF.FileFunction,MixedPlating,1,2
FMAT,2
METRIC
; #@! TA.AperFunction,Plated,PTH,ComponentDrill
T1C0.203
; #@! TA.AperFunction,Plated,PTH,ViaDrill
T2C0.300
; #@! TA.AperFunction,Plated,PTH,ComponentDrill
T3C0.800
; #@! TA.AperFunction,Plated,PTH,ComponentDrill
T4C1.000
; #@! TA.AperFunction,Plated,PTH,ComponentDrill
T5C1.020
; #@! TA.AperFunction,Plated,PTH,ComponentDrill
T6C1.100
; #@! TA.AperFunction,NonPlated,NPTH,ComponentDrill
T7C3.200
%
G90
G05
T1
X146.05Y-71.5
X146.05Y-72.5
X146.05Y-73.5
X147.05Y-71.5
X147.05Y-72.5
X147.05Y-73.5
X148.05Y-71.5
X148.05Y-72.5
X148.05Y-73.5
X149.05Y-71.5
X149.05Y-72.5
X149.05Y-73.5
X150.05Y-71.5
X150.05Y-72.5
X150.05Y-73.5
T2
X131.23Y-87.27
X131.32Y-68.53
X131.44Y-73.86
X131.44Y-80.87
X134.72Y-90.75
X134.86Y-92.42
X136.36Y-93.99
X136.7Y-84.3
X138.16Y-58.08
X138.38Y-96.42
X139.61Y-90.53
X139.77Y-97.75
X140.165Y-81.465
X140.2Y-70.95
X141.17Y-85.025
X141.6Y-82.9
X141.6Y-85.7
X142.1Y-61.5
X142.779Y-56.567
X142.83Y-69.65
X143.1Y-79.6
X143.71Y-72.55
X143.75Y-71.0
X143.75Y-85.5
X144.0Y-78.6
X144.06Y-58.03
X144.3Y-79.4
X144.615Y-61.465
X144.75Y-73.05
X144.95Y-72.23
X144.98Y-100.46
X145.1Y-77.75
X145.5Y-86.75
X145.6Y-78.5
X146.0Y-77.15
X146.97Y-81.63
X147.25Y-100.39
X147.32Y-80.62
X147.41Y-85.94
X147.931Y-57.321
X148.25Y-80.5
X149.0Y-68.3
X149.4Y-100.28
X149.59Y-67.0
X149.625Y-66.086
X150.8Y-77.25
X150.95Y-78.25
X151.15Y-71.65
X151.2Y-72.85
X151.4Y-74.15
X151.57Y-65.56
X151.6Y-77.25
X151.774Y-58.076
X151.803Y-72.026
X151.85Y-78.15
X152.0Y-71.06
X152.12Y-72.89
X152.25Y-74.25
X152.73Y-64.15
X153.49Y-98.17
X153.627Y-56.36
X153.7Y-83.05
X154.1Y-77.2
X154.24Y-80.4
X155.3Y-78.0
X155.5Y-76.8
X155.55Y-80.03
X156.0Y-85.5
X156.01Y-57.68
X156.09Y-83.92
X156.28Y-81.87
X156.56Y-95.03
X156.6Y-78.1
X156.75Y-67.5
X158.0Y-69.75
X158.0Y-87.0
X158.19Y-63.85
X158.19Y-85.85
X158.2Y-60.601
X158.75Y-81.25
X158.83Y-58.73
X159.02Y-92.89
X160.007Y-61.838
X161.1Y-66.54
X161.81Y-91.21
X162.11Y-60.66
X162.589Y-82.415
X162.7Y-81.5
X162.8Y-80.4
X163.034Y-83.572
X163.25Y-84.65
X163.32Y-88.06
X163.7Y-82.25
X163.774Y-80.948
X164.0Y-79.3
X164.156Y-74.44
X164.411Y-83.738
X164.44Y-61.61
X164.739Y-80.225
X164.79Y-67.97
X164.799Y-75.505
X164.799Y-81.471
X164.879Y-78.417
X165.45Y-86.0
T3
X159.25Y-77.15
X161.75Y-77.15
T4
X137.0Y-74.0
X137.0Y-76.54
X138.38Y-61.0
X138.38Y-63.54
X140.92Y-61.0
X140.92Y-63.54
X143.46Y-61.0
X143.46Y-63.54
X146.0Y-61.0
X146.0Y-63.54
X148.54Y-61.0
X148.54Y-63.54
T5
X146.25Y-92.5
X148.75Y-92.5
X151.25Y-92.5
T6
X161.5Y-64.5
X161.5Y-70.75
T7
X134.5Y-54.5
X134.5Y-99.0
X162.25Y-54.5
X162.25Y-99.0
M30
