%TF.GenerationSoftware,KiCad,Pcbnew,8.0.5*%
%TF.CreationDate,2025-12-29T14:40:48-06:00*%
%TF.ProjectId,FOC_DV,464f435f-4456-42e6-9b69-6361645f7063,rev?*%
%TF.SameCoordinates,Original*%
%TF.FileFunction,Copper,L2,Bot*%
%TF.FilePolarity,Positive*%
%FSLAX46Y46*%
G04 Gerber Fmt 4.6, Leading zero omitted, Abs format (unit mm)*
G04 Created by KiCad (PCBNEW 8.0.5) date 2025-12-29 14:40:48*
%MOMM*%
%LPD*%
G01*
G04 APERTURE LIST*
%TA.AperFunction,ComponentPad*%
%ADD10C,0.399999*%
%TD*%
%TA.AperFunction,ComponentPad*%
%ADD11R,1.750000X1.750000*%
%TD*%
%TA.AperFunction,ComponentPad*%
%ADD12C,1.575000*%
%TD*%
%TA.AperFunction,ComponentPad*%
%ADD13O,2.500000X1.700000*%
%TD*%
%TA.AperFunction,ComponentPad*%
%ADD14R,1.700000X1.700000*%
%TD*%
%TA.AperFunction,ComponentPad*%
%ADD15O,1.700000X1.700000*%
%TD*%
%TA.AperFunction,ComponentPad*%
%ADD16C,1.600000*%
%TD*%
%TA.AperFunction,ComponentPad*%
%ADD17R,1.600000X1.600000*%
%TD*%
%TA.AperFunction,ViaPad*%
%ADD18C,0.700000*%
%TD*%
%TA.AperFunction,Conductor*%
%ADD19C,0.750000*%
%TD*%
%TA.AperFunction,Conductor*%
%ADD20C,0.300000*%
%TD*%
%TA.AperFunction,Conductor*%
%ADD21C,0.200000*%
%TD*%
%TA.AperFunction,Conductor*%
%ADD22C,1.000000*%
%TD*%
G04 APERTURE END LIST*
D10*
%TO.P,U1,V*%
%TO.N,GND*%
X146049999Y-73500001D03*
X147049999Y-73500001D03*
X148050000Y-73500001D03*
X149050001Y-73500001D03*
X150050001Y-73500001D03*
X146049999Y-72500000D03*
X147049999Y-72500000D03*
X148050000Y-72500000D03*
X149050001Y-72500000D03*
X150050001Y-72500000D03*
X146049999Y-71499999D03*
X147049999Y-71499999D03*
X148050000Y-71499999D03*
X149050001Y-71499999D03*
X150050001Y-71499999D03*
%TD*%
D11*
%TO.P,J3,3,3*%
%TO.N,phase_A*%
X151250000Y-92500000D03*
D12*
%TO.P,J3,2,2*%
%TO.N,phase_B*%
X148750000Y-92500000D03*
%TO.P,J3,1,1*%
%TO.N,phase_C*%
X146250000Y-92500000D03*
%TD*%
D13*
%TO.P,REF\u002A\u002A,1*%
%TO.N,VCC*%
X161500000Y-70750000D03*
%TO.P,REF\u002A\u002A,2*%
%TO.N,GND*%
X161500000Y-64500000D03*
%TD*%
D14*
%TO.P,U2,1*%
%TO.N,GND*%
X148540000Y-61000000D03*
D15*
%TO.P,U2,2*%
%TO.N,+3.3V*%
X148540000Y-63540000D03*
%TO.P,U2,3*%
%TO.N,Net-(U2-En)*%
X146000000Y-61000000D03*
%TO.P,U2,4*%
%TO.N,GND*%
X146000000Y-63540000D03*
%TO.P,U2,5*%
%TO.N,IN3*%
X143460000Y-61000000D03*
%TO.P,U2,6*%
%TO.N,nRST*%
X143460000Y-63540000D03*
%TO.P,U2,7*%
%TO.N,IN2*%
X140920000Y-61000000D03*
%TO.P,U2,8*%
%TO.N,nSLP*%
X140920000Y-63540000D03*
%TO.P,U2,9*%
%TO.N,IN1*%
X138380000Y-61000000D03*
%TO.P,U2,10*%
%TO.N,nFLT*%
X138380000Y-63540000D03*
%TD*%
D14*
%TO.P,J1,1,Pin_1*%
%TO.N,CC_out*%
X137000000Y-74000000D03*
D15*
%TO.P,J1,2,Pin_2*%
%TO.N,CA_out*%
X137000000Y-76540000D03*
%TD*%
D16*
%TO.P,C1,2*%
%TO.N,GND*%
X161750000Y-77150000D03*
D17*
%TO.P,C1,1*%
%TO.N,VCC*%
X159250000Y-77150000D03*
%TD*%
D18*
%TO.N,GND*%
X154240000Y-80400000D03*
X155550000Y-80030000D03*
X158750000Y-81250000D03*
X163320000Y-88060000D03*
X161810000Y-91210000D03*
X158190000Y-85850000D03*
X159020000Y-92890000D03*
X156560000Y-95030000D03*
X153490000Y-98170000D03*
X149399672Y-100280327D03*
X147250000Y-100390000D03*
X144980000Y-100460000D03*
X139770000Y-97750000D03*
X138380000Y-96420000D03*
X136360000Y-93990000D03*
X131230000Y-87270000D03*
X131440000Y-80870000D03*
X131440000Y-73860000D03*
X131320000Y-68530000D03*
X138160000Y-58080000D03*
X144060000Y-58030000D03*
X142779006Y-56566798D03*
X147930991Y-57320869D03*
X151773775Y-58075702D03*
X153626546Y-56360173D03*
X156010000Y-57680000D03*
X158200000Y-60600759D03*
X158830000Y-58730000D03*
X164440000Y-61610000D03*
X162110000Y-60660000D03*
X160007303Y-61837985D03*
X158190000Y-63850000D03*
X161100000Y-66540000D03*
X164790000Y-67970000D03*
X142830000Y-69650000D03*
X156090000Y-83920000D03*
X146970000Y-81630000D03*
X156280000Y-81870000D03*
X147320000Y-80620000D03*
X141170000Y-85025000D03*
X134720000Y-90750000D03*
X134860000Y-92420000D03*
X141600000Y-85700000D03*
X152120000Y-72890000D03*
X151803384Y-72026309D03*
X144949620Y-72229620D03*
%TO.N,IN3*%
X152000000Y-71060000D03*
X144615380Y-61465380D03*
%TO.N,IN2*%
X143710000Y-72550000D03*
X142100000Y-61500000D03*
%TO.N,+3.3V*%
X147410000Y-85940000D03*
X139610000Y-90530000D03*
%TO.N,nRST*%
X152730000Y-64150000D03*
X149624999Y-66085916D03*
%TO.N,nSLP*%
X149590000Y-67000000D03*
X151570000Y-65560000D03*
%TO.N,GND*%
X144750000Y-73050000D03*
X151200000Y-72850000D03*
X151150000Y-71650000D03*
X151400000Y-74150000D03*
X149000000Y-68300000D03*
X165450000Y-86000000D03*
X164410749Y-83737982D03*
X163034432Y-83572161D03*
X163250000Y-84650000D03*
X163700000Y-82250000D03*
X164156048Y-74440384D03*
X164798814Y-75504964D03*
X164879159Y-78417494D03*
X163774407Y-80948381D03*
X164738554Y-80225271D03*
X164798814Y-81470628D03*
X162589308Y-82414690D03*
X162700000Y-81500000D03*
X162800000Y-80400000D03*
X164000000Y-79300000D03*
%TO.N,VCC*%
X150950000Y-78250000D03*
X151850000Y-78150000D03*
X151600000Y-77250000D03*
X150800000Y-77250000D03*
X154100000Y-77200000D03*
X155300000Y-78000000D03*
X156600000Y-78100000D03*
X155500000Y-76800000D03*
X143100000Y-79600000D03*
X144000000Y-78600000D03*
X144300000Y-79400000D03*
X145600000Y-78500000D03*
X145100000Y-77750000D03*
X146000000Y-77150000D03*
%TO.N,CC_out*%
X153700000Y-83050000D03*
X136700000Y-84300000D03*
%TO.N,CA_out*%
X141600000Y-82900000D03*
X140164676Y-81464676D03*
%TO.N,GND*%
X143750000Y-71000000D03*
X156000000Y-85500000D03*
X158000000Y-87000000D03*
X145500000Y-86750000D03*
X143750000Y-85500000D03*
X148250000Y-80500000D03*
X152250000Y-74250000D03*
X158000000Y-69750000D03*
X156750000Y-67500000D03*
%TO.N,EN*%
X140200000Y-70950000D03*
%TD*%
D19*
%TO.N,GND*%
X142830000Y-69650000D02*
X144155000Y-68325000D01*
X144155000Y-68325000D02*
X149000000Y-68325000D01*
X153800000Y-81630000D02*
X156090000Y-83920000D01*
X146970000Y-81630000D02*
X153800000Y-81630000D01*
X156230000Y-81820000D02*
X156280000Y-81870000D01*
X151840000Y-80620000D02*
X153040000Y-81820000D01*
X153040000Y-81820000D02*
X156230000Y-81820000D01*
X147320000Y-80620000D02*
X151840000Y-80620000D01*
X135845000Y-90350000D02*
X141170000Y-85025000D01*
X134720000Y-90750000D02*
X135120000Y-90350000D01*
X135120000Y-90350000D02*
X135845000Y-90350000D01*
X134920000Y-92360000D02*
X134860000Y-92420000D01*
X135730000Y-92360000D02*
X134920000Y-92360000D01*
X141600000Y-85700000D02*
X141600000Y-86490000D01*
X141600000Y-86490000D02*
X135730000Y-92360000D01*
X150825000Y-71595000D02*
X150825000Y-70885000D01*
X152120000Y-72890000D02*
X150825000Y-71595000D01*
X150825000Y-70885000D02*
X148880000Y-68940000D01*
X148880000Y-68940000D02*
X149000000Y-68820000D01*
X149000000Y-68820000D02*
X149000000Y-68325000D01*
X151803384Y-72026309D02*
X151658161Y-72026309D01*
X151658161Y-72026309D02*
X150825000Y-71193148D01*
X150825000Y-71193148D02*
X150825000Y-70125000D01*
X150825000Y-70125000D02*
X149025000Y-68325000D01*
X149025000Y-68325000D02*
X149000000Y-68325000D01*
X144655000Y-71905000D02*
X144949620Y-72199620D01*
X144350000Y-71600000D02*
X144655000Y-71905000D01*
X144655000Y-71905000D02*
X143750000Y-71000000D01*
D20*
X144350000Y-71600000D02*
X143750000Y-71000000D01*
D19*
X144949620Y-72199620D02*
X144949620Y-72229620D01*
D21*
%TO.N,IN3*%
X152000000Y-70000000D02*
X152000000Y-71060000D01*
X149650000Y-67650000D02*
X152000000Y-70000000D01*
X148483654Y-67650000D02*
X149650000Y-67650000D01*
X144615380Y-63781726D02*
X148483654Y-67650000D01*
X144615380Y-61465380D02*
X144615380Y-63781726D01*
%TO.N,IN2*%
X142100000Y-70940000D02*
X143710000Y-72550000D01*
X142100000Y-61500000D02*
X142100000Y-70940000D01*
D19*
%TO.N,+3.3V*%
X140510000Y-90530000D02*
X139610000Y-90530000D01*
D22*
X140510000Y-90530000D02*
X143204925Y-90530000D01*
X143204925Y-90530000D02*
X147410000Y-86324925D01*
X147410000Y-86324925D02*
X147410000Y-85940000D01*
D20*
%TO.N,nRST*%
X151560915Y-64150000D02*
X152730000Y-64150000D01*
X149624999Y-66085916D02*
X151560915Y-64150000D01*
%TO.N,nSLP*%
X149590000Y-67000000D02*
X150130000Y-67000000D01*
X150130000Y-67000000D02*
X151570000Y-65560000D01*
%TO.N,CC_out*%
X152450000Y-84300000D02*
X136700000Y-84300000D01*
X153700000Y-83050000D02*
X152450000Y-84300000D01*
D19*
%TO.N,CA_out*%
X141600000Y-82900000D02*
X140164676Y-81464676D01*
%TD*%
%TA.AperFunction,Conductor*%
%TO.N,GND*%
G36*
X155616171Y-79690271D02*
G01*
X155637784Y-79695204D01*
X155663944Y-79704358D01*
X155690107Y-79713512D01*
X155710079Y-79723131D01*
X155757016Y-79752624D01*
X155774348Y-79766445D01*
X155813551Y-79805648D01*
X155827373Y-79822981D01*
X155856867Y-79869921D01*
X155866485Y-79889894D01*
X155884793Y-79942214D01*
X155889727Y-79963828D01*
X155895934Y-80018917D01*
X155895934Y-80041082D01*
X155889726Y-80096175D01*
X155884794Y-80117783D01*
X155866484Y-80170107D01*
X155856866Y-80190079D01*
X155827374Y-80237016D01*
X155813552Y-80254349D01*
X155774349Y-80293552D01*
X155757016Y-80307374D01*
X155710079Y-80336866D01*
X155690107Y-80346484D01*
X155637785Y-80364793D01*
X155616171Y-80369726D01*
X155561084Y-80375933D01*
X155538913Y-80375933D01*
X155483830Y-80369726D01*
X155462220Y-80364794D01*
X155409888Y-80346483D01*
X155389912Y-80336863D01*
X155300659Y-80280781D01*
X155300656Y-80280779D01*
X155201536Y-80235758D01*
X155201534Y-80235757D01*
X155166467Y-80225227D01*
X155116174Y-80190384D01*
X155095965Y-80132632D01*
X155113561Y-80074032D01*
X155126520Y-80058859D01*
X155136755Y-80049074D01*
X155173821Y-80000393D01*
X155233940Y-79888673D01*
X155233945Y-79888657D01*
X155235514Y-79885101D01*
X155235769Y-79885213D01*
X155243131Y-79869918D01*
X155272624Y-79822980D01*
X155286437Y-79805658D01*
X155325656Y-79766439D01*
X155342981Y-79752624D01*
X155389921Y-79723129D01*
X155409884Y-79713515D01*
X155462220Y-79695201D01*
X155483826Y-79690271D01*
X155538914Y-79684064D01*
X155561084Y-79684064D01*
X155616171Y-79690271D01*
G37*
%TD.AperFunction*%
%TA.AperFunction,Conductor*%
G36*
X162963090Y-50102453D02*
G01*
X163307126Y-50170826D01*
X163315606Y-50172905D01*
X163600721Y-50256369D01*
X163686025Y-50281341D01*
X163694322Y-50284175D01*
X163885691Y-50359144D01*
X164053667Y-50424949D01*
X164061671Y-50428501D01*
X164354768Y-50574437D01*
X164407159Y-50600523D01*
X164414823Y-50604773D01*
X164743728Y-50806685D01*
X164750985Y-50811596D01*
X165060745Y-51041827D01*
X165067544Y-51047364D01*
X165355696Y-51304081D01*
X165361979Y-51310198D01*
X165626298Y-51591417D01*
X165632014Y-51598065D01*
X165870414Y-51901568D01*
X165875520Y-51908697D01*
X166086132Y-52232107D01*
X166090586Y-52239659D01*
X166271751Y-52580427D01*
X166275520Y-52588344D01*
X166425823Y-52943803D01*
X166428877Y-52952022D01*
X166525914Y-53253456D01*
X166530677Y-53283854D01*
X166499876Y-103387947D01*
X166480933Y-103446126D01*
X166431411Y-103482059D01*
X166398814Y-103486865D01*
X162282740Y-103401114D01*
X162271885Y-103400289D01*
X162265893Y-103399500D01*
X162265892Y-103399500D01*
X162265890Y-103399500D01*
X162206273Y-103399500D01*
X162204211Y-103399479D01*
X162200131Y-103399394D01*
X162144547Y-103398236D01*
X162144546Y-103398236D01*
X162144542Y-103398236D01*
X162138537Y-103398900D01*
X162127658Y-103399500D01*
X134502279Y-103399500D01*
X134497707Y-103399394D01*
X134098646Y-103380944D01*
X134089541Y-103380101D01*
X133696119Y-103325221D01*
X133687130Y-103323540D01*
X133300479Y-103232600D01*
X133291684Y-103230098D01*
X132915060Y-103103867D01*
X132906533Y-103100564D01*
X132543162Y-102940120D01*
X132534976Y-102936043D01*
X132187956Y-102742753D01*
X132180182Y-102737940D01*
X131852486Y-102513464D01*
X131845188Y-102507953D01*
X131539601Y-102254197D01*
X131532843Y-102248037D01*
X131251962Y-101967156D01*
X131245802Y-101960398D01*
X130992046Y-101654811D01*
X130986535Y-101647513D01*
X130762059Y-101319817D01*
X130757246Y-101312043D01*
X130563956Y-100965023D01*
X130559879Y-100956837D01*
X130514692Y-100854499D01*
X130399435Y-100593466D01*
X130396132Y-100584939D01*
X130269901Y-100208315D01*
X130267399Y-100199520D01*
X130228120Y-100032515D01*
X130176456Y-99812854D01*
X130174780Y-99803893D01*
X130119898Y-99410458D01*
X130119055Y-99401353D01*
X130117262Y-99362563D01*
X130100606Y-99002306D01*
X130100501Y-98997691D01*
X130100573Y-98878448D01*
X132645500Y-98878448D01*
X132645500Y-99121551D01*
X132677230Y-99362563D01*
X132677230Y-99362568D01*
X132740149Y-99597387D01*
X132833178Y-99821979D01*
X132833181Y-99821984D01*
X132954731Y-100032516D01*
X133102722Y-100225380D01*
X133274620Y-100397278D01*
X133467484Y-100545269D01*
X133678016Y-100666819D01*
X133678017Y-100666819D01*
X133678020Y-100666821D01*
X133902612Y-100759850D01*
X134137429Y-100822769D01*
X134378450Y-100854500D01*
X134378451Y-100854500D01*
X134621549Y-100854500D01*
X134621550Y-100854500D01*
X134862571Y-100822769D01*
X135097388Y-100759850D01*
X135321984Y-100666819D01*
X135532516Y-100545269D01*
X135725380Y-100397278D01*
X135897278Y-100225380D01*
X136045269Y-100032516D01*
X136166819Y-99821984D01*
X136259850Y-99597388D01*
X136322769Y-99362571D01*
X136354500Y-99121550D01*
X136354500Y-98878450D01*
X136354500Y-98878448D01*
X160395500Y-98878448D01*
X160395500Y-99121551D01*
X160427230Y-99362563D01*
X160427230Y-99362568D01*
X160490149Y-99597387D01*
X160583178Y-99821979D01*
X160583181Y-99821984D01*
X160704731Y-100032516D01*
X160852722Y-100225380D01*
X161024620Y-100397278D01*
X161217484Y-100545269D01*
X161428016Y-100666819D01*
X161428017Y-100666819D01*
X161428020Y-100666821D01*
X161652612Y-100759850D01*
X161887429Y-100822769D01*
X162128450Y-100854500D01*
X162128451Y-100854500D01*
X162371549Y-100854500D01*
X162371550Y-100854500D01*
X162612571Y-100822769D01*
X162847388Y-100759850D01*
X163071984Y-100666819D01*
X163282516Y-100545269D01*
X163475380Y-100397278D01*
X163647278Y-100225380D01*
X163795269Y-100032516D01*
X163916819Y-99821984D01*
X164009850Y-99597388D01*
X164072769Y-99362571D01*
X164104500Y-99121550D01*
X164104500Y-98878450D01*
X164072769Y-98637429D01*
X164009850Y-98402612D01*
X163916819Y-98178016D01*
X163795269Y-97967484D01*
X163647278Y-97774620D01*
X163475380Y-97602722D01*
X163282516Y-97454731D01*
X163282517Y-97454731D01*
X163282515Y-97454730D01*
X163071979Y-97333178D01*
X162847387Y-97240149D01*
X162687001Y-97197174D01*
X162612571Y-97177231D01*
X162612568Y-97177230D01*
X162612566Y-97177230D01*
X162371551Y-97145500D01*
X162371550Y-97145500D01*
X162128450Y-97145500D01*
X162128448Y-97145500D01*
X161887436Y-97177230D01*
X161887431Y-97177230D01*
X161652612Y-97240149D01*
X161428020Y-97333178D01*
X161217484Y-97454730D01*
X161024623Y-97602719D01*
X160852719Y-97774623D01*
X160704730Y-97967484D01*
X160583178Y-98178020D01*
X160490149Y-98402612D01*
X160427230Y-98637431D01*
X160427230Y-98637436D01*
X160395500Y-98878448D01*
X136354500Y-98878448D01*
X136322769Y-98637429D01*
X136259850Y-98402612D01*
X136166819Y-98178016D01*
X136045269Y-97967484D01*
X135897278Y-97774620D01*
X135725380Y-97602722D01*
X135532516Y-97454731D01*
X135532517Y-97454731D01*
X135532515Y-97454730D01*
X135321979Y-97333178D01*
X135097387Y-97240149D01*
X134937001Y-97197174D01*
X134862571Y-97177231D01*
X134862568Y-97177230D01*
X134862566Y-97177230D01*
X134621551Y-97145500D01*
X134621550Y-97145500D01*
X134378450Y-97145500D01*
X134378448Y-97145500D01*
X134137436Y-97177230D01*
X134137431Y-97177230D01*
X133902612Y-97240149D01*
X133678020Y-97333178D01*
X133467484Y-97454730D01*
X133274623Y-97602719D01*
X133102719Y-97774623D01*
X132954730Y-97967484D01*
X132833178Y-98178020D01*
X132740149Y-98402612D01*
X132677230Y-98637431D01*
X132677230Y-98637436D01*
X132645500Y-98878448D01*
X130100573Y-98878448D01*
X130104433Y-92500000D01*
X145056910Y-92500000D01*
X145077225Y-92719230D01*
X145137477Y-92930994D01*
X145235614Y-93128081D01*
X145368296Y-93303780D01*
X145531003Y-93452106D01*
X145718194Y-93568010D01*
X145923495Y-93647545D01*
X146139916Y-93688000D01*
X146360084Y-93688000D01*
X146576505Y-93647545D01*
X146781806Y-93568010D01*
X146968997Y-93452106D01*
X147131704Y-93303780D01*
X147264386Y-93128081D01*
X147362523Y-92930994D01*
X147404780Y-92782475D01*
X147438889Y-92731682D01*
X147496342Y-92710638D01*
X147555191Y-92727382D01*
X147592960Y-92775519D01*
X147595215Y-92782459D01*
X147637477Y-92930994D01*
X147735614Y-93128081D01*
X147868296Y-93303780D01*
X148031003Y-93452106D01*
X148218194Y-93568010D01*
X148423495Y-93647545D01*
X148639916Y-93688000D01*
X148860084Y-93688000D01*
X149076505Y-93647545D01*
X149281806Y-93568010D01*
X149468997Y-93452106D01*
X149631704Y-93303780D01*
X149764386Y-93128081D01*
X149786880Y-93082905D01*
X149829740Y-93039245D01*
X149890081Y-93029115D01*
X149944853Y-93056386D01*
X149973134Y-93110644D01*
X149974500Y-93127035D01*
X149974500Y-93406521D01*
X149974501Y-93406523D01*
X149989352Y-93500299D01*
X149989354Y-93500304D01*
X150046950Y-93613342D01*
X150136658Y-93703050D01*
X150249696Y-93760646D01*
X150343481Y-93775500D01*
X152156518Y-93775499D01*
X152156521Y-93775499D01*
X152156522Y-93775498D01*
X152203411Y-93768072D01*
X152250299Y-93760647D01*
X152250299Y-93760646D01*
X152250304Y-93760646D01*
X152363342Y-93703050D01*
X152453050Y-93613342D01*
X152510646Y-93500304D01*
X152525500Y-93406519D01*
X152525499Y-91593482D01*
X152525499Y-91593481D01*
X152525499Y-91593478D01*
X152525498Y-91593476D01*
X152510647Y-91499700D01*
X152510646Y-91499698D01*
X152510646Y-91499696D01*
X152453050Y-91386658D01*
X152363342Y-91296950D01*
X152250304Y-91239354D01*
X152250305Y-91239354D01*
X152156521Y-91224500D01*
X150343478Y-91224500D01*
X150343476Y-91224501D01*
X150249700Y-91239352D01*
X150249695Y-91239354D01*
X150136659Y-91296949D01*
X150046949Y-91386659D01*
X149989354Y-91499695D01*
X149974500Y-91593478D01*
X149974500Y-91872963D01*
X149955593Y-91931154D01*
X149906093Y-91967118D01*
X149844907Y-91967118D01*
X149795407Y-91931154D01*
X149786879Y-91917091D01*
X149781069Y-91905424D01*
X149764386Y-91871919D01*
X149631704Y-91696220D01*
X149468997Y-91547894D01*
X149281806Y-91431990D01*
X149076505Y-91352455D01*
X149076504Y-91352454D01*
X149076502Y-91352454D01*
X148860084Y-91312000D01*
X148639916Y-91312000D01*
X148423497Y-91352454D01*
X148218193Y-91431990D01*
X148218188Y-91431993D01*
X148031005Y-91547892D01*
X148031002Y-91547894D01*
X147868297Y-91696218D01*
X147735615Y-91871917D01*
X147735610Y-91871926D01*
X147637478Y-92069003D01*
X147595221Y-92217522D01*
X147561111Y-92268317D01*
X147503658Y-92289361D01*
X147444809Y-92272617D01*
X147407040Y-92224480D01*
X147404779Y-92217522D01*
X147362523Y-92069006D01*
X147264386Y-91871919D01*
X147131704Y-91696220D01*
X146968997Y-91547894D01*
X146781806Y-91431990D01*
X146576505Y-91352455D01*
X146576504Y-91352454D01*
X146576502Y-91352454D01*
X146360084Y-91312000D01*
X146139916Y-91312000D01*
X145923497Y-91352454D01*
X145718193Y-91431990D01*
X145718188Y-91431993D01*
X145531005Y-91547892D01*
X145531002Y-91547894D01*
X145368297Y-91696218D01*
X145235615Y-91871917D01*
X145235610Y-91871926D01*
X145137478Y-92069003D01*
X145137477Y-92069006D01*
X145077225Y-92280770D01*
X145056910Y-92500000D01*
X130104433Y-92500000D01*
X130109396Y-84299995D01*
X135944751Y-84299995D01*
X135944751Y-84300004D01*
X135963685Y-84468053D01*
X135963688Y-84468065D01*
X136019544Y-84627690D01*
X136019544Y-84627691D01*
X136109520Y-84770886D01*
X136109523Y-84770890D01*
X136229110Y-84890477D01*
X136229112Y-84890478D01*
X136229113Y-84890479D01*
X136341562Y-84961136D01*
X136372310Y-84980456D01*
X136436232Y-85002823D01*
X136531934Y-85036311D01*
X136531938Y-85036312D01*
X136531941Y-85036313D01*
X136531942Y-85036313D01*
X136531946Y-85036314D01*
X136699996Y-85055249D01*
X136700000Y-85055249D01*
X136700004Y-85055249D01*
X136868053Y-85036314D01*
X136868055Y-85036313D01*
X136868059Y-85036313D01*
X137027690Y-84980456D01*
X137170890Y-84890477D01*
X137181872Y-84879494D01*
X137236387Y-84851719D01*
X137251874Y-84850500D01*
X147266311Y-84850500D01*
X147324502Y-84869407D01*
X147360466Y-84918907D01*
X147360466Y-84980093D01*
X147324502Y-85029593D01*
X147285625Y-85046598D01*
X147147334Y-85074106D01*
X147147332Y-85074106D01*
X146983455Y-85141985D01*
X146983454Y-85141985D01*
X146835965Y-85240535D01*
X146710535Y-85365965D01*
X146611985Y-85513454D01*
X146611985Y-85513455D01*
X146544106Y-85677332D01*
X146544106Y-85677334D01*
X146509500Y-85851306D01*
X146509500Y-85910917D01*
X146490593Y-85969108D01*
X146480504Y-85980921D01*
X142860921Y-89600504D01*
X142806404Y-89628281D01*
X142790917Y-89629500D01*
X140421306Y-89629500D01*
X140247334Y-89664106D01*
X140247332Y-89664106D01*
X140083457Y-89731984D01*
X140083444Y-89731991D01*
X140074731Y-89737814D01*
X140019728Y-89754500D01*
X139533617Y-89754500D01*
X139383795Y-89784302D01*
X139383793Y-89784302D01*
X139242665Y-89842759D01*
X139242664Y-89842759D01*
X139115648Y-89927630D01*
X139115644Y-89927633D01*
X139007633Y-90035644D01*
X139007630Y-90035648D01*
X138922759Y-90162664D01*
X138922759Y-90162665D01*
X138864302Y-90303793D01*
X138864302Y-90303795D01*
X138834500Y-90453617D01*
X138834500Y-90606382D01*
X138864302Y-90756204D01*
X138864302Y-90756206D01*
X138922759Y-90897334D01*
X138922759Y-90897335D01*
X138965049Y-90960626D01*
X139007630Y-91024352D01*
X139115648Y-91132370D01*
X139242663Y-91217239D01*
X139242664Y-91217239D01*
X139242665Y-91217240D01*
X139260195Y-91224501D01*
X139383795Y-91275698D01*
X139533620Y-91305500D01*
X140019728Y-91305500D01*
X140074731Y-91322186D01*
X140083444Y-91328008D01*
X140083457Y-91328015D01*
X140142459Y-91352454D01*
X140247334Y-91395894D01*
X140421309Y-91430500D01*
X140421310Y-91430500D01*
X143293616Y-91430500D01*
X143293617Y-91430500D01*
X143467591Y-91395895D01*
X143549531Y-91361953D01*
X143631472Y-91328013D01*
X143764159Y-91239354D01*
X143778961Y-91229464D01*
X148109464Y-86898961D01*
X148109813Y-86898437D01*
X148148935Y-86839887D01*
X148148936Y-86839885D01*
X148172599Y-86804471D01*
X148208013Y-86751472D01*
X148241953Y-86669531D01*
X148275895Y-86587591D01*
X148310500Y-86413617D01*
X148310500Y-86236233D01*
X148310500Y-85851309D01*
X148275894Y-85677334D01*
X148208014Y-85513455D01*
X148208014Y-85513454D01*
X148109464Y-85365965D01*
X147984034Y-85240535D01*
X147836544Y-85141985D01*
X147672666Y-85074106D01*
X147534375Y-85046598D01*
X147480991Y-85016701D01*
X147455375Y-84961136D01*
X147467312Y-84901126D01*
X147512242Y-84859594D01*
X147553689Y-84850500D01*
X152522474Y-84850500D01*
X152522475Y-84850500D01*
X152662485Y-84812984D01*
X152788015Y-84740510D01*
X153701737Y-83826786D01*
X153756252Y-83799011D01*
X153760637Y-83798416D01*
X153868059Y-83786313D01*
X154027690Y-83730456D01*
X154170890Y-83640477D01*
X154290477Y-83520890D01*
X154380456Y-83377690D01*
X154436313Y-83218059D01*
X154455249Y-83050000D01*
X154455249Y-83049995D01*
X154436314Y-82881946D01*
X154436311Y-82881934D01*
X154413480Y-82816690D01*
X154380456Y-82722310D01*
X154290477Y-82579110D01*
X154170890Y-82459523D01*
X154170887Y-82459521D01*
X154170886Y-82459520D01*
X154027691Y-82369544D01*
X153868065Y-82313688D01*
X153868053Y-82313685D01*
X153700004Y-82294751D01*
X153699996Y-82294751D01*
X153531946Y-82313685D01*
X153531934Y-82313688D01*
X153372309Y-82369544D01*
X153372308Y-82369544D01*
X153229113Y-82459520D01*
X153109520Y-82579113D01*
X153019544Y-82722308D01*
X153019544Y-82722309D01*
X152963686Y-82881939D01*
X152963686Y-82881941D01*
X152951584Y-82989344D01*
X152926280Y-83045051D01*
X152923211Y-83048261D01*
X152250971Y-83720503D01*
X152196454Y-83748281D01*
X152180967Y-83749500D01*
X142050856Y-83749500D01*
X141992665Y-83730593D01*
X141956701Y-83681093D01*
X141956701Y-83619907D01*
X141992665Y-83570407D01*
X141995855Y-83568184D01*
X142030925Y-83544751D01*
X142094353Y-83502370D01*
X142202370Y-83394353D01*
X142287239Y-83267337D01*
X142345698Y-83126205D01*
X142375500Y-82976380D01*
X142375500Y-82823620D01*
X142345698Y-82673795D01*
X142287240Y-82532665D01*
X142287240Y-82532664D01*
X142238366Y-82459520D01*
X142202370Y-82405648D01*
X140659028Y-80862306D01*
X140532013Y-80777437D01*
X140532012Y-80777436D01*
X140532010Y-80777435D01*
X140390881Y-80718978D01*
X140241058Y-80689176D01*
X140241056Y-80689176D01*
X140088296Y-80689176D01*
X140088293Y-80689176D01*
X139938471Y-80718978D01*
X139938469Y-80718978D01*
X139797341Y-80777435D01*
X139797340Y-80777435D01*
X139670324Y-80862306D01*
X139670320Y-80862309D01*
X139562309Y-80970320D01*
X139562306Y-80970324D01*
X139477435Y-81097340D01*
X139477435Y-81097341D01*
X139418978Y-81238469D01*
X139418978Y-81238471D01*
X139389176Y-81388293D01*
X139389176Y-81541058D01*
X139418978Y-81690880D01*
X139418978Y-81690882D01*
X139477435Y-81832010D01*
X139477435Y-81832011D01*
X139519725Y-81895302D01*
X139562306Y-81959028D01*
X141105648Y-83502370D01*
X141204147Y-83568185D01*
X141242026Y-83616235D01*
X141244428Y-83677373D01*
X141210435Y-83728247D01*
X141153031Y-83749424D01*
X141149145Y-83749500D01*
X137251874Y-83749500D01*
X137193683Y-83730593D01*
X137181876Y-83720509D01*
X137170890Y-83709523D01*
X137170887Y-83709521D01*
X137170886Y-83709520D01*
X137027691Y-83619544D01*
X136868065Y-83563688D01*
X136868053Y-83563685D01*
X136700004Y-83544751D01*
X136699996Y-83544751D01*
X136531946Y-83563685D01*
X136531934Y-83563688D01*
X136372309Y-83619544D01*
X136372308Y-83619544D01*
X136229113Y-83709520D01*
X136109520Y-83829113D01*
X136019544Y-83972308D01*
X136019544Y-83972309D01*
X135963688Y-84131934D01*
X135963685Y-84131946D01*
X135944751Y-84299995D01*
X130109396Y-84299995D01*
X130112255Y-79575886D01*
X140305316Y-79575886D01*
X140308293Y-79651225D01*
X140308295Y-79651240D01*
X140318646Y-79727626D01*
X140327184Y-79764103D01*
X140327187Y-79764114D01*
X140351813Y-79837168D01*
X140386510Y-79914797D01*
X140386516Y-79914809D01*
X140386521Y-79914820D01*
X140396493Y-79934554D01*
X140403907Y-79949225D01*
X140413178Y-79965588D01*
X140413182Y-79965594D01*
X140413185Y-79965599D01*
X140433772Y-79998212D01*
X140433788Y-79998236D01*
X140510101Y-80107254D01*
X140917446Y-80689176D01*
X140923685Y-80698088D01*
X140943327Y-80723887D01*
X140953391Y-80736062D01*
X140975044Y-80760222D01*
X141024997Y-80811661D01*
X141025005Y-80811668D01*
X141073722Y-80854399D01*
X141073725Y-80854402D01*
X141099020Y-80873237D01*
X141115840Y-80883782D01*
X141153937Y-80907669D01*
X141210388Y-80937060D01*
X141238072Y-80948766D01*
X141270072Y-80962297D01*
X141270074Y-80962297D01*
X141270082Y-80962301D01*
X141290492Y-80969065D01*
X141300019Y-80972223D01*
X141300022Y-80972223D01*
X141300026Y-80972225D01*
X141362983Y-80987633D01*
X141362988Y-80987633D01*
X141362989Y-80987634D01*
X141453538Y-81002248D01*
X141461664Y-81002420D01*
X141465943Y-81002937D01*
X141481716Y-81004202D01*
X141514133Y-81005500D01*
X141514142Y-81005500D01*
X143725402Y-81005500D01*
X143725406Y-81005499D01*
X143762602Y-81003789D01*
X143762619Y-81003787D01*
X143762627Y-81003787D01*
X143773556Y-81002779D01*
X143780691Y-81002122D01*
X143817571Y-80997007D01*
X143898295Y-80982005D01*
X143969879Y-80961761D01*
X144003637Y-80948766D01*
X144070326Y-80915780D01*
X144140269Y-80872782D01*
X144171062Y-80851845D01*
X144185598Y-80840953D01*
X144214345Y-80817276D01*
X144605823Y-80463438D01*
X144658600Y-80438823D01*
X150852079Y-79579613D01*
X150912314Y-79590345D01*
X150913410Y-79590940D01*
X151764754Y-80060271D01*
X153143920Y-80820581D01*
X153143945Y-80820594D01*
X153143952Y-80820598D01*
X153157824Y-80827900D01*
X153164676Y-80831339D01*
X153178871Y-80838122D01*
X153301167Y-80871874D01*
X153361968Y-80878725D01*
X153361969Y-80878725D01*
X153488710Y-80873034D01*
X153607488Y-80828456D01*
X153660703Y-80798261D01*
X153759893Y-80719160D01*
X153829785Y-80613279D01*
X153853023Y-80562118D01*
X153854766Y-80558744D01*
X153888838Y-80435285D01*
X153888838Y-80435284D01*
X153888841Y-80435274D01*
X153900270Y-80333825D01*
X153905204Y-80312214D01*
X153906898Y-80307374D01*
X153923515Y-80259885D01*
X153933129Y-80239920D01*
X153962623Y-80192982D01*
X153976439Y-80175656D01*
X154015656Y-80136439D01*
X154032981Y-80122624D01*
X154079921Y-80093129D01*
X154099884Y-80083515D01*
X154152220Y-80065201D01*
X154173826Y-80060271D01*
X154228914Y-80054064D01*
X154251076Y-80054063D01*
X154306175Y-80060270D01*
X154327783Y-80065203D01*
X154380106Y-80083512D01*
X154400077Y-80093129D01*
X154489342Y-80149219D01*
X154588460Y-80194240D01*
X154623528Y-80204770D01*
X154673822Y-80239614D01*
X154694031Y-80297366D01*
X154676435Y-80355966D01*
X154663473Y-80371143D01*
X154653241Y-80380925D01*
X154653238Y-80380928D01*
X154616899Y-80428656D01*
X154616280Y-80429448D01*
X154616170Y-80429615D01*
X154556055Y-80541333D01*
X154554487Y-80544893D01*
X154554236Y-80544782D01*
X154546866Y-80560080D01*
X154491221Y-80648638D01*
X154485145Y-80657252D01*
X154480123Y-80663622D01*
X154455972Y-80703035D01*
X154455963Y-80703050D01*
X154416067Y-80789598D01*
X154416065Y-80789602D01*
X154396219Y-80914905D01*
X154396219Y-80976095D01*
X154416066Y-81101400D01*
X154473662Y-81214440D01*
X154473666Y-81214446D01*
X154509622Y-81263935D01*
X154509624Y-81263937D01*
X154509627Y-81263941D01*
X154509628Y-81263942D01*
X154599338Y-81353651D01*
X154599339Y-81353652D01*
X154712370Y-81411243D01*
X154712375Y-81411245D01*
X154712379Y-81411247D01*
X154770570Y-81430154D01*
X154820691Y-81438092D01*
X154895871Y-81450000D01*
X154895874Y-81450000D01*
X156256694Y-81450000D01*
X156276006Y-81451902D01*
X156295309Y-81455741D01*
X156328361Y-81462315D01*
X156346924Y-81467946D01*
X156442157Y-81507393D01*
X156442157Y-81507392D01*
X156468996Y-81518510D01*
X156474464Y-81520972D01*
X156477010Y-81522212D01*
X156477185Y-81522297D01*
X156527637Y-81538876D01*
X156635604Y-81558714D01*
X157887468Y-81616271D01*
X157887478Y-81616270D01*
X157887482Y-81616271D01*
X157908778Y-81615929D01*
X157937699Y-81615465D01*
X157962103Y-81613557D01*
X157962120Y-81613554D01*
X157962129Y-81613554D01*
X157992488Y-81609275D01*
X158011830Y-81606550D01*
X158130610Y-81561973D01*
X158136356Y-81558713D01*
X158139036Y-81557191D01*
X158183826Y-81531778D01*
X158283016Y-81452678D01*
X158352909Y-81346798D01*
X158378213Y-81291091D01*
X158378215Y-81291086D01*
X158385708Y-81263935D01*
X158407582Y-81184677D01*
X158409570Y-81178316D01*
X158433513Y-81109891D01*
X158443131Y-81089918D01*
X158472624Y-81042981D01*
X158486439Y-81025656D01*
X158525656Y-80986439D01*
X158542981Y-80972624D01*
X158589921Y-80943129D01*
X158609884Y-80933515D01*
X158662220Y-80915201D01*
X158683822Y-80910271D01*
X158738922Y-80904063D01*
X158761083Y-80904063D01*
X158827248Y-80911519D01*
X158832067Y-80912062D01*
X158847149Y-80914960D01*
X158854706Y-80917031D01*
X158854709Y-80917031D01*
X158854718Y-80917034D01*
X158881461Y-80922410D01*
X158936994Y-80929629D01*
X158936998Y-80929628D01*
X158937001Y-80929629D01*
X159063258Y-80917355D01*
X159063259Y-80917354D01*
X159063267Y-80917354D01*
X159122490Y-80901980D01*
X159238788Y-80851285D01*
X159333730Y-80767133D01*
X159372605Y-80719886D01*
X159436896Y-80610514D01*
X160224291Y-78606235D01*
X160225676Y-78602660D01*
X160226346Y-78600906D01*
X160227704Y-78597299D01*
X160229370Y-78592810D01*
X160231984Y-78585557D01*
X160233227Y-78582002D01*
X160235704Y-78574695D01*
X160237201Y-78570137D01*
X160238364Y-78566538D01*
X160238929Y-78564762D01*
X160240080Y-78561083D01*
X160337191Y-78245469D01*
X160361810Y-78204581D01*
X160378050Y-78188342D01*
X160435646Y-78075304D01*
X160450500Y-77981519D01*
X160450499Y-77859389D01*
X160451628Y-77844483D01*
X160451834Y-77843129D01*
X160451838Y-77843103D01*
X160453634Y-77828397D01*
X160454913Y-77816458D01*
X160455450Y-77810632D01*
X160456372Y-77798708D01*
X160456373Y-77798700D01*
X160550818Y-76287534D01*
X160551432Y-76277711D01*
X160554822Y-76257494D01*
X160555619Y-76254612D01*
X160567162Y-76212883D01*
X160567161Y-76212882D01*
X161156671Y-74081574D01*
X161180818Y-74039255D01*
X162400823Y-72774064D01*
X162418646Y-72759450D01*
X164179466Y-71630720D01*
X164215525Y-71604710D01*
X164232384Y-71591084D01*
X164265378Y-71561283D01*
X164303462Y-71522890D01*
X164358709Y-71453394D01*
X164381670Y-71416931D01*
X164420483Y-71337038D01*
X164423502Y-71328572D01*
X164434883Y-71296661D01*
X164455374Y-71210270D01*
X164460669Y-71167504D01*
X164461866Y-71078716D01*
X164456670Y-71024889D01*
X164454086Y-71007919D01*
X164449982Y-70980962D01*
X164449979Y-70980940D01*
X164445547Y-70959722D01*
X164434085Y-70916765D01*
X164002468Y-69594937D01*
X163731043Y-68763698D01*
X163716544Y-68725827D01*
X163708563Y-68707745D01*
X163690356Y-68671517D01*
X163665954Y-68628469D01*
X163619177Y-68562350D01*
X163619171Y-68562343D01*
X163619164Y-68562334D01*
X163593365Y-68532666D01*
X163593359Y-68532660D01*
X163593357Y-68532658D01*
X163541235Y-68483613D01*
X163534372Y-68477155D01*
X163534368Y-68477152D01*
X163534366Y-68477150D01*
X163503158Y-68453181D01*
X163503155Y-68453179D01*
X163503151Y-68453176D01*
X163434321Y-68410510D01*
X163398978Y-68393224D01*
X163398976Y-68393223D01*
X163323035Y-68365083D01*
X163323032Y-68365082D01*
X163323029Y-68365081D01*
X163275162Y-68352612D01*
X163275142Y-68352607D01*
X163235441Y-68344361D01*
X163215894Y-68341311D01*
X163175598Y-68337074D01*
X163175584Y-68337073D01*
X163175582Y-68337073D01*
X159856410Y-68155201D01*
X159856406Y-68155201D01*
X159856393Y-68155200D01*
X159811213Y-68155410D01*
X159808287Y-68155424D01*
X159808276Y-68155424D01*
X159808264Y-68155425D01*
X159784911Y-68156922D01*
X159784906Y-68156922D01*
X159784900Y-68156923D01*
X159749882Y-68161264D01*
X159737169Y-68162841D01*
X159737146Y-68162844D01*
X159679808Y-68173439D01*
X159588098Y-68201948D01*
X159545577Y-68220943D01*
X159545570Y-68220947D01*
X159463138Y-68270230D01*
X159463136Y-68270231D01*
X159426595Y-68298447D01*
X159426591Y-68298450D01*
X159358055Y-68365745D01*
X159358047Y-68365754D01*
X159328930Y-68402070D01*
X159328925Y-68402077D01*
X159328925Y-68402078D01*
X159282159Y-68477155D01*
X159278136Y-68483613D01*
X159253375Y-68536430D01*
X159235595Y-68581072D01*
X159235592Y-68581080D01*
X159228214Y-68603367D01*
X159228213Y-68603368D01*
X159215835Y-68649838D01*
X159215832Y-68649851D01*
X158749103Y-70941066D01*
X158718961Y-70994312D01*
X158700042Y-71007919D01*
X156210524Y-72386045D01*
X156165576Y-72398386D01*
X154921056Y-72436098D01*
X154777917Y-72440436D01*
X154763469Y-72441573D01*
X154738885Y-72443509D01*
X154725930Y-72445162D01*
X154719983Y-72445921D01*
X154719973Y-72445922D01*
X154719971Y-72445923D01*
X154710990Y-72447511D01*
X154681517Y-72452724D01*
X154681508Y-72452725D01*
X154681491Y-72452729D01*
X154634938Y-72463297D01*
X154634933Y-72463299D01*
X154634929Y-72463300D01*
X154634926Y-72463301D01*
X154610562Y-72471366D01*
X154560769Y-72487850D01*
X154526053Y-72503194D01*
X154457980Y-72541507D01*
X154457979Y-72541507D01*
X154426804Y-72563254D01*
X154426801Y-72563256D01*
X154367336Y-72613910D01*
X154340946Y-72641192D01*
X154340944Y-72641195D01*
X154292293Y-72702316D01*
X154266282Y-72742381D01*
X154246597Y-72776160D01*
X154237802Y-72793079D01*
X154221453Y-72828621D01*
X152945140Y-75997397D01*
X152905861Y-76044310D01*
X152857705Y-76059312D01*
X151933481Y-76100389D01*
X151933462Y-76100389D01*
X151188160Y-76133514D01*
X151129187Y-76117209D01*
X151106458Y-76096457D01*
X150977194Y-75934876D01*
X150955607Y-75877625D01*
X150955500Y-75873031D01*
X150955500Y-74780477D01*
X150955500Y-74780464D01*
X150953546Y-74740707D01*
X150951643Y-74721391D01*
X150945804Y-74682030D01*
X150938552Y-74645576D01*
X150938551Y-74645575D01*
X150938551Y-74645570D01*
X150915483Y-74569531D01*
X150915474Y-74569507D01*
X150900697Y-74533832D01*
X150876279Y-74488148D01*
X150863229Y-74463732D01*
X150842583Y-74432832D01*
X150818889Y-74400882D01*
X150818273Y-74400131D01*
X150806587Y-74385889D01*
X150806584Y-74385887D01*
X150806577Y-74385878D01*
X150779838Y-74356374D01*
X150772431Y-74348967D01*
X150769025Y-74342281D01*
X150728427Y-74309604D01*
X150728424Y-74309602D01*
X150727085Y-74308524D01*
X150727069Y-74308511D01*
X150727058Y-74308503D01*
X150727059Y-74308503D01*
X150710041Y-74294805D01*
X150710022Y-74294791D01*
X150674640Y-74269323D01*
X150674635Y-74269320D01*
X150674627Y-74269314D01*
X150656721Y-74257835D01*
X150656719Y-74257834D01*
X150656713Y-74257830D01*
X150618776Y-74236297D01*
X150618768Y-74236293D01*
X150594635Y-74224265D01*
X150594623Y-74224259D01*
X150574850Y-74215060D01*
X150573720Y-74214570D01*
X150565067Y-74210824D01*
X150544809Y-74202693D01*
X150415339Y-74154743D01*
X150415335Y-74154742D01*
X150392734Y-74146370D01*
X150379637Y-74142360D01*
X150348063Y-74132692D01*
X150325961Y-74127295D01*
X150325953Y-74127293D01*
X150325951Y-74127293D01*
X150280060Y-74118851D01*
X150270011Y-74117595D01*
X150254942Y-74115712D01*
X150254938Y-74115711D01*
X150254935Y-74115711D01*
X150163542Y-74114874D01*
X150161755Y-74114858D01*
X150161754Y-74114858D01*
X150161753Y-74114858D01*
X150161745Y-74114858D01*
X150116820Y-74119637D01*
X150116798Y-74119641D01*
X150025866Y-74140087D01*
X150012586Y-74144731D01*
X149930410Y-74184334D01*
X149903290Y-74201405D01*
X149892970Y-74207901D01*
X149889302Y-74210834D01*
X149821725Y-74264868D01*
X149810756Y-74275877D01*
X149755115Y-74345629D01*
X149732002Y-74382242D01*
X149692971Y-74462457D01*
X149683809Y-74488142D01*
X149671139Y-74530980D01*
X149666126Y-74552154D01*
X149666125Y-74552159D01*
X149658239Y-74596165D01*
X149658238Y-74596173D01*
X149641677Y-74731039D01*
X149641677Y-74731040D01*
X149602033Y-75053852D01*
X149600354Y-75070284D01*
X149599699Y-75078315D01*
X149598688Y-75094895D01*
X149597858Y-75115366D01*
X149597869Y-75148477D01*
X149598532Y-75164603D01*
X149601254Y-75197676D01*
X149603772Y-75218044D01*
X149606141Y-75234459D01*
X149607443Y-75242338D01*
X149610486Y-75258665D01*
X149705991Y-75718823D01*
X149707822Y-75732129D01*
X149726830Y-76007741D01*
X149726830Y-76007743D01*
X149735061Y-76127115D01*
X149720202Y-76186468D01*
X149673293Y-76225752D01*
X149640505Y-76232835D01*
X146909520Y-76349046D01*
X146850578Y-76332630D01*
X146827721Y-76311624D01*
X146827259Y-76311041D01*
X146817187Y-76298561D01*
X146807957Y-76287529D01*
X146803373Y-76282244D01*
X146793757Y-76271545D01*
X146782820Y-76259803D01*
X146777981Y-76254700D01*
X146777949Y-76254667D01*
X146777897Y-76254612D01*
X146775457Y-76252084D01*
X146770424Y-76246962D01*
X146623949Y-76100487D01*
X146477342Y-75953879D01*
X146449565Y-75899363D01*
X146448405Y-75887288D01*
X146447913Y-75873031D01*
X146409572Y-74761111D01*
X146404065Y-74707053D01*
X146399624Y-74680958D01*
X146399619Y-74680937D01*
X146386944Y-74628136D01*
X146386942Y-74628131D01*
X146369328Y-74571718D01*
X146369326Y-74571715D01*
X146369324Y-74571706D01*
X146323471Y-74473474D01*
X146295126Y-74429329D01*
X146270912Y-74400865D01*
X146224874Y-74346745D01*
X146224866Y-74346737D01*
X146180896Y-74307244D01*
X146138118Y-74273717D01*
X146116245Y-74258827D01*
X146069412Y-74231343D01*
X145933209Y-74163241D01*
X145883418Y-74142364D01*
X145883405Y-74142360D01*
X145858564Y-74133839D01*
X145858547Y-74133834D01*
X145806419Y-74119756D01*
X145806416Y-74119755D01*
X145787193Y-74115916D01*
X145787195Y-74115916D01*
X145679690Y-74109034D01*
X145679678Y-74109034D01*
X145627680Y-74112643D01*
X145522121Y-74134323D01*
X145503608Y-74140785D01*
X145453917Y-74161940D01*
X145453902Y-74161947D01*
X145431616Y-74173244D01*
X145430445Y-74173838D01*
X145430440Y-74173840D01*
X145430425Y-74173849D01*
X145384011Y-74201405D01*
X145383997Y-74201414D01*
X145379588Y-74204446D01*
X145379552Y-74204473D01*
X145343059Y-74232761D01*
X145343034Y-74232782D01*
X145326058Y-74247564D01*
X145326044Y-74247577D01*
X145292963Y-74279879D01*
X145292954Y-74279888D01*
X145255791Y-74320568D01*
X145255791Y-74320569D01*
X145201674Y-74395396D01*
X145201673Y-74395399D01*
X145179723Y-74434456D01*
X145143938Y-74519600D01*
X145128509Y-74572504D01*
X145118111Y-74617581D01*
X145114306Y-74639791D01*
X145114303Y-74639818D01*
X145109111Y-74685738D01*
X145106057Y-74740707D01*
X145077282Y-75258665D01*
X145075764Y-75285981D01*
X145075577Y-75289664D01*
X145075485Y-75291676D01*
X145075345Y-75294983D01*
X145075047Y-75302926D01*
X145074836Y-75310315D01*
X145074768Y-75313750D01*
X145074691Y-75320993D01*
X145074677Y-75329136D01*
X145074686Y-75332701D01*
X145074699Y-75334581D01*
X145074740Y-75338101D01*
X145090946Y-76334742D01*
X145072987Y-76393233D01*
X145060046Y-76408221D01*
X143640961Y-77752617D01*
X143626896Y-77763710D01*
X143497496Y-77847970D01*
X143497486Y-77847978D01*
X143427962Y-77905179D01*
X143427952Y-77905188D01*
X143397521Y-77936504D01*
X143397501Y-77936527D01*
X143389672Y-77946618D01*
X143339062Y-77981002D01*
X143327410Y-77983635D01*
X143306681Y-77987019D01*
X143288632Y-77989967D01*
X143288631Y-77989967D01*
X141234306Y-78325365D01*
X141234293Y-78325368D01*
X141190945Y-78334908D01*
X141190930Y-78334911D01*
X141190926Y-78334913D01*
X141186812Y-78336057D01*
X141170066Y-78340717D01*
X141127930Y-78354976D01*
X141037366Y-78391270D01*
X141037336Y-78391284D01*
X140959084Y-78433106D01*
X140959078Y-78433109D01*
X140923545Y-78457443D01*
X140923537Y-78457449D01*
X140856261Y-78515289D01*
X140856257Y-78515292D01*
X140789665Y-78586626D01*
X140789662Y-78586628D01*
X140761166Y-78620720D01*
X140748234Y-78638038D01*
X140748217Y-78638062D01*
X140723621Y-78675071D01*
X140403023Y-79220088D01*
X140403020Y-79220094D01*
X140385072Y-79254226D01*
X140377109Y-79271297D01*
X140377104Y-79271306D01*
X140362494Y-79306961D01*
X140362478Y-79307004D01*
X140334026Y-79387099D01*
X140315246Y-79461856D01*
X140315244Y-79461866D01*
X140315243Y-79461872D01*
X140309610Y-79498914D01*
X140309609Y-79498921D01*
X140305317Y-79575874D01*
X140305316Y-79575886D01*
X130112255Y-79575886D01*
X130114093Y-76539996D01*
X135744723Y-76539996D01*
X135744723Y-76540003D01*
X135763791Y-76757969D01*
X135763792Y-76757976D01*
X135763793Y-76757977D01*
X135820425Y-76969330D01*
X135912898Y-77167639D01*
X136038402Y-77346877D01*
X136193123Y-77501598D01*
X136372361Y-77627102D01*
X136570670Y-77719575D01*
X136782023Y-77776207D01*
X136782027Y-77776207D01*
X136782030Y-77776208D01*
X136999997Y-77795277D01*
X137000000Y-77795277D01*
X137000003Y-77795277D01*
X137217969Y-77776208D01*
X137217970Y-77776207D01*
X137217977Y-77776207D01*
X137429330Y-77719575D01*
X137627639Y-77627102D01*
X137806877Y-77501598D01*
X137961598Y-77346877D01*
X138087102Y-77167639D01*
X138179575Y-76969330D01*
X138236207Y-76757977D01*
X138255277Y-76540000D01*
X138255277Y-76539996D01*
X138236208Y-76322030D01*
X138236207Y-76322027D01*
X138236207Y-76322023D01*
X138179575Y-76110670D01*
X138097601Y-75934876D01*
X138087107Y-75912372D01*
X138087103Y-75912364D01*
X137961601Y-75733127D01*
X137961600Y-75733126D01*
X137961598Y-75733123D01*
X137806877Y-75578402D01*
X137806873Y-75578399D01*
X137806872Y-75578398D01*
X137627636Y-75452896D01*
X137627628Y-75452892D01*
X137598315Y-75439223D01*
X137553567Y-75397495D01*
X137541892Y-75337434D01*
X137567750Y-75281981D01*
X137621264Y-75252318D01*
X137640152Y-75250499D01*
X137881518Y-75250499D01*
X137881521Y-75250499D01*
X137881522Y-75250498D01*
X137933049Y-75242338D01*
X137975299Y-75235647D01*
X137975299Y-75235646D01*
X137975304Y-75235646D01*
X138088342Y-75178050D01*
X138178050Y-75088342D01*
X138235646Y-74975304D01*
X138250500Y-74881519D01*
X138250499Y-73118482D01*
X138250499Y-73118481D01*
X138250499Y-73118478D01*
X138250498Y-73118476D01*
X138235647Y-73024700D01*
X138235646Y-73024698D01*
X138235646Y-73024696D01*
X138178050Y-72911658D01*
X138088342Y-72821950D01*
X137975304Y-72764354D01*
X137975305Y-72764354D01*
X137881521Y-72749500D01*
X136118478Y-72749500D01*
X136118476Y-72749501D01*
X136024700Y-72764352D01*
X136024695Y-72764354D01*
X135911659Y-72821949D01*
X135821949Y-72911659D01*
X135764354Y-73024695D01*
X135749500Y-73118478D01*
X135749500Y-74881521D01*
X135749501Y-74881523D01*
X135764352Y-74975299D01*
X135764354Y-74975304D01*
X135821950Y-75088342D01*
X135911658Y-75178050D01*
X136024696Y-75235646D01*
X136118481Y-75250500D01*
X136359847Y-75250499D01*
X136418035Y-75269406D01*
X136453999Y-75318906D01*
X136454000Y-75380091D01*
X136418036Y-75429591D01*
X136401686Y-75439223D01*
X136372364Y-75452896D01*
X136193127Y-75578398D01*
X136038398Y-75733127D01*
X135912896Y-75912364D01*
X135912892Y-75912372D01*
X135820426Y-76110666D01*
X135763791Y-76322030D01*
X135744723Y-76539996D01*
X130114093Y-76539996D01*
X130117476Y-70949995D01*
X139444751Y-70949995D01*
X139444751Y-70950004D01*
X139463685Y-71118053D01*
X139463688Y-71118065D01*
X139519544Y-71277690D01*
X139519544Y-71277691D01*
X139609520Y-71420886D01*
X139609523Y-71420890D01*
X139729110Y-71540477D01*
X139729112Y-71540478D01*
X139729113Y-71540479D01*
X139831335Y-71604710D01*
X139872310Y-71630456D01*
X139929527Y-71650477D01*
X140031934Y-71686311D01*
X140031938Y-71686312D01*
X140031941Y-71686313D01*
X140031942Y-71686313D01*
X140031946Y-71686314D01*
X140199996Y-71705249D01*
X140200000Y-71705249D01*
X140200004Y-71705249D01*
X140368053Y-71686314D01*
X140368055Y-71686313D01*
X140368059Y-71686313D01*
X140527690Y-71630456D01*
X140670890Y-71540477D01*
X140790477Y-71420890D01*
X140880456Y-71277690D01*
X140936313Y-71118059D01*
X140940746Y-71078716D01*
X140955249Y-70950004D01*
X140955249Y-70949995D01*
X140936314Y-70781946D01*
X140936311Y-70781934D01*
X140904729Y-70691678D01*
X140880456Y-70622310D01*
X140790477Y-70479110D01*
X140670890Y-70359523D01*
X140670887Y-70359521D01*
X140670886Y-70359520D01*
X140527691Y-70269544D01*
X140368065Y-70213688D01*
X140368053Y-70213685D01*
X140200004Y-70194751D01*
X140199996Y-70194751D01*
X140031946Y-70213685D01*
X140031934Y-70213688D01*
X139872309Y-70269544D01*
X139872308Y-70269544D01*
X139729113Y-70359520D01*
X139609520Y-70479113D01*
X139519544Y-70622308D01*
X139519544Y-70622309D01*
X139463688Y-70781934D01*
X139463685Y-70781946D01*
X139444751Y-70949995D01*
X130117476Y-70949995D01*
X130123498Y-60999996D01*
X137124723Y-60999996D01*
X137124723Y-61000003D01*
X137143791Y-61217969D01*
X137143792Y-61217976D01*
X137143793Y-61217977D01*
X137200425Y-61429330D01*
X137292898Y-61627639D01*
X137418402Y-61806877D01*
X137573123Y-61961598D01*
X137752361Y-62087102D01*
X137950670Y-62179575D01*
X137950671Y-62179575D01*
X137952172Y-62180275D01*
X137996920Y-62222004D01*
X138008595Y-62282065D01*
X137982737Y-62337518D01*
X137952172Y-62359724D01*
X137752372Y-62452892D01*
X137752364Y-62452896D01*
X137573127Y-62578398D01*
X137418398Y-62733127D01*
X137292896Y-62912364D01*
X137292892Y-62912372D01*
X137200426Y-63110666D01*
X137143791Y-63322030D01*
X137124723Y-63539996D01*
X137124723Y-63540003D01*
X137143791Y-63757969D01*
X137143792Y-63757976D01*
X137143793Y-63757977D01*
X137200425Y-63969330D01*
X137284670Y-64149995D01*
X137292897Y-64167637D01*
X137398227Y-64318065D01*
X137418402Y-64346877D01*
X137573123Y-64501598D01*
X137752361Y-64627102D01*
X137950670Y-64719575D01*
X138162023Y-64776207D01*
X138162027Y-64776207D01*
X138162030Y-64776208D01*
X138379997Y-64795277D01*
X138380000Y-64795277D01*
X138380003Y-64795277D01*
X138597969Y-64776208D01*
X138597970Y-64776207D01*
X138597977Y-64776207D01*
X138809330Y-64719575D01*
X139007639Y-64627102D01*
X139186877Y-64501598D01*
X139341598Y-64346877D01*
X139467102Y-64167639D01*
X139559575Y-63969330D01*
X139559576Y-63969325D01*
X139560275Y-63967827D01*
X139602004Y-63923079D01*
X139662065Y-63911404D01*
X139717518Y-63937262D01*
X139739725Y-63967827D01*
X139740423Y-63969325D01*
X139740425Y-63969330D01*
X139824670Y-64149995D01*
X139832897Y-64167637D01*
X139938227Y-64318065D01*
X139958402Y-64346877D01*
X140113123Y-64501598D01*
X140292361Y-64627102D01*
X140490670Y-64719575D01*
X140702023Y-64776207D01*
X140702027Y-64776207D01*
X140702030Y-64776208D01*
X140919997Y-64795277D01*
X140920000Y-64795277D01*
X140920003Y-64795277D01*
X141137969Y-64776208D01*
X141137970Y-64776207D01*
X141137977Y-64776207D01*
X141349330Y-64719575D01*
X141458661Y-64668592D01*
X141519390Y-64661136D01*
X141572904Y-64690799D01*
X141598762Y-64746252D01*
X141599500Y-64758317D01*
X141599500Y-70874108D01*
X141599500Y-71005892D01*
X141613997Y-71059995D01*
X141633609Y-71133190D01*
X141699496Y-71247309D01*
X141699497Y-71247310D01*
X141699498Y-71247311D01*
X141699500Y-71247314D01*
X142321730Y-71869544D01*
X142925842Y-72473656D01*
X142953619Y-72528173D01*
X142953994Y-72544441D01*
X142954751Y-72544441D01*
X142954751Y-72550004D01*
X142973685Y-72718053D01*
X142973688Y-72718065D01*
X143029544Y-72877690D01*
X143029544Y-72877691D01*
X143050888Y-72911659D01*
X143119523Y-73020890D01*
X143239110Y-73140477D01*
X143382310Y-73230456D01*
X143446232Y-73252823D01*
X143541934Y-73286311D01*
X143541938Y-73286312D01*
X143541941Y-73286313D01*
X143541942Y-73286313D01*
X143541946Y-73286314D01*
X143709996Y-73305249D01*
X143710000Y-73305249D01*
X143710004Y-73305249D01*
X143878053Y-73286314D01*
X143878055Y-73286313D01*
X143878059Y-73286313D01*
X144037690Y-73230456D01*
X144180890Y-73140477D01*
X144300477Y-73020890D01*
X144390456Y-72877690D01*
X144446313Y-72718059D01*
X144448087Y-72702316D01*
X144465249Y-72550004D01*
X144465249Y-72549995D01*
X144446314Y-72381946D01*
X144446311Y-72381934D01*
X144423480Y-72316690D01*
X144390456Y-72222310D01*
X144300477Y-72079110D01*
X144180890Y-71959523D01*
X144180887Y-71959521D01*
X144180886Y-71959520D01*
X144037691Y-71869544D01*
X143878065Y-71813688D01*
X143878053Y-71813685D01*
X143710004Y-71794751D01*
X143704441Y-71794751D01*
X143704441Y-71792131D01*
X143654694Y-71781881D01*
X143633656Y-71765842D01*
X142629496Y-70761682D01*
X142601719Y-70707165D01*
X142600500Y-70691678D01*
X142600500Y-64654928D01*
X142619407Y-64596737D01*
X142668907Y-64560773D01*
X142730093Y-64560773D01*
X142756282Y-64573831D01*
X142832361Y-64627102D01*
X143030670Y-64719575D01*
X143242023Y-64776207D01*
X143242027Y-64776207D01*
X143242030Y-64776208D01*
X143459997Y-64795277D01*
X143460000Y-64795277D01*
X143460003Y-64795277D01*
X143677969Y-64776208D01*
X143677970Y-64776207D01*
X143677977Y-64776207D01*
X143889330Y-64719575D01*
X144087639Y-64627102D01*
X144266877Y-64501598D01*
X144377155Y-64391319D01*
X144431670Y-64363544D01*
X144492102Y-64373115D01*
X144517161Y-64391321D01*
X148083154Y-67957314D01*
X148083153Y-67957314D01*
X148176339Y-68050499D01*
X148176344Y-68050503D01*
X148290464Y-68116390D01*
X148290462Y-68116390D01*
X148290466Y-68116391D01*
X148290468Y-68116392D01*
X148417762Y-68150500D01*
X148549547Y-68150500D01*
X149401678Y-68150500D01*
X149459869Y-68169407D01*
X149471682Y-68179496D01*
X151470504Y-70178318D01*
X151498281Y-70232835D01*
X151499500Y-70248322D01*
X151499500Y-70458125D01*
X151480593Y-70516316D01*
X151470504Y-70528128D01*
X151409524Y-70589108D01*
X151409520Y-70589113D01*
X151319544Y-70732308D01*
X151319544Y-70732309D01*
X151263688Y-70891934D01*
X151263685Y-70891946D01*
X151244751Y-71059995D01*
X151244751Y-71060004D01*
X151263685Y-71228053D01*
X151263688Y-71228065D01*
X151319544Y-71387690D01*
X151319544Y-71387691D01*
X151409520Y-71530886D01*
X151409523Y-71530890D01*
X151529110Y-71650477D01*
X151529112Y-71650478D01*
X151529113Y-71650479D01*
X151616278Y-71705249D01*
X151672310Y-71740456D01*
X151736232Y-71762823D01*
X151831934Y-71796311D01*
X151831938Y-71796312D01*
X151831941Y-71796313D01*
X151831942Y-71796313D01*
X151831946Y-71796314D01*
X151999996Y-71815249D01*
X152000000Y-71815249D01*
X152000004Y-71815249D01*
X152168053Y-71796314D01*
X152168055Y-71796313D01*
X152168059Y-71796313D01*
X152327690Y-71740456D01*
X152470890Y-71650477D01*
X152590477Y-71530890D01*
X152680456Y-71387690D01*
X152736313Y-71228059D01*
X152736314Y-71228053D01*
X152755249Y-71060004D01*
X152755249Y-71059995D01*
X152736314Y-70891946D01*
X152736311Y-70891934D01*
X152697824Y-70781946D01*
X152680456Y-70732310D01*
X152611337Y-70622309D01*
X152590479Y-70589113D01*
X152590475Y-70589108D01*
X152529496Y-70528128D01*
X152501719Y-70473611D01*
X152500500Y-70458125D01*
X152500500Y-69934109D01*
X152500500Y-69934108D01*
X152466392Y-69806814D01*
X152466390Y-69806811D01*
X152466390Y-69806809D01*
X152400503Y-69692690D01*
X152400499Y-69692685D01*
X152307314Y-69599499D01*
X152307314Y-69599500D01*
X150356569Y-67648755D01*
X150328792Y-67594238D01*
X150338363Y-67533806D01*
X150377071Y-67493015D01*
X150468015Y-67440510D01*
X151571736Y-66336786D01*
X151626251Y-66309011D01*
X151630635Y-66308416D01*
X151738059Y-66296313D01*
X151897690Y-66240456D01*
X152040890Y-66150477D01*
X152160477Y-66030890D01*
X152250456Y-65887690D01*
X152306313Y-65728059D01*
X152325249Y-65560000D01*
X152325249Y-65559995D01*
X152306314Y-65391946D01*
X152306311Y-65391934D01*
X152277335Y-65309127D01*
X152250456Y-65232310D01*
X152160477Y-65089110D01*
X152040890Y-64969523D01*
X152040887Y-64969521D01*
X152040884Y-64969518D01*
X151903709Y-64883325D01*
X151864497Y-64836357D01*
X151860382Y-64775310D01*
X151892935Y-64723503D01*
X151949722Y-64700724D01*
X151956381Y-64700500D01*
X152178126Y-64700500D01*
X152236317Y-64719407D01*
X152248123Y-64729490D01*
X152259110Y-64740477D01*
X152259112Y-64740478D01*
X152259113Y-64740479D01*
X152379882Y-64816364D01*
X152402310Y-64830456D01*
X152466232Y-64852823D01*
X152561934Y-64886311D01*
X152561938Y-64886312D01*
X152561941Y-64886313D01*
X152561942Y-64886313D01*
X152561946Y-64886314D01*
X152729996Y-64905249D01*
X152730000Y-64905249D01*
X152730004Y-64905249D01*
X152898053Y-64886314D01*
X152898055Y-64886313D01*
X152898059Y-64886313D01*
X153057690Y-64830456D01*
X153200890Y-64740477D01*
X153320477Y-64620890D01*
X153410456Y-64477690D01*
X153466313Y-64318059D01*
X153485249Y-64150000D01*
X153485249Y-64149995D01*
X153466314Y-63981946D01*
X153466311Y-63981934D01*
X153441631Y-63911404D01*
X153410456Y-63822310D01*
X153339565Y-63709489D01*
X153320479Y-63679113D01*
X153320478Y-63679112D01*
X153320477Y-63679110D01*
X153200890Y-63559523D01*
X153200887Y-63559521D01*
X153200886Y-63559520D01*
X153057691Y-63469544D01*
X152898065Y-63413688D01*
X152898053Y-63413685D01*
X152730004Y-63394751D01*
X152729996Y-63394751D01*
X152561946Y-63413685D01*
X152561934Y-63413688D01*
X152402309Y-63469544D01*
X152402308Y-63469544D01*
X152259113Y-63559520D01*
X152259110Y-63559522D01*
X152259110Y-63559523D01*
X152248127Y-63570505D01*
X152193613Y-63598281D01*
X152178126Y-63599500D01*
X151488440Y-63599500D01*
X151379499Y-63628691D01*
X151379498Y-63628690D01*
X151348430Y-63637015D01*
X151348426Y-63637017D01*
X151222901Y-63709489D01*
X149623260Y-65309127D01*
X149568744Y-65336904D01*
X149564343Y-65337500D01*
X149456940Y-65349602D01*
X149456938Y-65349602D01*
X149297308Y-65405460D01*
X149297307Y-65405460D01*
X149154112Y-65495436D01*
X149034519Y-65615029D01*
X148944543Y-65758224D01*
X148944543Y-65758225D01*
X148888687Y-65917850D01*
X148888684Y-65917862D01*
X148869750Y-66085911D01*
X148869750Y-66085920D01*
X148888684Y-66253969D01*
X148888687Y-66253981D01*
X148944543Y-66413606D01*
X148944543Y-66413607D01*
X148975225Y-66462437D01*
X148990175Y-66521768D01*
X148975225Y-66567779D01*
X148909544Y-66672308D01*
X148909544Y-66672309D01*
X148853688Y-66831934D01*
X148853685Y-66831946D01*
X148834751Y-66999995D01*
X148834751Y-67000002D01*
X148839192Y-67039414D01*
X148826920Y-67099356D01*
X148781758Y-67140637D01*
X148740815Y-67149500D01*
X148731976Y-67149500D01*
X148673785Y-67130593D01*
X148661972Y-67120504D01*
X145144876Y-63603408D01*
X145117099Y-63548891D01*
X145116399Y-63539996D01*
X147284723Y-63539996D01*
X147284723Y-63540003D01*
X147303791Y-63757969D01*
X147303792Y-63757976D01*
X147303793Y-63757977D01*
X147360425Y-63969330D01*
X147444670Y-64149995D01*
X147452897Y-64167637D01*
X147558227Y-64318065D01*
X147578402Y-64346877D01*
X147733123Y-64501598D01*
X147912361Y-64627102D01*
X148110670Y-64719575D01*
X148322023Y-64776207D01*
X148322027Y-64776207D01*
X148322030Y-64776208D01*
X148539997Y-64795277D01*
X148540000Y-64795277D01*
X148540003Y-64795277D01*
X148757969Y-64776208D01*
X148757970Y-64776207D01*
X148757977Y-64776207D01*
X148969330Y-64719575D01*
X149167639Y-64627102D01*
X149346877Y-64501598D01*
X149501598Y-64346877D01*
X149627102Y-64167639D01*
X149719575Y-63969330D01*
X149776207Y-63757977D01*
X149786790Y-63637017D01*
X149795277Y-63540003D01*
X149795277Y-63539996D01*
X149776208Y-63322030D01*
X149776207Y-63322027D01*
X149776207Y-63322023D01*
X149719575Y-63110670D01*
X149627102Y-62912362D01*
X149501598Y-62733123D01*
X149346877Y-62578402D01*
X149346873Y-62578399D01*
X149346872Y-62578398D01*
X149194879Y-62471972D01*
X149167639Y-62452898D01*
X148969330Y-62360425D01*
X148757977Y-62303793D01*
X148757976Y-62303792D01*
X148757969Y-62303791D01*
X148540003Y-62284723D01*
X148539997Y-62284723D01*
X148322030Y-62303791D01*
X148110666Y-62360426D01*
X147912372Y-62452892D01*
X147912364Y-62452896D01*
X147733127Y-62578398D01*
X147578398Y-62733127D01*
X147452896Y-62912364D01*
X147452892Y-62912372D01*
X147360426Y-63110666D01*
X147303791Y-63322030D01*
X147284723Y-63539996D01*
X145116399Y-63539996D01*
X145115880Y-63533404D01*
X145115880Y-62097689D01*
X145134787Y-62039498D01*
X145184287Y-62003534D01*
X145245473Y-62003534D01*
X145271663Y-62016592D01*
X145372361Y-62087102D01*
X145570670Y-62179575D01*
X145782023Y-62236207D01*
X145782027Y-62236207D01*
X145782030Y-62236208D01*
X145999997Y-62255277D01*
X146000000Y-62255277D01*
X146000003Y-62255277D01*
X146217969Y-62236208D01*
X146217970Y-62236207D01*
X146217977Y-62236207D01*
X146429330Y-62179575D01*
X146627639Y-62087102D01*
X146806877Y-61961598D01*
X146961598Y-61806877D01*
X147087102Y-61627639D01*
X147179575Y-61429330D01*
X147236207Y-61217977D01*
X147255277Y-61000000D01*
X147236207Y-60782023D01*
X147179575Y-60570670D01*
X147087102Y-60372362D01*
X146961598Y-60193123D01*
X146806877Y-60038402D01*
X146806873Y-60038399D01*
X146806872Y-60038398D01*
X146707435Y-59968772D01*
X146627639Y-59912898D01*
X146429330Y-59820425D01*
X146217977Y-59763793D01*
X146217976Y-59763792D01*
X146217969Y-59763791D01*
X146000003Y-59744723D01*
X145999997Y-59744723D01*
X145782030Y-59763791D01*
X145570666Y-59820426D01*
X145372372Y-59912892D01*
X145372364Y-59912896D01*
X145193127Y-60038398D01*
X145038398Y-60193127D01*
X144912896Y-60372364D01*
X144912892Y-60372372D01*
X144819724Y-60572172D01*
X144777996Y-60616920D01*
X144717935Y-60628595D01*
X144662482Y-60602737D01*
X144640276Y-60572172D01*
X144547107Y-60372372D01*
X144547103Y-60372364D01*
X144421601Y-60193127D01*
X144421600Y-60193126D01*
X144421598Y-60193123D01*
X144266877Y-60038402D01*
X144266873Y-60038399D01*
X144266872Y-60038398D01*
X144167435Y-59968772D01*
X144087639Y-59912898D01*
X143889330Y-59820425D01*
X143677977Y-59763793D01*
X143677976Y-59763792D01*
X143677969Y-59763791D01*
X143460003Y-59744723D01*
X143459997Y-59744723D01*
X143242030Y-59763791D01*
X143030666Y-59820426D01*
X142832372Y-59912892D01*
X142832364Y-59912896D01*
X142653127Y-60038398D01*
X142498398Y-60193127D01*
X142372896Y-60372364D01*
X142372892Y-60372372D01*
X142279724Y-60572172D01*
X142237996Y-60616920D01*
X142177935Y-60628595D01*
X142122482Y-60602737D01*
X142100276Y-60572172D01*
X142007107Y-60372372D01*
X142007103Y-60372364D01*
X141881601Y-60193127D01*
X141881600Y-60193126D01*
X141881598Y-60193123D01*
X141726877Y-60038402D01*
X141726873Y-60038399D01*
X141726872Y-60038398D01*
X141627435Y-59968772D01*
X141547639Y-59912898D01*
X141349330Y-59820425D01*
X141137977Y-59763793D01*
X141137976Y-59763792D01*
X141137969Y-59763791D01*
X140920003Y-59744723D01*
X140919997Y-59744723D01*
X140702030Y-59763791D01*
X140490666Y-59820426D01*
X140292372Y-59912892D01*
X140292364Y-59912896D01*
X140113127Y-60038398D01*
X139958398Y-60193127D01*
X139832896Y-60372364D01*
X139832892Y-60372372D01*
X139739724Y-60572172D01*
X139697996Y-60616920D01*
X139637935Y-60628595D01*
X139582482Y-60602737D01*
X139560276Y-60572172D01*
X139467107Y-60372372D01*
X139467103Y-60372364D01*
X139341601Y-60193127D01*
X139341600Y-60193126D01*
X139341598Y-60193123D01*
X139186877Y-60038402D01*
X139186873Y-60038399D01*
X139186872Y-60038398D01*
X139087435Y-59968772D01*
X139007639Y-59912898D01*
X138809330Y-59820425D01*
X138597977Y-59763793D01*
X138597976Y-59763792D01*
X138597969Y-59763791D01*
X138380003Y-59744723D01*
X138379997Y-59744723D01*
X138162030Y-59763791D01*
X137950666Y-59820426D01*
X137752372Y-59912892D01*
X137752364Y-59912896D01*
X137573127Y-60038398D01*
X137418398Y-60193127D01*
X137292896Y-60372364D01*
X137292892Y-60372372D01*
X137200426Y-60570666D01*
X137143791Y-60782030D01*
X137124723Y-60999996D01*
X130123498Y-60999996D01*
X130127388Y-54572691D01*
X130127433Y-54572043D01*
X130127433Y-54502252D01*
X130127536Y-54497741D01*
X130132978Y-54378448D01*
X132645500Y-54378448D01*
X132645500Y-54621551D01*
X132677230Y-54862563D01*
X132677230Y-54862568D01*
X132740149Y-55097387D01*
X132833178Y-55321979D01*
X132833181Y-55321984D01*
X132954731Y-55532516D01*
X133102722Y-55725380D01*
X133274620Y-55897278D01*
X133467484Y-56045269D01*
X133678016Y-56166819D01*
X133678017Y-56166819D01*
X133678020Y-56166821D01*
X133902612Y-56259850D01*
X134137429Y-56322769D01*
X134378450Y-56354500D01*
X134378451Y-56354500D01*
X134621549Y-56354500D01*
X134621550Y-56354500D01*
X134862571Y-56322769D01*
X135097388Y-56259850D01*
X135321984Y-56166819D01*
X135532516Y-56045269D01*
X135725380Y-55897278D01*
X135897278Y-55725380D01*
X136045269Y-55532516D01*
X136166819Y-55321984D01*
X136259850Y-55097388D01*
X136322769Y-54862571D01*
X136354500Y-54621550D01*
X136354500Y-54378450D01*
X136354500Y-54378448D01*
X160395500Y-54378448D01*
X160395500Y-54621551D01*
X160427230Y-54862563D01*
X160427230Y-54862568D01*
X160490149Y-55097387D01*
X160583178Y-55321979D01*
X160583181Y-55321984D01*
X160704731Y-55532516D01*
X160852722Y-55725380D01*
X161024620Y-55897278D01*
X161217484Y-56045269D01*
X161428016Y-56166819D01*
X161428017Y-56166819D01*
X161428020Y-56166821D01*
X161652612Y-56259850D01*
X161887429Y-56322769D01*
X162128450Y-56354500D01*
X162128451Y-56354500D01*
X162371549Y-56354500D01*
X162371550Y-56354500D01*
X162612571Y-56322769D01*
X162847388Y-56259850D01*
X163071984Y-56166819D01*
X163282516Y-56045269D01*
X163475380Y-55897278D01*
X163647278Y-55725380D01*
X163795269Y-55532516D01*
X163916819Y-55321984D01*
X164009850Y-55097388D01*
X164072769Y-54862571D01*
X164104500Y-54621550D01*
X164104500Y-54378450D01*
X164072769Y-54137429D01*
X164009850Y-53902612D01*
X163930732Y-53711604D01*
X163916821Y-53678020D01*
X163795269Y-53467484D01*
X163684659Y-53323336D01*
X163647278Y-53274620D01*
X163475380Y-53102722D01*
X163282516Y-52954731D01*
X163282517Y-52954731D01*
X163282515Y-52954730D01*
X163071979Y-52833178D01*
X162847387Y-52740149D01*
X162687001Y-52697174D01*
X162612571Y-52677231D01*
X162612568Y-52677230D01*
X162612566Y-52677230D01*
X162371551Y-52645500D01*
X162371550Y-52645500D01*
X162128450Y-52645500D01*
X162128448Y-52645500D01*
X161887436Y-52677230D01*
X161887431Y-52677230D01*
X161652612Y-52740149D01*
X161428020Y-52833178D01*
X161217484Y-52954730D01*
X161024623Y-53102719D01*
X160852719Y-53274623D01*
X160704730Y-53467484D01*
X160583178Y-53678020D01*
X160490149Y-53902612D01*
X160427230Y-54137431D01*
X160427230Y-54137436D01*
X160395500Y-54378448D01*
X136354500Y-54378448D01*
X136322769Y-54137429D01*
X136259850Y-53902612D01*
X136180732Y-53711604D01*
X136166821Y-53678020D01*
X136045269Y-53467484D01*
X135934659Y-53323336D01*
X135897278Y-53274620D01*
X135725380Y-53102722D01*
X135532516Y-52954731D01*
X135532517Y-52954731D01*
X135532515Y-52954730D01*
X135321979Y-52833178D01*
X135097387Y-52740149D01*
X134937001Y-52697174D01*
X134862571Y-52677231D01*
X134862568Y-52677230D01*
X134862566Y-52677230D01*
X134621551Y-52645500D01*
X134621550Y-52645500D01*
X134378450Y-52645500D01*
X134378448Y-52645500D01*
X134137436Y-52677230D01*
X134137431Y-52677230D01*
X133902612Y-52740149D01*
X133678020Y-52833178D01*
X133467484Y-52954730D01*
X133274623Y-53102719D01*
X133102719Y-53274623D01*
X132954730Y-53467484D01*
X132833178Y-53678020D01*
X132740149Y-53902612D01*
X132677230Y-54137431D01*
X132677230Y-54137436D01*
X132645500Y-54378448D01*
X130132978Y-54378448D01*
X130145386Y-54106425D01*
X130146207Y-54097442D01*
X130173018Y-53902612D01*
X130199304Y-53711597D01*
X130200939Y-53702731D01*
X130206672Y-53678016D01*
X130288944Y-53323316D01*
X130291370Y-53314668D01*
X130413558Y-52944826D01*
X130416774Y-52936404D01*
X130457545Y-52842664D01*
X130572119Y-52579238D01*
X130576077Y-52571165D01*
X130763301Y-52229614D01*
X130767977Y-52221936D01*
X130985520Y-51898845D01*
X130990872Y-51891630D01*
X131236934Y-51589678D01*
X131242926Y-51582975D01*
X131515441Y-51304694D01*
X131522022Y-51298560D01*
X131818742Y-51046245D01*
X131825843Y-51040742D01*
X132144318Y-50816477D01*
X132151900Y-50811640D01*
X132489472Y-50617301D01*
X132497447Y-50613182D01*
X132851285Y-50450394D01*
X132859628Y-50447007D01*
X133226821Y-50317108D01*
X133235445Y-50314493D01*
X133612930Y-50218566D01*
X133621734Y-50216751D01*
X134006412Y-50155585D01*
X134015347Y-50154579D01*
X134403757Y-50128705D01*
X134410188Y-50128487D01*
X162943705Y-50100555D01*
X162963090Y-50102453D01*
G37*
%TD.AperFunction*%
%TD*%
%TA.AperFunction,Conductor*%
%TO.N,VCC*%
G36*
X142600000Y-80000000D02*
G01*
X144150000Y-80100000D01*
X144449097Y-80058506D01*
X144380614Y-80120405D01*
X144380610Y-80120408D01*
X143942441Y-80516446D01*
X143927905Y-80527338D01*
X143857962Y-80570336D01*
X143824204Y-80583331D01*
X143743480Y-80598333D01*
X143725391Y-80600000D01*
X141514133Y-80600000D01*
X141498360Y-80598735D01*
X141483840Y-80596391D01*
X141427593Y-80587313D01*
X141397649Y-80577389D01*
X141341198Y-80547998D01*
X141315898Y-80529160D01*
X141265948Y-80477724D01*
X141255878Y-80465541D01*
X140765985Y-79765694D01*
X140756714Y-79749331D01*
X140722017Y-79671702D01*
X140713478Y-79635219D01*
X140710501Y-79559878D01*
X140716134Y-79522836D01*
X140744594Y-79442717D01*
X140752546Y-79425670D01*
X141073129Y-78880678D01*
X141086079Y-78863337D01*
X141152667Y-78792008D01*
X141188198Y-78767675D01*
X141278779Y-78731374D01*
X141299642Y-78725568D01*
X143353971Y-78390168D01*
X143586538Y-78352198D01*
X143586538Y-78352197D01*
X143600000Y-78350000D01*
X143619791Y-78331250D01*
X142600000Y-80000000D01*
G37*
%TD.AperFunction*%
%TA.AperFunction,Conductor*%
G36*
X145726991Y-74517401D02*
G01*
X145751865Y-74525932D01*
X145888054Y-74594027D01*
X145909931Y-74608920D01*
X145953909Y-74648421D01*
X145982254Y-74692566D01*
X145999872Y-74748990D01*
X146004313Y-74775085D01*
X146045924Y-75981818D01*
X146045924Y-75981821D01*
X146050000Y-76100000D01*
X146133615Y-76183615D01*
X146133616Y-76183616D01*
X146483692Y-76533693D01*
X146486132Y-76536221D01*
X146497037Y-76547929D01*
X146501625Y-76553219D01*
X146511706Y-76565710D01*
X146513842Y-76568456D01*
X146538522Y-76601362D01*
X146661598Y-76765463D01*
X145850000Y-76800000D01*
X143886570Y-78078512D01*
X145500000Y-76550000D01*
X145480188Y-75331595D01*
X145480176Y-75329876D01*
X145480190Y-75321763D01*
X145480260Y-75318220D01*
X145480562Y-75310176D01*
X145480644Y-75308398D01*
X145513986Y-74708250D01*
X145517790Y-74686044D01*
X145533223Y-74633122D01*
X145555170Y-74594071D01*
X145592345Y-74553378D01*
X145609338Y-74538581D01*
X145613779Y-74535527D01*
X145637244Y-74523633D01*
X145655757Y-74517171D01*
X145707766Y-74513561D01*
X145726991Y-74517401D01*
G37*
%TD.AperFunction*%
%TD*%
%TA.AperFunction,Conductor*%
%TO.N,VCC*%
G36*
X163153396Y-68741966D02*
G01*
X163172930Y-68745014D01*
X163220816Y-68757488D01*
X163256161Y-68774775D01*
X163287369Y-68798744D01*
X163313189Y-68828436D01*
X163337591Y-68871484D01*
X163345572Y-68889566D01*
X163616997Y-69720805D01*
X164048614Y-71042633D01*
X164053046Y-71063851D01*
X164058242Y-71117678D01*
X164052947Y-71160444D01*
X164041566Y-71192355D01*
X164038535Y-71200856D01*
X164015574Y-71237319D01*
X163977490Y-71275712D01*
X163960631Y-71289338D01*
X162169744Y-72437343D01*
X162169740Y-72437345D01*
X162150000Y-72450000D01*
X162133730Y-72466872D01*
X162133723Y-72466879D01*
X160835255Y-73813439D01*
X160800000Y-73850000D01*
X160786463Y-73898941D01*
X160786459Y-73898951D01*
X160786459Y-73898953D01*
X160176336Y-76104784D01*
X160150000Y-76200000D01*
X160148701Y-76220768D01*
X160148701Y-76220777D01*
X160148700Y-76220786D01*
X160051662Y-77773414D01*
X160051125Y-77779240D01*
X160049329Y-77793946D01*
X160047234Y-77805424D01*
X160043719Y-77819822D01*
X160042166Y-77825458D01*
X159852512Y-78441831D01*
X159851947Y-78443607D01*
X159850450Y-78448165D01*
X159849207Y-78451720D01*
X159847541Y-78456209D01*
X159846871Y-78457963D01*
X159059476Y-80462242D01*
X159020601Y-80509489D01*
X158961378Y-80524863D01*
X158934635Y-80519487D01*
X158918061Y-80513687D01*
X158918053Y-80513685D01*
X158750004Y-80494751D01*
X158749996Y-80494751D01*
X158581946Y-80513685D01*
X158581934Y-80513688D01*
X158422309Y-80569544D01*
X158422308Y-80569544D01*
X158279113Y-80659520D01*
X158159520Y-80779113D01*
X158069544Y-80922308D01*
X158069544Y-80922309D01*
X158013686Y-81081939D01*
X158013686Y-81081941D01*
X158009016Y-81123389D01*
X157983712Y-81179096D01*
X157930496Y-81209291D01*
X157906092Y-81211199D01*
X156654228Y-81153642D01*
X156603776Y-81137063D01*
X156597336Y-81132760D01*
X156597334Y-81132759D01*
X156456205Y-81074302D01*
X156306382Y-81044500D01*
X156306380Y-81044500D01*
X154895874Y-81044500D01*
X154837683Y-81025593D01*
X154801719Y-80976093D01*
X154801719Y-80914907D01*
X154825868Y-80875498D01*
X154830477Y-80870890D01*
X154920456Y-80727690D01*
X154938803Y-80675254D01*
X154975867Y-80626575D01*
X155034467Y-80608978D01*
X155084918Y-80624127D01*
X155199908Y-80696380D01*
X155222310Y-80710456D01*
X155271562Y-80727690D01*
X155381934Y-80766311D01*
X155381938Y-80766312D01*
X155381941Y-80766313D01*
X155381942Y-80766313D01*
X155381946Y-80766314D01*
X155549996Y-80785249D01*
X155550000Y-80785249D01*
X155550004Y-80785249D01*
X155718053Y-80766314D01*
X155718055Y-80766313D01*
X155718059Y-80766313D01*
X155877690Y-80710456D01*
X156020890Y-80620477D01*
X156140477Y-80500890D01*
X156230456Y-80357690D01*
X156286313Y-80198059D01*
X156302183Y-80057212D01*
X156305249Y-80030004D01*
X156305249Y-80029995D01*
X156286314Y-79861946D01*
X156286311Y-79861934D01*
X156236486Y-79719544D01*
X156230456Y-79702310D01*
X156206187Y-79663687D01*
X156140479Y-79559113D01*
X156140478Y-79559112D01*
X156140477Y-79559110D01*
X156020890Y-79439523D01*
X156020887Y-79439521D01*
X156020886Y-79439520D01*
X155877691Y-79349544D01*
X155718065Y-79293688D01*
X155718053Y-79293685D01*
X155550004Y-79274751D01*
X155549996Y-79274751D01*
X155381946Y-79293685D01*
X155381934Y-79293688D01*
X155222309Y-79349544D01*
X155222308Y-79349544D01*
X155079113Y-79439520D01*
X154959520Y-79559113D01*
X154869544Y-79702308D01*
X154869544Y-79702309D01*
X154851196Y-79754744D01*
X154814130Y-79803425D01*
X154755530Y-79821021D01*
X154705081Y-79805872D01*
X154567691Y-79719544D01*
X154408065Y-79663688D01*
X154408053Y-79663685D01*
X154240004Y-79644751D01*
X154239996Y-79644751D01*
X154071946Y-79663685D01*
X154071934Y-79663688D01*
X153912309Y-79719544D01*
X153912308Y-79719544D01*
X153769113Y-79809520D01*
X153649520Y-79929113D01*
X153559544Y-80072308D01*
X153559544Y-80072309D01*
X153503688Y-80231934D01*
X153503685Y-80231946D01*
X153485891Y-80389872D01*
X153460587Y-80445580D01*
X153407372Y-80475775D01*
X153346571Y-80468924D01*
X153339719Y-80465485D01*
X151020629Y-79187013D01*
X151020627Y-79187012D01*
X151020625Y-79187011D01*
X151020623Y-79187010D01*
X150962420Y-79154924D01*
X152800000Y-78900000D01*
X152900000Y-76950000D01*
X150550000Y-76600000D01*
X150198202Y-76614970D01*
X150150908Y-76256885D01*
X150150723Y-76255382D01*
X150150275Y-76251524D01*
X150149970Y-76248493D01*
X150149626Y-76244435D01*
X150149514Y-76242961D01*
X150147984Y-76220777D01*
X150131369Y-75979843D01*
X150110937Y-75683574D01*
X150110931Y-75683522D01*
X150110000Y-75670000D01*
X150007521Y-75176237D01*
X150006208Y-75168294D01*
X150003691Y-75147931D01*
X150003026Y-75131784D01*
X150003856Y-75111308D01*
X150004513Y-75103251D01*
X150044154Y-74780464D01*
X150060718Y-74645578D01*
X150065735Y-74624387D01*
X150074899Y-74598697D01*
X150098011Y-74562085D01*
X150108977Y-74551079D01*
X150146425Y-74527508D01*
X150159706Y-74522864D01*
X150204654Y-74518082D01*
X150229770Y-74521221D01*
X150251872Y-74526618D01*
X150274500Y-74535000D01*
X150403980Y-74582955D01*
X150413741Y-74587181D01*
X150437876Y-74599210D01*
X150455782Y-74610689D01*
X150472800Y-74624387D01*
X150476772Y-74627584D01*
X150484700Y-74634700D01*
X150493106Y-74643106D01*
X150505418Y-74658110D01*
X150526064Y-74689010D01*
X150540845Y-74724694D01*
X150548097Y-74761148D01*
X150550000Y-74780464D01*
X150550000Y-76050000D01*
X150593822Y-76104778D01*
X150593826Y-76104784D01*
X150886496Y-76470621D01*
X150886499Y-76470624D01*
X150950000Y-76550000D01*
X151051546Y-76545486D01*
X151051551Y-76545486D01*
X151051552Y-76545487D01*
X151051554Y-76545486D01*
X151051556Y-76545487D01*
X151949280Y-76505587D01*
X153071441Y-76455714D01*
X153071441Y-76455713D01*
X153071444Y-76455712D01*
X153200000Y-76450000D01*
X154597592Y-72980114D01*
X154606388Y-72963193D01*
X154632405Y-72923119D01*
X154658795Y-72895836D01*
X154689978Y-72874084D01*
X154724698Y-72858739D01*
X154771289Y-72848162D01*
X154790199Y-72845750D01*
X156300000Y-72800000D01*
X159100000Y-71250000D01*
X159118412Y-71159616D01*
X159613171Y-68730795D01*
X159620540Y-68708537D01*
X159645295Y-68655732D01*
X159674423Y-68619402D01*
X159710970Y-68591181D01*
X159753483Y-68572190D01*
X159810837Y-68561593D01*
X159834224Y-68560094D01*
X163153396Y-68741966D01*
G37*
%TD.AperFunction*%
%TD*%
%TA.AperFunction,Conductor*%
%TO.N,VCC*%
G36*
X152900000Y-76950000D02*
G01*
X152800000Y-78900000D01*
X150962420Y-79154924D01*
X144449098Y-80058506D01*
X144150000Y-80100000D01*
X142600000Y-80000000D01*
X143688319Y-78219113D01*
X143718768Y-78187778D01*
X145850000Y-76800000D01*
X150550000Y-76600000D01*
X152900000Y-76950000D01*
G37*
%TD.AperFunction*%
%TD*%
M02*
