%TF.GenerationSoftware,KiCad,Pcbnew,8.0.5*%
%TF.CreationDate,2026-01-02T18:08:47-06:00*%
%TF.ProjectId,FOC_DV,464f435f-4456-42e6-9b69-6361645f7063,rev?*%
%TF.SameCoordinates,PX7735940PY6422c40*%
%TF.FileFunction,Paste,Top*%
%TF.FilePolarity,Positive*%
%FSLAX46Y46*%
G04 Gerber Fmt 4.6, Leading zero omitted, Abs format (unit mm)*
G04 Created by KiCad (PCBNEW 8.0.5) date 2026-01-02 18:08:47*
%MOMM*%
%LPD*%
G01*
G04 APERTURE LIST*
G04 Aperture macros list*
%AMRoundRect*
0 Rectangle with rounded corners*
0 $1 Rounding radius*
0 $2 $3 $4 $5 $6 $7 $8 $9 X,Y pos of 4 corners*
0 Add a 4 corners polygon primitive as box body*
4,1,4,$2,$3,$4,$5,$6,$7,$8,$9,$2,$3,0*
0 Add four circle primitives for the rounded corners*
1,1,$1+$1,$2,$3*
1,1,$1+$1,$4,$5*
1,1,$1+$1,$6,$7*
1,1,$1+$1,$8,$9*
0 Add four rect primitives between the rounded corners*
20,1,$1+$1,$2,$3,$4,$5,0*
20,1,$1+$1,$4,$5,$6,$7,0*
20,1,$1+$1,$6,$7,$8,$9,0*
20,1,$1+$1,$8,$9,$2,$3,0*%
G04 Aperture macros list end*
%ADD10R,0.399999X1.200000*%
%ADD11R,5.180000X3.099999*%
%ADD12RoundRect,0.200000X-0.275000X0.200000X-0.275000X-0.200000X0.275000X-0.200000X0.275000X0.200000X0*%
%ADD13RoundRect,0.200000X-0.200000X-0.275000X0.200000X-0.275000X0.200000X0.275000X-0.200000X0.275000X0*%
%ADD14RoundRect,0.200000X0.275000X-0.200000X0.275000X0.200000X-0.275000X0.200000X-0.275000X-0.200000X0*%
%ADD15RoundRect,0.218750X0.218750X0.256250X-0.218750X0.256250X-0.218750X-0.256250X0.218750X-0.256250X0*%
%ADD16RoundRect,0.150000X0.150000X-0.825000X0.150000X0.825000X-0.150000X0.825000X-0.150000X-0.825000X0*%
%ADD17RoundRect,0.250000X1.075000X-0.362500X1.075000X0.362500X-1.075000X0.362500X-1.075000X-0.362500X0*%
%ADD18RoundRect,0.200000X0.200000X0.275000X-0.200000X0.275000X-0.200000X-0.275000X0.200000X-0.275000X0*%
%ADD19RoundRect,0.225000X0.250000X-0.225000X0.250000X0.225000X-0.250000X0.225000X-0.250000X-0.225000X0*%
%ADD20RoundRect,0.225000X0.225000X0.250000X-0.225000X0.250000X-0.225000X-0.250000X0.225000X-0.250000X0*%
%ADD21RoundRect,0.225000X-0.250000X0.225000X-0.250000X-0.225000X0.250000X-0.225000X0.250000X0.225000X0*%
G04 APERTURE END LIST*
D10*
%TO.C,U1*%
X18825000Y29650001D03*
X19475001Y29650001D03*
X20125000Y29650001D03*
X20775001Y29650001D03*
X21424999Y29650001D03*
X22075001Y29650001D03*
X22724999Y29650001D03*
X23375001Y29650001D03*
X24024999Y29650001D03*
X24675001Y29650001D03*
X25324999Y29650001D03*
X25975000Y29650001D03*
X26624999Y29650001D03*
X27275000Y29650001D03*
X27275000Y35349999D03*
X26624999Y35349999D03*
X25975000Y35349999D03*
X25324999Y35349999D03*
X24675001Y35349999D03*
X24024999Y35349999D03*
X23375001Y35349999D03*
X22724999Y35349999D03*
X22075001Y35349999D03*
X21424999Y35349999D03*
X20775001Y35349999D03*
X20125000Y35349999D03*
X19475001Y35349999D03*
X18825000Y35349999D03*
D11*
X23050000Y32500000D03*
%TD*%
D12*
%TO.C,R7*%
X15250000Y37075000D03*
X15250000Y35425000D03*
%TD*%
D13*
%TO.C,R6*%
X27825000Y44300000D03*
X29475000Y44300000D03*
%TD*%
D14*
%TO.C,R3*%
X30500000Y31600000D03*
X30500000Y33250000D03*
%TD*%
D15*
%TO.C,D1*%
X32037500Y35250000D03*
X30462500Y35250000D03*
%TD*%
D16*
%TO.C,U4*%
X29845000Y16275000D03*
X31115000Y16275000D03*
X32385000Y16275000D03*
X33655000Y16275000D03*
X33655000Y21225000D03*
X32385000Y21225000D03*
X31115000Y21225000D03*
X29845000Y21225000D03*
%TD*%
%TO.C,U3*%
X17595000Y16275000D03*
X18865000Y16275000D03*
X20135000Y16275000D03*
X21405000Y16275000D03*
X21405000Y21225000D03*
X20135000Y21225000D03*
X18865000Y21225000D03*
X17595000Y21225000D03*
%TD*%
D17*
%TO.C,R5*%
X26750000Y16687500D03*
X26750000Y21312500D03*
%TD*%
%TO.C,R4*%
X14250000Y16687500D03*
X14250000Y21312500D03*
%TD*%
D18*
%TO.C,R2*%
X29475000Y42000000D03*
X27825000Y42000000D03*
%TD*%
%TO.C,R1*%
X29475000Y39600000D03*
X27825000Y39600000D03*
%TD*%
D19*
%TO.C,C6*%
X23250000Y21725000D03*
X23250000Y23275000D03*
%TD*%
%TO.C,C5*%
X35500000Y21225000D03*
X35500000Y22775000D03*
%TD*%
D20*
%TO.C,C4*%
X30775000Y37500000D03*
X29225000Y37500000D03*
%TD*%
D21*
%TO.C,C3*%
X16750000Y29500000D03*
X16750000Y31050000D03*
%TD*%
%TO.C,C2*%
X16750000Y27275000D03*
X16750000Y25725000D03*
%TD*%
M02*
