%TF.GenerationSoftware,KiCad,Pcbnew,8.0.5*%
%TF.CreationDate,2026-01-02T18:08:47-06:00*%
%TF.ProjectId,FOC_DV,464f435f-4456-42e6-9b69-6361645f7063,rev?*%
%TF.SameCoordinates,PX7735940PY6422c40*%
%TF.FileFunction,Copper,L2,Bot*%
%TF.FilePolarity,Positive*%
%FSLAX46Y46*%
G04 Gerber Fmt 4.6, Leading zero omitted, Abs format (unit mm)*
G04 Created by KiCad (PCBNEW 8.0.5) date 2026-01-02 18:08:47*
%MOMM*%
%LPD*%
G01*
G04 APERTURE LIST*
%TA.AperFunction,ComponentPad*%
%ADD10C,6.400000*%
%TD*%
%TA.AperFunction,ComponentPad*%
%ADD11R,1.600000X1.600000*%
%TD*%
%TA.AperFunction,ComponentPad*%
%ADD12C,1.600000*%
%TD*%
%TA.AperFunction,ComponentPad*%
%ADD13C,0.399999*%
%TD*%
%TA.AperFunction,ComponentPad*%
%ADD14R,1.750000X1.750000*%
%TD*%
%TA.AperFunction,ComponentPad*%
%ADD15C,1.575000*%
%TD*%
%TA.AperFunction,ComponentPad*%
%ADD16O,2.500000X1.700000*%
%TD*%
%TA.AperFunction,ComponentPad*%
%ADD17R,1.700000X1.700000*%
%TD*%
%TA.AperFunction,ComponentPad*%
%ADD18O,1.700000X1.700000*%
%TD*%
%TA.AperFunction,ViaPad*%
%ADD19C,0.700000*%
%TD*%
%TA.AperFunction,Conductor*%
%ADD20C,0.750000*%
%TD*%
%TA.AperFunction,Conductor*%
%ADD21C,0.300000*%
%TD*%
%TA.AperFunction,Conductor*%
%ADD22C,0.200000*%
%TD*%
%TA.AperFunction,Conductor*%
%ADD23C,1.000000*%
%TD*%
G04 APERTURE END LIST*
D10*
%TO.P,H4,1*%
%TO.N,GND*%
X37302944Y50502944D03*
%TD*%
%TO.P,H2,1*%
%TO.N,GND*%
X9600000Y50600000D03*
%TD*%
%TO.P,H3,1*%
%TO.N,GND*%
X9497056Y5902944D03*
%TD*%
%TO.P,H1,1*%
%TO.N,GND*%
X37250000Y6000000D03*
%TD*%
D11*
%TO.P,C1,1*%
%TO.N,VCC*%
X33200000Y28200000D03*
D12*
%TO.P,C1,2*%
%TO.N,GND*%
X38950000Y28200000D03*
%TD*%
D13*
%TO.P,U1,V*%
%TO.N,GND*%
X21049999Y31499999D03*
X22049999Y31499999D03*
X23050000Y31499999D03*
X24050001Y31499999D03*
X25050001Y31499999D03*
X21049999Y32500000D03*
X22049999Y32500000D03*
X23050000Y32500000D03*
X24050001Y32500000D03*
X25050001Y32500000D03*
X21049999Y33500001D03*
X22049999Y33500001D03*
X23050000Y33500001D03*
X24050001Y33500001D03*
X25050001Y33500001D03*
%TD*%
D14*
%TO.P,J3,3,3*%
%TO.N,phase_A*%
X26250000Y12500000D03*
D15*
%TO.P,J3,2,2*%
%TO.N,phase_B*%
X23750000Y12500000D03*
%TO.P,J3,1,1*%
%TO.N,phase_C*%
X21250000Y12500000D03*
%TD*%
D16*
%TO.P,REF\u002A\u002A,1*%
%TO.N,VCC*%
X36500000Y34250000D03*
%TO.P,REF\u002A\u002A,2*%
%TO.N,GND*%
X36500000Y40500000D03*
%TD*%
D17*
%TO.P,U2,1*%
%TO.N,GND*%
X23540000Y44000000D03*
D18*
%TO.P,U2,2*%
%TO.N,+3.3V*%
X23540000Y41460000D03*
%TO.P,U2,3*%
%TO.N,Net-(U2-En)*%
X21000000Y44000000D03*
%TO.P,U2,4*%
%TO.N,GND*%
X21000000Y41460000D03*
%TO.P,U2,5*%
%TO.N,IN3*%
X18460000Y44000000D03*
%TO.P,U2,6*%
%TO.N,nRST*%
X18460000Y41460000D03*
%TO.P,U2,7*%
%TO.N,IN2*%
X15920000Y44000000D03*
%TO.P,U2,8*%
%TO.N,nSLP*%
X15920000Y41460000D03*
%TO.P,U2,9*%
%TO.N,IN1*%
X13380000Y44000000D03*
%TO.P,U2,10*%
%TO.N,nFLT*%
X13380000Y41460000D03*
%TD*%
D17*
%TO.P,J1,1,Pin_1*%
%TO.N,CC_out*%
X12000000Y31000000D03*
D18*
%TO.P,J1,2,Pin_2*%
%TO.N,CA_out*%
X12000000Y28460000D03*
%TD*%
D19*
%TO.N,GND*%
X29240000Y24600000D03*
X30550000Y24970000D03*
X33750000Y23750000D03*
X38320000Y16940000D03*
X36810000Y13790000D03*
X33190000Y19150000D03*
X34020000Y12110000D03*
X31560000Y9970000D03*
X28490000Y6830000D03*
X24399672Y4719673D03*
X22250000Y4610000D03*
X19980000Y4540000D03*
X14770000Y7250000D03*
X13380000Y8580000D03*
X11360000Y11010000D03*
X6230000Y17730000D03*
X6440000Y24130000D03*
X6440000Y31140000D03*
X6320000Y36470000D03*
X13160000Y46920000D03*
X19060000Y46970000D03*
X17779006Y48433202D03*
X22930991Y47679131D03*
X26773775Y46924298D03*
X28626546Y48639827D03*
X31010000Y47320000D03*
X33200000Y44399241D03*
X33830000Y46270000D03*
X39440000Y43390000D03*
X37110000Y44340000D03*
X35007303Y43162015D03*
X33190000Y41150000D03*
X36100000Y38460000D03*
X39790000Y37030000D03*
X17830000Y35350000D03*
X31090000Y21080000D03*
X21970000Y23370000D03*
X31280000Y23130000D03*
X22320000Y24380000D03*
X16170000Y19975000D03*
X9720000Y14250000D03*
X9860000Y12580000D03*
X16600000Y19300000D03*
X27120000Y32110000D03*
X26803384Y32973691D03*
X19949620Y32770380D03*
%TO.N,IN3*%
X27000000Y33940000D03*
X19615380Y43534620D03*
%TO.N,IN2*%
X18710000Y32450000D03*
X17100000Y43500000D03*
%TO.N,+3.3V*%
X22410000Y19060000D03*
X14610000Y14470000D03*
%TO.N,nRST*%
X27730000Y40850000D03*
X24624999Y38914084D03*
%TO.N,nSLP*%
X24590000Y38000000D03*
X26570000Y39440000D03*
%TO.N,GND*%
X19750000Y31950000D03*
X26200000Y32150000D03*
X26150000Y33350000D03*
X26400000Y30850000D03*
X24000000Y36700000D03*
X40450000Y19000000D03*
X39410749Y21262018D03*
X38034432Y21427839D03*
X38250000Y20350000D03*
X38700000Y22750000D03*
X39156048Y30559616D03*
X39798814Y29495036D03*
X39879159Y26582506D03*
X38774407Y24051619D03*
X39738554Y24774729D03*
X39798814Y23529372D03*
X37589308Y22585310D03*
X37700000Y23500000D03*
X37800000Y24600000D03*
X39000000Y25700000D03*
%TO.N,VCC*%
X25950000Y26750000D03*
X26850000Y26850000D03*
X26600000Y27750000D03*
X25800000Y27750000D03*
X29100000Y27800000D03*
X30300000Y27000000D03*
X31600000Y26900000D03*
X30500000Y28200000D03*
X18100000Y25400000D03*
X19000000Y26400000D03*
X19300000Y25600000D03*
X20600000Y26500000D03*
X20100000Y27250000D03*
X21000000Y27850000D03*
%TO.N,CC_out*%
X28700000Y21950000D03*
X11700000Y20700000D03*
%TO.N,CA_out*%
X16600000Y22100000D03*
X15164676Y23535324D03*
%TO.N,GND*%
X18750000Y34000000D03*
X31000000Y19500000D03*
X33000000Y18000000D03*
X20500000Y18250000D03*
X18750000Y19500000D03*
X23250000Y24500000D03*
X27250000Y30750000D03*
X33000000Y35250000D03*
X31750000Y37500000D03*
%TO.N,EN*%
X15200000Y34050000D03*
%TD*%
D20*
%TO.N,GND*%
X17830000Y35350000D02*
X19155000Y36675000D01*
X19155000Y36675000D02*
X24000000Y36675000D01*
X28800000Y23370000D02*
X31090000Y21080000D01*
X21970000Y23370000D02*
X28800000Y23370000D01*
X31230000Y23180000D02*
X31280000Y23130000D01*
X26840000Y24380000D02*
X28040000Y23180000D01*
X28040000Y23180000D02*
X31230000Y23180000D01*
X22320000Y24380000D02*
X26840000Y24380000D01*
X10845000Y14650000D02*
X16170000Y19975000D01*
X9720000Y14250000D02*
X10120000Y14650000D01*
X10120000Y14650000D02*
X10845000Y14650000D01*
X9920000Y12640000D02*
X9860000Y12580000D01*
X10730000Y12640000D02*
X9920000Y12640000D01*
X16600000Y19300000D02*
X16600000Y18510000D01*
X16600000Y18510000D02*
X10730000Y12640000D01*
X25825000Y33405000D02*
X25825000Y34115000D01*
X27120000Y32110000D02*
X25825000Y33405000D01*
X25825000Y34115000D02*
X23880000Y36060000D01*
X23880000Y36060000D02*
X24000000Y36180000D01*
X24000000Y36180000D02*
X24000000Y36675000D01*
X26803384Y32973691D02*
X26658161Y32973691D01*
X26658161Y32973691D02*
X25825000Y33806852D01*
X25825000Y33806852D02*
X25825000Y34875000D01*
X25825000Y34875000D02*
X24025000Y36675000D01*
X24025000Y36675000D02*
X24000000Y36675000D01*
X19655000Y33095000D02*
X19949620Y32800380D01*
X19350000Y33400000D02*
X19655000Y33095000D01*
X19655000Y33095000D02*
X18750000Y34000000D01*
D21*
X19350000Y33400000D02*
X18750000Y34000000D01*
D20*
X19949620Y32800380D02*
X19949620Y32770380D01*
D22*
%TO.N,IN3*%
X27000000Y35000000D02*
X27000000Y33940000D01*
X24650000Y37350000D02*
X27000000Y35000000D01*
X23483654Y37350000D02*
X24650000Y37350000D01*
X19615380Y41218274D02*
X23483654Y37350000D01*
X19615380Y43534620D02*
X19615380Y41218274D01*
%TO.N,IN2*%
X17100000Y34060000D02*
X18710000Y32450000D01*
X17100000Y43500000D02*
X17100000Y34060000D01*
D20*
%TO.N,+3.3V*%
X15510000Y14470000D02*
X14610000Y14470000D01*
D23*
X15510000Y14470000D02*
X18204925Y14470000D01*
X18204925Y14470000D02*
X22410000Y18675075D01*
X22410000Y18675075D02*
X22410000Y19060000D01*
D21*
%TO.N,nRST*%
X26560915Y40850000D02*
X27730000Y40850000D01*
X24624999Y38914084D02*
X26560915Y40850000D01*
%TO.N,nSLP*%
X24590000Y38000000D02*
X25130000Y38000000D01*
X25130000Y38000000D02*
X26570000Y39440000D01*
%TO.N,CC_out*%
X27450000Y20700000D02*
X11700000Y20700000D01*
X28700000Y21950000D02*
X27450000Y20700000D01*
D20*
%TO.N,CA_out*%
X16600000Y22100000D02*
X15164676Y23535324D01*
%TD*%
%TA.AperFunction,Conductor*%
%TO.N,VCC*%
G36*
X17600000Y25000000D02*
G01*
X19150000Y24900000D01*
X19449097Y24941494D01*
X19380614Y24879595D01*
X19380610Y24879592D01*
X18942441Y24483554D01*
X18927905Y24472662D01*
X18857962Y24429664D01*
X18824204Y24416669D01*
X18743480Y24401667D01*
X18725391Y24400000D01*
X16514133Y24400000D01*
X16498360Y24401265D01*
X16483840Y24403609D01*
X16427593Y24412687D01*
X16397649Y24422611D01*
X16341198Y24452002D01*
X16315898Y24470840D01*
X16265948Y24522276D01*
X16255878Y24534459D01*
X15765985Y25234306D01*
X15756714Y25250669D01*
X15722017Y25328298D01*
X15713478Y25364781D01*
X15710501Y25440122D01*
X15716134Y25477164D01*
X15744594Y25557283D01*
X15752546Y25574330D01*
X16073129Y26119322D01*
X16086079Y26136663D01*
X16152667Y26207992D01*
X16188198Y26232325D01*
X16278779Y26268626D01*
X16299642Y26274432D01*
X18353971Y26609832D01*
X18586538Y26647802D01*
X18586538Y26647803D01*
X18600000Y26650000D01*
X18619791Y26668750D01*
X17600000Y25000000D01*
G37*
%TD.AperFunction*%
%TA.AperFunction,Conductor*%
G36*
X20726991Y30482599D02*
G01*
X20751865Y30474068D01*
X20888054Y30405973D01*
X20909931Y30391080D01*
X20953909Y30351579D01*
X20982254Y30307434D01*
X20999872Y30251010D01*
X21004313Y30224915D01*
X21045924Y29018182D01*
X21045924Y29018179D01*
X21050000Y28900000D01*
X21133615Y28816385D01*
X21133616Y28816384D01*
X21483692Y28466307D01*
X21486132Y28463779D01*
X21497037Y28452071D01*
X21501625Y28446781D01*
X21511706Y28434290D01*
X21513842Y28431544D01*
X21538522Y28398638D01*
X21661598Y28234537D01*
X20850000Y28200000D01*
X18886570Y26921488D01*
X20500000Y28450000D01*
X20480188Y29668405D01*
X20480176Y29670124D01*
X20480190Y29678237D01*
X20480260Y29681780D01*
X20480562Y29689824D01*
X20480644Y29691602D01*
X20513986Y30291750D01*
X20517790Y30313956D01*
X20533223Y30366878D01*
X20555170Y30405929D01*
X20592345Y30446622D01*
X20609338Y30461419D01*
X20613779Y30464473D01*
X20637244Y30476367D01*
X20655757Y30482829D01*
X20707766Y30486439D01*
X20726991Y30482599D01*
G37*
%TD.AperFunction*%
%TD*%
%TA.AperFunction,Conductor*%
%TO.N,VCC*%
G36*
X38153396Y36258034D02*
G01*
X38172930Y36254986D01*
X38220816Y36242512D01*
X38256161Y36225225D01*
X38287369Y36201256D01*
X38313189Y36171564D01*
X38337591Y36128516D01*
X38345572Y36110434D01*
X38616997Y35279195D01*
X39048614Y33957367D01*
X39053046Y33936149D01*
X39058242Y33882322D01*
X39052947Y33839556D01*
X39041566Y33807645D01*
X39038535Y33799144D01*
X39015574Y33762681D01*
X38977490Y33724288D01*
X38960631Y33710662D01*
X37169744Y32562657D01*
X37169740Y32562655D01*
X37150000Y32550000D01*
X37133730Y32533128D01*
X37133723Y32533121D01*
X35835255Y31186561D01*
X35800000Y31150000D01*
X35786463Y31101059D01*
X35786459Y31101049D01*
X35786459Y31101047D01*
X35176336Y28895216D01*
X35150000Y28800000D01*
X35148701Y28779232D01*
X35148701Y28779223D01*
X35148700Y28779214D01*
X35051662Y27226586D01*
X35051125Y27220760D01*
X35049329Y27206054D01*
X35047234Y27194576D01*
X35043719Y27180178D01*
X35042166Y27174542D01*
X34852512Y26558169D01*
X34851947Y26556393D01*
X34850450Y26551835D01*
X34849207Y26548280D01*
X34847541Y26543791D01*
X34846871Y26542037D01*
X34059476Y24537758D01*
X34020601Y24490511D01*
X33961378Y24475137D01*
X33934635Y24480513D01*
X33918061Y24486313D01*
X33918053Y24486315D01*
X33750004Y24505249D01*
X33749996Y24505249D01*
X33581946Y24486315D01*
X33581934Y24486312D01*
X33422309Y24430456D01*
X33422308Y24430456D01*
X33279113Y24340480D01*
X33159520Y24220887D01*
X33069544Y24077692D01*
X33069544Y24077691D01*
X33013686Y23918061D01*
X33013686Y23918059D01*
X33009016Y23876611D01*
X32983712Y23820904D01*
X32930496Y23790709D01*
X32906092Y23788801D01*
X31654228Y23846358D01*
X31603776Y23862937D01*
X31597336Y23867240D01*
X31597334Y23867241D01*
X31456205Y23925698D01*
X31306382Y23955500D01*
X31306380Y23955500D01*
X29895874Y23955500D01*
X29837683Y23974407D01*
X29801719Y24023907D01*
X29801719Y24085093D01*
X29825868Y24124502D01*
X29830477Y24129110D01*
X29920456Y24272310D01*
X29938803Y24324746D01*
X29975867Y24373425D01*
X30034467Y24391022D01*
X30084918Y24375873D01*
X30199908Y24303620D01*
X30222310Y24289544D01*
X30271562Y24272310D01*
X30381934Y24233689D01*
X30381938Y24233688D01*
X30381941Y24233687D01*
X30381942Y24233687D01*
X30381946Y24233686D01*
X30549996Y24214751D01*
X30550000Y24214751D01*
X30550004Y24214751D01*
X30718053Y24233686D01*
X30718055Y24233687D01*
X30718059Y24233687D01*
X30877690Y24289544D01*
X31020890Y24379523D01*
X31140477Y24499110D01*
X31230456Y24642310D01*
X31286313Y24801941D01*
X31302183Y24942788D01*
X31305249Y24969996D01*
X31305249Y24970005D01*
X31286314Y25138054D01*
X31286311Y25138066D01*
X31236486Y25280456D01*
X31230456Y25297690D01*
X31206187Y25336313D01*
X31140479Y25440887D01*
X31140478Y25440888D01*
X31140477Y25440890D01*
X31020890Y25560477D01*
X31020887Y25560479D01*
X31020886Y25560480D01*
X30877691Y25650456D01*
X30718065Y25706312D01*
X30718053Y25706315D01*
X30550004Y25725249D01*
X30549996Y25725249D01*
X30381946Y25706315D01*
X30381934Y25706312D01*
X30222309Y25650456D01*
X30222308Y25650456D01*
X30079113Y25560480D01*
X29959520Y25440887D01*
X29869544Y25297692D01*
X29869544Y25297691D01*
X29851196Y25245256D01*
X29814130Y25196575D01*
X29755530Y25178979D01*
X29705081Y25194128D01*
X29567691Y25280456D01*
X29408065Y25336312D01*
X29408053Y25336315D01*
X29240004Y25355249D01*
X29239996Y25355249D01*
X29071946Y25336315D01*
X29071934Y25336312D01*
X28912309Y25280456D01*
X28912308Y25280456D01*
X28769113Y25190480D01*
X28649520Y25070887D01*
X28559544Y24927692D01*
X28559544Y24927691D01*
X28503688Y24768066D01*
X28503685Y24768054D01*
X28485891Y24610128D01*
X28460587Y24554420D01*
X28407372Y24524225D01*
X28346571Y24531076D01*
X28339719Y24534515D01*
X26020629Y25812987D01*
X26020627Y25812988D01*
X26020625Y25812989D01*
X26020623Y25812990D01*
X25962420Y25845076D01*
X27800000Y26100000D01*
X27900000Y28050000D01*
X25550000Y28400000D01*
X25198202Y28385030D01*
X25150908Y28743115D01*
X25150723Y28744618D01*
X25150275Y28748476D01*
X25149970Y28751507D01*
X25149626Y28755565D01*
X25149514Y28757039D01*
X25147984Y28779223D01*
X25131369Y29020157D01*
X25110937Y29316426D01*
X25110931Y29316478D01*
X25110000Y29330000D01*
X25007521Y29823763D01*
X25006208Y29831706D01*
X25003691Y29852069D01*
X25003026Y29868216D01*
X25003856Y29888692D01*
X25004513Y29896749D01*
X25044154Y30219536D01*
X25060718Y30354422D01*
X25065735Y30375613D01*
X25074899Y30401303D01*
X25098011Y30437915D01*
X25108977Y30448921D01*
X25146425Y30472492D01*
X25159706Y30477136D01*
X25204654Y30481918D01*
X25229770Y30478779D01*
X25251872Y30473382D01*
X25274500Y30465000D01*
X25403980Y30417045D01*
X25413741Y30412819D01*
X25437876Y30400790D01*
X25455782Y30389311D01*
X25472800Y30375613D01*
X25476772Y30372416D01*
X25484700Y30365300D01*
X25493106Y30356894D01*
X25505418Y30341890D01*
X25526064Y30310990D01*
X25540845Y30275306D01*
X25548097Y30238852D01*
X25550000Y30219536D01*
X25550000Y28950000D01*
X25593822Y28895222D01*
X25593826Y28895216D01*
X25886496Y28529379D01*
X25886499Y28529376D01*
X25950000Y28450000D01*
X26051546Y28454514D01*
X26051551Y28454514D01*
X26051552Y28454513D01*
X26051554Y28454514D01*
X26051556Y28454513D01*
X26949280Y28494413D01*
X28071441Y28544286D01*
X28071441Y28544287D01*
X28071444Y28544288D01*
X28200000Y28550000D01*
X29597592Y32019886D01*
X29606388Y32036807D01*
X29632405Y32076881D01*
X29658795Y32104164D01*
X29689978Y32125916D01*
X29724698Y32141261D01*
X29771289Y32151838D01*
X29790199Y32154250D01*
X31300000Y32200000D01*
X34100000Y33750000D01*
X34118412Y33840384D01*
X34613171Y36269205D01*
X34620540Y36291463D01*
X34645295Y36344268D01*
X34674423Y36380598D01*
X34710970Y36408819D01*
X34753483Y36427810D01*
X34810837Y36438407D01*
X34834224Y36439906D01*
X38153396Y36258034D01*
G37*
%TD.AperFunction*%
%TD*%
%TA.AperFunction,Conductor*%
%TO.N,VCC*%
G36*
X27900000Y28050000D02*
G01*
X27800000Y26100000D01*
X25962420Y25845076D01*
X19449098Y24941494D01*
X19150000Y24900000D01*
X17600000Y25000000D01*
X18688319Y26780887D01*
X18718768Y26812222D01*
X20850000Y28200000D01*
X25550000Y28400000D01*
X27900000Y28050000D01*
G37*
%TD.AperFunction*%
%TD*%
%TA.AperFunction,Conductor*%
%TO.N,GND*%
G36*
X30616171Y25309729D02*
G01*
X30637784Y25304796D01*
X30663944Y25295642D01*
X30690107Y25286488D01*
X30710079Y25276869D01*
X30757016Y25247376D01*
X30774348Y25233555D01*
X30813551Y25194352D01*
X30827373Y25177019D01*
X30856867Y25130079D01*
X30866485Y25110106D01*
X30884793Y25057786D01*
X30889727Y25036172D01*
X30895934Y24981083D01*
X30895934Y24958918D01*
X30889726Y24903825D01*
X30884794Y24882217D01*
X30866484Y24829893D01*
X30856866Y24809921D01*
X30827374Y24762984D01*
X30813552Y24745651D01*
X30774349Y24706448D01*
X30757016Y24692626D01*
X30710079Y24663134D01*
X30690107Y24653516D01*
X30637785Y24635207D01*
X30616171Y24630274D01*
X30561084Y24624067D01*
X30538913Y24624067D01*
X30483830Y24630274D01*
X30462220Y24635206D01*
X30409888Y24653517D01*
X30389912Y24663137D01*
X30300659Y24719219D01*
X30300656Y24719221D01*
X30201536Y24764242D01*
X30201534Y24764243D01*
X30166467Y24774773D01*
X30116174Y24809616D01*
X30095965Y24867368D01*
X30113561Y24925968D01*
X30126520Y24941141D01*
X30136755Y24950926D01*
X30173821Y24999607D01*
X30233940Y25111327D01*
X30233945Y25111343D01*
X30235514Y25114899D01*
X30235769Y25114787D01*
X30243131Y25130082D01*
X30272624Y25177020D01*
X30286437Y25194342D01*
X30325656Y25233561D01*
X30342981Y25247376D01*
X30389921Y25276871D01*
X30409884Y25286485D01*
X30462220Y25304799D01*
X30483826Y25309729D01*
X30538914Y25315936D01*
X30561084Y25315936D01*
X30616171Y25309729D01*
G37*
%TD.AperFunction*%
%TA.AperFunction,Conductor*%
G36*
X37963090Y54897547D02*
G01*
X38307126Y54829174D01*
X38315606Y54827095D01*
X38600721Y54743631D01*
X38686025Y54718659D01*
X38694322Y54715825D01*
X38885691Y54640856D01*
X39053667Y54575051D01*
X39061671Y54571499D01*
X39354768Y54425563D01*
X39407159Y54399477D01*
X39414823Y54395227D01*
X39743728Y54193315D01*
X39750985Y54188404D01*
X40060745Y53958173D01*
X40067544Y53952636D01*
X40355696Y53695919D01*
X40361979Y53689802D01*
X40626298Y53408583D01*
X40632014Y53401935D01*
X40870414Y53098432D01*
X40875520Y53091303D01*
X41086132Y52767893D01*
X41090586Y52760341D01*
X41271751Y52419573D01*
X41275520Y52411656D01*
X41425823Y52056197D01*
X41428877Y52047978D01*
X41525914Y51746544D01*
X41530677Y51716146D01*
X41499876Y1612053D01*
X41480933Y1553874D01*
X41431411Y1517941D01*
X41398814Y1513135D01*
X37282740Y1598886D01*
X37271885Y1599711D01*
X37265893Y1600500D01*
X37265892Y1600500D01*
X37265890Y1600500D01*
X37206273Y1600500D01*
X37204211Y1600521D01*
X37200131Y1600606D01*
X37144547Y1601764D01*
X37144546Y1601764D01*
X37144542Y1601764D01*
X37138537Y1601100D01*
X37127658Y1600500D01*
X9502279Y1600500D01*
X9497707Y1600606D01*
X9098646Y1619056D01*
X9089541Y1619899D01*
X8696119Y1674779D01*
X8687130Y1676460D01*
X8300479Y1767400D01*
X8291684Y1769902D01*
X7915060Y1896133D01*
X7906533Y1899436D01*
X7543162Y2059880D01*
X7534976Y2063957D01*
X7187956Y2257247D01*
X7180182Y2262060D01*
X6852486Y2486536D01*
X6845188Y2492047D01*
X6539601Y2745803D01*
X6532843Y2751963D01*
X6251962Y3032844D01*
X6245802Y3039602D01*
X5992046Y3345189D01*
X5986535Y3352487D01*
X5762059Y3680183D01*
X5757246Y3687957D01*
X5563956Y4034977D01*
X5559879Y4043163D01*
X5399435Y4406534D01*
X5396132Y4415061D01*
X5269901Y4791685D01*
X5267399Y4800480D01*
X5246159Y4890787D01*
X5176456Y5187146D01*
X5174780Y5196107D01*
X5119898Y5589542D01*
X5119055Y5598647D01*
X5100606Y5997694D01*
X5100501Y6002309D01*
X5104433Y12500000D01*
X20056910Y12500000D01*
X20077225Y12280770D01*
X20137477Y12069006D01*
X20235614Y11871919D01*
X20368296Y11696220D01*
X20531003Y11547894D01*
X20718194Y11431990D01*
X20923495Y11352455D01*
X21139916Y11312000D01*
X21360084Y11312000D01*
X21576505Y11352455D01*
X21781806Y11431990D01*
X21968997Y11547894D01*
X22131704Y11696220D01*
X22264386Y11871919D01*
X22362523Y12069006D01*
X22404780Y12217525D01*
X22438889Y12268318D01*
X22496342Y12289362D01*
X22555191Y12272618D01*
X22592960Y12224481D01*
X22595215Y12217541D01*
X22637477Y12069006D01*
X22735614Y11871919D01*
X22868296Y11696220D01*
X23031003Y11547894D01*
X23218194Y11431990D01*
X23423495Y11352455D01*
X23639916Y11312000D01*
X23860084Y11312000D01*
X24076505Y11352455D01*
X24281806Y11431990D01*
X24468997Y11547894D01*
X24631704Y11696220D01*
X24764386Y11871919D01*
X24786880Y11917095D01*
X24829740Y11960755D01*
X24890081Y11970885D01*
X24944853Y11943614D01*
X24973134Y11889356D01*
X24974500Y11872965D01*
X24974500Y11593479D01*
X24974501Y11593477D01*
X24989352Y11499701D01*
X24989354Y11499696D01*
X25046950Y11386658D01*
X25136658Y11296950D01*
X25249696Y11239354D01*
X25343481Y11224500D01*
X27156518Y11224501D01*
X27156521Y11224501D01*
X27156522Y11224502D01*
X27203411Y11231928D01*
X27250299Y11239353D01*
X27250299Y11239354D01*
X27250304Y11239354D01*
X27363342Y11296950D01*
X27453050Y11386658D01*
X27510646Y11499696D01*
X27525500Y11593481D01*
X27525499Y13406518D01*
X27525499Y13406519D01*
X27525499Y13406522D01*
X27525498Y13406524D01*
X27510647Y13500300D01*
X27510646Y13500302D01*
X27510646Y13500304D01*
X27453050Y13613342D01*
X27363342Y13703050D01*
X27250304Y13760646D01*
X27250305Y13760646D01*
X27156521Y13775500D01*
X25343478Y13775500D01*
X25343476Y13775499D01*
X25249700Y13760648D01*
X25249695Y13760646D01*
X25136659Y13703051D01*
X25046949Y13613341D01*
X24989354Y13500305D01*
X24974500Y13406522D01*
X24974500Y13127037D01*
X24955593Y13068846D01*
X24906093Y13032882D01*
X24844907Y13032882D01*
X24795407Y13068846D01*
X24786879Y13082909D01*
X24781069Y13094576D01*
X24764386Y13128081D01*
X24631704Y13303780D01*
X24468997Y13452106D01*
X24281806Y13568010D01*
X24076505Y13647545D01*
X24076504Y13647546D01*
X24076502Y13647546D01*
X23860084Y13688000D01*
X23639916Y13688000D01*
X23423497Y13647546D01*
X23218193Y13568010D01*
X23218188Y13568007D01*
X23031005Y13452108D01*
X23031002Y13452106D01*
X22868297Y13303782D01*
X22735615Y13128083D01*
X22735610Y13128074D01*
X22637478Y12930997D01*
X22595221Y12782478D01*
X22561111Y12731683D01*
X22503658Y12710639D01*
X22444809Y12727383D01*
X22407040Y12775520D01*
X22404779Y12782478D01*
X22362523Y12930994D01*
X22264386Y13128081D01*
X22131704Y13303780D01*
X21968997Y13452106D01*
X21781806Y13568010D01*
X21576505Y13647545D01*
X21576504Y13647546D01*
X21576502Y13647546D01*
X21360084Y13688000D01*
X21139916Y13688000D01*
X20923497Y13647546D01*
X20718193Y13568010D01*
X20718188Y13568007D01*
X20531005Y13452108D01*
X20531002Y13452106D01*
X20368297Y13303782D01*
X20235615Y13128083D01*
X20235610Y13128074D01*
X20137478Y12930997D01*
X20137477Y12930994D01*
X20077225Y12719230D01*
X20056910Y12500000D01*
X5104433Y12500000D01*
X5109396Y20700005D01*
X10944751Y20700005D01*
X10944751Y20699996D01*
X10963685Y20531947D01*
X10963688Y20531935D01*
X11019544Y20372310D01*
X11019544Y20372309D01*
X11109520Y20229114D01*
X11109523Y20229110D01*
X11229110Y20109523D01*
X11229112Y20109522D01*
X11229113Y20109521D01*
X11341562Y20038864D01*
X11372310Y20019544D01*
X11436232Y19997177D01*
X11531934Y19963689D01*
X11531938Y19963688D01*
X11531941Y19963687D01*
X11531942Y19963687D01*
X11531946Y19963686D01*
X11699996Y19944751D01*
X11700000Y19944751D01*
X11700004Y19944751D01*
X11868053Y19963686D01*
X11868055Y19963687D01*
X11868059Y19963687D01*
X12027690Y20019544D01*
X12170890Y20109523D01*
X12181872Y20120506D01*
X12236387Y20148281D01*
X12251874Y20149500D01*
X22266311Y20149500D01*
X22324502Y20130593D01*
X22360466Y20081093D01*
X22360466Y20019907D01*
X22324502Y19970407D01*
X22285625Y19953402D01*
X22147334Y19925894D01*
X22147332Y19925894D01*
X21983455Y19858015D01*
X21983454Y19858015D01*
X21835965Y19759465D01*
X21710535Y19634035D01*
X21611985Y19486546D01*
X21611985Y19486545D01*
X21544106Y19322668D01*
X21544106Y19322666D01*
X21509500Y19148694D01*
X21509500Y19089083D01*
X21490593Y19030892D01*
X21480504Y19019079D01*
X17860921Y15399496D01*
X17806404Y15371719D01*
X17790917Y15370500D01*
X15421306Y15370500D01*
X15247334Y15335894D01*
X15247332Y15335894D01*
X15083457Y15268016D01*
X15083444Y15268009D01*
X15074731Y15262186D01*
X15019728Y15245500D01*
X14533617Y15245500D01*
X14383795Y15215698D01*
X14383793Y15215698D01*
X14242665Y15157241D01*
X14242664Y15157241D01*
X14115648Y15072370D01*
X14115644Y15072367D01*
X14007633Y14964356D01*
X14007630Y14964352D01*
X13922759Y14837336D01*
X13922759Y14837335D01*
X13864302Y14696207D01*
X13864302Y14696205D01*
X13834500Y14546383D01*
X13834500Y14393618D01*
X13864302Y14243796D01*
X13864302Y14243794D01*
X13922759Y14102666D01*
X13922759Y14102665D01*
X13965049Y14039374D01*
X14007630Y13975648D01*
X14115648Y13867630D01*
X14242663Y13782761D01*
X14242664Y13782761D01*
X14242665Y13782760D01*
X14260195Y13775499D01*
X14383795Y13724302D01*
X14533620Y13694500D01*
X15019728Y13694500D01*
X15074731Y13677814D01*
X15083444Y13671992D01*
X15083457Y13671985D01*
X15142459Y13647546D01*
X15247334Y13604106D01*
X15421309Y13569500D01*
X15421310Y13569500D01*
X18293616Y13569500D01*
X18293617Y13569500D01*
X18467591Y13604105D01*
X18549531Y13638047D01*
X18631472Y13671987D01*
X18764159Y13760646D01*
X18778961Y13770536D01*
X23109464Y18101039D01*
X23109813Y18101563D01*
X23148935Y18160113D01*
X23148936Y18160115D01*
X23172599Y18195529D01*
X23208013Y18248528D01*
X23241953Y18330469D01*
X23275895Y18412409D01*
X23310500Y18586383D01*
X23310500Y18763767D01*
X23310500Y19148691D01*
X23275894Y19322666D01*
X23208014Y19486545D01*
X23208014Y19486546D01*
X23109464Y19634035D01*
X22984034Y19759465D01*
X22836544Y19858015D01*
X22672666Y19925894D01*
X22534375Y19953402D01*
X22480991Y19983299D01*
X22455375Y20038864D01*
X22467312Y20098874D01*
X22512242Y20140406D01*
X22553689Y20149500D01*
X27522474Y20149500D01*
X27522475Y20149500D01*
X27662485Y20187016D01*
X27788015Y20259490D01*
X28701737Y21173214D01*
X28756252Y21200989D01*
X28760637Y21201584D01*
X28868059Y21213687D01*
X29027690Y21269544D01*
X29170890Y21359523D01*
X29290477Y21479110D01*
X29380456Y21622310D01*
X29436313Y21781941D01*
X29455249Y21950000D01*
X29455249Y21950005D01*
X29436314Y22118054D01*
X29436311Y22118066D01*
X29413480Y22183310D01*
X29380456Y22277690D01*
X29290477Y22420890D01*
X29170890Y22540477D01*
X29170887Y22540479D01*
X29170886Y22540480D01*
X29027691Y22630456D01*
X28868065Y22686312D01*
X28868053Y22686315D01*
X28700004Y22705249D01*
X28699996Y22705249D01*
X28531946Y22686315D01*
X28531934Y22686312D01*
X28372309Y22630456D01*
X28372308Y22630456D01*
X28229113Y22540480D01*
X28109520Y22420887D01*
X28019544Y22277692D01*
X28019544Y22277691D01*
X27963686Y22118061D01*
X27963686Y22118059D01*
X27951584Y22010656D01*
X27926280Y21954949D01*
X27923211Y21951739D01*
X27250971Y21279497D01*
X27196454Y21251719D01*
X27180967Y21250500D01*
X17050856Y21250500D01*
X16992665Y21269407D01*
X16956701Y21318907D01*
X16956701Y21380093D01*
X16992665Y21429593D01*
X16995855Y21431816D01*
X17030925Y21455249D01*
X17094353Y21497630D01*
X17202370Y21605647D01*
X17287239Y21732663D01*
X17345698Y21873795D01*
X17375500Y22023620D01*
X17375500Y22176380D01*
X17345698Y22326205D01*
X17287240Y22467335D01*
X17287240Y22467336D01*
X17238366Y22540480D01*
X17202370Y22594352D01*
X15659028Y24137694D01*
X15532013Y24222563D01*
X15532012Y24222564D01*
X15532010Y24222565D01*
X15390881Y24281022D01*
X15241058Y24310824D01*
X15241056Y24310824D01*
X15088296Y24310824D01*
X15088293Y24310824D01*
X14938471Y24281022D01*
X14938469Y24281022D01*
X14797341Y24222565D01*
X14797340Y24222565D01*
X14670324Y24137694D01*
X14670320Y24137691D01*
X14562309Y24029680D01*
X14562306Y24029676D01*
X14477435Y23902660D01*
X14477435Y23902659D01*
X14418978Y23761531D01*
X14418978Y23761529D01*
X14389176Y23611707D01*
X14389176Y23458942D01*
X14418978Y23309120D01*
X14418978Y23309118D01*
X14477435Y23167990D01*
X14477435Y23167989D01*
X14519725Y23104698D01*
X14562306Y23040972D01*
X16105648Y21497630D01*
X16204147Y21431815D01*
X16242026Y21383765D01*
X16244428Y21322627D01*
X16210435Y21271753D01*
X16153031Y21250576D01*
X16149145Y21250500D01*
X12251874Y21250500D01*
X12193683Y21269407D01*
X12181876Y21279491D01*
X12170890Y21290477D01*
X12170887Y21290479D01*
X12170886Y21290480D01*
X12027691Y21380456D01*
X11868065Y21436312D01*
X11868053Y21436315D01*
X11700004Y21455249D01*
X11699996Y21455249D01*
X11531946Y21436315D01*
X11531934Y21436312D01*
X11372309Y21380456D01*
X11372308Y21380456D01*
X11229113Y21290480D01*
X11109520Y21170887D01*
X11019544Y21027692D01*
X11019544Y21027691D01*
X10963688Y20868066D01*
X10963685Y20868054D01*
X10944751Y20700005D01*
X5109396Y20700005D01*
X5112255Y25424114D01*
X15305316Y25424114D01*
X15308293Y25348775D01*
X15308295Y25348760D01*
X15318646Y25272374D01*
X15327184Y25235897D01*
X15327187Y25235886D01*
X15351813Y25162832D01*
X15386510Y25085203D01*
X15386516Y25085191D01*
X15386521Y25085180D01*
X15396493Y25065446D01*
X15403907Y25050775D01*
X15413178Y25034412D01*
X15413182Y25034406D01*
X15413185Y25034401D01*
X15433772Y25001788D01*
X15433788Y25001764D01*
X15510101Y24892746D01*
X15917446Y24310824D01*
X15923685Y24301912D01*
X15943327Y24276113D01*
X15953391Y24263938D01*
X15975044Y24239778D01*
X16024997Y24188339D01*
X16025005Y24188332D01*
X16073722Y24145601D01*
X16073725Y24145598D01*
X16099020Y24126763D01*
X16115840Y24116218D01*
X16153937Y24092331D01*
X16210388Y24062940D01*
X16238072Y24051234D01*
X16270072Y24037703D01*
X16270074Y24037703D01*
X16270082Y24037699D01*
X16290492Y24030935D01*
X16300019Y24027777D01*
X16300022Y24027777D01*
X16300026Y24027775D01*
X16362983Y24012367D01*
X16362988Y24012367D01*
X16362989Y24012366D01*
X16453538Y23997752D01*
X16461664Y23997580D01*
X16465943Y23997063D01*
X16481716Y23995798D01*
X16514133Y23994500D01*
X16514142Y23994500D01*
X18725402Y23994500D01*
X18725406Y23994501D01*
X18762602Y23996211D01*
X18762619Y23996213D01*
X18762627Y23996213D01*
X18773556Y23997221D01*
X18780691Y23997878D01*
X18817571Y24002993D01*
X18898295Y24017995D01*
X18969879Y24038239D01*
X19003637Y24051234D01*
X19070326Y24084220D01*
X19140269Y24127218D01*
X19171062Y24148155D01*
X19185598Y24159047D01*
X19214345Y24182724D01*
X19605823Y24536562D01*
X19658600Y24561177D01*
X25852079Y25420387D01*
X25912314Y25409655D01*
X25913410Y25409060D01*
X26764754Y24939729D01*
X28143920Y24179419D01*
X28143945Y24179406D01*
X28143952Y24179402D01*
X28157824Y24172100D01*
X28164676Y24168661D01*
X28178871Y24161878D01*
X28301167Y24128126D01*
X28361968Y24121275D01*
X28361969Y24121275D01*
X28488710Y24126966D01*
X28607488Y24171544D01*
X28660703Y24201739D01*
X28759893Y24280840D01*
X28829785Y24386721D01*
X28853023Y24437882D01*
X28854766Y24441256D01*
X28888838Y24564715D01*
X28888838Y24564716D01*
X28888841Y24564726D01*
X28900270Y24666175D01*
X28905204Y24687786D01*
X28906898Y24692626D01*
X28923515Y24740115D01*
X28933129Y24760080D01*
X28962623Y24807018D01*
X28976439Y24824344D01*
X29015656Y24863561D01*
X29032981Y24877376D01*
X29079921Y24906871D01*
X29099884Y24916485D01*
X29152220Y24934799D01*
X29173826Y24939729D01*
X29228914Y24945936D01*
X29251076Y24945937D01*
X29306175Y24939730D01*
X29327783Y24934797D01*
X29380106Y24916488D01*
X29400077Y24906871D01*
X29489342Y24850781D01*
X29588460Y24805760D01*
X29623528Y24795230D01*
X29673822Y24760386D01*
X29694031Y24702634D01*
X29676435Y24644034D01*
X29663473Y24628857D01*
X29653241Y24619075D01*
X29653238Y24619072D01*
X29616899Y24571344D01*
X29616280Y24570552D01*
X29616170Y24570385D01*
X29556055Y24458667D01*
X29554487Y24455107D01*
X29554236Y24455218D01*
X29546866Y24439920D01*
X29491221Y24351362D01*
X29485145Y24342748D01*
X29480123Y24336378D01*
X29455972Y24296965D01*
X29455963Y24296950D01*
X29416067Y24210402D01*
X29416065Y24210398D01*
X29396219Y24085095D01*
X29396219Y24023905D01*
X29416066Y23898600D01*
X29473662Y23785560D01*
X29473666Y23785554D01*
X29509622Y23736065D01*
X29509624Y23736063D01*
X29509627Y23736059D01*
X29509628Y23736058D01*
X29599338Y23646349D01*
X29599339Y23646348D01*
X29712370Y23588757D01*
X29712375Y23588755D01*
X29712379Y23588753D01*
X29770570Y23569846D01*
X29820691Y23561908D01*
X29895871Y23550000D01*
X29895874Y23550000D01*
X31256694Y23550000D01*
X31276006Y23548098D01*
X31295309Y23544259D01*
X31328361Y23537685D01*
X31346924Y23532054D01*
X31442157Y23492607D01*
X31442157Y23492608D01*
X31468996Y23481490D01*
X31474464Y23479028D01*
X31477010Y23477788D01*
X31477185Y23477703D01*
X31527637Y23461124D01*
X31635604Y23441286D01*
X32887468Y23383729D01*
X32887478Y23383730D01*
X32887482Y23383729D01*
X32908778Y23384071D01*
X32937699Y23384535D01*
X32962103Y23386443D01*
X32962120Y23386446D01*
X32962129Y23386446D01*
X32992488Y23390725D01*
X33011830Y23393450D01*
X33130610Y23438027D01*
X33136356Y23441287D01*
X33139036Y23442809D01*
X33183826Y23468222D01*
X33283016Y23547322D01*
X33352909Y23653202D01*
X33378213Y23708909D01*
X33378215Y23708914D01*
X33385708Y23736065D01*
X33407582Y23815323D01*
X33409570Y23821684D01*
X33433513Y23890109D01*
X33443131Y23910082D01*
X33472624Y23957019D01*
X33486439Y23974344D01*
X33525656Y24013561D01*
X33542981Y24027376D01*
X33589921Y24056871D01*
X33609884Y24066485D01*
X33662220Y24084799D01*
X33683822Y24089729D01*
X33738922Y24095937D01*
X33761083Y24095937D01*
X33827248Y24088481D01*
X33832067Y24087938D01*
X33847149Y24085040D01*
X33854706Y24082969D01*
X33854709Y24082969D01*
X33854718Y24082966D01*
X33881461Y24077590D01*
X33936994Y24070371D01*
X33936998Y24070372D01*
X33937001Y24070371D01*
X34063258Y24082645D01*
X34063259Y24082646D01*
X34063267Y24082646D01*
X34122490Y24098020D01*
X34238788Y24148715D01*
X34333730Y24232867D01*
X34372605Y24280114D01*
X34436896Y24389486D01*
X35224291Y26393765D01*
X35225676Y26397340D01*
X35226346Y26399094D01*
X35227704Y26402701D01*
X35229370Y26407190D01*
X35231984Y26414443D01*
X35233227Y26417998D01*
X35235704Y26425305D01*
X35237201Y26429863D01*
X35238364Y26433462D01*
X35238929Y26435238D01*
X35240080Y26438917D01*
X35429734Y27055290D01*
X35433096Y27066821D01*
X35434649Y27072457D01*
X35437650Y27084007D01*
X35441165Y27098405D01*
X35446144Y27121766D01*
X35448239Y27133244D01*
X35451838Y27156897D01*
X35453634Y27171603D01*
X35454913Y27183542D01*
X35455450Y27189368D01*
X35456372Y27201292D01*
X35456373Y27201300D01*
X35550818Y28712466D01*
X35551432Y28722289D01*
X35554822Y28742506D01*
X35555619Y28745388D01*
X35567162Y28787117D01*
X35567161Y28787118D01*
X36156671Y30918426D01*
X36180818Y30960745D01*
X37400823Y32225936D01*
X37418646Y32240550D01*
X39179466Y33369280D01*
X39215525Y33395290D01*
X39232384Y33408916D01*
X39265378Y33438717D01*
X39303462Y33477110D01*
X39358709Y33546606D01*
X39381670Y33583069D01*
X39420483Y33662962D01*
X39423502Y33671428D01*
X39434883Y33703339D01*
X39455374Y33789730D01*
X39460669Y33832496D01*
X39461866Y33921284D01*
X39456670Y33975111D01*
X39454086Y33992081D01*
X39449982Y34019038D01*
X39449979Y34019060D01*
X39445547Y34040278D01*
X39434085Y34083235D01*
X39002468Y35405063D01*
X38731043Y36236302D01*
X38716544Y36274173D01*
X38708563Y36292255D01*
X38690356Y36328483D01*
X38665954Y36371531D01*
X38619177Y36437650D01*
X38619171Y36437657D01*
X38619164Y36437666D01*
X38593365Y36467334D01*
X38593359Y36467340D01*
X38593357Y36467342D01*
X38541235Y36516387D01*
X38534372Y36522845D01*
X38534368Y36522848D01*
X38534366Y36522850D01*
X38503158Y36546819D01*
X38503155Y36546821D01*
X38503151Y36546824D01*
X38434321Y36589490D01*
X38398978Y36606776D01*
X38398976Y36606777D01*
X38323035Y36634917D01*
X38323032Y36634918D01*
X38323029Y36634919D01*
X38275162Y36647388D01*
X38275142Y36647393D01*
X38235441Y36655639D01*
X38215894Y36658689D01*
X38175598Y36662926D01*
X38175584Y36662927D01*
X38175582Y36662927D01*
X34856410Y36844799D01*
X34856406Y36844799D01*
X34856393Y36844800D01*
X34811213Y36844590D01*
X34808287Y36844576D01*
X34808276Y36844576D01*
X34808264Y36844575D01*
X34784911Y36843078D01*
X34784906Y36843078D01*
X34784900Y36843077D01*
X34749882Y36838736D01*
X34737169Y36837159D01*
X34737146Y36837156D01*
X34679808Y36826561D01*
X34588098Y36798052D01*
X34545577Y36779057D01*
X34545570Y36779053D01*
X34463138Y36729770D01*
X34463136Y36729769D01*
X34426595Y36701553D01*
X34426591Y36701550D01*
X34358055Y36634255D01*
X34358047Y36634246D01*
X34328930Y36597930D01*
X34328925Y36597923D01*
X34328925Y36597922D01*
X34282159Y36522845D01*
X34278136Y36516387D01*
X34253375Y36463570D01*
X34235595Y36418928D01*
X34235592Y36418920D01*
X34228214Y36396633D01*
X34228213Y36396632D01*
X34215835Y36350162D01*
X34215832Y36350149D01*
X33749103Y34058934D01*
X33718961Y34005688D01*
X33700042Y33992081D01*
X31210524Y32613955D01*
X31165576Y32601614D01*
X29921056Y32563902D01*
X29777917Y32559564D01*
X29763469Y32558427D01*
X29738885Y32556491D01*
X29725930Y32554838D01*
X29719983Y32554079D01*
X29719973Y32554078D01*
X29719971Y32554077D01*
X29710990Y32552489D01*
X29681517Y32547276D01*
X29681508Y32547275D01*
X29681491Y32547271D01*
X29634938Y32536703D01*
X29634933Y32536701D01*
X29634929Y32536700D01*
X29634926Y32536699D01*
X29610562Y32528634D01*
X29560769Y32512150D01*
X29526053Y32496806D01*
X29457980Y32458493D01*
X29457979Y32458493D01*
X29426804Y32436746D01*
X29426801Y32436744D01*
X29367336Y32386090D01*
X29340946Y32358808D01*
X29340944Y32358805D01*
X29292293Y32297684D01*
X29266282Y32257619D01*
X29246597Y32223840D01*
X29237802Y32206921D01*
X29221453Y32171379D01*
X27945140Y29002603D01*
X27905861Y28955690D01*
X27857705Y28940688D01*
X26933481Y28899611D01*
X26933462Y28899611D01*
X26188160Y28866486D01*
X26129187Y28882791D01*
X26106458Y28903543D01*
X25977194Y29065124D01*
X25955607Y29122375D01*
X25955500Y29126969D01*
X25955500Y30219523D01*
X25955500Y30219536D01*
X25953546Y30259293D01*
X25951643Y30278609D01*
X25945804Y30317970D01*
X25938552Y30354424D01*
X25938551Y30354425D01*
X25938551Y30354430D01*
X25915483Y30430469D01*
X25915474Y30430493D01*
X25900697Y30466168D01*
X25876279Y30511852D01*
X25863229Y30536268D01*
X25842583Y30567168D01*
X25818889Y30599118D01*
X25818273Y30599869D01*
X25806587Y30614111D01*
X25806584Y30614113D01*
X25806577Y30614122D01*
X25779838Y30643626D01*
X25772431Y30651033D01*
X25769025Y30657719D01*
X25728427Y30690396D01*
X25728424Y30690398D01*
X25727085Y30691476D01*
X25727069Y30691489D01*
X25727058Y30691497D01*
X25727059Y30691497D01*
X25710041Y30705195D01*
X25710022Y30705209D01*
X25674640Y30730677D01*
X25674635Y30730680D01*
X25674627Y30730686D01*
X25656721Y30742165D01*
X25656719Y30742166D01*
X25656713Y30742170D01*
X25618776Y30763703D01*
X25618768Y30763707D01*
X25594635Y30775735D01*
X25594623Y30775741D01*
X25574850Y30784940D01*
X25573720Y30785430D01*
X25565067Y30789176D01*
X25544809Y30797307D01*
X25415339Y30845257D01*
X25415335Y30845258D01*
X25392734Y30853630D01*
X25379637Y30857640D01*
X25348063Y30867308D01*
X25325961Y30872705D01*
X25325953Y30872707D01*
X25325951Y30872707D01*
X25280060Y30881149D01*
X25270011Y30882405D01*
X25254942Y30884288D01*
X25254938Y30884289D01*
X25254935Y30884289D01*
X25163542Y30885126D01*
X25161755Y30885142D01*
X25161754Y30885142D01*
X25161753Y30885142D01*
X25161745Y30885142D01*
X25116820Y30880363D01*
X25116798Y30880359D01*
X25025866Y30859913D01*
X25012586Y30855269D01*
X24930410Y30815666D01*
X24903290Y30798595D01*
X24892970Y30792099D01*
X24889302Y30789166D01*
X24821725Y30735132D01*
X24810756Y30724123D01*
X24755115Y30654371D01*
X24732002Y30617758D01*
X24692971Y30537543D01*
X24683809Y30511858D01*
X24671139Y30469020D01*
X24666126Y30447846D01*
X24666125Y30447841D01*
X24658239Y30403835D01*
X24658238Y30403827D01*
X24641677Y30268961D01*
X24641677Y30268960D01*
X24602033Y29946148D01*
X24600354Y29929716D01*
X24599699Y29921685D01*
X24598688Y29905105D01*
X24597858Y29884634D01*
X24597869Y29851523D01*
X24598532Y29835397D01*
X24601254Y29802324D01*
X24603772Y29781956D01*
X24606141Y29765541D01*
X24607443Y29757662D01*
X24610486Y29741335D01*
X24705991Y29281177D01*
X24707822Y29267871D01*
X24726830Y28992259D01*
X24726830Y28992257D01*
X24735061Y28872885D01*
X24720202Y28813532D01*
X24673293Y28774248D01*
X24640505Y28767165D01*
X21909520Y28650954D01*
X21850578Y28667370D01*
X21827721Y28688376D01*
X21827259Y28688959D01*
X21817187Y28701439D01*
X21807957Y28712471D01*
X21803373Y28717756D01*
X21793757Y28728455D01*
X21782820Y28740197D01*
X21777981Y28745300D01*
X21777949Y28745333D01*
X21777897Y28745388D01*
X21775457Y28747916D01*
X21770424Y28753038D01*
X21623949Y28899513D01*
X21477342Y29046121D01*
X21449565Y29100637D01*
X21448405Y29112712D01*
X21447913Y29126969D01*
X21409572Y30238889D01*
X21404065Y30292947D01*
X21399624Y30319042D01*
X21399619Y30319063D01*
X21386944Y30371864D01*
X21386942Y30371869D01*
X21369328Y30428282D01*
X21369326Y30428285D01*
X21369324Y30428294D01*
X21323471Y30526526D01*
X21295126Y30570671D01*
X21270912Y30599135D01*
X21224874Y30653255D01*
X21224866Y30653263D01*
X21180896Y30692756D01*
X21138118Y30726283D01*
X21116245Y30741173D01*
X21069412Y30768657D01*
X20933209Y30836759D01*
X20883418Y30857636D01*
X20883405Y30857640D01*
X20858564Y30866161D01*
X20858547Y30866166D01*
X20806419Y30880244D01*
X20806416Y30880245D01*
X20787193Y30884084D01*
X20787195Y30884084D01*
X20679690Y30890966D01*
X20679678Y30890966D01*
X20627680Y30887357D01*
X20522121Y30865677D01*
X20503608Y30859215D01*
X20453917Y30838060D01*
X20453902Y30838053D01*
X20431616Y30826756D01*
X20430445Y30826162D01*
X20430440Y30826160D01*
X20430425Y30826151D01*
X20384011Y30798595D01*
X20383997Y30798586D01*
X20379588Y30795554D01*
X20379552Y30795527D01*
X20343059Y30767239D01*
X20343034Y30767218D01*
X20326058Y30752436D01*
X20326044Y30752423D01*
X20292963Y30720121D01*
X20292954Y30720112D01*
X20255791Y30679432D01*
X20255791Y30679431D01*
X20201674Y30604604D01*
X20201673Y30604601D01*
X20179723Y30565544D01*
X20143938Y30480400D01*
X20128509Y30427496D01*
X20118111Y30382419D01*
X20114306Y30360209D01*
X20114303Y30360182D01*
X20109111Y30314262D01*
X20106057Y30259293D01*
X20077282Y29741335D01*
X20075764Y29714019D01*
X20075577Y29710336D01*
X20075485Y29708324D01*
X20075345Y29705017D01*
X20075047Y29697074D01*
X20074836Y29689685D01*
X20074768Y29686250D01*
X20074691Y29679007D01*
X20074677Y29670864D01*
X20074686Y29667299D01*
X20074699Y29665419D01*
X20074740Y29661899D01*
X20090946Y28665258D01*
X20072987Y28606767D01*
X20060046Y28591779D01*
X18640961Y27247383D01*
X18626896Y27236290D01*
X18497496Y27152030D01*
X18497486Y27152022D01*
X18427962Y27094821D01*
X18427952Y27094812D01*
X18397521Y27063496D01*
X18397501Y27063473D01*
X18389672Y27053382D01*
X18339062Y27018998D01*
X18327410Y27016365D01*
X18306681Y27012981D01*
X18288632Y27010033D01*
X18288631Y27010033D01*
X16234306Y26674635D01*
X16234293Y26674632D01*
X16190945Y26665092D01*
X16190930Y26665089D01*
X16190926Y26665087D01*
X16186812Y26663943D01*
X16170066Y26659283D01*
X16127930Y26645024D01*
X16037366Y26608730D01*
X16037336Y26608716D01*
X15959084Y26566894D01*
X15959078Y26566891D01*
X15923545Y26542557D01*
X15923537Y26542551D01*
X15856261Y26484711D01*
X15856257Y26484708D01*
X15789665Y26413374D01*
X15789662Y26413372D01*
X15761166Y26379280D01*
X15748234Y26361962D01*
X15748217Y26361938D01*
X15723621Y26324929D01*
X15403023Y25779912D01*
X15403020Y25779906D01*
X15385072Y25745774D01*
X15377109Y25728703D01*
X15377104Y25728694D01*
X15362494Y25693039D01*
X15362478Y25692996D01*
X15334026Y25612901D01*
X15315246Y25538144D01*
X15315244Y25538134D01*
X15315243Y25538128D01*
X15309610Y25501086D01*
X15309609Y25501079D01*
X15305317Y25424126D01*
X15305316Y25424114D01*
X5112255Y25424114D01*
X5114093Y28460004D01*
X10744723Y28460004D01*
X10744723Y28459997D01*
X10763791Y28242031D01*
X10763792Y28242024D01*
X10763793Y28242023D01*
X10820425Y28030670D01*
X10912898Y27832361D01*
X11038402Y27653123D01*
X11193123Y27498402D01*
X11372361Y27372898D01*
X11570670Y27280425D01*
X11782023Y27223793D01*
X11782027Y27223793D01*
X11782030Y27223792D01*
X11999997Y27204723D01*
X12000000Y27204723D01*
X12000003Y27204723D01*
X12217969Y27223792D01*
X12217970Y27223793D01*
X12217977Y27223793D01*
X12429330Y27280425D01*
X12627639Y27372898D01*
X12806877Y27498402D01*
X12961598Y27653123D01*
X13087102Y27832361D01*
X13179575Y28030670D01*
X13236207Y28242023D01*
X13255277Y28460000D01*
X13255277Y28460004D01*
X13236208Y28677970D01*
X13236207Y28677973D01*
X13236207Y28677977D01*
X13179575Y28889330D01*
X13097601Y29065124D01*
X13087107Y29087628D01*
X13087103Y29087636D01*
X12961601Y29266873D01*
X12961600Y29266874D01*
X12961598Y29266877D01*
X12806877Y29421598D01*
X12806873Y29421601D01*
X12806872Y29421602D01*
X12627636Y29547104D01*
X12627628Y29547108D01*
X12598315Y29560777D01*
X12553567Y29602505D01*
X12541892Y29662566D01*
X12567750Y29718019D01*
X12621264Y29747682D01*
X12640152Y29749501D01*
X12881518Y29749501D01*
X12881521Y29749501D01*
X12881522Y29749502D01*
X12933049Y29757662D01*
X12975299Y29764353D01*
X12975299Y29764354D01*
X12975304Y29764354D01*
X13088342Y29821950D01*
X13178050Y29911658D01*
X13235646Y30024696D01*
X13250500Y30118481D01*
X13250499Y31881518D01*
X13250499Y31881519D01*
X13250499Y31881522D01*
X13250498Y31881524D01*
X13235647Y31975300D01*
X13235646Y31975302D01*
X13235646Y31975304D01*
X13178050Y32088342D01*
X13088342Y32178050D01*
X12975304Y32235646D01*
X12975305Y32235646D01*
X12881521Y32250500D01*
X11118478Y32250500D01*
X11118476Y32250499D01*
X11024700Y32235648D01*
X11024695Y32235646D01*
X10911659Y32178051D01*
X10821949Y32088341D01*
X10764354Y31975305D01*
X10749500Y31881522D01*
X10749500Y30118479D01*
X10749501Y30118477D01*
X10764352Y30024701D01*
X10764354Y30024696D01*
X10821950Y29911658D01*
X10911658Y29821950D01*
X11024696Y29764354D01*
X11118481Y29749500D01*
X11359847Y29749501D01*
X11418035Y29730594D01*
X11453999Y29681094D01*
X11454000Y29619909D01*
X11418036Y29570409D01*
X11401686Y29560777D01*
X11372364Y29547104D01*
X11193127Y29421602D01*
X11038398Y29266873D01*
X10912896Y29087636D01*
X10912892Y29087628D01*
X10820426Y28889334D01*
X10763791Y28677970D01*
X10744723Y28460004D01*
X5114093Y28460004D01*
X5117476Y34050005D01*
X14444751Y34050005D01*
X14444751Y34049996D01*
X14463685Y33881947D01*
X14463688Y33881935D01*
X14519544Y33722310D01*
X14519544Y33722309D01*
X14609520Y33579114D01*
X14609523Y33579110D01*
X14729110Y33459523D01*
X14729112Y33459522D01*
X14729113Y33459521D01*
X14831335Y33395290D01*
X14872310Y33369544D01*
X14929527Y33349523D01*
X15031934Y33313689D01*
X15031938Y33313688D01*
X15031941Y33313687D01*
X15031942Y33313687D01*
X15031946Y33313686D01*
X15199996Y33294751D01*
X15200000Y33294751D01*
X15200004Y33294751D01*
X15368053Y33313686D01*
X15368055Y33313687D01*
X15368059Y33313687D01*
X15527690Y33369544D01*
X15670890Y33459523D01*
X15790477Y33579110D01*
X15880456Y33722310D01*
X15936313Y33881941D01*
X15940746Y33921284D01*
X15955249Y34049996D01*
X15955249Y34050005D01*
X15936314Y34218054D01*
X15936311Y34218066D01*
X15904729Y34308322D01*
X15880456Y34377690D01*
X15790477Y34520890D01*
X15670890Y34640477D01*
X15670887Y34640479D01*
X15670886Y34640480D01*
X15527691Y34730456D01*
X15368065Y34786312D01*
X15368053Y34786315D01*
X15200004Y34805249D01*
X15199996Y34805249D01*
X15031946Y34786315D01*
X15031934Y34786312D01*
X14872309Y34730456D01*
X14872308Y34730456D01*
X14729113Y34640480D01*
X14609520Y34520887D01*
X14519544Y34377692D01*
X14519544Y34377691D01*
X14463688Y34218066D01*
X14463685Y34218054D01*
X14444751Y34050005D01*
X5117476Y34050005D01*
X5123498Y44000004D01*
X12124723Y44000004D01*
X12124723Y43999997D01*
X12143791Y43782031D01*
X12143792Y43782024D01*
X12143793Y43782023D01*
X12200425Y43570670D01*
X12292898Y43372361D01*
X12418402Y43193123D01*
X12573123Y43038402D01*
X12752361Y42912898D01*
X12950670Y42820425D01*
X12950671Y42820425D01*
X12952172Y42819725D01*
X12996920Y42777996D01*
X13008595Y42717935D01*
X12982737Y42662482D01*
X12952172Y42640276D01*
X12752372Y42547108D01*
X12752364Y42547104D01*
X12573127Y42421602D01*
X12418398Y42266873D01*
X12292896Y42087636D01*
X12292892Y42087628D01*
X12200426Y41889334D01*
X12143791Y41677970D01*
X12124723Y41460004D01*
X12124723Y41459997D01*
X12143791Y41242031D01*
X12143792Y41242024D01*
X12143793Y41242023D01*
X12200425Y41030670D01*
X12284670Y40850005D01*
X12292897Y40832363D01*
X12398227Y40681935D01*
X12418402Y40653123D01*
X12573123Y40498402D01*
X12752361Y40372898D01*
X12950670Y40280425D01*
X13162023Y40223793D01*
X13162027Y40223793D01*
X13162030Y40223792D01*
X13379997Y40204723D01*
X13380000Y40204723D01*
X13380003Y40204723D01*
X13597969Y40223792D01*
X13597970Y40223793D01*
X13597977Y40223793D01*
X13809330Y40280425D01*
X14007639Y40372898D01*
X14186877Y40498402D01*
X14341598Y40653123D01*
X14467102Y40832361D01*
X14559575Y41030670D01*
X14559576Y41030675D01*
X14560275Y41032173D01*
X14602004Y41076921D01*
X14662065Y41088596D01*
X14717518Y41062738D01*
X14739725Y41032173D01*
X14740423Y41030675D01*
X14740425Y41030670D01*
X14824670Y40850005D01*
X14832897Y40832363D01*
X14938227Y40681935D01*
X14958402Y40653123D01*
X15113123Y40498402D01*
X15292361Y40372898D01*
X15490670Y40280425D01*
X15702023Y40223793D01*
X15702027Y40223793D01*
X15702030Y40223792D01*
X15919997Y40204723D01*
X15920000Y40204723D01*
X15920003Y40204723D01*
X16137969Y40223792D01*
X16137970Y40223793D01*
X16137977Y40223793D01*
X16349330Y40280425D01*
X16458661Y40331408D01*
X16519390Y40338864D01*
X16572904Y40309201D01*
X16598762Y40253748D01*
X16599500Y40241683D01*
X16599500Y34125892D01*
X16599500Y33994108D01*
X16613997Y33940005D01*
X16633609Y33866810D01*
X16699496Y33752691D01*
X16699497Y33752690D01*
X16699498Y33752689D01*
X16699500Y33752686D01*
X17321730Y33130456D01*
X17925842Y32526344D01*
X17953619Y32471827D01*
X17953994Y32455559D01*
X17954751Y32455559D01*
X17954751Y32449996D01*
X17973685Y32281947D01*
X17973688Y32281935D01*
X18029544Y32122310D01*
X18029544Y32122309D01*
X18050888Y32088341D01*
X18119523Y31979110D01*
X18239110Y31859523D01*
X18382310Y31769544D01*
X18446232Y31747177D01*
X18541934Y31713689D01*
X18541938Y31713688D01*
X18541941Y31713687D01*
X18541942Y31713687D01*
X18541946Y31713686D01*
X18709996Y31694751D01*
X18710000Y31694751D01*
X18710004Y31694751D01*
X18878053Y31713686D01*
X18878055Y31713687D01*
X18878059Y31713687D01*
X19037690Y31769544D01*
X19180890Y31859523D01*
X19300477Y31979110D01*
X19390456Y32122310D01*
X19446313Y32281941D01*
X19448087Y32297684D01*
X19465249Y32449996D01*
X19465249Y32450005D01*
X19446314Y32618054D01*
X19446311Y32618066D01*
X19423480Y32683310D01*
X19390456Y32777690D01*
X19300477Y32920890D01*
X19180890Y33040477D01*
X19180887Y33040479D01*
X19180886Y33040480D01*
X19037691Y33130456D01*
X18878065Y33186312D01*
X18878053Y33186315D01*
X18710004Y33205249D01*
X18704441Y33205249D01*
X18704441Y33207869D01*
X18654694Y33218119D01*
X18633656Y33234158D01*
X17629496Y34238318D01*
X17601719Y34292835D01*
X17600500Y34308322D01*
X17600500Y40345072D01*
X17619407Y40403263D01*
X17668907Y40439227D01*
X17730093Y40439227D01*
X17756282Y40426169D01*
X17832361Y40372898D01*
X18030670Y40280425D01*
X18242023Y40223793D01*
X18242027Y40223793D01*
X18242030Y40223792D01*
X18459997Y40204723D01*
X18460000Y40204723D01*
X18460003Y40204723D01*
X18677969Y40223792D01*
X18677970Y40223793D01*
X18677977Y40223793D01*
X18889330Y40280425D01*
X19087639Y40372898D01*
X19266877Y40498402D01*
X19377155Y40608681D01*
X19431670Y40636456D01*
X19492102Y40626885D01*
X19517161Y40608679D01*
X23083154Y37042686D01*
X23083153Y37042686D01*
X23176339Y36949501D01*
X23176344Y36949497D01*
X23290464Y36883610D01*
X23290462Y36883610D01*
X23290466Y36883609D01*
X23290468Y36883608D01*
X23417762Y36849500D01*
X23549547Y36849500D01*
X24401678Y36849500D01*
X24459869Y36830593D01*
X24471682Y36820504D01*
X26470504Y34821682D01*
X26498281Y34767165D01*
X26499500Y34751678D01*
X26499500Y34541875D01*
X26480593Y34483684D01*
X26470504Y34471872D01*
X26409524Y34410892D01*
X26409520Y34410887D01*
X26319544Y34267692D01*
X26319544Y34267691D01*
X26263688Y34108066D01*
X26263685Y34108054D01*
X26244751Y33940005D01*
X26244751Y33939996D01*
X26263685Y33771947D01*
X26263688Y33771935D01*
X26319544Y33612310D01*
X26319544Y33612309D01*
X26409520Y33469114D01*
X26409523Y33469110D01*
X26529110Y33349523D01*
X26529112Y33349522D01*
X26529113Y33349521D01*
X26616278Y33294751D01*
X26672310Y33259544D01*
X26736232Y33237177D01*
X26831934Y33203689D01*
X26831938Y33203688D01*
X26831941Y33203687D01*
X26831942Y33203687D01*
X26831946Y33203686D01*
X26999996Y33184751D01*
X27000000Y33184751D01*
X27000004Y33184751D01*
X27168053Y33203686D01*
X27168055Y33203687D01*
X27168059Y33203687D01*
X27327690Y33259544D01*
X27470890Y33349523D01*
X27590477Y33469110D01*
X27680456Y33612310D01*
X27736313Y33771941D01*
X27736314Y33771947D01*
X27755249Y33939996D01*
X27755249Y33940005D01*
X27736314Y34108054D01*
X27736311Y34108066D01*
X27697824Y34218054D01*
X27680456Y34267690D01*
X27611337Y34377691D01*
X27590479Y34410887D01*
X27590475Y34410892D01*
X27529496Y34471872D01*
X27501719Y34526389D01*
X27500500Y34541875D01*
X27500500Y35065891D01*
X27500500Y35065892D01*
X27466392Y35193186D01*
X27466390Y35193189D01*
X27466390Y35193191D01*
X27400503Y35307310D01*
X27400499Y35307315D01*
X27307314Y35400501D01*
X27307314Y35400500D01*
X25356569Y37351245D01*
X25328792Y37405762D01*
X25338363Y37466194D01*
X25377071Y37506985D01*
X25468015Y37559490D01*
X26571736Y38663214D01*
X26626251Y38690989D01*
X26630635Y38691584D01*
X26738059Y38703687D01*
X26897690Y38759544D01*
X27040890Y38849523D01*
X27160477Y38969110D01*
X27250456Y39112310D01*
X27306313Y39271941D01*
X27325249Y39440000D01*
X27325249Y39440005D01*
X27306314Y39608054D01*
X27306311Y39608066D01*
X27277335Y39690873D01*
X27250456Y39767690D01*
X27160477Y39910890D01*
X27040890Y40030477D01*
X27040887Y40030479D01*
X27040884Y40030482D01*
X26903709Y40116675D01*
X26864497Y40163643D01*
X26860382Y40224690D01*
X26892935Y40276497D01*
X26949722Y40299276D01*
X26956381Y40299500D01*
X27178126Y40299500D01*
X27236317Y40280593D01*
X27248123Y40270510D01*
X27259110Y40259523D01*
X27259112Y40259522D01*
X27259113Y40259521D01*
X27379882Y40183636D01*
X27402310Y40169544D01*
X27466232Y40147177D01*
X27561934Y40113689D01*
X27561938Y40113688D01*
X27561941Y40113687D01*
X27561942Y40113687D01*
X27561946Y40113686D01*
X27729996Y40094751D01*
X27730000Y40094751D01*
X27730004Y40094751D01*
X27898053Y40113686D01*
X27898055Y40113687D01*
X27898059Y40113687D01*
X28057690Y40169544D01*
X28200890Y40259523D01*
X28320477Y40379110D01*
X28410456Y40522310D01*
X28466313Y40681941D01*
X28485249Y40850000D01*
X28485249Y40850005D01*
X28466314Y41018054D01*
X28466311Y41018066D01*
X28441631Y41088596D01*
X28410456Y41177690D01*
X28339565Y41290511D01*
X28320479Y41320887D01*
X28320478Y41320888D01*
X28320477Y41320890D01*
X28200890Y41440477D01*
X28200887Y41440479D01*
X28200886Y41440480D01*
X28057691Y41530456D01*
X27898065Y41586312D01*
X27898053Y41586315D01*
X27730004Y41605249D01*
X27729996Y41605249D01*
X27561946Y41586315D01*
X27561934Y41586312D01*
X27402309Y41530456D01*
X27402308Y41530456D01*
X27259113Y41440480D01*
X27259110Y41440478D01*
X27259110Y41440477D01*
X27248127Y41429495D01*
X27193613Y41401719D01*
X27178126Y41400500D01*
X26488440Y41400500D01*
X26379499Y41371309D01*
X26379498Y41371310D01*
X26348430Y41362985D01*
X26348426Y41362983D01*
X26222901Y41290511D01*
X24623260Y39690873D01*
X24568744Y39663096D01*
X24564343Y39662500D01*
X24456940Y39650398D01*
X24456938Y39650398D01*
X24297308Y39594540D01*
X24297307Y39594540D01*
X24154112Y39504564D01*
X24034519Y39384971D01*
X23944543Y39241776D01*
X23944543Y39241775D01*
X23888687Y39082150D01*
X23888684Y39082138D01*
X23869750Y38914089D01*
X23869750Y38914080D01*
X23888684Y38746031D01*
X23888687Y38746019D01*
X23944543Y38586394D01*
X23944543Y38586393D01*
X23975225Y38537563D01*
X23990175Y38478232D01*
X23975225Y38432221D01*
X23909544Y38327692D01*
X23909544Y38327691D01*
X23853688Y38168066D01*
X23853685Y38168054D01*
X23834751Y38000005D01*
X23834751Y37999998D01*
X23839192Y37960586D01*
X23826920Y37900644D01*
X23781758Y37859363D01*
X23740815Y37850500D01*
X23731976Y37850500D01*
X23673785Y37869407D01*
X23661972Y37879496D01*
X20144876Y41396592D01*
X20117099Y41451109D01*
X20116399Y41460004D01*
X22284723Y41460004D01*
X22284723Y41459997D01*
X22303791Y41242031D01*
X22303792Y41242024D01*
X22303793Y41242023D01*
X22360425Y41030670D01*
X22444670Y40850005D01*
X22452897Y40832363D01*
X22558227Y40681935D01*
X22578402Y40653123D01*
X22733123Y40498402D01*
X22912361Y40372898D01*
X23110670Y40280425D01*
X23322023Y40223793D01*
X23322027Y40223793D01*
X23322030Y40223792D01*
X23539997Y40204723D01*
X23540000Y40204723D01*
X23540003Y40204723D01*
X23757969Y40223792D01*
X23757970Y40223793D01*
X23757977Y40223793D01*
X23969330Y40280425D01*
X24167639Y40372898D01*
X24346877Y40498402D01*
X24501598Y40653123D01*
X24627102Y40832361D01*
X24719575Y41030670D01*
X24776207Y41242023D01*
X24786790Y41362983D01*
X24795277Y41459997D01*
X24795277Y41460004D01*
X24776208Y41677970D01*
X24776207Y41677973D01*
X24776207Y41677977D01*
X24719575Y41889330D01*
X24627102Y42087638D01*
X24501598Y42266877D01*
X24346877Y42421598D01*
X24346873Y42421601D01*
X24346872Y42421602D01*
X24194879Y42528028D01*
X24167639Y42547102D01*
X23969330Y42639575D01*
X23757977Y42696207D01*
X23757976Y42696208D01*
X23757969Y42696209D01*
X23540003Y42715277D01*
X23539997Y42715277D01*
X23322030Y42696209D01*
X23110666Y42639574D01*
X22912372Y42547108D01*
X22912364Y42547104D01*
X22733127Y42421602D01*
X22578398Y42266873D01*
X22452896Y42087636D01*
X22452892Y42087628D01*
X22360426Y41889334D01*
X22303791Y41677970D01*
X22284723Y41460004D01*
X20116399Y41460004D01*
X20115880Y41466596D01*
X20115880Y42902311D01*
X20134787Y42960502D01*
X20184287Y42996466D01*
X20245473Y42996466D01*
X20271663Y42983408D01*
X20372361Y42912898D01*
X20570670Y42820425D01*
X20782023Y42763793D01*
X20782027Y42763793D01*
X20782030Y42763792D01*
X20999997Y42744723D01*
X21000000Y42744723D01*
X21000003Y42744723D01*
X21217969Y42763792D01*
X21217970Y42763793D01*
X21217977Y42763793D01*
X21429330Y42820425D01*
X21627639Y42912898D01*
X21806877Y43038402D01*
X21961598Y43193123D01*
X22087102Y43372361D01*
X22179575Y43570670D01*
X22236207Y43782023D01*
X22255277Y44000000D01*
X22236207Y44217977D01*
X22179575Y44429330D01*
X22087102Y44627638D01*
X21961598Y44806877D01*
X21806877Y44961598D01*
X21806873Y44961601D01*
X21806872Y44961602D01*
X21707435Y45031228D01*
X21627639Y45087102D01*
X21429330Y45179575D01*
X21217977Y45236207D01*
X21217976Y45236208D01*
X21217969Y45236209D01*
X21000003Y45255277D01*
X20999997Y45255277D01*
X20782030Y45236209D01*
X20570666Y45179574D01*
X20372372Y45087108D01*
X20372364Y45087104D01*
X20193127Y44961602D01*
X20038398Y44806873D01*
X19912896Y44627636D01*
X19912892Y44627628D01*
X19819724Y44427828D01*
X19777996Y44383080D01*
X19717935Y44371405D01*
X19662482Y44397263D01*
X19640276Y44427828D01*
X19547107Y44627628D01*
X19547103Y44627636D01*
X19421601Y44806873D01*
X19421600Y44806874D01*
X19421598Y44806877D01*
X19266877Y44961598D01*
X19266873Y44961601D01*
X19266872Y44961602D01*
X19167435Y45031228D01*
X19087639Y45087102D01*
X18889330Y45179575D01*
X18677977Y45236207D01*
X18677976Y45236208D01*
X18677969Y45236209D01*
X18460003Y45255277D01*
X18459997Y45255277D01*
X18242030Y45236209D01*
X18030666Y45179574D01*
X17832372Y45087108D01*
X17832364Y45087104D01*
X17653127Y44961602D01*
X17498398Y44806873D01*
X17372896Y44627636D01*
X17372892Y44627628D01*
X17279724Y44427828D01*
X17237996Y44383080D01*
X17177935Y44371405D01*
X17122482Y44397263D01*
X17100276Y44427828D01*
X17007107Y44627628D01*
X17007103Y44627636D01*
X16881601Y44806873D01*
X16881600Y44806874D01*
X16881598Y44806877D01*
X16726877Y44961598D01*
X16726873Y44961601D01*
X16726872Y44961602D01*
X16627435Y45031228D01*
X16547639Y45087102D01*
X16349330Y45179575D01*
X16137977Y45236207D01*
X16137976Y45236208D01*
X16137969Y45236209D01*
X15920003Y45255277D01*
X15919997Y45255277D01*
X15702030Y45236209D01*
X15490666Y45179574D01*
X15292372Y45087108D01*
X15292364Y45087104D01*
X15113127Y44961602D01*
X14958398Y44806873D01*
X14832896Y44627636D01*
X14832892Y44627628D01*
X14739724Y44427828D01*
X14697996Y44383080D01*
X14637935Y44371405D01*
X14582482Y44397263D01*
X14560276Y44427828D01*
X14467107Y44627628D01*
X14467103Y44627636D01*
X14341601Y44806873D01*
X14341600Y44806874D01*
X14341598Y44806877D01*
X14186877Y44961598D01*
X14186873Y44961601D01*
X14186872Y44961602D01*
X14087435Y45031228D01*
X14007639Y45087102D01*
X13809330Y45179575D01*
X13597977Y45236207D01*
X13597976Y45236208D01*
X13597969Y45236209D01*
X13380003Y45255277D01*
X13379997Y45255277D01*
X13162030Y45236209D01*
X12950666Y45179574D01*
X12752372Y45087108D01*
X12752364Y45087104D01*
X12573127Y44961602D01*
X12418398Y44806873D01*
X12292896Y44627636D01*
X12292892Y44627628D01*
X12200426Y44429334D01*
X12143791Y44217970D01*
X12124723Y44000004D01*
X5123498Y44000004D01*
X5127388Y50427309D01*
X5127433Y50427957D01*
X5127433Y50497748D01*
X5127536Y50502259D01*
X5145386Y50893573D01*
X5146207Y50902558D01*
X5199304Y51288403D01*
X5200939Y51297269D01*
X5288944Y51676684D01*
X5291370Y51685332D01*
X5413558Y52055174D01*
X5416774Y52063596D01*
X5457545Y52157336D01*
X5572119Y52420762D01*
X5576077Y52428835D01*
X5763301Y52770386D01*
X5767977Y52778064D01*
X5985520Y53101155D01*
X5990872Y53108370D01*
X6236934Y53410322D01*
X6242926Y53417025D01*
X6515441Y53695306D01*
X6522022Y53701440D01*
X6818742Y53953755D01*
X6825843Y53959258D01*
X7144318Y54183523D01*
X7151900Y54188360D01*
X7489472Y54382699D01*
X7497447Y54386818D01*
X7851285Y54549606D01*
X7859628Y54552993D01*
X8226821Y54682892D01*
X8235445Y54685507D01*
X8612930Y54781434D01*
X8621734Y54783249D01*
X9006412Y54844415D01*
X9015347Y54845421D01*
X9403757Y54871295D01*
X9410188Y54871513D01*
X37943705Y54899445D01*
X37963090Y54897547D01*
G37*
%TD.AperFunction*%
%TD*%
M02*
