M48
; DRILL file {KiCad 8.0.5} date 2026-01-02T18:09:21-0600
; FORMAT={-:-/ absolute / metric / decimal}
; #@! TF.CreationDate,2026-01-02T18:09:21-06:00
; #@! TF.GenerationSoftware,Kicad,Pcbnew,8.0.5
; #@! TF.FileFunction,Plated,1,2,PTH
FMAT,2
METRIC
; #@! TA.AperFunction,Plated,PTH,ComponentDrill
T1C0.203
; #@! TA.AperFunction,Plated,PTH,ViaDrill
T2C0.300
; #@! TA.AperFunction,Plated,PTH,ComponentDrill
T3C0.800
; #@! TA.AperFunction,Plated,PTH,ComponentDrill
T4C1.000
; #@! TA.AperFunction,Plated,PTH,ComponentDrill
T5C1.020
; #@! TA.AperFunction,Plated,PTH,ComponentDrill
T6C1.100
; #@! TA.AperFunction,Plated,PTH,ComponentDrill
T7C4.400
%
G90
G05
T1
X21.05Y33.5
X21.05Y32.5
X21.05Y31.5
X22.05Y33.5
X22.05Y32.5
X22.05Y31.5
X23.05Y33.5
X23.05Y32.5
X23.05Y31.5
X24.05Y33.5
X24.05Y32.5
X24.05Y31.5
X25.05Y33.5
X25.05Y32.5
X25.05Y31.5
T2
X6.23Y17.73
X6.32Y36.47
X6.44Y31.14
X6.44Y24.13
X9.72Y14.25
X9.86Y12.58
X11.36Y11.01
X11.7Y20.7
X13.16Y46.92
X13.38Y8.58
X14.61Y14.47
X14.77Y7.25
X15.165Y23.535
X15.2Y34.05
X16.17Y19.975
X16.6Y22.1
X16.6Y19.3
X17.1Y43.5
X17.779Y48.433
X17.83Y35.35
X18.1Y25.4
X18.71Y32.45
X18.75Y34.0
X18.75Y19.5
X19.0Y26.4
X19.06Y46.97
X19.3Y25.6
X19.615Y43.535
X19.75Y31.95
X19.95Y32.77
X19.98Y4.54
X20.1Y27.25
X20.5Y18.25
X20.6Y26.5
X21.0Y27.85
X21.97Y23.37
X22.25Y4.61
X22.32Y24.38
X22.41Y19.06
X22.931Y47.679
X23.25Y24.5
X24.0Y36.7
X24.4Y4.72
X24.59Y38.0
X24.625Y38.914
X25.8Y27.75
X25.95Y26.75
X26.15Y33.35
X26.2Y32.15
X26.4Y30.85
X26.57Y39.44
X26.6Y27.75
X26.774Y46.924
X26.803Y32.974
X26.85Y26.85
X27.0Y33.94
X27.12Y32.11
X27.25Y30.75
X27.73Y40.85
X28.49Y6.83
X28.627Y48.64
X28.7Y21.95
X29.1Y27.8
X29.24Y24.6
X30.3Y27.0
X30.5Y28.2
X30.55Y24.97
X31.0Y19.5
X31.01Y47.32
X31.09Y21.08
X31.28Y23.13
X31.56Y9.97
X31.6Y26.9
X31.75Y37.5
X33.0Y35.25
X33.0Y18.0
X33.19Y41.15
X33.19Y19.15
X33.2Y44.399
X33.75Y23.75
X33.83Y46.27
X34.02Y12.11
X35.007Y43.162
X36.1Y38.46
X36.81Y13.79
X37.11Y44.34
X37.589Y22.585
X37.7Y23.5
X37.8Y24.6
X38.034Y21.428
X38.25Y20.35
X38.32Y16.94
X38.7Y22.75
X38.774Y24.052
X39.0Y25.7
X39.156Y30.56
X39.411Y21.262
X39.44Y43.39
X39.739Y24.775
X39.79Y37.03
X39.799Y29.495
X39.799Y23.529
X39.879Y26.583
X40.45Y19.0
T3
X33.2Y28.2
X38.95Y28.2
T4
X12.0Y31.0
X12.0Y28.46
X13.38Y44.0
X13.38Y41.46
X15.92Y44.0
X15.92Y41.46
X18.46Y44.0
X18.46Y41.46
X21.0Y44.0
X21.0Y41.46
X23.54Y44.0
X23.54Y41.46
T5
X21.25Y12.5
X23.75Y12.5
X26.25Y12.5
T6
X36.5Y40.5
X36.5Y34.25
T7
X9.497Y5.903
X9.6Y50.6
X37.25Y6.0
X37.303Y50.503
M30
