%TF.GenerationSoftware,KiCad,Pcbnew,8.0.5*%
%TF.CreationDate,2026-01-02T18:08:47-06:00*%
%TF.ProjectId,FOC_DV,464f435f-4456-42e6-9b69-6361645f7063,rev?*%
%TF.SameCoordinates,PX7735940PY6422c40*%
%TF.FileFunction,Legend,Top*%
%TF.FilePolarity,Positive*%
%FSLAX46Y46*%
G04 Gerber Fmt 4.6, Leading zero omitted, Abs format (unit mm)*
G04 Created by KiCad (PCBNEW 8.0.5) date 2026-01-02 18:08:47*
%MOMM*%
%LPD*%
G01*
G04 APERTURE LIST*
%ADD10C,0.100000*%
%ADD11C,0.150000*%
%ADD12C,0.200000*%
%ADD13C,0.120000*%
G04 APERTURE END LIST*
D10*
X39520038Y40027694D02*
X39472419Y39932456D01*
X39472419Y39932456D02*
X39472419Y39789599D01*
X39472419Y39789599D02*
X39520038Y39646742D01*
X39520038Y39646742D02*
X39615276Y39551504D01*
X39615276Y39551504D02*
X39710514Y39503885D01*
X39710514Y39503885D02*
X39900990Y39456266D01*
X39900990Y39456266D02*
X40043847Y39456266D01*
X40043847Y39456266D02*
X40234323Y39503885D01*
X40234323Y39503885D02*
X40329561Y39551504D01*
X40329561Y39551504D02*
X40424800Y39646742D01*
X40424800Y39646742D02*
X40472419Y39789599D01*
X40472419Y39789599D02*
X40472419Y39884837D01*
X40472419Y39884837D02*
X40424800Y40027694D01*
X40424800Y40027694D02*
X40377180Y40075313D01*
X40377180Y40075313D02*
X40043847Y40075313D01*
X40043847Y40075313D02*
X40043847Y39884837D01*
X39805752Y40503885D02*
X40472419Y40503885D01*
X39900990Y40503885D02*
X39853371Y40551504D01*
X39853371Y40551504D02*
X39805752Y40646742D01*
X39805752Y40646742D02*
X39805752Y40789599D01*
X39805752Y40789599D02*
X39853371Y40884837D01*
X39853371Y40884837D02*
X39948609Y40932456D01*
X39948609Y40932456D02*
X40472419Y40932456D01*
X40472419Y41837218D02*
X39472419Y41837218D01*
X40424800Y41837218D02*
X40472419Y41741980D01*
X40472419Y41741980D02*
X40472419Y41551504D01*
X40472419Y41551504D02*
X40424800Y41456266D01*
X40424800Y41456266D02*
X40377180Y41408647D01*
X40377180Y41408647D02*
X40281942Y41361028D01*
X40281942Y41361028D02*
X39996228Y41361028D01*
X39996228Y41361028D02*
X39900990Y41408647D01*
X39900990Y41408647D02*
X39853371Y41456266D01*
X39853371Y41456266D02*
X39805752Y41551504D01*
X39805752Y41551504D02*
X39805752Y41741980D01*
X39805752Y41741980D02*
X39853371Y41837218D01*
X39672419Y33361028D02*
X40672419Y33694361D01*
X40672419Y33694361D02*
X39672419Y34027694D01*
X40624800Y34789599D02*
X40672419Y34694361D01*
X40672419Y34694361D02*
X40672419Y34503885D01*
X40672419Y34503885D02*
X40624800Y34408647D01*
X40624800Y34408647D02*
X40577180Y34361028D01*
X40577180Y34361028D02*
X40481942Y34313409D01*
X40481942Y34313409D02*
X40196228Y34313409D01*
X40196228Y34313409D02*
X40100990Y34361028D01*
X40100990Y34361028D02*
X40053371Y34408647D01*
X40053371Y34408647D02*
X40005752Y34503885D01*
X40005752Y34503885D02*
X40005752Y34694361D01*
X40005752Y34694361D02*
X40053371Y34789599D01*
X40624800Y35646742D02*
X40672419Y35551504D01*
X40672419Y35551504D02*
X40672419Y35361028D01*
X40672419Y35361028D02*
X40624800Y35265790D01*
X40624800Y35265790D02*
X40577180Y35218171D01*
X40577180Y35218171D02*
X40481942Y35170552D01*
X40481942Y35170552D02*
X40196228Y35170552D01*
X40196228Y35170552D02*
X40100990Y35218171D01*
X40100990Y35218171D02*
X40053371Y35265790D01*
X40053371Y35265790D02*
X40005752Y35361028D01*
X40005752Y35361028D02*
X40005752Y35551504D01*
X40005752Y35551504D02*
X40053371Y35646742D01*
X6424800Y26256266D02*
X6472419Y26399123D01*
X6472419Y26399123D02*
X6472419Y26637218D01*
X6472419Y26637218D02*
X6424800Y26732456D01*
X6424800Y26732456D02*
X6377180Y26780075D01*
X6377180Y26780075D02*
X6281942Y26827694D01*
X6281942Y26827694D02*
X6186704Y26827694D01*
X6186704Y26827694D02*
X6091466Y26780075D01*
X6091466Y26780075D02*
X6043847Y26732456D01*
X6043847Y26732456D02*
X5996228Y26637218D01*
X5996228Y26637218D02*
X5948609Y26446742D01*
X5948609Y26446742D02*
X5900990Y26351504D01*
X5900990Y26351504D02*
X5853371Y26303885D01*
X5853371Y26303885D02*
X5758133Y26256266D01*
X5758133Y26256266D02*
X5662895Y26256266D01*
X5662895Y26256266D02*
X5567657Y26303885D01*
X5567657Y26303885D02*
X5520038Y26351504D01*
X5520038Y26351504D02*
X5472419Y26446742D01*
X5472419Y26446742D02*
X5472419Y26684837D01*
X5472419Y26684837D02*
X5520038Y26827694D01*
X6472419Y27256266D02*
X5805752Y27256266D01*
X5472419Y27256266D02*
X5520038Y27208647D01*
X5520038Y27208647D02*
X5567657Y27256266D01*
X5567657Y27256266D02*
X5520038Y27303885D01*
X5520038Y27303885D02*
X5472419Y27256266D01*
X5472419Y27256266D02*
X5567657Y27256266D01*
X6472419Y27732456D02*
X5805752Y27732456D01*
X5900990Y27732456D02*
X5853371Y27780075D01*
X5853371Y27780075D02*
X5805752Y27875313D01*
X5805752Y27875313D02*
X5805752Y28018170D01*
X5805752Y28018170D02*
X5853371Y28113408D01*
X5853371Y28113408D02*
X5948609Y28161027D01*
X5948609Y28161027D02*
X6472419Y28161027D01*
X5948609Y28161027D02*
X5853371Y28208646D01*
X5853371Y28208646D02*
X5805752Y28303884D01*
X5805752Y28303884D02*
X5805752Y28446741D01*
X5805752Y28446741D02*
X5853371Y28541980D01*
X5853371Y28541980D02*
X5948609Y28589599D01*
X5948609Y28589599D02*
X6472419Y28589599D01*
X5805752Y29065789D02*
X6805752Y29065789D01*
X5853371Y29065789D02*
X5805752Y29161027D01*
X5805752Y29161027D02*
X5805752Y29351503D01*
X5805752Y29351503D02*
X5853371Y29446741D01*
X5853371Y29446741D02*
X5900990Y29494360D01*
X5900990Y29494360D02*
X5996228Y29541979D01*
X5996228Y29541979D02*
X6281942Y29541979D01*
X6281942Y29541979D02*
X6377180Y29494360D01*
X6377180Y29494360D02*
X6424800Y29446741D01*
X6424800Y29446741D02*
X6472419Y29351503D01*
X6472419Y29351503D02*
X6472419Y29161027D01*
X6472419Y29161027D02*
X6424800Y29065789D01*
X6472419Y30113408D02*
X6424800Y30018170D01*
X6424800Y30018170D02*
X6329561Y29970551D01*
X6329561Y29970551D02*
X5472419Y29970551D01*
X6424800Y30875313D02*
X6472419Y30780075D01*
X6472419Y30780075D02*
X6472419Y30589599D01*
X6472419Y30589599D02*
X6424800Y30494361D01*
X6424800Y30494361D02*
X6329561Y30446742D01*
X6329561Y30446742D02*
X5948609Y30446742D01*
X5948609Y30446742D02*
X5853371Y30494361D01*
X5853371Y30494361D02*
X5805752Y30589599D01*
X5805752Y30589599D02*
X5805752Y30780075D01*
X5805752Y30780075D02*
X5853371Y30875313D01*
X5853371Y30875313D02*
X5948609Y30922932D01*
X5948609Y30922932D02*
X6043847Y30922932D01*
X6043847Y30922932D02*
X6139085Y30446742D01*
X6472419Y31351504D02*
X5472419Y31351504D01*
X5472419Y31351504D02*
X5472419Y31589599D01*
X5472419Y31589599D02*
X5520038Y31732456D01*
X5520038Y31732456D02*
X5615276Y31827694D01*
X5615276Y31827694D02*
X5710514Y31875313D01*
X5710514Y31875313D02*
X5900990Y31922932D01*
X5900990Y31922932D02*
X6043847Y31922932D01*
X6043847Y31922932D02*
X6234323Y31875313D01*
X6234323Y31875313D02*
X6329561Y31827694D01*
X6329561Y31827694D02*
X6424800Y31732456D01*
X6424800Y31732456D02*
X6472419Y31589599D01*
X6472419Y31589599D02*
X6472419Y31351504D01*
X6472419Y32780075D02*
X5948609Y32780075D01*
X5948609Y32780075D02*
X5853371Y32732456D01*
X5853371Y32732456D02*
X5805752Y32637218D01*
X5805752Y32637218D02*
X5805752Y32446742D01*
X5805752Y32446742D02*
X5853371Y32351504D01*
X6424800Y32780075D02*
X6472419Y32684837D01*
X6472419Y32684837D02*
X6472419Y32446742D01*
X6472419Y32446742D02*
X6424800Y32351504D01*
X6424800Y32351504D02*
X6329561Y32303885D01*
X6329561Y32303885D02*
X6234323Y32303885D01*
X6234323Y32303885D02*
X6139085Y32351504D01*
X6139085Y32351504D02*
X6091466Y32446742D01*
X6091466Y32446742D02*
X6091466Y32684837D01*
X6091466Y32684837D02*
X6043847Y32780075D01*
X6424800Y33637218D02*
X6472419Y33541980D01*
X6472419Y33541980D02*
X6472419Y33351504D01*
X6472419Y33351504D02*
X6424800Y33256266D01*
X6424800Y33256266D02*
X6329561Y33208647D01*
X6329561Y33208647D02*
X5948609Y33208647D01*
X5948609Y33208647D02*
X5853371Y33256266D01*
X5853371Y33256266D02*
X5805752Y33351504D01*
X5805752Y33351504D02*
X5805752Y33541980D01*
X5805752Y33541980D02*
X5853371Y33637218D01*
X5853371Y33637218D02*
X5948609Y33684837D01*
X5948609Y33684837D02*
X6043847Y33684837D01*
X6043847Y33684837D02*
X6139085Y33208647D01*
X6472419Y34541980D02*
X5472419Y34541980D01*
X6424800Y34541980D02*
X6472419Y34446742D01*
X6472419Y34446742D02*
X6472419Y34256266D01*
X6472419Y34256266D02*
X6424800Y34161028D01*
X6424800Y34161028D02*
X6377180Y34113409D01*
X6377180Y34113409D02*
X6281942Y34065790D01*
X6281942Y34065790D02*
X5996228Y34065790D01*
X5996228Y34065790D02*
X5900990Y34113409D01*
X5900990Y34113409D02*
X5853371Y34161028D01*
X5853371Y34161028D02*
X5805752Y34256266D01*
X5805752Y34256266D02*
X5805752Y34446742D01*
X5805752Y34446742D02*
X5853371Y34541980D01*
X5805752Y35446742D02*
X6472419Y35446742D01*
X5805752Y35018171D02*
X6329561Y35018171D01*
X6329561Y35018171D02*
X6424800Y35065790D01*
X6424800Y35065790D02*
X6472419Y35161028D01*
X6472419Y35161028D02*
X6472419Y35303885D01*
X6472419Y35303885D02*
X6424800Y35399123D01*
X6424800Y35399123D02*
X6377180Y35446742D01*
X6472419Y36065790D02*
X6424800Y35970552D01*
X6424800Y35970552D02*
X6329561Y35922933D01*
X6329561Y35922933D02*
X5472419Y35922933D01*
X5805752Y36875314D02*
X6472419Y36875314D01*
X5805752Y36446743D02*
X6329561Y36446743D01*
X6329561Y36446743D02*
X6424800Y36494362D01*
X6424800Y36494362D02*
X6472419Y36589600D01*
X6472419Y36589600D02*
X6472419Y36732457D01*
X6472419Y36732457D02*
X6424800Y36827695D01*
X6424800Y36827695D02*
X6377180Y36875314D01*
X6424800Y37303886D02*
X6472419Y37399124D01*
X6472419Y37399124D02*
X6472419Y37589600D01*
X6472419Y37589600D02*
X6424800Y37684838D01*
X6424800Y37684838D02*
X6329561Y37732457D01*
X6329561Y37732457D02*
X6281942Y37732457D01*
X6281942Y37732457D02*
X6186704Y37684838D01*
X6186704Y37684838D02*
X6139085Y37589600D01*
X6139085Y37589600D02*
X6139085Y37446743D01*
X6139085Y37446743D02*
X6091466Y37351505D01*
X6091466Y37351505D02*
X5996228Y37303886D01*
X5996228Y37303886D02*
X5948609Y37303886D01*
X5948609Y37303886D02*
X5853371Y37351505D01*
X5853371Y37351505D02*
X5805752Y37446743D01*
X5805752Y37446743D02*
X5805752Y37589600D01*
X5805752Y37589600D02*
X5853371Y37684838D01*
X15503884Y46927581D02*
X15503884Y47927581D01*
X15980074Y47594248D02*
X15980074Y46927581D01*
X15980074Y47499010D02*
X16027693Y47546629D01*
X16027693Y47546629D02*
X16122931Y47594248D01*
X16122931Y47594248D02*
X16265788Y47594248D01*
X16265788Y47594248D02*
X16361026Y47546629D01*
X16361026Y47546629D02*
X16408645Y47451391D01*
X16408645Y47451391D02*
X16408645Y46927581D01*
X16741979Y47594248D02*
X17122931Y47594248D01*
X16884836Y47927581D02*
X16884836Y47070439D01*
X16884836Y47070439D02*
X16932455Y46975200D01*
X16932455Y46975200D02*
X17027693Y46927581D01*
X17027693Y46927581D02*
X17122931Y46927581D01*
X17837217Y46975200D02*
X17741979Y46927581D01*
X17741979Y46927581D02*
X17551503Y46927581D01*
X17551503Y46927581D02*
X17456265Y46975200D01*
X17456265Y46975200D02*
X17408646Y47070439D01*
X17408646Y47070439D02*
X17408646Y47451391D01*
X17408646Y47451391D02*
X17456265Y47546629D01*
X17456265Y47546629D02*
X17551503Y47594248D01*
X17551503Y47594248D02*
X17741979Y47594248D01*
X17741979Y47594248D02*
X17837217Y47546629D01*
X17837217Y47546629D02*
X17884836Y47451391D01*
X17884836Y47451391D02*
X17884836Y47356153D01*
X17884836Y47356153D02*
X17408646Y47260915D01*
X18313408Y46927581D02*
X18313408Y47594248D01*
X18313408Y47403772D02*
X18361027Y47499010D01*
X18361027Y47499010D02*
X18408646Y47546629D01*
X18408646Y47546629D02*
X18503884Y47594248D01*
X18503884Y47594248D02*
X18599122Y47594248D01*
X18789599Y47594248D02*
X19170551Y47594248D01*
X18932456Y46927581D02*
X18932456Y47784724D01*
X18932456Y47784724D02*
X18980075Y47879962D01*
X18980075Y47879962D02*
X19075313Y47927581D01*
X19075313Y47927581D02*
X19170551Y47927581D01*
X19932456Y46927581D02*
X19932456Y47451391D01*
X19932456Y47451391D02*
X19884837Y47546629D01*
X19884837Y47546629D02*
X19789599Y47594248D01*
X19789599Y47594248D02*
X19599123Y47594248D01*
X19599123Y47594248D02*
X19503885Y47546629D01*
X19932456Y46975200D02*
X19837218Y46927581D01*
X19837218Y46927581D02*
X19599123Y46927581D01*
X19599123Y46927581D02*
X19503885Y46975200D01*
X19503885Y46975200D02*
X19456266Y47070439D01*
X19456266Y47070439D02*
X19456266Y47165677D01*
X19456266Y47165677D02*
X19503885Y47260915D01*
X19503885Y47260915D02*
X19599123Y47308534D01*
X19599123Y47308534D02*
X19837218Y47308534D01*
X19837218Y47308534D02*
X19932456Y47356153D01*
X20837218Y46975200D02*
X20741980Y46927581D01*
X20741980Y46927581D02*
X20551504Y46927581D01*
X20551504Y46927581D02*
X20456266Y46975200D01*
X20456266Y46975200D02*
X20408647Y47022820D01*
X20408647Y47022820D02*
X20361028Y47118058D01*
X20361028Y47118058D02*
X20361028Y47403772D01*
X20361028Y47403772D02*
X20408647Y47499010D01*
X20408647Y47499010D02*
X20456266Y47546629D01*
X20456266Y47546629D02*
X20551504Y47594248D01*
X20551504Y47594248D02*
X20741980Y47594248D01*
X20741980Y47594248D02*
X20837218Y47546629D01*
X21646742Y46975200D02*
X21551504Y46927581D01*
X21551504Y46927581D02*
X21361028Y46927581D01*
X21361028Y46927581D02*
X21265790Y46975200D01*
X21265790Y46975200D02*
X21218171Y47070439D01*
X21218171Y47070439D02*
X21218171Y47451391D01*
X21218171Y47451391D02*
X21265790Y47546629D01*
X21265790Y47546629D02*
X21361028Y47594248D01*
X21361028Y47594248D02*
X21551504Y47594248D01*
X21551504Y47594248D02*
X21646742Y47546629D01*
X21646742Y47546629D02*
X21694361Y47451391D01*
X21694361Y47451391D02*
X21694361Y47356153D01*
X21694361Y47356153D02*
X21218171Y47260915D01*
X20703884Y8194248D02*
X20703884Y7194248D01*
X20703884Y8146629D02*
X20799122Y8194248D01*
X20799122Y8194248D02*
X20989598Y8194248D01*
X20989598Y8194248D02*
X21084836Y8146629D01*
X21084836Y8146629D02*
X21132455Y8099010D01*
X21132455Y8099010D02*
X21180074Y8003772D01*
X21180074Y8003772D02*
X21180074Y7718058D01*
X21180074Y7718058D02*
X21132455Y7622820D01*
X21132455Y7622820D02*
X21084836Y7575200D01*
X21084836Y7575200D02*
X20989598Y7527581D01*
X20989598Y7527581D02*
X20799122Y7527581D01*
X20799122Y7527581D02*
X20703884Y7575200D01*
X21608646Y7527581D02*
X21608646Y8527581D01*
X22037217Y7527581D02*
X22037217Y8051391D01*
X22037217Y8051391D02*
X21989598Y8146629D01*
X21989598Y8146629D02*
X21894360Y8194248D01*
X21894360Y8194248D02*
X21751503Y8194248D01*
X21751503Y8194248D02*
X21656265Y8146629D01*
X21656265Y8146629D02*
X21608646Y8099010D01*
X22941979Y7527581D02*
X22941979Y8051391D01*
X22941979Y8051391D02*
X22894360Y8146629D01*
X22894360Y8146629D02*
X22799122Y8194248D01*
X22799122Y8194248D02*
X22608646Y8194248D01*
X22608646Y8194248D02*
X22513408Y8146629D01*
X22941979Y7575200D02*
X22846741Y7527581D01*
X22846741Y7527581D02*
X22608646Y7527581D01*
X22608646Y7527581D02*
X22513408Y7575200D01*
X22513408Y7575200D02*
X22465789Y7670439D01*
X22465789Y7670439D02*
X22465789Y7765677D01*
X22465789Y7765677D02*
X22513408Y7860915D01*
X22513408Y7860915D02*
X22608646Y7908534D01*
X22608646Y7908534D02*
X22846741Y7908534D01*
X22846741Y7908534D02*
X22941979Y7956153D01*
X23370551Y7575200D02*
X23465789Y7527581D01*
X23465789Y7527581D02*
X23656265Y7527581D01*
X23656265Y7527581D02*
X23751503Y7575200D01*
X23751503Y7575200D02*
X23799122Y7670439D01*
X23799122Y7670439D02*
X23799122Y7718058D01*
X23799122Y7718058D02*
X23751503Y7813296D01*
X23751503Y7813296D02*
X23656265Y7860915D01*
X23656265Y7860915D02*
X23513408Y7860915D01*
X23513408Y7860915D02*
X23418170Y7908534D01*
X23418170Y7908534D02*
X23370551Y8003772D01*
X23370551Y8003772D02*
X23370551Y8051391D01*
X23370551Y8051391D02*
X23418170Y8146629D01*
X23418170Y8146629D02*
X23513408Y8194248D01*
X23513408Y8194248D02*
X23656265Y8194248D01*
X23656265Y8194248D02*
X23751503Y8146629D01*
X24608646Y7575200D02*
X24513408Y7527581D01*
X24513408Y7527581D02*
X24322932Y7527581D01*
X24322932Y7527581D02*
X24227694Y7575200D01*
X24227694Y7575200D02*
X24180075Y7670439D01*
X24180075Y7670439D02*
X24180075Y8051391D01*
X24180075Y8051391D02*
X24227694Y8146629D01*
X24227694Y8146629D02*
X24322932Y8194248D01*
X24322932Y8194248D02*
X24513408Y8194248D01*
X24513408Y8194248D02*
X24608646Y8146629D01*
X24608646Y8146629D02*
X24656265Y8051391D01*
X24656265Y8051391D02*
X24656265Y7956153D01*
X24656265Y7956153D02*
X24180075Y7860915D01*
X9577180Y26475313D02*
X9624800Y26427694D01*
X9624800Y26427694D02*
X9672419Y26284837D01*
X9672419Y26284837D02*
X9672419Y26189599D01*
X9672419Y26189599D02*
X9624800Y26046742D01*
X9624800Y26046742D02*
X9529561Y25951504D01*
X9529561Y25951504D02*
X9434323Y25903885D01*
X9434323Y25903885D02*
X9243847Y25856266D01*
X9243847Y25856266D02*
X9100990Y25856266D01*
X9100990Y25856266D02*
X8910514Y25903885D01*
X8910514Y25903885D02*
X8815276Y25951504D01*
X8815276Y25951504D02*
X8720038Y26046742D01*
X8720038Y26046742D02*
X8672419Y26189599D01*
X8672419Y26189599D02*
X8672419Y26284837D01*
X8672419Y26284837D02*
X8720038Y26427694D01*
X8720038Y26427694D02*
X8767657Y26475313D01*
X9005752Y27332456D02*
X9672419Y27332456D01*
X9005752Y26903885D02*
X9529561Y26903885D01*
X9529561Y26903885D02*
X9624800Y26951504D01*
X9624800Y26951504D02*
X9672419Y27046742D01*
X9672419Y27046742D02*
X9672419Y27189599D01*
X9672419Y27189599D02*
X9624800Y27284837D01*
X9624800Y27284837D02*
X9577180Y27332456D01*
X9672419Y27808647D02*
X9005752Y27808647D01*
X9196228Y27808647D02*
X9100990Y27856266D01*
X9100990Y27856266D02*
X9053371Y27903885D01*
X9053371Y27903885D02*
X9005752Y27999123D01*
X9005752Y27999123D02*
X9005752Y28094361D01*
X9672419Y28427695D02*
X9005752Y28427695D01*
X9196228Y28427695D02*
X9100990Y28475314D01*
X9100990Y28475314D02*
X9053371Y28522933D01*
X9053371Y28522933D02*
X9005752Y28618171D01*
X9005752Y28618171D02*
X9005752Y28713409D01*
X9624800Y29427695D02*
X9672419Y29332457D01*
X9672419Y29332457D02*
X9672419Y29141981D01*
X9672419Y29141981D02*
X9624800Y29046743D01*
X9624800Y29046743D02*
X9529561Y28999124D01*
X9529561Y28999124D02*
X9148609Y28999124D01*
X9148609Y28999124D02*
X9053371Y29046743D01*
X9053371Y29046743D02*
X9005752Y29141981D01*
X9005752Y29141981D02*
X9005752Y29332457D01*
X9005752Y29332457D02*
X9053371Y29427695D01*
X9053371Y29427695D02*
X9148609Y29475314D01*
X9148609Y29475314D02*
X9243847Y29475314D01*
X9243847Y29475314D02*
X9339085Y28999124D01*
X9005752Y29903886D02*
X9672419Y29903886D01*
X9100990Y29903886D02*
X9053371Y29951505D01*
X9053371Y29951505D02*
X9005752Y30046743D01*
X9005752Y30046743D02*
X9005752Y30189600D01*
X9005752Y30189600D02*
X9053371Y30284838D01*
X9053371Y30284838D02*
X9148609Y30332457D01*
X9148609Y30332457D02*
X9672419Y30332457D01*
X9005752Y30665791D02*
X9005752Y31046743D01*
X8672419Y30808648D02*
X9529561Y30808648D01*
X9529561Y30808648D02*
X9624800Y30856267D01*
X9624800Y30856267D02*
X9672419Y30951505D01*
X9672419Y30951505D02*
X9672419Y31046743D01*
X9624800Y32094363D02*
X9672419Y32237220D01*
X9672419Y32237220D02*
X9672419Y32475315D01*
X9672419Y32475315D02*
X9624800Y32570553D01*
X9624800Y32570553D02*
X9577180Y32618172D01*
X9577180Y32618172D02*
X9481942Y32665791D01*
X9481942Y32665791D02*
X9386704Y32665791D01*
X9386704Y32665791D02*
X9291466Y32618172D01*
X9291466Y32618172D02*
X9243847Y32570553D01*
X9243847Y32570553D02*
X9196228Y32475315D01*
X9196228Y32475315D02*
X9148609Y32284839D01*
X9148609Y32284839D02*
X9100990Y32189601D01*
X9100990Y32189601D02*
X9053371Y32141982D01*
X9053371Y32141982D02*
X8958133Y32094363D01*
X8958133Y32094363D02*
X8862895Y32094363D01*
X8862895Y32094363D02*
X8767657Y32141982D01*
X8767657Y32141982D02*
X8720038Y32189601D01*
X8720038Y32189601D02*
X8672419Y32284839D01*
X8672419Y32284839D02*
X8672419Y32522934D01*
X8672419Y32522934D02*
X8720038Y32665791D01*
X9624800Y33475315D02*
X9672419Y33380077D01*
X9672419Y33380077D02*
X9672419Y33189601D01*
X9672419Y33189601D02*
X9624800Y33094363D01*
X9624800Y33094363D02*
X9529561Y33046744D01*
X9529561Y33046744D02*
X9148609Y33046744D01*
X9148609Y33046744D02*
X9053371Y33094363D01*
X9053371Y33094363D02*
X9005752Y33189601D01*
X9005752Y33189601D02*
X9005752Y33380077D01*
X9005752Y33380077D02*
X9053371Y33475315D01*
X9053371Y33475315D02*
X9148609Y33522934D01*
X9148609Y33522934D02*
X9243847Y33522934D01*
X9243847Y33522934D02*
X9339085Y33046744D01*
X9005752Y33951506D02*
X9672419Y33951506D01*
X9100990Y33951506D02*
X9053371Y33999125D01*
X9053371Y33999125D02*
X9005752Y34094363D01*
X9005752Y34094363D02*
X9005752Y34237220D01*
X9005752Y34237220D02*
X9053371Y34332458D01*
X9053371Y34332458D02*
X9148609Y34380077D01*
X9148609Y34380077D02*
X9672419Y34380077D01*
X9624800Y34808649D02*
X9672419Y34903887D01*
X9672419Y34903887D02*
X9672419Y35094363D01*
X9672419Y35094363D02*
X9624800Y35189601D01*
X9624800Y35189601D02*
X9529561Y35237220D01*
X9529561Y35237220D02*
X9481942Y35237220D01*
X9481942Y35237220D02*
X9386704Y35189601D01*
X9386704Y35189601D02*
X9339085Y35094363D01*
X9339085Y35094363D02*
X9339085Y34951506D01*
X9339085Y34951506D02*
X9291466Y34856268D01*
X9291466Y34856268D02*
X9196228Y34808649D01*
X9196228Y34808649D02*
X9148609Y34808649D01*
X9148609Y34808649D02*
X9053371Y34856268D01*
X9053371Y34856268D02*
X9005752Y34951506D01*
X9005752Y34951506D02*
X9005752Y35094363D01*
X9005752Y35094363D02*
X9053371Y35189601D01*
X9672419Y35808649D02*
X9624800Y35713411D01*
X9624800Y35713411D02*
X9577180Y35665792D01*
X9577180Y35665792D02*
X9481942Y35618173D01*
X9481942Y35618173D02*
X9196228Y35618173D01*
X9196228Y35618173D02*
X9100990Y35665792D01*
X9100990Y35665792D02*
X9053371Y35713411D01*
X9053371Y35713411D02*
X9005752Y35808649D01*
X9005752Y35808649D02*
X9005752Y35951506D01*
X9005752Y35951506D02*
X9053371Y36046744D01*
X9053371Y36046744D02*
X9100990Y36094363D01*
X9100990Y36094363D02*
X9196228Y36141982D01*
X9196228Y36141982D02*
X9481942Y36141982D01*
X9481942Y36141982D02*
X9577180Y36094363D01*
X9577180Y36094363D02*
X9624800Y36046744D01*
X9624800Y36046744D02*
X9672419Y35951506D01*
X9672419Y35951506D02*
X9672419Y35808649D01*
X9672419Y36570554D02*
X9005752Y36570554D01*
X9196228Y36570554D02*
X9100990Y36618173D01*
X9100990Y36618173D02*
X9053371Y36665792D01*
X9053371Y36665792D02*
X9005752Y36761030D01*
X9005752Y36761030D02*
X9005752Y36856268D01*
X9624800Y37141983D02*
X9672419Y37237221D01*
X9672419Y37237221D02*
X9672419Y37427697D01*
X9672419Y37427697D02*
X9624800Y37522935D01*
X9624800Y37522935D02*
X9529561Y37570554D01*
X9529561Y37570554D02*
X9481942Y37570554D01*
X9481942Y37570554D02*
X9386704Y37522935D01*
X9386704Y37522935D02*
X9339085Y37427697D01*
X9339085Y37427697D02*
X9339085Y37284840D01*
X9339085Y37284840D02*
X9291466Y37189602D01*
X9291466Y37189602D02*
X9196228Y37141983D01*
X9196228Y37141983D02*
X9148609Y37141983D01*
X9148609Y37141983D02*
X9053371Y37189602D01*
X9053371Y37189602D02*
X9005752Y37284840D01*
X9005752Y37284840D02*
X9005752Y37427697D01*
X9005752Y37427697D02*
X9053371Y37522935D01*
D11*
X36541039Y54248125D02*
X36541039Y55248125D01*
X36541039Y54771935D02*
X37112467Y54771935D01*
X37112467Y54248125D02*
X37112467Y55248125D01*
X38017229Y54914792D02*
X38017229Y54248125D01*
X37779134Y55295744D02*
X37541039Y54581459D01*
X37541039Y54581459D02*
X38160086Y54581459D01*
X8838095Y54345181D02*
X8838095Y55345181D01*
X8838095Y54868991D02*
X9409523Y54868991D01*
X9409523Y54345181D02*
X9409523Y55345181D01*
X9838095Y55249943D02*
X9885714Y55297562D01*
X9885714Y55297562D02*
X9980952Y55345181D01*
X9980952Y55345181D02*
X10219047Y55345181D01*
X10219047Y55345181D02*
X10314285Y55297562D01*
X10314285Y55297562D02*
X10361904Y55249943D01*
X10361904Y55249943D02*
X10409523Y55154705D01*
X10409523Y55154705D02*
X10409523Y55059467D01*
X10409523Y55059467D02*
X10361904Y54916610D01*
X10361904Y54916610D02*
X9790476Y54345181D01*
X9790476Y54345181D02*
X10409523Y54345181D01*
X8735151Y9648125D02*
X8735151Y10648125D01*
X8735151Y10171935D02*
X9306579Y10171935D01*
X9306579Y9648125D02*
X9306579Y10648125D01*
X9687532Y10648125D02*
X10306579Y10648125D01*
X10306579Y10648125D02*
X9973246Y10267173D01*
X9973246Y10267173D02*
X10116103Y10267173D01*
X10116103Y10267173D02*
X10211341Y10219554D01*
X10211341Y10219554D02*
X10258960Y10171935D01*
X10258960Y10171935D02*
X10306579Y10076697D01*
X10306579Y10076697D02*
X10306579Y9838602D01*
X10306579Y9838602D02*
X10258960Y9743364D01*
X10258960Y9743364D02*
X10211341Y9695744D01*
X10211341Y9695744D02*
X10116103Y9648125D01*
X10116103Y9648125D02*
X9830389Y9648125D01*
X9830389Y9648125D02*
X9735151Y9695744D01*
X9735151Y9695744D02*
X9687532Y9743364D01*
X36488095Y9745181D02*
X36488095Y10745181D01*
X36488095Y10268991D02*
X37059523Y10268991D01*
X37059523Y9745181D02*
X37059523Y10745181D01*
X38059523Y9745181D02*
X37488095Y9745181D01*
X37773809Y9745181D02*
X37773809Y10745181D01*
X37773809Y10745181D02*
X37678571Y10602324D01*
X37678571Y10602324D02*
X37583333Y10507086D01*
X37583333Y10507086D02*
X37488095Y10459467D01*
D10*
X23033333Y25337820D02*
X22985714Y25290200D01*
X22985714Y25290200D02*
X22842857Y25242581D01*
X22842857Y25242581D02*
X22747619Y25242581D01*
X22747619Y25242581D02*
X22604762Y25290200D01*
X22604762Y25290200D02*
X22509524Y25385439D01*
X22509524Y25385439D02*
X22461905Y25480677D01*
X22461905Y25480677D02*
X22414286Y25671153D01*
X22414286Y25671153D02*
X22414286Y25814010D01*
X22414286Y25814010D02*
X22461905Y26004486D01*
X22461905Y26004486D02*
X22509524Y26099724D01*
X22509524Y26099724D02*
X22604762Y26194962D01*
X22604762Y26194962D02*
X22747619Y26242581D01*
X22747619Y26242581D02*
X22842857Y26242581D01*
X22842857Y26242581D02*
X22985714Y26194962D01*
X22985714Y26194962D02*
X23033333Y26147343D01*
X23985714Y25242581D02*
X23414286Y25242581D01*
X23700000Y25242581D02*
X23700000Y26242581D01*
X23700000Y26242581D02*
X23604762Y26099724D01*
X23604762Y26099724D02*
X23509524Y26004486D01*
X23509524Y26004486D02*
X23414286Y25956867D01*
D11*
X22504819Y31738096D02*
X23314342Y31738096D01*
X23314342Y31738096D02*
X23409580Y31785715D01*
X23409580Y31785715D02*
X23457200Y31833334D01*
X23457200Y31833334D02*
X23504819Y31928572D01*
X23504819Y31928572D02*
X23504819Y32119048D01*
X23504819Y32119048D02*
X23457200Y32214286D01*
X23457200Y32214286D02*
X23409580Y32261905D01*
X23409580Y32261905D02*
X23314342Y32309524D01*
X23314342Y32309524D02*
X22504819Y32309524D01*
X23504819Y33309524D02*
X23504819Y32738096D01*
X23504819Y33023810D02*
X22504819Y33023810D01*
X22504819Y33023810D02*
X22647676Y32928572D01*
X22647676Y32928572D02*
X22742914Y32833334D01*
X22742914Y32833334D02*
X22790533Y32738096D01*
X14204819Y36083334D02*
X13728628Y35750001D01*
X14204819Y35511906D02*
X13204819Y35511906D01*
X13204819Y35511906D02*
X13204819Y35892858D01*
X13204819Y35892858D02*
X13252438Y35988096D01*
X13252438Y35988096D02*
X13300057Y36035715D01*
X13300057Y36035715D02*
X13395295Y36083334D01*
X13395295Y36083334D02*
X13538152Y36083334D01*
X13538152Y36083334D02*
X13633390Y36035715D01*
X13633390Y36035715D02*
X13681009Y35988096D01*
X13681009Y35988096D02*
X13728628Y35892858D01*
X13728628Y35892858D02*
X13728628Y35511906D01*
X13204819Y36416668D02*
X13204819Y37083334D01*
X13204819Y37083334D02*
X14204819Y36654763D01*
X31583333Y43745181D02*
X31250000Y44221372D01*
X31011905Y43745181D02*
X31011905Y44745181D01*
X31011905Y44745181D02*
X31392857Y44745181D01*
X31392857Y44745181D02*
X31488095Y44697562D01*
X31488095Y44697562D02*
X31535714Y44649943D01*
X31535714Y44649943D02*
X31583333Y44554705D01*
X31583333Y44554705D02*
X31583333Y44411848D01*
X31583333Y44411848D02*
X31535714Y44316610D01*
X31535714Y44316610D02*
X31488095Y44268991D01*
X31488095Y44268991D02*
X31392857Y44221372D01*
X31392857Y44221372D02*
X31011905Y44221372D01*
X32440476Y44745181D02*
X32250000Y44745181D01*
X32250000Y44745181D02*
X32154762Y44697562D01*
X32154762Y44697562D02*
X32107143Y44649943D01*
X32107143Y44649943D02*
X32011905Y44507086D01*
X32011905Y44507086D02*
X31964286Y44316610D01*
X31964286Y44316610D02*
X31964286Y43935658D01*
X31964286Y43935658D02*
X32011905Y43840420D01*
X32011905Y43840420D02*
X32059524Y43792800D01*
X32059524Y43792800D02*
X32154762Y43745181D01*
X32154762Y43745181D02*
X32345238Y43745181D01*
X32345238Y43745181D02*
X32440476Y43792800D01*
X32440476Y43792800D02*
X32488095Y43840420D01*
X32488095Y43840420D02*
X32535714Y43935658D01*
X32535714Y43935658D02*
X32535714Y44173753D01*
X32535714Y44173753D02*
X32488095Y44268991D01*
X32488095Y44268991D02*
X32440476Y44316610D01*
X32440476Y44316610D02*
X32345238Y44364229D01*
X32345238Y44364229D02*
X32154762Y44364229D01*
X32154762Y44364229D02*
X32059524Y44316610D01*
X32059524Y44316610D02*
X32011905Y44268991D01*
X32011905Y44268991D02*
X31964286Y44173753D01*
X29524819Y32258334D02*
X29048628Y31925001D01*
X29524819Y31686906D02*
X28524819Y31686906D01*
X28524819Y31686906D02*
X28524819Y32067858D01*
X28524819Y32067858D02*
X28572438Y32163096D01*
X28572438Y32163096D02*
X28620057Y32210715D01*
X28620057Y32210715D02*
X28715295Y32258334D01*
X28715295Y32258334D02*
X28858152Y32258334D01*
X28858152Y32258334D02*
X28953390Y32210715D01*
X28953390Y32210715D02*
X29001009Y32163096D01*
X29001009Y32163096D02*
X29048628Y32067858D01*
X29048628Y32067858D02*
X29048628Y31686906D01*
X28524819Y32591668D02*
X28524819Y33210715D01*
X28524819Y33210715D02*
X28905771Y32877382D01*
X28905771Y32877382D02*
X28905771Y33020239D01*
X28905771Y33020239D02*
X28953390Y33115477D01*
X28953390Y33115477D02*
X29001009Y33163096D01*
X29001009Y33163096D02*
X29096247Y33210715D01*
X29096247Y33210715D02*
X29334342Y33210715D01*
X29334342Y33210715D02*
X29429580Y33163096D01*
X29429580Y33163096D02*
X29477200Y33115477D01*
X29477200Y33115477D02*
X29524819Y33020239D01*
X29524819Y33020239D02*
X29524819Y32734525D01*
X29524819Y32734525D02*
X29477200Y32639287D01*
X29477200Y32639287D02*
X29429580Y32591668D01*
X29454819Y34511906D02*
X28454819Y34511906D01*
X28454819Y34511906D02*
X28454819Y34750001D01*
X28454819Y34750001D02*
X28502438Y34892858D01*
X28502438Y34892858D02*
X28597676Y34988096D01*
X28597676Y34988096D02*
X28692914Y35035715D01*
X28692914Y35035715D02*
X28883390Y35083334D01*
X28883390Y35083334D02*
X29026247Y35083334D01*
X29026247Y35083334D02*
X29216723Y35035715D01*
X29216723Y35035715D02*
X29311961Y34988096D01*
X29311961Y34988096D02*
X29407200Y34892858D01*
X29407200Y34892858D02*
X29454819Y34750001D01*
X29454819Y34750001D02*
X29454819Y34511906D01*
X29454819Y36035715D02*
X29454819Y35464287D01*
X29454819Y35750001D02*
X28454819Y35750001D01*
X28454819Y35750001D02*
X28597676Y35654763D01*
X28597676Y35654763D02*
X28692914Y35559525D01*
X28692914Y35559525D02*
X28740533Y35464287D01*
X16253571Y6539491D02*
X15920238Y6539491D01*
X15920238Y6015681D02*
X15920238Y7015681D01*
X15920238Y7015681D02*
X16396428Y7015681D01*
X16777381Y6015681D02*
X16777381Y7015681D01*
X17253571Y6015681D02*
X17253571Y7015681D01*
X17253571Y7015681D02*
X17491666Y7015681D01*
X17491666Y7015681D02*
X17634523Y6968062D01*
X17634523Y6968062D02*
X17729761Y6872824D01*
X17729761Y6872824D02*
X17777380Y6777586D01*
X17777380Y6777586D02*
X17824999Y6587110D01*
X17824999Y6587110D02*
X17824999Y6444253D01*
X17824999Y6444253D02*
X17777380Y6253777D01*
X17777380Y6253777D02*
X17729761Y6158539D01*
X17729761Y6158539D02*
X17634523Y6063300D01*
X17634523Y6063300D02*
X17491666Y6015681D01*
X17491666Y6015681D02*
X17253571Y6015681D01*
X18158333Y7015681D02*
X18777380Y7015681D01*
X18777380Y7015681D02*
X18444047Y6634729D01*
X18444047Y6634729D02*
X18586904Y6634729D01*
X18586904Y6634729D02*
X18682142Y6587110D01*
X18682142Y6587110D02*
X18729761Y6539491D01*
X18729761Y6539491D02*
X18777380Y6444253D01*
X18777380Y6444253D02*
X18777380Y6206158D01*
X18777380Y6206158D02*
X18729761Y6110920D01*
X18729761Y6110920D02*
X18682142Y6063300D01*
X18682142Y6063300D02*
X18586904Y6015681D01*
X18586904Y6015681D02*
X18301190Y6015681D01*
X18301190Y6015681D02*
X18205952Y6063300D01*
X18205952Y6063300D02*
X18158333Y6110920D01*
X38428571Y13664491D02*
X38095238Y13664491D01*
X38095238Y13140681D02*
X38095238Y14140681D01*
X38095238Y14140681D02*
X38571428Y14140681D01*
X38952381Y13140681D02*
X38952381Y14140681D01*
X39428571Y13140681D02*
X39428571Y14140681D01*
X39428571Y14140681D02*
X39666666Y14140681D01*
X39666666Y14140681D02*
X39809523Y14093062D01*
X39809523Y14093062D02*
X39904761Y13997824D01*
X39904761Y13997824D02*
X39952380Y13902586D01*
X39952380Y13902586D02*
X39999999Y13712110D01*
X39999999Y13712110D02*
X39999999Y13569253D01*
X39999999Y13569253D02*
X39952380Y13378777D01*
X39952380Y13378777D02*
X39904761Y13283539D01*
X39904761Y13283539D02*
X39809523Y13188300D01*
X39809523Y13188300D02*
X39666666Y13140681D01*
X39666666Y13140681D02*
X39428571Y13140681D01*
X40380952Y14045443D02*
X40428571Y14093062D01*
X40428571Y14093062D02*
X40523809Y14140681D01*
X40523809Y14140681D02*
X40761904Y14140681D01*
X40761904Y14140681D02*
X40857142Y14093062D01*
X40857142Y14093062D02*
X40904761Y14045443D01*
X40904761Y14045443D02*
X40952380Y13950205D01*
X40952380Y13950205D02*
X40952380Y13854967D01*
X40952380Y13854967D02*
X40904761Y13712110D01*
X40904761Y13712110D02*
X40333333Y13140681D01*
X40333333Y13140681D02*
X40952380Y13140681D01*
X19428571Y50068991D02*
X19095238Y50068991D01*
X19095238Y49545181D02*
X19095238Y50545181D01*
X19095238Y50545181D02*
X19571428Y50545181D01*
X19952381Y49545181D02*
X19952381Y50545181D01*
X20428571Y49545181D02*
X20428571Y50545181D01*
X20428571Y50545181D02*
X20666666Y50545181D01*
X20666666Y50545181D02*
X20809523Y50497562D01*
X20809523Y50497562D02*
X20904761Y50402324D01*
X20904761Y50402324D02*
X20952380Y50307086D01*
X20952380Y50307086D02*
X20999999Y50116610D01*
X20999999Y50116610D02*
X20999999Y49973753D01*
X20999999Y49973753D02*
X20952380Y49783277D01*
X20952380Y49783277D02*
X20904761Y49688039D01*
X20904761Y49688039D02*
X20809523Y49592800D01*
X20809523Y49592800D02*
X20666666Y49545181D01*
X20666666Y49545181D02*
X20428571Y49545181D01*
X21952380Y49545181D02*
X21380952Y49545181D01*
X21666666Y49545181D02*
X21666666Y50545181D01*
X21666666Y50545181D02*
X21571428Y50402324D01*
X21571428Y50402324D02*
X21476190Y50307086D01*
X21476190Y50307086D02*
X21380952Y50259467D01*
X25324819Y41968096D02*
X26134342Y41968096D01*
X26134342Y41968096D02*
X26229580Y42015715D01*
X26229580Y42015715D02*
X26277200Y42063334D01*
X26277200Y42063334D02*
X26324819Y42158572D01*
X26324819Y42158572D02*
X26324819Y42349048D01*
X26324819Y42349048D02*
X26277200Y42444286D01*
X26277200Y42444286D02*
X26229580Y42491905D01*
X26229580Y42491905D02*
X26134342Y42539524D01*
X26134342Y42539524D02*
X25324819Y42539524D01*
X25420057Y42968096D02*
X25372438Y43015715D01*
X25372438Y43015715D02*
X25324819Y43110953D01*
X25324819Y43110953D02*
X25324819Y43349048D01*
X25324819Y43349048D02*
X25372438Y43444286D01*
X25372438Y43444286D02*
X25420057Y43491905D01*
X25420057Y43491905D02*
X25515295Y43539524D01*
X25515295Y43539524D02*
X25610533Y43539524D01*
X25610533Y43539524D02*
X25753390Y43491905D01*
X25753390Y43491905D02*
X26324819Y42920477D01*
X26324819Y42920477D02*
X26324819Y43539524D01*
X24854819Y19033334D02*
X24378628Y18700001D01*
X24854819Y18461906D02*
X23854819Y18461906D01*
X23854819Y18461906D02*
X23854819Y18842858D01*
X23854819Y18842858D02*
X23902438Y18938096D01*
X23902438Y18938096D02*
X23950057Y18985715D01*
X23950057Y18985715D02*
X24045295Y19033334D01*
X24045295Y19033334D02*
X24188152Y19033334D01*
X24188152Y19033334D02*
X24283390Y18985715D01*
X24283390Y18985715D02*
X24331009Y18938096D01*
X24331009Y18938096D02*
X24378628Y18842858D01*
X24378628Y18842858D02*
X24378628Y18461906D01*
X23854819Y19938096D02*
X23854819Y19461906D01*
X23854819Y19461906D02*
X24331009Y19414287D01*
X24331009Y19414287D02*
X24283390Y19461906D01*
X24283390Y19461906D02*
X24235771Y19557144D01*
X24235771Y19557144D02*
X24235771Y19795239D01*
X24235771Y19795239D02*
X24283390Y19890477D01*
X24283390Y19890477D02*
X24331009Y19938096D01*
X24331009Y19938096D02*
X24426247Y19985715D01*
X24426247Y19985715D02*
X24664342Y19985715D01*
X24664342Y19985715D02*
X24759580Y19938096D01*
X24759580Y19938096D02*
X24807200Y19890477D01*
X24807200Y19890477D02*
X24854819Y19795239D01*
X24854819Y19795239D02*
X24854819Y19557144D01*
X24854819Y19557144D02*
X24807200Y19461906D01*
X24807200Y19461906D02*
X24759580Y19414287D01*
X12424819Y18833334D02*
X11948628Y18500001D01*
X12424819Y18261906D02*
X11424819Y18261906D01*
X11424819Y18261906D02*
X11424819Y18642858D01*
X11424819Y18642858D02*
X11472438Y18738096D01*
X11472438Y18738096D02*
X11520057Y18785715D01*
X11520057Y18785715D02*
X11615295Y18833334D01*
X11615295Y18833334D02*
X11758152Y18833334D01*
X11758152Y18833334D02*
X11853390Y18785715D01*
X11853390Y18785715D02*
X11901009Y18738096D01*
X11901009Y18738096D02*
X11948628Y18642858D01*
X11948628Y18642858D02*
X11948628Y18261906D01*
X11758152Y19690477D02*
X12424819Y19690477D01*
X11377200Y19452382D02*
X12091485Y19214287D01*
X12091485Y19214287D02*
X12091485Y19833334D01*
X31433333Y41595181D02*
X31100000Y42071372D01*
X30861905Y41595181D02*
X30861905Y42595181D01*
X30861905Y42595181D02*
X31242857Y42595181D01*
X31242857Y42595181D02*
X31338095Y42547562D01*
X31338095Y42547562D02*
X31385714Y42499943D01*
X31385714Y42499943D02*
X31433333Y42404705D01*
X31433333Y42404705D02*
X31433333Y42261848D01*
X31433333Y42261848D02*
X31385714Y42166610D01*
X31385714Y42166610D02*
X31338095Y42118991D01*
X31338095Y42118991D02*
X31242857Y42071372D01*
X31242857Y42071372D02*
X30861905Y42071372D01*
X31814286Y42499943D02*
X31861905Y42547562D01*
X31861905Y42547562D02*
X31957143Y42595181D01*
X31957143Y42595181D02*
X32195238Y42595181D01*
X32195238Y42595181D02*
X32290476Y42547562D01*
X32290476Y42547562D02*
X32338095Y42499943D01*
X32338095Y42499943D02*
X32385714Y42404705D01*
X32385714Y42404705D02*
X32385714Y42309467D01*
X32385714Y42309467D02*
X32338095Y42166610D01*
X32338095Y42166610D02*
X31766667Y41595181D01*
X31766667Y41595181D02*
X32385714Y41595181D01*
X31433333Y39145181D02*
X31100000Y39621372D01*
X30861905Y39145181D02*
X30861905Y40145181D01*
X30861905Y40145181D02*
X31242857Y40145181D01*
X31242857Y40145181D02*
X31338095Y40097562D01*
X31338095Y40097562D02*
X31385714Y40049943D01*
X31385714Y40049943D02*
X31433333Y39954705D01*
X31433333Y39954705D02*
X31433333Y39811848D01*
X31433333Y39811848D02*
X31385714Y39716610D01*
X31385714Y39716610D02*
X31338095Y39668991D01*
X31338095Y39668991D02*
X31242857Y39621372D01*
X31242857Y39621372D02*
X30861905Y39621372D01*
X32385714Y39145181D02*
X31814286Y39145181D01*
X32100000Y39145181D02*
X32100000Y40145181D01*
X32100000Y40145181D02*
X32004762Y40002324D01*
X32004762Y40002324D02*
X31909524Y39907086D01*
X31909524Y39907086D02*
X31814286Y39859467D01*
X11666666Y33875181D02*
X11666666Y33160896D01*
X11666666Y33160896D02*
X11619047Y33018039D01*
X11619047Y33018039D02*
X11523809Y32922800D01*
X11523809Y32922800D02*
X11380952Y32875181D01*
X11380952Y32875181D02*
X11285714Y32875181D01*
X12666666Y32875181D02*
X12095238Y32875181D01*
X12380952Y32875181D02*
X12380952Y33875181D01*
X12380952Y33875181D02*
X12285714Y33732324D01*
X12285714Y33732324D02*
X12190476Y33637086D01*
X12190476Y33637086D02*
X12095238Y33589467D01*
X25109580Y23083334D02*
X25157200Y23035715D01*
X25157200Y23035715D02*
X25204819Y22892858D01*
X25204819Y22892858D02*
X25204819Y22797620D01*
X25204819Y22797620D02*
X25157200Y22654763D01*
X25157200Y22654763D02*
X25061961Y22559525D01*
X25061961Y22559525D02*
X24966723Y22511906D01*
X24966723Y22511906D02*
X24776247Y22464287D01*
X24776247Y22464287D02*
X24633390Y22464287D01*
X24633390Y22464287D02*
X24442914Y22511906D01*
X24442914Y22511906D02*
X24347676Y22559525D01*
X24347676Y22559525D02*
X24252438Y22654763D01*
X24252438Y22654763D02*
X24204819Y22797620D01*
X24204819Y22797620D02*
X24204819Y22892858D01*
X24204819Y22892858D02*
X24252438Y23035715D01*
X24252438Y23035715D02*
X24300057Y23083334D01*
X24204819Y23940477D02*
X24204819Y23750001D01*
X24204819Y23750001D02*
X24252438Y23654763D01*
X24252438Y23654763D02*
X24300057Y23607144D01*
X24300057Y23607144D02*
X24442914Y23511906D01*
X24442914Y23511906D02*
X24633390Y23464287D01*
X24633390Y23464287D02*
X25014342Y23464287D01*
X25014342Y23464287D02*
X25109580Y23511906D01*
X25109580Y23511906D02*
X25157200Y23559525D01*
X25157200Y23559525D02*
X25204819Y23654763D01*
X25204819Y23654763D02*
X25204819Y23845239D01*
X25204819Y23845239D02*
X25157200Y23940477D01*
X25157200Y23940477D02*
X25109580Y23988096D01*
X25109580Y23988096D02*
X25014342Y24035715D01*
X25014342Y24035715D02*
X24776247Y24035715D01*
X24776247Y24035715D02*
X24681009Y23988096D01*
X24681009Y23988096D02*
X24633390Y23940477D01*
X24633390Y23940477D02*
X24585771Y23845239D01*
X24585771Y23845239D02*
X24585771Y23654763D01*
X24585771Y23654763D02*
X24633390Y23559525D01*
X24633390Y23559525D02*
X24681009Y23511906D01*
X24681009Y23511906D02*
X24776247Y23464287D01*
X37359580Y21833334D02*
X37407200Y21785715D01*
X37407200Y21785715D02*
X37454819Y21642858D01*
X37454819Y21642858D02*
X37454819Y21547620D01*
X37454819Y21547620D02*
X37407200Y21404763D01*
X37407200Y21404763D02*
X37311961Y21309525D01*
X37311961Y21309525D02*
X37216723Y21261906D01*
X37216723Y21261906D02*
X37026247Y21214287D01*
X37026247Y21214287D02*
X36883390Y21214287D01*
X36883390Y21214287D02*
X36692914Y21261906D01*
X36692914Y21261906D02*
X36597676Y21309525D01*
X36597676Y21309525D02*
X36502438Y21404763D01*
X36502438Y21404763D02*
X36454819Y21547620D01*
X36454819Y21547620D02*
X36454819Y21642858D01*
X36454819Y21642858D02*
X36502438Y21785715D01*
X36502438Y21785715D02*
X36550057Y21833334D01*
X36454819Y22738096D02*
X36454819Y22261906D01*
X36454819Y22261906D02*
X36931009Y22214287D01*
X36931009Y22214287D02*
X36883390Y22261906D01*
X36883390Y22261906D02*
X36835771Y22357144D01*
X36835771Y22357144D02*
X36835771Y22595239D01*
X36835771Y22595239D02*
X36883390Y22690477D01*
X36883390Y22690477D02*
X36931009Y22738096D01*
X36931009Y22738096D02*
X37026247Y22785715D01*
X37026247Y22785715D02*
X37264342Y22785715D01*
X37264342Y22785715D02*
X37359580Y22738096D01*
X37359580Y22738096D02*
X37407200Y22690477D01*
X37407200Y22690477D02*
X37454819Y22595239D01*
X37454819Y22595239D02*
X37454819Y22357144D01*
X37454819Y22357144D02*
X37407200Y22261906D01*
X37407200Y22261906D02*
X37359580Y22214287D01*
X32859580Y37333334D02*
X32907200Y37285715D01*
X32907200Y37285715D02*
X32954819Y37142858D01*
X32954819Y37142858D02*
X32954819Y37047620D01*
X32954819Y37047620D02*
X32907200Y36904763D01*
X32907200Y36904763D02*
X32811961Y36809525D01*
X32811961Y36809525D02*
X32716723Y36761906D01*
X32716723Y36761906D02*
X32526247Y36714287D01*
X32526247Y36714287D02*
X32383390Y36714287D01*
X32383390Y36714287D02*
X32192914Y36761906D01*
X32192914Y36761906D02*
X32097676Y36809525D01*
X32097676Y36809525D02*
X32002438Y36904763D01*
X32002438Y36904763D02*
X31954819Y37047620D01*
X31954819Y37047620D02*
X31954819Y37142858D01*
X31954819Y37142858D02*
X32002438Y37285715D01*
X32002438Y37285715D02*
X32050057Y37333334D01*
X32288152Y38190477D02*
X32954819Y38190477D01*
X31907200Y37952382D02*
X32621485Y37714287D01*
X32621485Y37714287D02*
X32621485Y38333334D01*
X15609580Y30083334D02*
X15657200Y30035715D01*
X15657200Y30035715D02*
X15704819Y29892858D01*
X15704819Y29892858D02*
X15704819Y29797620D01*
X15704819Y29797620D02*
X15657200Y29654763D01*
X15657200Y29654763D02*
X15561961Y29559525D01*
X15561961Y29559525D02*
X15466723Y29511906D01*
X15466723Y29511906D02*
X15276247Y29464287D01*
X15276247Y29464287D02*
X15133390Y29464287D01*
X15133390Y29464287D02*
X14942914Y29511906D01*
X14942914Y29511906D02*
X14847676Y29559525D01*
X14847676Y29559525D02*
X14752438Y29654763D01*
X14752438Y29654763D02*
X14704819Y29797620D01*
X14704819Y29797620D02*
X14704819Y29892858D01*
X14704819Y29892858D02*
X14752438Y30035715D01*
X14752438Y30035715D02*
X14800057Y30083334D01*
X14704819Y30416668D02*
X14704819Y31035715D01*
X14704819Y31035715D02*
X15085771Y30702382D01*
X15085771Y30702382D02*
X15085771Y30845239D01*
X15085771Y30845239D02*
X15133390Y30940477D01*
X15133390Y30940477D02*
X15181009Y30988096D01*
X15181009Y30988096D02*
X15276247Y31035715D01*
X15276247Y31035715D02*
X15514342Y31035715D01*
X15514342Y31035715D02*
X15609580Y30988096D01*
X15609580Y30988096D02*
X15657200Y30940477D01*
X15657200Y30940477D02*
X15704819Y30845239D01*
X15704819Y30845239D02*
X15704819Y30559525D01*
X15704819Y30559525D02*
X15657200Y30464287D01*
X15657200Y30464287D02*
X15609580Y30416668D01*
X15609580Y26583334D02*
X15657200Y26535715D01*
X15657200Y26535715D02*
X15704819Y26392858D01*
X15704819Y26392858D02*
X15704819Y26297620D01*
X15704819Y26297620D02*
X15657200Y26154763D01*
X15657200Y26154763D02*
X15561961Y26059525D01*
X15561961Y26059525D02*
X15466723Y26011906D01*
X15466723Y26011906D02*
X15276247Y25964287D01*
X15276247Y25964287D02*
X15133390Y25964287D01*
X15133390Y25964287D02*
X14942914Y26011906D01*
X14942914Y26011906D02*
X14847676Y26059525D01*
X14847676Y26059525D02*
X14752438Y26154763D01*
X14752438Y26154763D02*
X14704819Y26297620D01*
X14704819Y26297620D02*
X14704819Y26392858D01*
X14704819Y26392858D02*
X14752438Y26535715D01*
X14752438Y26535715D02*
X14800057Y26583334D01*
X14800057Y26964287D02*
X14752438Y27011906D01*
X14752438Y27011906D02*
X14704819Y27107144D01*
X14704819Y27107144D02*
X14704819Y27345239D01*
X14704819Y27345239D02*
X14752438Y27440477D01*
X14752438Y27440477D02*
X14800057Y27488096D01*
X14800057Y27488096D02*
X14895295Y27535715D01*
X14895295Y27535715D02*
X14990533Y27535715D01*
X14990533Y27535715D02*
X15133390Y27488096D01*
X15133390Y27488096D02*
X15704819Y26916668D01*
X15704819Y26916668D02*
X15704819Y27535715D01*
D10*
%TO.C,C1*%
X30700000Y30700000D02*
X30700000Y25700000D01*
X30700000Y30700000D02*
X31950000Y31950000D01*
X30700000Y25700000D02*
X31950000Y24450000D01*
X31950000Y31950000D02*
X39450000Y31950000D01*
X31950000Y24450000D02*
X39450000Y24450000D01*
X39450000Y24450000D02*
X40200000Y24450000D01*
X40200000Y24450000D02*
X41200000Y25700000D01*
X41200000Y30700000D02*
X39450000Y31950000D01*
X41200000Y30700000D02*
X41200000Y25700000D01*
D12*
%TO.C,U1*%
X18150000Y29099999D02*
X18150000Y34200002D01*
X27950000Y30800001D02*
X27950000Y34200002D01*
D13*
%TO.C,R7*%
X15772500Y36487258D02*
X15772500Y36012742D01*
X14727500Y36487258D02*
X14727500Y36012742D01*
D10*
%TO.C,J3*%
X27500000Y11250000D02*
X20000000Y11250000D01*
X27500000Y13750000D02*
X27500000Y11250000D01*
X25000000Y13750000D02*
X25000000Y11250000D01*
X20000000Y13750000D02*
X27500000Y13750000D01*
X20000000Y13750000D02*
X20000000Y11250000D01*
D13*
%TO.C,R6*%
X28412742Y44822500D02*
X28887258Y44822500D01*
X28412742Y43777500D02*
X28887258Y43777500D01*
%TO.C,R3*%
X29977500Y32187742D02*
X29977500Y32662258D01*
X31022500Y32187742D02*
X31022500Y32662258D01*
%TO.C,D1*%
X32735000Y34515000D02*
X32735000Y35985000D01*
X32735000Y35985000D02*
X30450000Y35985000D01*
X30450000Y34515000D02*
X32735000Y34515000D01*
%TO.C,U4*%
X29190000Y18750000D02*
X29190000Y16800000D01*
X29190000Y18750000D02*
X29190000Y20700000D01*
X34310000Y18750000D02*
X34310000Y16800000D01*
X34310000Y18750000D02*
X34310000Y20700000D01*
X29285000Y16050000D02*
X28955000Y15810000D01*
X28955000Y16290000D01*
X29285000Y16050000D01*
G36*
X29285000Y16050000D02*
G01*
X28955000Y15810000D01*
X28955000Y16290000D01*
X29285000Y16050000D01*
G37*
%TO.C,U3*%
X16940000Y18750000D02*
X16940000Y16800000D01*
X16940000Y18750000D02*
X16940000Y20700000D01*
X22060000Y18750000D02*
X22060000Y16800000D01*
X22060000Y18750000D02*
X22060000Y20700000D01*
X17035000Y16050000D02*
X16705000Y15810000D01*
X16705000Y16290000D01*
X17035000Y16050000D01*
G36*
X17035000Y16050000D02*
G01*
X16705000Y15810000D01*
X16705000Y16290000D01*
X17035000Y16050000D01*
G37*
%TO.C,U2*%
X24870000Y45330000D02*
X24870000Y44000000D01*
X23540000Y45330000D02*
X24870000Y45330000D01*
X22270000Y45330000D02*
X12050000Y45330000D01*
X22270000Y45330000D02*
X22270000Y42730000D01*
X12050000Y45330000D02*
X12050000Y40130000D01*
X24870000Y42730000D02*
X24870000Y40130000D01*
X22270000Y42730000D02*
X24870000Y42730000D01*
X24870000Y40130000D02*
X12050000Y40130000D01*
%TO.C,R5*%
X25390000Y17472936D02*
X25390000Y20527064D01*
X28110000Y17472936D02*
X28110000Y20527064D01*
%TO.C,R4*%
X12890000Y17472936D02*
X12890000Y20527064D01*
X15610000Y17472936D02*
X15610000Y20527064D01*
%TO.C,R2*%
X28887258Y41477500D02*
X28412742Y41477500D01*
X28887258Y42522500D02*
X28412742Y42522500D01*
%TO.C,R1*%
X28887258Y39077500D02*
X28412742Y39077500D01*
X28887258Y40122500D02*
X28412742Y40122500D01*
%TO.C,J1*%
X10670000Y32330000D02*
X12000000Y32330000D01*
X10670000Y31000000D02*
X10670000Y32330000D01*
X10670000Y29730000D02*
X10670000Y27130000D01*
X10670000Y29730000D02*
X13330000Y29730000D01*
X10670000Y27130000D02*
X13330000Y27130000D01*
X13330000Y29730000D02*
X13330000Y27130000D01*
%TO.C,C6*%
X22740000Y22359420D02*
X22740000Y22640580D01*
X23760000Y22359420D02*
X23760000Y22640580D01*
%TO.C,C5*%
X34990000Y21859420D02*
X34990000Y22140580D01*
X36010000Y21859420D02*
X36010000Y22140580D01*
%TO.C,C4*%
X30140580Y36990000D02*
X29859420Y36990000D01*
X30140580Y38010000D02*
X29859420Y38010000D01*
%TO.C,C3*%
X16240000Y30415580D02*
X16240000Y30134420D01*
X17260000Y30415580D02*
X17260000Y30134420D01*
%TO.C,C2*%
X17260000Y26640580D02*
X17260000Y26359420D01*
X16240000Y26640580D02*
X16240000Y26359420D01*
%TD*%
M02*
